# Blender 5.1.2
# www.blender.org
mtllib tree040.mtl
o tree040
v 1.494924 0.000000 1.443503
v -1.333503 0.000000 -1.384924
v 1.919188 4.993049 1.019239
v -0.909239 4.993049 -1.809188
v 1.459569 0.000000 -1.505132
v -1.347645 0.000000 1.302082
v 1.954544 4.993049 -1.010157
v -0.852671 4.993049 1.797056
v 1.473711 0.000000 -1.490990
v -1.333503 0.000000 1.316224
v 1.968686 4.993049 -0.996015
v -0.838529 4.993049 1.811198
v 1.480782 0.000000 1.457645
v -1.347645 0.000000 -1.370782
v 1.905046 4.993049 1.033381
v -0.923381 4.993049 -1.795047
v 1.494924 1.997219 1.443503
v -1.333503 1.997219 -1.384924
v 1.480782 1.997219 1.457645
v -1.347645 1.997219 -1.370782
v 1.473711 1.997220 -1.490990
v -1.333503 1.997219 1.316224
v 1.459569 1.997220 -1.505132
v -1.347645 1.997219 1.302082
vn 0.6933 -0.1964 -0.6933
vn -0.6886 0.2275 -0.6886
vn 0.6886 -0.2275 0.6886
vn -0.6933 0.1964 0.6933
vn 0.7071 -0.0000 -0.7071
vn -0.7071 -0.0000 0.7071
vn 0.7071 -0.0000 0.7071
vn -0.7071 -0.0000 -0.7071
vt 0.007812 0.401563
vt 0.992188 0.401563
vt 0.992188 0.992188
vt 0.007812 0.992188
vt 0.007812 0.401562
vt 0.992188 0.401563
vt 0.992187 0.401562
vt 0.007812 0.007812
vt 0.992188 0.007812
s 0
usemtl tree40
f 17/1/1 18/2/1 4/3/1 3/4/1
f 23/5/2 24/6/2 8/3/2 7/4/2
f 21/1/3 11/4/3 12/3/3 22/7/3
f 19/5/4 15/4/4 16/3/4 20/6/4
f 1/8/5 2/9/5 18/2/5 17/1/5
f 13/8/6 19/5/6 20/6/6 14/9/6
f 9/8/7 21/1/7 22/7/7 10/9/7
f 5/8/8 6/9/8 24/6/8 23/5/8
o tree040_trunk
v 0.064853 -0.100000 0.000000
v 0.023357 2.100000 -0.030000
v -0.020000 -0.100000 0.084853
v -0.040000 2.092414 0.032901
v -0.020000 -0.100000 -0.084853
v -0.040000 2.107587 -0.092901
v -0.104853 -0.100000 -0.000000
v -0.103357 2.100000 -0.030000
v 0.230711 2.762002 -0.051491
v 0.028951 1.010000 -0.020000
v -0.035000 1.006847 0.043761
v -0.098951 1.010000 -0.020000
v -0.035000 1.013153 -0.083761
vn 0.8247 -0.5655 0.0068
vn 0.9872 -0.1594 -0.0040
vn 0.0048 -0.5632 0.8263
vn -0.0650 0.0875 0.9940
vn 0.0051 -0.5768 -0.8169
vn -0.0929 0.0658 -0.9935
vn -0.8177 -0.5756 0.0067
vn -0.9777 0.2095 0.0125
vn 0.3767 0.9259 -0.0293
vn 0.9998 0.0188 -0.0018
vn -0.0023 0.0238 0.9997
vn -1.0000 0.0006 -0.0020
vn -0.0018 -0.0040 -1.0000
vt 0.084521 0.155289
vt 0.085727 0.086506
vt 0.095268 0.087410
vt 0.096137 0.155808
vt 0.065480 0.155546
vt 0.073890 0.086351
vt 0.083315 0.084618
vt 0.077006 0.154016
vt 0.098653 0.155541
vt 0.100300 0.088075
vt 0.109849 0.087263
vt 0.110273 0.155135
vt 0.037143 0.154091
vt 0.030842 0.084509
vt 0.040267 0.086242
vt 0.048669 0.155621
vt 0.124388 0.038691
vt 0.110697 0.038691
vt 0.110697 0.025000
vt 0.124388 0.025000
vt 0.057071 0.025000
vt 0.099094 0.025000
vt 0.097006 0.025000
vt 0.043444 0.223672
vt 0.057071 0.225000
vt 0.097006 0.223007
vt 0.110697 0.223007
vt 0.057071 0.224741
vt 0.070697 0.223413
vt 0.083315 0.224072
vt 0.097006 0.224206
s 1
usemtl tree40
f 34/10/18 26/11/10 28/12/12 35/13/19
f 35/14/19 28/15/12 32/16/16 36/17/20
f 36/18/20 32/19/16 30/20/14 37/21/21
f 37/22/21 30/23/14 26/24/10 34/25/18
f 27/26/11 31/27/15 29/28/13 25/29/9
f 26/24/10 30/23/14 33/30/17
f 32/16/16 28/15/12 33/30/17
f 30/20/14 32/19/16 33/31/17
f 28/12/12 26/11/10 33/32/17
f 29/33/13 37/22/21 34/25/18 25/34/9
f 31/35/15 36/18/20 37/21/21 29/36/13
f 27/37/11 35/14/19 36/17/20 31/38/15
f 25/39/9 34/10/18 35/13/19 27/40/11
