# Blender 5.1.2
# www.blender.org
mtllib tree050.mtl
o tree050
v -0.728956 0.000000 0.741826
v 1.201445 0.000000 -1.188576
v -0.728956 2.723674 0.741826
v 1.201445 2.723674 -1.188576
v 0.741826 0.000000 0.728957
v -1.188576 0.000000 -1.201445
v 0.741826 2.723674 0.728956
v -1.188576 2.723674 -1.201445
v 0.728957 0.000000 0.741826
v -1.201445 0.000000 -1.188576
v 0.728956 2.723674 0.741826
v -1.201445 2.723674 -1.188576
v -0.741826 0.000000 0.728956
v 1.188576 0.000000 -1.201445
v -0.741826 2.723674 0.728956
v 1.188576 2.723674 -1.201445
vn 0.7071 -0.0000 0.7071
vn 0.7071 -0.0000 -0.7071
vn -0.7071 -0.0000 0.7071
vn -0.7071 -0.0000 -0.7071
vt 0.007812 0.007812
vt 0.992188 0.007812
vt 0.992188 0.992188
vt 0.007812 0.992188
s 0
usemtl tree50
f 1/1/1 2/2/1 4/3/1 3/4/1
f 5/1/2 6/2/2 8/3/2 7/4/2
f 9/1/3 11/4/3 12/3/3 10/2/3
f 13/1/4 15/4/4 16/3/4 14/2/4
o tree050_trunk
v 0.145355 -0.100000 0.145355
v 0.249050 1.490000 -0.090361
v -0.074645 -0.100000 0.145355
v -0.331105 1.616739 -0.135586
v 0.110000 -0.100000 -0.039289
v 0.203826 1.343262 -0.670516
v -0.074645 -0.100000 -0.074645
v -0.277334 1.280000 -0.616745
v -0.000453 1.762002 -0.621801
v 0.138338 0.450000 0.110054
v -0.144989 0.440107 0.109633
v -0.145409 0.450000 -0.173693
v 0.137918 0.459893 -0.173273
v 0.216886 1.171000 -0.029187
v -0.215094 1.256011 -0.040171
v -0.240221 1.151000 -0.486294
v 0.205902 1.085990 -0.461168
vn 0.6076 -0.5383 0.5840
vn 0.6960 0.4595 0.5518
vn -0.5343 -0.5906 0.6048
vn -0.6922 0.5514 0.4657
vn 0.5550 -0.6747 -0.4867
vn 0.6254 -0.1103 -0.7724
vn -0.5256 -0.6437 -0.5563
vn -0.6870 -0.2380 -0.6866
vn 0.0720 0.8425 -0.5339
vn 0.6960 0.0506 0.7163
vn -0.6924 0.0123 0.7214
vn -0.7152 -0.2976 -0.6324
vn 0.7153 -0.2630 -0.6474
vn 0.7189 0.0814 0.6903
vn -0.6505 0.0355 0.7587
vn -0.7125 -0.5092 -0.4828
vn 0.7182 -0.4074 -0.5641
vt 0.085365 0.107141
vt 0.085727 0.086506
vt 0.095268 0.087410
vt 0.095528 0.107929
vt 0.071367 0.107110
vt 0.073890 0.086351
vt 0.083315 0.084618
vt 0.081423 0.105437
vt 0.099806 0.108315
vt 0.100300 0.088075
vt 0.109849 0.087263
vt 0.109976 0.107624
vt 0.032732 0.105383
vt 0.030842 0.084509
vt 0.040267 0.086242
vt 0.042788 0.107056
vt 0.124388 0.038691
vt 0.110697 0.038691
vt 0.110697 0.025000
vt 0.124388 0.025000
vt 0.057071 0.025000
vt 0.099094 0.025000
vt 0.097006 0.025000
vt 0.043444 0.223672
vt 0.037143 0.154091
vt 0.048669 0.155621
vt 0.057071 0.225000
vt 0.097006 0.223007
vt 0.098653 0.155541
vt 0.110273 0.155135
vt 0.110697 0.223007
vt 0.057071 0.224741
vt 0.065480 0.155546
vt 0.077006 0.154016
vt 0.070697 0.223413
vt 0.083315 0.224072
vt 0.084521 0.155289
vt 0.096137 0.155808
vt 0.097006 0.224206
s 1
usemtl tree50
f 30/5/18 18/6/6 20/7/8 31/8/19
f 31/9/19 20/10/8 24/11/12 32/12/20
f 32/13/20 24/14/12 22/15/10 33/16/21
f 33/17/21 22/18/10 18/19/6 30/20/18
f 19/21/7 23/22/11 21/23/9 17/24/5
f 18/19/6 22/18/10 25/25/13
f 24/11/12 20/10/8 25/25/13
f 22/15/10 24/14/12 25/26/13
f 20/7/8 18/6/6 25/27/13
f 21/28/9 29/29/17 26/30/14 17/31/5
f 23/32/11 28/33/16 29/34/17 21/35/9
f 19/36/7 27/37/15 28/38/16 23/39/11
f 17/40/5 26/41/14 27/42/15 19/43/7
f 29/29/17 33/17/21 30/20/18 26/30/14
f 28/33/16 32/13/20 33/16/21 29/34/17
f 27/37/15 31/9/19 32/12/20 28/38/16
f 26/41/14 30/5/18 31/8/19 27/42/15
