# Blender 5.1.2
# www.blender.org
mtllib tree034.mtl
o tree034
v -1.053589 0.000000 1.067731
v 1.067731 0.000000 -1.053589
v -1.053589 4.993049 1.067731
v 1.067731 4.993049 -1.053589
v 1.046518 0.000000 1.032376
v -1.053589 0.000000 -1.067731
v 1.046518 4.993049 1.032376
v -1.053589 4.993049 -1.067731
v 1.032376 0.000000 1.046518
v -1.067731 0.000000 -1.053589
v 1.032376 4.993049 1.046518
v -1.067731 4.993049 -1.053589
v -1.067731 0.000000 1.053589
v 1.053589 0.000000 -1.067731
v -1.067731 4.993049 1.053589
v 1.053589 4.993049 -1.067731
vn 0.7071 -0.0000 0.7071
vn 0.7071 -0.0000 -0.7071
vn -0.7071 -0.0000 0.7071
vn -0.7071 -0.0000 -0.7071
vt 0.156250 0.007812
vt 0.828125 0.007812
vt 0.828125 0.992188
vt 0.156250 0.992188
s 0
usemtl tree34
f 1/1/1 2/2/1 4/3/1 3/4/1
f 5/1/2 6/2/2 8/3/2 7/4/2
f 9/1/3 11/4/3 12/3/3 10/2/3
f 13/1/4 15/4/4 16/3/4 14/2/4
o tree034_trunk
v 0.028787 -0.100000 0.028787
v 0.020929 1.700000 -0.007355
v -0.071213 -0.100000 0.028787
v -0.034870 1.695258 -0.007557
v 0.028787 -0.100000 -0.071213
v 0.020727 1.704741 -0.063154
v -0.071213 -0.100000 -0.071213
v -0.035071 1.700000 -0.063355
v -0.021666 2.562002 0.049951
v 0.023393 0.850000 -0.004891
v -0.044506 0.847629 -0.004992
v -0.044607 0.850000 -0.072891
v 0.023293 0.852371 -0.072790
vn 0.5770 -0.5667 0.5881
vn 0.7204 -0.0046 0.6936
vn -0.5844 -0.5603 0.5870
vn -0.7142 -0.0113 0.6998
vn 0.5794 -0.5761 -0.5766
vn 0.6968 0.0708 -0.7138
vn -0.5862 -0.5706 -0.5751
vn -0.6963 0.0575 -0.7154
vn -0.0170 0.9950 0.0984
vn 0.7103 0.0165 0.7037
vn -0.7086 0.0281 0.7051
vn -0.7039 0.0170 -0.7101
vn 0.7053 0.0065 -0.7089
vt 0.084521 0.155289
vt 0.085727 0.086506
vt 0.095268 0.087410
vt 0.096137 0.155808
vt 0.065480 0.155546
vt 0.073890 0.086351
vt 0.083315 0.084618
vt 0.077006 0.154016
vt 0.098653 0.155541
vt 0.100300 0.088075
vt 0.109849 0.087263
vt 0.110273 0.155135
vt 0.037143 0.154091
vt 0.030842 0.084509
vt 0.040267 0.086242
vt 0.048669 0.155621
vt 0.124388 0.038691
vt 0.110697 0.038691
vt 0.110697 0.025000
vt 0.124388 0.025000
vt 0.057071 0.025000
vt 0.099094 0.025000
vt 0.097006 0.025000
vt 0.043444 0.223672
vt 0.057071 0.225000
vt 0.097006 0.223007
vt 0.110697 0.223007
vt 0.057071 0.224741
vt 0.070697 0.223413
vt 0.083315 0.224072
vt 0.097006 0.224206
s 1
usemtl tree34
f 26/5/14 18/6/6 20/7/8 27/8/15
f 27/9/15 20/10/8 24/11/12 28/12/16
f 28/13/16 24/14/12 22/15/10 29/16/17
f 29/17/17 22/18/10 18/19/6 26/20/14
f 19/21/7 23/22/11 21/23/9 17/24/5
f 18/19/6 22/18/10 25/25/13
f 24/11/12 20/10/8 25/25/13
f 22/15/10 24/14/12 25/26/13
f 20/7/8 18/6/6 25/27/13
f 21/28/9 29/17/17 26/20/14 17/29/5
f 23/30/11 28/13/16 29/16/17 21/31/9
f 19/32/7 27/9/15 28/12/16 23/33/11
f 17/34/5 26/5/14 27/8/15 19/35/7
