# Blender 5.1.2
# www.blender.org
mtllib tree098.mtl
o tree098
v -1.691400 0.000000 1.709784
v 1.066317 0.000000 -1.047932
v -1.691400 3.900000 1.709784
v 1.066317 3.900000 -1.047932
v 1.709784 0.000000 1.691400
v -1.047932 0.000000 -1.066317
v 1.709784 3.900000 1.691400
v -1.047932 3.900000 -1.066317
v 1.691400 0.000000 1.709784
v -1.066317 0.000000 -1.047932
v 1.691400 3.900000 1.709784
v -1.066317 3.900000 -1.047932
v -1.709784 0.000000 1.691400
v 1.047933 0.000000 -1.066317
v -1.709784 3.900000 1.691400
v 1.047933 3.900000 -1.066317
vn 0.7071 -0.0000 0.7071
vn 0.7071 -0.0000 -0.7071
vn -0.7071 -0.0000 0.7071
vn -0.7071 -0.0000 -0.7071
vt 0.007812 0.007812
vt 0.992188 0.007812
vt 0.992188 0.992188
vt 0.007812 0.992188
s 0
usemtl tree98
f 1/1/1 2/2/1 4/3/1 3/4/1
f 5/1/2 6/2/2 8/3/2 7/4/2
f 9/1/3 11/4/3 12/3/3 10/2/3
f 13/1/4 15/4/4 16/3/4 14/2/4
o tree098_trunk
v 0.107071 -0.100000 0.107071
v 0.028923 1.045534 0.204945
v -0.092929 -0.100000 0.107071
v -0.046258 1.039145 0.204674
v 0.107071 -0.100000 -0.092929
v 0.028652 1.051922 0.129764
v -0.092929 -0.100000 -0.092929
v -0.046530 1.045534 0.129492
v -0.042268 1.634769 0.186541
v 0.075662 0.450000 0.132231
v -0.089091 0.444248 0.131987
v -0.089336 0.450000 -0.032767
v 0.075418 0.455752 -0.032523
vn 0.5978 -0.5734 0.5603
vn 0.6916 0.0353 0.7214
vn -0.5818 -0.5872 0.5627
vn -0.6816 -0.0105 0.7317
vn 0.5885 -0.5339 -0.6071
vn 0.7202 0.1944 -0.6660
vn -0.5743 -0.5461 -0.6099
vn -0.7211 0.1579 -0.6746
vn -0.0568 0.9978 0.0330
vn 0.7187 -0.0090 0.6953
vn -0.7215 -0.0278 0.6919
vn -0.6974 0.1548 -0.6997
vn 0.6844 0.1786 -0.7068
vt 0.084521 0.155289
vt 0.085727 0.086506
vt 0.095268 0.087410
vt 0.096137 0.155808
vt 0.065480 0.155546
vt 0.073890 0.086351
vt 0.083315 0.084618
vt 0.077006 0.154016
vt 0.098653 0.155541
vt 0.100300 0.088075
vt 0.109849 0.087263
vt 0.110273 0.155135
vt 0.037143 0.154091
vt 0.030842 0.084509
vt 0.040267 0.086242
vt 0.048669 0.155621
vt 0.124388 0.038691
vt 0.110697 0.038691
vt 0.110697 0.025000
vt 0.124388 0.025000
vt 0.057071 0.025000
vt 0.099094 0.025000
vt 0.097006 0.025000
vt 0.043444 0.223672
vt 0.057071 0.225000
vt 0.097006 0.223007
vt 0.110697 0.223007
vt 0.057071 0.224741
vt 0.070697 0.223413
vt 0.083315 0.224072
vt 0.097006 0.224206
s 1
usemtl tree98
f 26/5/14 18/6/6 20/7/8 27/8/15
f 27/9/15 20/10/8 24/11/12 28/12/16
f 28/13/16 24/14/12 22/15/10 29/16/17
f 29/17/17 22/18/10 18/19/6 26/20/14
f 19/21/7 23/22/11 21/23/9 17/24/5
f 18/19/6 22/18/10 25/25/13
f 24/11/12 20/10/8 25/25/13
f 22/15/10 24/14/12 25/26/13
f 20/7/8 18/6/6 25/27/13
f 21/28/9 29/17/17 26/20/14 17/29/5
f 23/30/11 28/13/16 29/16/17 21/31/9
f 19/32/7 27/9/15 28/12/16 23/33/11
f 17/34/5 26/5/14 27/8/15 19/35/7
