# Blender 5.1.2
# www.blender.org
mtllib tree073.mtl
o tree073
v -1.093894 0.000000 1.112279
v 1.296127 0.000000 -1.277742
v -1.093894 3.250000 1.112279
v 1.296127 3.250000 -1.277742
v 1.112279 0.000000 1.093894
v -1.277742 0.000000 -1.296127
v 1.112279 3.250000 1.093894
v -1.277742 3.250000 -1.296127
v 1.093894 0.000000 1.112279
v -1.296127 0.000000 -1.277742
v 1.093894 3.250000 1.112279
v -1.296127 3.250000 -1.277742
v -1.112279 0.000000 1.093894
v 1.277742 0.000000 -1.296127
v -1.112279 3.250000 1.093894
v 1.277742 3.250000 -1.296127
vn 0.7071 -0.0000 0.7071
vn 0.7071 -0.0000 -0.7071
vn -0.7071 -0.0000 0.7071
vn -0.7071 -0.0000 -0.7071
vt 0.007812 0.007812
vt 0.992188 0.007812
vt 0.992188 0.992188
vt 0.007812 0.992188
s 0
usemtl tree73
f 1/1/1 2/2/1 4/3/1 3/4/1
f 5/1/2 6/2/2 8/3/2 7/4/2
f 9/1/3 11/4/3 12/3/3 10/2/3
f 13/1/4 15/4/4 16/3/4 14/2/4
o tree073_trunk
v 0.073611 -0.100000 0.073611
v 0.039581 1.100000 -0.121775
v -0.105960 -0.100000 0.073611
v -0.025627 1.099096 -0.121781
v 0.073611 -0.100000 -0.105960
v 0.039575 1.100904 -0.186983
v -0.105960 -0.100000 -0.105960
v -0.025633 1.100000 -0.186989
v -0.014400 1.662002 0.006271
v 0.063018 0.450000 0.063797
v -0.060608 0.445684 0.063614
v -0.060791 0.450000 -0.060012
v 0.062835 0.454316 -0.059829
vn 0.5822 -0.5677 0.5820
vn 0.7696 0.0726 0.6344
vn -0.6016 -0.5502 0.5791
vn -0.7633 0.0509 0.6441
vn 0.5787 -0.5501 -0.6021
vn 0.6577 0.0876 -0.7481
vn -0.5982 -0.5341 -0.5973
vn -0.6479 0.0706 -0.7585
vn -0.0364 0.9611 0.2737
vn 0.6776 0.1264 0.7245
vn -0.6716 0.1486 0.7258
vn -0.7357 0.0185 -0.6771
vn 0.7424 -0.0166 -0.6697
vt 0.084521 0.155289
vt 0.085727 0.086506
vt 0.095268 0.087410
vt 0.096137 0.155808
vt 0.065480 0.155546
vt 0.073890 0.086351
vt 0.083315 0.084618
vt 0.077006 0.154016
vt 0.098653 0.155541
vt 0.100300 0.088075
vt 0.109849 0.087263
vt 0.110273 0.155135
vt 0.037143 0.154091
vt 0.030842 0.084509
vt 0.040267 0.086242
vt 0.048669 0.155621
vt 0.124388 0.038691
vt 0.110697 0.038691
vt 0.110697 0.025000
vt 0.124388 0.025000
vt 0.057071 0.025000
vt 0.099094 0.025000
vt 0.097006 0.025000
vt 0.043444 0.223672
vt 0.057071 0.225000
vt 0.097006 0.223007
vt 0.110697 0.223007
vt 0.057071 0.224741
vt 0.070697 0.223413
vt 0.083315 0.224072
vt 0.097006 0.224206
s 1
usemtl tree73
f 26/5/14 18/6/6 20/7/8 27/8/15
f 27/9/15 20/10/8 24/11/12 28/12/16
f 28/13/16 24/14/12 22/15/10 29/16/17
f 29/17/17 22/18/10 18/19/6 26/20/14
f 19/21/7 23/22/11 21/23/9 17/24/5
f 18/19/6 22/18/10 25/25/13
f 24/11/12 20/10/8 25/25/13
f 22/15/10 24/14/12 25/26/13
f 20/7/8 18/6/6 25/27/13
f 21/28/9 29/17/17 26/20/14 17/29/5
f 23/30/11 28/13/16 29/16/17 21/31/9
f 19/32/7 27/9/15 28/12/16 23/33/11
f 17/34/5 26/5/14 27/8/15 19/35/7
