# Blender 5.1.2
# www.blender.org
mtllib tree117.mtl
o tree117
v -1.323704 0.000000 1.342089
v 1.434013 0.000000 -1.415628
v -1.323704 3.900000 1.342089
v 1.434013 3.900000 -1.415628
v 1.360474 0.000000 1.342089
v -1.397243 0.000000 -1.415628
v 1.360474 3.900000 1.342089
v -1.397243 3.900000 -1.415628
v 1.342089 0.000000 1.360474
v -1.415628 0.000000 -1.397243
v 1.342089 3.900000 1.360474
v -1.415628 3.900000 -1.397243
v -1.342089 0.000000 1.323704
v 1.415628 0.000000 -1.434013
v -1.342089 3.900000 1.323704
v 1.415628 3.900000 -1.434013
vn 0.7071 -0.0000 0.7071
vn 0.7071 -0.0000 -0.7071
vn -0.7071 -0.0000 0.7071
vn -0.7071 -0.0000 -0.7071
vt 0.007812 0.007812
vt 0.992188 0.007812
vt 0.992188 0.992188
vt 0.007812 0.992188
s 0
usemtl tree117
f 1/1/1 2/2/1 4/3/1 3/4/1
f 5/1/2 6/2/2 8/3/2 7/4/2
f 9/1/3 11/4/3 12/3/3 10/2/3
f 13/1/4 15/4/4 16/3/4 14/2/4
o tree117_trunk
v 0.078300 -0.100000 0.105809
v 0.054959 1.100000 0.060422
v -0.052053 -0.100000 0.105809
v -0.000839 1.095258 0.060220
v 0.078300 -0.100000 -0.024544
v 0.054758 1.104741 0.004623
v -0.052053 -0.100000 -0.024544
v -0.001041 1.100000 0.004422
v 0.040811 1.568632 0.044041
v 0.066611 0.461671 0.073662
v -0.024030 0.458507 0.073528
v -0.024165 0.461671 -0.017114
v 0.066477 0.464836 -0.016979
vn 0.5804 -0.5569 0.5941
vn 0.7051 0.0368 0.7082
vn -0.5898 -0.5487 0.5925
vn -0.7086 0.0616 0.7030
vn 0.5832 -0.5683 -0.5804
vn 0.7010 0.0598 -0.7106
vn -0.5922 -0.5609 -0.5785
vn -0.7079 0.0845 -0.7013
vn 0.0290 0.9993 0.0250
vn 0.7100 0.0414 0.7030
vn -0.7083 0.0588 0.7034
vn -0.7031 0.0467 -0.7095
vn 0.7041 0.0305 -0.7094
vt 0.084521 0.155289
vt 0.085727 0.086506
vt 0.095268 0.087410
vt 0.096137 0.155808
vt 0.065480 0.155546
vt 0.073890 0.086351
vt 0.083315 0.084618
vt 0.077006 0.154016
vt 0.098653 0.155541
vt 0.100300 0.088075
vt 0.109849 0.087263
vt 0.110273 0.155135
vt 0.037143 0.154091
vt 0.030842 0.084509
vt 0.040267 0.086242
vt 0.048669 0.155621
vt 0.124388 0.038691
vt 0.110697 0.038691
vt 0.110697 0.025000
vt 0.124388 0.025000
vt 0.057071 0.025000
vt 0.099094 0.025000
vt 0.097006 0.025000
vt 0.043444 0.223672
vt 0.057071 0.225000
vt 0.097006 0.223007
vt 0.110697 0.223007
vt 0.057071 0.224741
vt 0.070697 0.223413
vt 0.083315 0.224072
vt 0.097006 0.224206
s 1
usemtl tree117
f 26/5/14 18/6/6 20/7/8 27/8/15
f 27/9/15 20/10/8 24/11/12 28/12/16
f 28/13/16 24/14/12 22/15/10 29/16/17
f 29/17/17 22/18/10 18/19/6 26/20/14
f 19/21/7 23/22/11 21/23/9 17/24/5
f 18/19/6 22/18/10 25/25/13
f 24/11/12 20/10/8 25/25/13
f 22/15/10 24/14/12 25/26/13
f 20/7/8 18/6/6 25/27/13
f 21/28/9 29/17/17 26/20/14 17/29/5
f 23/30/11 28/13/16 29/16/17 21/31/9
f 19/32/7 27/9/15 28/12/16 23/33/11
f 17/34/5 26/5/14 27/8/15 19/35/7
