# Blender 5.1.2
# www.blender.org
mtllib tree110.mtl
o tree110
v -1.369666 0.000000 1.388051
v 1.388051 0.000000 -1.369666
v -1.369666 3.900000 1.388051
v 1.388051 3.900000 -1.369666
v 1.388051 0.000000 1.369666
v -1.369666 0.000000 -1.388051
v 1.388051 3.900000 1.369666
v -1.369666 3.900000 -1.388051
v 1.369666 0.000000 1.388051
v -1.388051 0.000000 -1.369666
v 1.369666 3.900000 1.388051
v -1.388051 3.900000 -1.369666
v -1.388051 0.000000 1.369666
v 1.369666 0.000000 -1.388051
v -1.388051 3.900000 1.369666
v 1.369666 3.900000 -1.388051
vn 0.7071 -0.0000 0.7071
vn 0.7071 -0.0000 -0.7071
vn -0.7071 -0.0000 0.7071
vn -0.7071 -0.0000 -0.7071
vt 0.007812 0.007812
vt 0.992188 0.007812
vt 0.992188 0.992188
vt 0.007812 0.992188
s 0
usemtl tree110
f 1/1/1 2/2/1 4/3/1 3/4/1
f 5/1/2 6/2/2 8/3/2 7/4/2
f 9/1/3 11/4/3 12/3/3 10/2/3
f 13/1/4 15/4/4 16/3/4 14/2/4
o tree110_trunk
v 0.079228 -0.100000 0.189266
v 0.005387 0.974539 0.054616
v -0.120105 -0.100000 0.189266
v -0.076443 0.968540 0.054396
v 0.079228 -0.100000 -0.010067
v 0.005168 0.980537 -0.027215
v -0.120105 -0.100000 -0.010067
v -0.076663 0.974539 -0.027435
v -0.072477 1.521923 0.157330
v 0.056109 0.450000 0.063160
v -0.063003 0.445841 0.062983
v -0.063180 0.450000 -0.056128
v 0.055932 0.454159 -0.055952
vn 0.5770 -0.5045 0.6424
vn 0.7326 0.0318 0.6800
vn -0.5961 -0.4890 0.6368
vn -0.7316 -0.0611 0.6790
vn 0.5958 -0.5864 -0.5487
vn 0.6683 0.2139 -0.7125
vn -0.6146 -0.5691 -0.5462
vn -0.6868 0.1265 -0.7158
vn -0.0650 0.9655 0.2522
vn 0.7311 0.1320 0.6694
vn -0.7150 0.1194 0.6889
vn -0.6767 0.0123 -0.7362
vn 0.6975 0.0375 -0.7156
vt 0.100033 0.066798
vt 0.168816 0.068004
vt 0.167911 0.077545
vt 0.099513 0.078414
vt 0.099775 0.047757
vt 0.168970 0.056167
vt 0.170704 0.065592
vt 0.101306 0.059283
vt 0.099780 0.080930
vt 0.167247 0.082577
vt 0.168059 0.092126
vt 0.100186 0.092550
vt 0.101231 0.019420
vt 0.170813 0.013119
vt 0.169079 0.022545
vt 0.099700 0.030946
vt 0.216630 0.106665
vt 0.216630 0.092974
vt 0.230321 0.092974
vt 0.230321 0.106665
vt 0.230321 0.039348
vt 0.230321 0.081371
vt 0.230321 0.079283
vt 0.031649 0.025721
vt 0.030321 0.039348
vt 0.032314 0.079283
vt 0.032314 0.092974
vt 0.030581 0.039348
vt 0.031908 0.052974
vt 0.031250 0.065592
vt 0.031115 0.079283
s 1
usemtl tree110
f 26/5/14 18/6/6 20/7/8 27/8/15
f 27/9/15 20/10/8 24/11/12 28/12/16
f 28/13/16 24/14/12 22/15/10 29/16/17
f 29/17/17 22/18/10 18/19/6 26/20/14
f 19/21/7 23/22/11 21/23/9 17/24/5
f 18/19/6 22/18/10 25/25/13
f 24/11/12 20/10/8 25/25/13
f 22/15/10 24/14/12 25/26/13
f 20/7/8 18/6/6 25/27/13
f 21/28/9 29/17/17 26/20/14 17/29/5
f 23/30/11 28/13/16 29/16/17 21/31/9
f 19/32/7 27/9/15 28/12/16 23/33/11
f 17/34/5 26/5/14 27/8/15 19/35/7
