# Blender 5.1.2
# www.blender.org
mtllib tree012.mtl
o tree012
v -1.068599 0.000000 1.079660
v 1.052722 0.000000 -1.041661
v -1.068599 3.000000 1.079660
v 1.052722 3.000000 -1.041661
v 1.102219 0.000000 1.072589
v -1.019101 0.000000 -1.048732
v 1.102219 3.000000 1.072589
v -1.019101 3.000000 -1.048732
v 1.088077 0.000000 1.086731
v -1.033243 0.000000 -1.034590
v 1.088077 3.000000 1.086731
v -1.033243 3.000000 -1.034590
v -1.082741 0.000000 1.065518
v 1.038580 0.000000 -1.055803
v -1.082741 3.000000 1.065518
v 1.038580 3.000000 -1.055803
vn 0.7071 -0.0000 0.7071
vn 0.7071 -0.0000 -0.7071
vn -0.7071 -0.0000 0.7071
vn -0.7071 -0.0000 -0.7071
vt 0.007812 0.007812
vt 0.992188 0.007812
vt 0.992188 0.992188
vt 0.007812 0.992188
s 0
usemtl tree12
f 1/1/1 2/2/1 4/3/1 3/4/1
f 5/1/2 6/2/2 8/3/2 7/4/2
f 9/1/3 11/4/3 12/3/3 10/2/3
f 13/1/4 15/4/4 16/3/4 14/2/4
o tree012_trunk
v 0.070450 -0.100000 -0.003536
v 0.039337 0.450000 0.026464
v -0.000261 -0.100000 0.067175
v -0.000261 0.445258 0.065777
v -0.000261 -0.100000 -0.074247
v -0.000261 0.454741 -0.012849
v -0.070971 -0.100000 -0.003536
v -0.039859 0.450000 0.026464
v -0.000261 0.632002 0.057105
v 0.042823 0.290000 0.016464
v -0.005261 0.287629 0.064405
v -0.053344 0.290000 0.016464
v -0.005261 0.292371 -0.031477
vn 0.8345 -0.5507 -0.0178
vn 0.9935 0.1132 -0.0090
vn 0.0046 -0.5745 0.8185
vn 0.0078 0.0167 0.9998
vn 0.0046 -0.5371 -0.8435
vn 0.0076 0.2360 -0.9717
vn -0.8282 -0.5601 -0.0181
vn -0.9895 0.1445 -0.0064
vn -0.0000 0.9864 0.1647
vn 0.9989 0.0468 -0.0004
vn -0.0095 -0.0008 1.0000
vn -0.9980 0.0640 0.0012
vn -0.0098 0.1116 -0.9937
vt 0.079553 0.060617
vt 0.148335 0.061823
vt 0.147431 0.071364
vt 0.079033 0.072233
vt 0.079295 0.041576
vt 0.148490 0.049986
vt 0.150223 0.059412
vt 0.080826 0.053102
vt 0.079300 0.074749
vt 0.146767 0.076396
vt 0.147579 0.085945
vt 0.079706 0.086369
vt 0.080751 0.013239
vt 0.150333 0.006938
vt 0.148599 0.016364
vt 0.079220 0.024765
vt 0.196150 0.100484
vt 0.196150 0.086793
vt 0.209841 0.086793
vt 0.209841 0.100484
vt 0.209841 0.033167
vt 0.209841 0.075190
vt 0.209841 0.073102
vt 0.011169 0.019540
vt 0.009841 0.033167
vt 0.011834 0.073102
vt 0.011834 0.086793
vt 0.010101 0.033167
vt 0.011428 0.046793
vt 0.010770 0.059412
vt 0.010635 0.073102
s 1
usemtl tree12
f 26/5/14 18/6/6 20/7/8 27/8/15
f 27/9/15 20/10/8 24/11/12 28/12/16
f 28/13/16 24/14/12 22/15/10 29/16/17
f 29/17/17 22/18/10 18/19/6 26/20/14
f 19/21/7 23/22/11 21/23/9 17/24/5
f 18/19/6 22/18/10 25/25/13
f 24/11/12 20/10/8 25/25/13
f 22/15/10 24/14/12 25/26/13
f 20/7/8 18/6/6 25/27/13
f 21/28/9 29/17/17 26/20/14 17/29/5
f 23/30/11 28/13/16 29/16/17 21/31/9
f 19/32/7 27/9/15 28/12/16 23/33/11
f 17/34/5 26/5/14 27/8/15 19/35/7
