# Blender 5.1.2
# www.blender.org
mtllib tree100.mtl
o tree100
v -1.369666 0.000000 1.388051
v 1.388051 0.000000 -1.369666
v -1.369666 3.900000 1.388051
v 1.388051 3.900000 -1.369666
v 1.388051 0.000000 1.369666
v -1.369666 0.000000 -1.388051
v 1.388051 3.900000 1.369666
v -1.369666 3.900000 -1.388051
v 1.369666 0.000000 1.388051
v -1.388051 0.000000 -1.369666
v 1.369666 3.900000 1.388051
v -1.388051 3.900000 -1.369666
v -1.388051 0.000000 1.369666
v 1.369666 0.000000 -1.388051
v -1.388051 3.900000 1.369666
v 1.369666 3.900000 -1.388051
vn 0.7071 -0.0000 0.7071
vn 0.7071 -0.0000 -0.7071
vn -0.7071 -0.0000 0.7071
vn -0.7071 -0.0000 -0.7071
vt 0.007812 0.007812
vt 0.992188 0.007812
vt 0.992188 0.992188
vt 0.007812 0.992188
s 0
usemtl tree100
f 1/1/1 2/2/1 4/3/1 3/4/1
f 5/1/2 6/2/2 8/3/2 7/4/2
f 9/1/3 11/4/3 12/3/3 10/2/3
f 13/1/4 15/4/4 16/3/4 14/2/4
o tree100_trunk
v 0.111145 -0.100000 0.166164
v 0.080721 1.100000 0.179715
v -0.124513 -0.100000 0.138655
v -0.080140 1.086331 0.179135
v 0.111145 -0.100000 -0.097003
v 0.080140 1.113669 0.018855
v -0.111904 -0.100000 -0.056885
v -0.080721 1.100000 0.018274
v -0.022461 1.323534 0.107313
v 0.094420 0.450000 0.178498
v -0.114957 0.442208 0.164455
v -0.113803 0.450000 -0.029725
v 0.094089 0.457792 -0.044677
vn 0.5647 -0.5688 0.5979
vn 0.6784 0.2304 0.6977
vn -0.6195 -0.5858 0.5225
vn -0.6908 0.1743 0.7017
vn 0.5485 -0.5317 -0.6453
vn 0.6801 0.3023 -0.6679
vn -0.5926 -0.5817 -0.5572
vn -0.6966 0.2418 -0.6755
vn -0.0977 0.9942 0.0439
vn 0.6804 0.0017 0.7328
vn -0.7371 0.0045 0.6758
vn -0.7334 0.0719 -0.6759
vn 0.6737 0.0764 -0.7350
vt 0.089774 0.063004
vt 0.158557 0.064210
vt 0.157653 0.073751
vt 0.089255 0.074620
vt 0.089517 0.043963
vt 0.158712 0.052373
vt 0.160445 0.061799
vt 0.091048 0.055490
vt 0.089522 0.077136
vt 0.156989 0.078783
vt 0.157801 0.088332
vt 0.089928 0.088756
vt 0.090973 0.015626
vt 0.160554 0.009325
vt 0.158821 0.018751
vt 0.089442 0.027152
vt 0.206372 0.102871
vt 0.206372 0.089180
vt 0.220063 0.089180
vt 0.220063 0.102871
vt 0.220063 0.035554
vt 0.220063 0.077577
vt 0.220063 0.075489
vt 0.021391 0.021927
vt 0.020063 0.035554
vt 0.022056 0.075489
vt 0.022056 0.089180
vt 0.020323 0.035554
vt 0.021650 0.049181
vt 0.020991 0.061799
vt 0.020857 0.075489
s 1
usemtl tree100
f 26/5/14 18/6/6 20/7/8 27/8/15
f 27/9/15 20/10/8 24/11/12 28/12/16
f 28/13/16 24/14/12 22/15/10 29/16/17
f 29/17/17 22/18/10 18/19/6 26/20/14
f 19/21/7 23/22/11 21/23/9 17/24/5
f 18/19/6 22/18/10 25/25/13
f 24/11/12 20/10/8 25/25/13
f 22/15/10 24/14/12 25/26/13
f 20/7/8 18/6/6 25/27/13
f 21/28/9 29/17/17 26/20/14 17/29/5
f 23/30/11 28/13/16 29/16/17 21/31/9
f 19/32/7 27/9/15 28/12/16 23/33/11
f 17/34/5 26/5/14 27/8/15 19/35/7
