# Blender 5.1.2
# www.blender.org
mtllib tree119.mtl
o tree119
v -1.213396 0.000000 1.231780
v 1.544322 0.000000 -1.525937
v -1.213396 3.900000 1.231780
v 1.544322 3.900000 -1.525937
v 1.231780 0.000000 1.213396
v -1.525936 0.000000 -1.544321
v 1.231780 3.900000 1.213396
v -1.525936 3.900000 -1.544321
v 1.213395 0.000000 1.231780
v -1.544321 0.000000 -1.525937
v 1.213395 3.900000 1.231780
v -1.544321 3.900000 -1.525937
v -1.231780 0.000000 1.213395
v 1.525937 0.000000 -1.544322
v -1.231780 3.900000 1.213395
v 1.525937 3.900000 -1.544322
vn 0.7071 -0.0000 0.7071
vn 0.7071 -0.0000 -0.7071
vn -0.7071 -0.0000 0.7071
vn -0.7071 -0.0000 -0.7071
vt 0.007812 0.007812
vt 0.992188 0.007812
vt 0.992188 0.992188
vt 0.007812 0.992188
s 0
usemtl tree119
f 1/1/1 2/2/1 4/3/1 3/4/1
f 5/1/2 6/2/2 8/3/2 7/4/2
f 9/1/3 11/4/3 12/3/3 10/2/3
f 13/1/4 15/4/4 16/3/4 14/2/4
o tree119_trunk
v 0.122342 -0.100000 0.122342
v 0.105063 1.546312 0.050621
v -0.108200 -0.100000 0.122342
v -0.065099 1.531852 0.050006
v 0.122342 -0.100000 -0.108200
v 0.104449 1.560771 -0.119542
v -0.108200 -0.100000 -0.108200
v -0.065713 1.546312 -0.120156
v -0.004678 1.769379 -0.024556
v 0.100064 0.450000 0.061560
v -0.059362 0.444434 0.061323
v -0.059599 0.450000 -0.098104
v 0.099828 0.455566 -0.097867
v 0.054938 0.998156 0.008465
v -0.109856 0.988143 0.008039
v -0.110281 0.998156 -0.156755
v 0.054513 1.008169 -0.156330
vn 0.5832 -0.5375 0.6091
vn 0.7008 0.1780 0.6908
vn -0.5983 -0.5244 0.6058
vn -0.6715 0.1656 0.7222
vn 0.5890 -0.5618 -0.5809
vn 0.7031 0.2686 -0.6584
vn -0.6038 -0.5490 -0.5779
vn -0.6809 0.2572 -0.6857
vn -0.1046 0.9932 0.0517
vn 0.7080 0.1149 0.6968
vn -0.6886 0.0793 0.7208
vn -0.6988 -0.0346 -0.7145
vn 0.7269 0.0160 -0.6866
vn 0.7077 0.0043 0.7065
vn -0.7448 0.0015 0.6673
vn -0.7074 -0.0168 -0.7066
vn 0.6670 -0.0175 -0.7448
vt 0.085124 0.120897
vt 0.085727 0.086506
vt 0.095268 0.087410
vt 0.095702 0.121609
vt 0.069685 0.120949
vt 0.073890 0.086351
vt 0.083315 0.084618
vt 0.080161 0.119317
vt 0.099476 0.121808
vt 0.100300 0.088075
vt 0.109849 0.087263
vt 0.110061 0.121199
vt 0.033992 0.119300
vt 0.030842 0.084509
vt 0.040267 0.086242
vt 0.044468 0.120932
vt 0.124388 0.038691
vt 0.110697 0.038691
vt 0.110697 0.025000
vt 0.124388 0.025000
vt 0.057071 0.025000
vt 0.099094 0.025000
vt 0.097006 0.025000
vt 0.043444 0.223672
vt 0.037143 0.154091
vt 0.048669 0.155621
vt 0.057071 0.225000
vt 0.097006 0.223007
vt 0.098653 0.155541
vt 0.110273 0.155135
vt 0.110697 0.223007
vt 0.057071 0.224741
vt 0.065480 0.155546
vt 0.077006 0.154016
vt 0.070697 0.223413
vt 0.083315 0.224072
vt 0.084521 0.155289
vt 0.096137 0.155808
vt 0.097006 0.224206
s 1
usemtl tree119
f 30/5/18 18/6/6 20/7/8 31/8/19
f 31/9/19 20/10/8 24/11/12 32/12/20
f 32/13/20 24/14/12 22/15/10 33/16/21
f 33/17/21 22/18/10 18/19/6 30/20/18
f 19/21/7 23/22/11 21/23/9 17/24/5
f 18/19/6 22/18/10 25/25/13
f 24/11/12 20/10/8 25/25/13
f 22/15/10 24/14/12 25/26/13
f 20/7/8 18/6/6 25/27/13
f 21/28/9 29/29/17 26/30/14 17/31/5
f 23/32/11 28/33/16 29/34/17 21/35/9
f 19/36/7 27/37/15 28/38/16 23/39/11
f 17/40/5 26/41/14 27/42/15 19/43/7
f 29/29/17 33/17/21 30/20/18 26/30/14
f 28/33/16 32/13/20 33/16/21 29/34/17
f 27/37/15 31/9/19 32/12/20 28/38/16
f 26/41/14 30/5/18 31/8/19 27/42/15
