# Blender 5.1.2
# www.blender.org
mtllib tree054.mtl
o tree054
v -0.774918 0.000000 0.787788
v 0.512016 0.000000 -0.499147
v -0.591071 2.723674 0.971635
v 0.695864 2.723674 -0.315299
v 0.787788 0.000000 0.774918
v -0.499147 0.000000 -0.512016
v 0.603940 2.723674 0.958766
v -0.682994 2.723674 -0.328168
v 0.774918 0.000000 0.787788
v -0.512016 0.000000 -0.499147
v 0.591071 2.723674 0.971635
v -0.695864 2.723674 -0.315299
v -0.787788 0.000000 0.774918
v 0.499147 0.000000 -0.512016
v -0.603940 2.723674 0.958766
v 0.682994 2.723674 -0.328168
vn 0.7039 -0.0950 0.7039
vn 0.7039 0.0950 -0.7039
vn -0.7039 -0.0950 0.7039
vn -0.7039 0.0950 -0.7039
vt 0.140625 0.007812
vt 0.859375 0.007812
vt 0.859375 0.992188
vt 0.140625 0.992188
s 0
usemtl tree54
f 1/1/1 2/2/1 4/3/1 3/4/1
f 5/1/2 6/2/2 8/3/2 7/4/2
f 9/1/3 11/4/3 12/3/3 10/2/3
f 13/1/4 15/4/4 16/3/4 14/2/4
o tree054_trunk
v 0.042929 -0.100000 0.071213
v 0.035071 1.100000 0.190635
v -0.057071 -0.100000 0.071213
v -0.020728 1.095258 0.190433
v 0.042929 -0.100000 -0.028787
v 0.034870 1.104741 0.134836
v -0.057071 -0.100000 -0.028787
v -0.020929 1.100000 0.134635
v -0.021666 1.452002 0.318651
v 0.030464 0.450000 0.087033
v -0.037435 0.447629 0.086932
v -0.037536 0.450000 0.019033
v 0.030364 0.452371 0.019134
vn 0.5860 -0.5788 0.5671
vn 0.7538 -0.1046 0.6488
vn -0.5900 -0.5749 0.5669
vn -0.7197 -0.1622 0.6751
vn 0.5795 -0.5483 -0.6029
vn 0.6761 0.2767 -0.6829
vn -0.5841 -0.5451 -0.6014
vn -0.6787 0.2394 -0.6943
vn -0.0745 0.9125 0.4022
vn 0.7206 -0.0602 0.6907
vn -0.7195 -0.0412 0.6932
vn -0.6966 0.1137 -0.7084
vn 0.6914 0.1011 -0.7154
vt 0.084521 0.155289
vt 0.085727 0.086506
vt 0.095268 0.087410
vt 0.096137 0.155808
vt 0.065480 0.155546
vt 0.073890 0.086351
vt 0.083315 0.084618
vt 0.077006 0.154016
vt 0.098653 0.155541
vt 0.100300 0.088075
vt 0.109849 0.087263
vt 0.110273 0.155135
vt 0.037143 0.154091
vt 0.030842 0.084509
vt 0.040267 0.086242
vt 0.048669 0.155621
vt 0.124388 0.038691
vt 0.110697 0.038691
vt 0.110697 0.025000
vt 0.124388 0.025000
vt 0.057071 0.025000
vt 0.099094 0.025000
vt 0.097006 0.025000
vt 0.043444 0.223672
vt 0.057071 0.225000
vt 0.097006 0.223007
vt 0.110697 0.223007
vt 0.057071 0.224741
vt 0.070697 0.223413
vt 0.083315 0.224072
vt 0.097006 0.224206
s 1
usemtl tree54
f 26/5/14 18/6/6 20/7/8 27/8/15
f 27/9/15 20/10/8 24/11/12 28/12/16
f 28/13/16 24/14/12 22/15/10 29/16/17
f 29/17/17 22/18/10 18/19/6 26/20/14
f 19/21/7 23/22/11 21/23/9 17/24/5
f 18/19/6 22/18/10 25/25/13
f 24/11/12 20/10/8 25/25/13
f 22/15/10 24/14/12 25/26/13
f 20/7/8 18/6/6 25/27/13
f 21/28/9 29/17/17 26/20/14 17/29/5
f 23/30/11 28/13/16 29/16/17 21/31/9
f 19/32/7 27/9/15 28/12/16 23/33/11
f 17/34/5 26/5/14 27/8/15 19/35/7
