# Blender 5.1.2
# www.blender.org
mtllib tree004.mtl
o tree004
v -1.202082 -0.000000 1.202082
v 0.919239 -0.000000 -0.919239
v -1.060660 3.000000 1.343503
v 1.060660 3.000000 -0.777817
v 1.237437 0.000000 1.152584
v -0.883883 0.000000 -0.968736
v 1.096007 2.999516 1.294014
v -1.025313 2.999516 -0.827307
v 1.223295 0.000000 1.166726
v -0.898026 0.000000 -0.954594
v 1.081882 3.000484 1.308139
v -1.039439 3.000484 -0.813181
v -1.216224 0.000000 1.187939
v 0.905097 0.000000 -0.933381
v -1.074802 3.000000 1.329361
v 1.046518 3.000000 -0.791959
vn 0.7055 -0.0665 0.7055
vn 0.7055 0.0665 -0.7055
vn -0.7055 -0.0665 0.7055
vn -0.7055 0.0665 -0.7055
vt 0.007812 0.007812
vt 0.992188 0.007812
vt 0.992188 0.992188
vt 0.007812 0.992188
s 0
usemtl tree04
f 1/1/1 2/2/1 4/3/1 3/4/1
f 5/1/2 6/2/2 8/3/2 7/4/2
f 9/1/3 11/4/3 12/3/3 10/2/3
f 13/1/4 15/4/4 16/3/4 14/2/4
o tree004_trunk
v 0.050000 -0.100000 0.050000
v 0.020929 1.100000 0.119924
v -0.050000 -0.100000 0.050000
v -0.034870 1.095258 0.119722
v 0.050000 -0.100000 -0.050000
v 0.020727 1.104741 0.064125
v -0.050000 -0.100000 -0.050000
v -0.035071 1.100000 0.063924
v -0.007524 1.662002 0.078235
v 0.023393 0.450000 0.079962
v -0.044506 0.447629 0.079861
v -0.044607 0.450000 0.011962
v 0.023293 0.452371 0.012063
vn 0.5957 -0.5779 0.5579
vn 0.6958 0.0243 0.7178
vn -0.5832 -0.5886 0.5598
vn -0.6953 0.0219 0.7184
vn 0.5857 -0.5351 -0.6088
vn 0.7173 0.0558 -0.6946
vn -0.5752 -0.5444 -0.6106
vn -0.7182 0.0611 -0.6932
vn -0.0011 0.9997 -0.0240
vn 0.7037 -0.0231 0.7101
vn -0.7077 -0.0321 0.7058
vn -0.7121 0.0762 -0.6979
vn 0.7036 0.0867 -0.7052
vt 0.084521 0.155289
vt 0.085727 0.086506
vt 0.095268 0.087410
vt 0.096137 0.155808
vt 0.065480 0.155546
vt 0.073890 0.086351
vt 0.083315 0.084618
vt 0.077006 0.154016
vt 0.098653 0.155541
vt 0.100300 0.088075
vt 0.109849 0.087263
vt 0.110273 0.155135
vt 0.037143 0.154091
vt 0.030842 0.084509
vt 0.040267 0.086242
vt 0.048669 0.155621
vt 0.124388 0.038691
vt 0.110697 0.038691
vt 0.110697 0.025000
vt 0.124388 0.025000
vt 0.057071 0.025000
vt 0.099094 0.025000
vt 0.097006 0.025000
vt 0.043444 0.223672
vt 0.057071 0.225000
vt 0.097006 0.223007
vt 0.110697 0.223007
vt 0.057071 0.224741
vt 0.070697 0.223413
vt 0.083315 0.224072
vt 0.097006 0.224206
s 1
usemtl tree04
f 26/5/14 18/6/6 20/7/8 27/8/15
f 27/9/15 20/10/8 24/11/12 28/12/16
f 28/13/16 24/14/12 22/15/10 29/16/17
f 29/17/17 22/18/10 18/19/6 26/20/14
f 19/21/7 23/22/11 21/23/9 17/24/5
f 18/19/6 22/18/10 25/25/13
f 24/11/12 20/10/8 25/25/13
f 22/15/10 24/14/12 25/26/13
f 20/7/8 18/6/6 25/27/13
f 21/28/9 29/17/17 26/20/14 17/29/5
f 23/30/11 28/13/16 29/16/17 21/31/9
f 19/32/7 27/9/15 28/12/16 23/33/11
f 17/34/5 26/5/14 27/8/15 19/35/7
