# Blender 5.1.2
# www.blender.org
mtllib tree114.mtl
o tree114
v -1.369666 0.000000 1.388051
v 1.388051 0.000000 -1.369666
v -1.369666 3.900000 1.388051
v 1.388051 3.900000 -1.369666
v 1.388051 0.000000 1.369666
v -1.369666 0.000000 -1.388051
v 1.388051 3.900000 1.369666
v -1.369666 3.900000 -1.388051
v 1.369666 0.000000 1.388051
v -1.388051 0.000000 -1.369666
v 1.369666 3.900000 1.388051
v -1.388051 3.900000 -1.369666
v -1.388051 0.000000 1.369666
v 1.369666 0.000000 -1.388051
v -1.388051 3.900000 1.369666
v 1.369666 3.900000 -1.388051
vn 0.7071 -0.0000 0.7071
vn 0.7071 -0.0000 -0.7071
vn -0.7071 -0.0000 0.7071
vn -0.7071 -0.0000 -0.7071
vt 0.007812 0.007812
vt 0.992188 0.007812
vt 0.992188 0.992188
vt 0.007812 0.992188
s 0
usemtl tree114
f 1/1/1 2/2/1 4/3/1 3/4/1
f 5/1/2 6/2/2 8/3/2 7/4/2
f 9/1/3 11/4/3 12/3/3 10/2/3
f 13/1/4 15/4/4 16/3/4 14/2/4
o tree114_trunk
v 0.117584 -0.100000 0.211116
v 0.047084 1.100000 0.146079
v -0.130951 -0.100000 0.211116
v -0.046746 1.092027 0.145741
v 0.117584 -0.100000 -0.037418
v 0.046746 1.107973 0.052249
v -0.130951 -0.100000 -0.037419
v -0.047084 1.100000 0.051911
v -0.000453 1.662002 0.085306
v 0.072361 0.450000 0.183949
v -0.079208 0.444708 0.183724
v -0.079433 0.450000 0.032155
v 0.072137 0.455292 0.032380
vn 0.5992 -0.5428 0.5885
vn 0.7000 0.1006 0.7070
vn -0.6032 -0.5390 0.5878
vn -0.7025 0.1011 0.7044
vn 0.5948 -0.5231 -0.6104
vn 0.7071 0.0760 -0.7030
vn -0.5992 -0.5199 -0.6088
vn -0.7078 0.0779 -0.7021
vn -0.0016 0.9997 -0.0234
vn 0.6974 0.0816 0.7120
vn -0.6978 0.0892 0.7107
vn -0.7105 0.1083 -0.6953
vn 0.7101 0.0983 -0.6972
vt 0.079105 0.063698
vt 0.147888 0.064904
vt 0.146984 0.074444
vt 0.078586 0.075313
vt 0.078848 0.044657
vt 0.148042 0.053066
vt 0.149776 0.062492
vt 0.080378 0.056183
vt 0.078853 0.077829
vt 0.146319 0.079476
vt 0.147131 0.089025
vt 0.079259 0.089449
vt 0.080303 0.016320
vt 0.149885 0.010018
vt 0.148151 0.019444
vt 0.078773 0.027846
vt 0.195703 0.103564
vt 0.195703 0.089873
vt 0.209394 0.089873
vt 0.209394 0.103564
vt 0.209394 0.036247
vt 0.209394 0.078270
vt 0.209394 0.076182
vt 0.010722 0.022621
vt 0.009394 0.036247
vt 0.011386 0.076182
vt 0.011386 0.089873
vt 0.009653 0.036247
vt 0.010981 0.049874
vt 0.010322 0.062492
vt 0.010188 0.076182
s 1
usemtl tree114
f 26/5/14 18/6/6 20/7/8 27/8/15
f 27/9/15 20/10/8 24/11/12 28/12/16
f 28/13/16 24/14/12 22/15/10 29/16/17
f 29/17/17 22/18/10 18/19/6 26/20/14
f 19/21/7 23/22/11 21/23/9 17/24/5
f 18/19/6 22/18/10 25/25/13
f 24/11/12 20/10/8 25/25/13
f 22/15/10 24/14/12 25/26/13
f 20/7/8 18/6/6 25/27/13
f 21/28/9 29/17/17 26/20/14 17/29/5
f 23/30/11 28/13/16 29/16/17 21/31/9
f 19/32/7 27/9/15 28/12/16 23/33/11
f 17/34/5 26/5/14 27/8/15 19/35/7
