# Blender 5.1.2
# www.blender.org
mtllib tree023.mtl
o tree023
v -1.053589 0.000000 1.067731
v 1.067731 0.000000 -1.053589
v -1.053589 3.000000 1.067731
v 1.067731 3.000000 -1.053589
v 1.067731 0.000000 1.053589
v -1.053589 0.000000 -1.067731
v 1.067731 3.000000 1.053589
v -1.053589 3.000000 -1.067731
v 1.053589 0.000000 1.067731
v -1.067731 0.000000 -1.053589
v 1.053589 3.000000 1.067731
v -1.067731 3.000000 -1.053589
v -1.067731 0.000000 1.053589
v 1.053589 0.000000 -1.067731
v -1.067731 3.000000 1.053589
v 1.053589 3.000000 -1.067731
vn 0.7071 -0.0000 0.7071
vn 0.7071 -0.0000 -0.7071
vn -0.7071 -0.0000 0.7071
vn -0.7071 -0.0000 -0.7071
vt 0.007812 0.007812
vt 0.992188 0.007812
vt 0.992188 0.992188
vt 0.007812 0.992188
s 0
usemtl tree23
f 1/1/1 2/2/1 4/3/1 3/4/1
f 5/1/2 6/2/2 8/3/2 7/4/2
f 9/1/3 11/4/3 12/3/3 10/2/3
f 13/1/4 15/4/4 16/3/4 14/2/4
o tree023_trunk
v 0.035858 -0.100000 0.134853
v 0.035071 1.100000 -0.092208
v -0.064142 -0.100000 0.134853
v -0.020727 1.095258 -0.092410
v 0.035858 -0.100000 0.034853
v 0.034870 1.104741 -0.148007
v -0.064142 -0.100000 0.034853
v -0.020929 1.100000 -0.148208
v 0.070258 1.462002 -0.126826
v 0.030464 0.450000 0.002180
v -0.037435 0.447629 0.002079
v -0.037536 0.450000 -0.065820
v 0.030364 0.452371 -0.065719
vn 0.5672 -0.5085 0.6479
vn 0.7019 0.0519 0.7104
vn -0.5808 -0.4983 0.6437
vn -0.7243 0.1701 0.6682
vn 0.5916 -0.6180 -0.5177
vn 0.6732 -0.0564 -0.7373
vn -0.6028 -0.6077 -0.5170
vn -0.7093 0.0700 -0.7014
vn 0.1701 0.9853 -0.0172
vn 0.7136 0.1342 0.6876
vn -0.7137 0.1607 0.6817
vn -0.6987 -0.0855 -0.7103
vn 0.7008 -0.1082 -0.7051
vt 0.084521 0.155289
vt 0.085727 0.086506
vt 0.095268 0.087410
vt 0.096137 0.155808
vt 0.065480 0.155546
vt 0.073890 0.086351
vt 0.083315 0.084618
vt 0.077006 0.154016
vt 0.098653 0.155541
vt 0.100300 0.088075
vt 0.109849 0.087263
vt 0.110273 0.155135
vt 0.037143 0.154091
vt 0.030842 0.084509
vt 0.040267 0.086242
vt 0.048669 0.155621
vt 0.124388 0.038691
vt 0.110697 0.038691
vt 0.110697 0.025000
vt 0.124388 0.025000
vt 0.057071 0.025000
vt 0.099094 0.025000
vt 0.097006 0.025000
vt 0.043444 0.223672
vt 0.057071 0.225000
vt 0.097006 0.223007
vt 0.110697 0.223007
vt 0.057071 0.224741
vt 0.070697 0.223413
vt 0.083315 0.224072
vt 0.097006 0.224206
s 1
usemtl tree23
f 26/5/14 18/6/6 20/7/8 27/8/15
f 27/9/15 20/10/8 24/11/12 28/12/16
f 28/13/16 24/14/12 22/15/10 29/16/17
f 29/17/17 22/18/10 18/19/6 26/20/14
f 19/21/7 23/22/11 21/23/9 17/24/5
f 18/19/6 22/18/10 25/25/13
f 24/11/12 20/10/8 25/25/13
f 22/15/10 24/14/12 25/26/13
f 20/7/8 18/6/6 25/27/13
f 21/28/9 29/17/17 26/20/14 17/29/5
f 23/30/11 28/13/16 29/16/17 21/31/9
f 19/32/7 27/9/15 28/12/16 23/33/11
f 17/34/5 26/5/14 27/8/15 19/35/7
