# Blender 5.1.2
# www.blender.org
mtllib tree027.mtl
o tree027
v -1.195011 0.000000 1.209153
v 0.926310 0.000000 -0.912168
v -1.053589 3.000000 1.350574
v 1.067731 3.000000 -0.770746
v 1.187939 0.000000 1.173797
v -0.912168 0.000000 -0.926310
v 1.046518 3.000000 1.315219
v -1.053589 3.000000 -0.784889
v 1.173797 0.000000 1.187940
v -0.926310 0.000000 -0.912168
v 1.032376 3.000000 1.329361
v -1.067731 3.000000 -0.770746
v -1.209153 0.000000 1.195010
v 0.912168 0.000000 -0.926310
v -1.067731 3.000000 1.336432
v 1.053589 3.000000 -0.784888
vn 0.7055 -0.0665 0.7055
vn 0.7055 0.0665 -0.7055
vn -0.7055 -0.0665 0.7055
vn -0.7055 0.0665 -0.7055
vt 0.007812 0.007812
vt 0.992188 0.007812
vt 0.992188 0.992188
vt 0.007812 0.992188
s 0
usemtl tree27
f 1/1/1 2/2/1 4/3/1 3/4/1
f 5/1/2 6/2/2 8/3/2 7/4/2
f 9/1/3 11/4/3 12/3/3 10/2/3
f 13/1/4 15/4/4 16/3/4 14/2/4
o tree027_trunk
v 0.086716 -0.100000 0.157426
v 0.043105 0.920000 0.156242
v -0.115000 -0.100000 0.129142
v -0.056886 0.911503 0.155881
v 0.086716 -0.100000 -0.072574
v 0.042744 0.928497 0.056251
v -0.143284 -0.100000 -0.072574
v -0.057247 0.920000 0.055890
v -0.000453 1.162002 0.085306
v 0.053993 0.450000 0.181273
v -0.075015 0.445496 0.181081
v -0.075207 0.450000 0.052073
v 0.053802 0.454504 0.052264
vn 0.5794 -0.5625 0.5898
vn 0.6840 0.1797 0.7070
vn -0.5926 -0.5999 0.5375
vn -0.6933 0.1853 0.6964
vn 0.5825 -0.5016 -0.6395
vn 0.7067 0.1189 -0.6975
vn -0.6295 -0.4738 -0.6158
vn -0.7116 0.1360 -0.6893
vn 0.0214 0.9968 -0.0766
vn 0.6752 0.0240 0.7372
vn -0.6878 0.0329 0.7252
vn -0.7353 0.1324 -0.6647
vn 0.7254 0.1095 -0.6796
vt 0.084521 0.155289
vt 0.085727 0.086506
vt 0.095268 0.087410
vt 0.096137 0.155808
vt 0.065480 0.155546
vt 0.073890 0.086351
vt 0.083315 0.084618
vt 0.077006 0.154016
vt 0.098653 0.155541
vt 0.100300 0.088075
vt 0.109849 0.087263
vt 0.110273 0.155135
vt 0.037143 0.154091
vt 0.030842 0.084509
vt 0.040267 0.086242
vt 0.048669 0.155621
vt 0.124388 0.038691
vt 0.110697 0.038691
vt 0.110697 0.025000
vt 0.124388 0.025000
vt 0.057071 0.025000
vt 0.099094 0.025000
vt 0.097006 0.025000
vt 0.043444 0.223672
vt 0.057071 0.225000
vt 0.097006 0.223007
vt 0.110697 0.223007
vt 0.057071 0.224741
vt 0.070697 0.223413
vt 0.083315 0.224072
vt 0.097006 0.224206
s 1
usemtl tree27
f 26/5/14 18/6/6 20/7/8 27/8/15
f 27/9/15 20/10/8 24/11/12 28/12/16
f 28/13/16 24/14/12 22/15/10 29/16/17
f 29/17/17 22/18/10 18/19/6 26/20/14
f 19/21/7 23/22/11 21/23/9 17/24/5
f 18/19/6 22/18/10 25/25/13
f 24/11/12 20/10/8 25/25/13
f 22/15/10 24/14/12 25/26/13
f 20/7/8 18/6/6 25/27/13
f 21/28/9 29/17/17 26/20/14 17/29/5
f 23/30/11 28/13/16 29/16/17 21/31/9
f 19/32/7 27/9/15 28/12/16 23/33/11
f 17/34/5 26/5/14 27/8/15 19/35/7
