# Blender 5.1.2
# www.blender.org
mtllib tree043.mtl
o tree043
v -0.910047 0.000000 0.928431
v 0.928431 0.000000 -0.910046
v -0.910046 3.240963 0.928431
v 0.928431 3.240963 -0.910046
v 0.928431 0.000000 0.910047
v -0.910046 0.000000 -0.928431
v 0.928431 3.240963 0.910046
v -0.910046 3.240963 -0.928431
v 0.910047 0.000000 0.928431
v -0.928431 0.000000 -0.910047
v 0.910046 3.240963 0.928431
v -0.928431 3.240963 -0.910047
v -0.928431 0.000000 0.910046
v 0.910046 0.000000 -0.928431
v -0.928431 3.240963 0.910046
v 0.910047 3.240963 -0.928431
vn 0.7071 -0.0000 0.7071
vn 0.7071 -0.0000 -0.7071
vn -0.7071 -0.0000 0.7071
vn -0.7071 -0.0000 -0.7071
vt 0.125000 0.007812
vt 0.875000 0.007812
vt 0.875000 0.992188
vt 0.125000 0.992188
s 0
usemtl tree43
f 1/1/1 2/2/1 4/3/1 3/4/1
f 5/1/2 6/2/2 8/3/2 7/4/2
f 9/1/3 11/4/3 12/3/3 10/2/3
f 13/1/4 15/4/4 16/3/4 14/2/4
o tree043_trunk
v 0.097071 -0.100000 -0.044350
v 0.061600 1.400000 0.019174
v -0.082929 -0.100000 -0.044350
v -0.061157 1.389569 0.018730
v 0.097071 -0.100000 -0.224350
v 0.061157 1.410431 -0.103583
v -0.082929 -0.100000 -0.224350
v -0.061600 1.400000 -0.104026
v -0.028737 1.512002 -0.027831
v 0.071265 0.450000 -0.013588
v -0.078114 0.444784 -0.013810
v -0.078336 0.450000 -0.163188
v 0.071043 0.455216 -0.162967
vn 0.5953 -0.5787 0.5574
vn 0.6760 0.2956 0.6751
vn -0.5829 -0.5893 0.5594
vn -0.6818 0.1794 0.7092
vn 0.5854 -0.5359 -0.6084
vn 0.6613 0.3960 -0.6371
vn -0.5748 -0.5451 -0.6103
vn -0.6732 0.2894 -0.6805
vn -0.2043 0.9722 0.1147
vn 0.7010 -0.0123 0.7131
vn -0.7052 -0.0230 0.7087
vn -0.7143 0.0701 -0.6963
vn 0.7066 0.0813 -0.7030
vt 0.084521 0.155289
vt 0.085727 0.086506
vt 0.095268 0.087410
vt 0.096137 0.155808
vt 0.065480 0.155546
vt 0.073890 0.086351
vt 0.083315 0.084618
vt 0.077006 0.154016
vt 0.098653 0.155541
vt 0.100300 0.088075
vt 0.109849 0.087263
vt 0.110273 0.155135
vt 0.037143 0.154091
vt 0.030842 0.084509
vt 0.040267 0.086242
vt 0.048669 0.155621
vt 0.124388 0.038691
vt 0.110697 0.038691
vt 0.110697 0.025000
vt 0.124388 0.025000
vt 0.057071 0.025000
vt 0.099094 0.025000
vt 0.097006 0.025000
vt 0.043444 0.223672
vt 0.057071 0.225000
vt 0.097006 0.223007
vt 0.110697 0.223007
vt 0.057071 0.224741
vt 0.070697 0.223413
vt 0.083315 0.224072
vt 0.097006 0.224206
s 1
usemtl tree43
f 26/5/14 18/6/6 20/7/8 27/8/15
f 27/9/15 20/10/8 24/11/12 28/12/16
f 28/13/16 24/14/12 22/15/10 29/16/17
f 29/17/17 22/18/10 18/19/6 26/20/14
f 19/21/7 23/22/11 21/23/9 17/24/5
f 18/19/6 22/18/10 25/25/13
f 24/11/12 20/10/8 25/25/13
f 22/15/10 24/14/12 25/26/13
f 20/7/8 18/6/6 25/27/13
f 21/28/9 29/17/17 26/20/14 17/29/5
f 23/30/11 28/13/16 29/16/17 21/31/9
f 19/32/7 27/9/15 28/12/16 23/33/11
f 17/34/5 26/5/14 27/8/15 19/35/7
