# Blender 5.1.2
# www.blender.org
mtllib tree062.mtl
o tree062
v -0.810769 0.000000 0.843861
v 0.843861 0.000000 -0.810769
v -0.810769 4.914000 0.843861
v 0.843861 4.914000 -0.810769
v 0.843861 0.000000 0.810769
v -0.810769 0.000000 -0.843861
v 0.843861 4.914000 0.810769
v -0.810769 4.914000 -0.843861
v 0.810769 0.000000 0.843861
v -0.843861 0.000000 -0.810769
v 0.810769 4.914000 0.843861
v -0.843861 4.914000 -0.810769
v -0.843861 0.000000 0.810769
v 0.810769 0.000000 -0.843861
v -0.843861 4.914000 0.810769
v 0.810769 4.914000 -0.843861
vn 0.7071 -0.0000 0.7071
vn 0.7071 -0.0000 -0.7071
vn -0.7071 -0.0000 0.7071
vn -0.7071 -0.0000 -0.7071
vt 0.296875 0.007812
vt 0.726562 0.007812
vt 0.726562 0.992188
vt 0.296875 0.992188
s 0
usemtl tree62
f 1/1/1 2/2/1 4/3/1 3/4/1
f 5/1/2 6/2/2 8/3/2 7/4/2
f 9/1/3 11/4/3 12/3/3 10/2/3
f 13/1/4 15/4/4 16/3/4 14/2/4
o tree062_trunk
v 0.045347 -0.100000 -0.071896
v 0.054207 1.412107 -0.039904
v -0.054653 -0.100000 -0.071896
v -0.001591 1.407366 -0.040106
v 0.045347 -0.100000 -0.171896
v 0.054006 1.416848 -0.095703
v -0.054653 -0.100000 -0.171896
v -0.001793 1.412107 -0.095904
v 0.018858 2.198436 -0.074697
v 0.025637 0.464630 -0.048831
v -0.042262 0.462259 -0.048932
v -0.042363 0.464630 -0.116831
v 0.025536 0.467001 -0.116730
vn 0.5906 -0.5784 0.5627
vn 0.7085 0.0167 0.7055
vn -0.5863 -0.5818 0.5637
vn -0.6983 0.0352 0.7149
vn 0.5826 -0.5425 -0.6052
vn 0.7145 0.0235 -0.6993
vn -0.5795 -0.5456 -0.6054
vn -0.7054 0.0414 -0.7076
vn -0.0095 0.9999 -0.0086
vn 0.6965 -0.0159 0.7174
vn -0.7052 0.0045 0.7090
vn -0.7179 0.0657 -0.6931
vn 0.7075 0.0435 -0.7053
vt 0.084521 0.155289
vt 0.085727 0.086506
vt 0.095268 0.087410
vt 0.096137 0.155808
vt 0.065480 0.155546
vt 0.073890 0.086351
vt 0.083315 0.084618
vt 0.077006 0.154016
vt 0.098653 0.155541
vt 0.100300 0.088075
vt 0.109849 0.087263
vt 0.110273 0.155135
vt 0.037143 0.154091
vt 0.030842 0.084509
vt 0.040267 0.086242
vt 0.048669 0.155621
vt 0.124388 0.038691
vt 0.110697 0.038691
vt 0.110697 0.025000
vt 0.124388 0.025000
vt 0.057071 0.025000
vt 0.099094 0.025000
vt 0.097006 0.025000
vt 0.043444 0.223672
vt 0.057071 0.225000
vt 0.097006 0.223007
vt 0.110697 0.223007
vt 0.057071 0.224741
vt 0.070697 0.223413
vt 0.083315 0.224072
vt 0.097006 0.224206
s 1
usemtl tree62
f 26/5/14 18/6/6 20/7/8 27/8/15
f 27/9/15 20/10/8 24/11/12 28/12/16
f 28/13/16 24/14/12 22/15/10 29/16/17
f 29/17/17 22/18/10 18/19/6 26/20/14
f 19/21/7 23/22/11 21/23/9 17/24/5
f 18/19/6 22/18/10 25/25/13
f 24/11/12 20/10/8 25/25/13
f 22/15/10 24/14/12 25/26/13
f 20/7/8 18/6/6 25/27/13
f 21/28/9 29/17/17 26/20/14 17/29/5
f 23/30/11 28/13/16 29/16/17 21/31/9
f 19/32/7 27/9/15 28/12/16 23/33/11
f 17/34/5 26/5/14 27/8/15 19/35/7
