# Blender 5.1.2
# www.blender.org
mtllib tree082.mtl
o tree082
v -1.185818 0.000000 1.204203
v 1.204203 0.000000 -1.185818
v -1.185818 3.250000 1.204203
v 1.204203 3.250000 -1.185818
v 1.204203 0.000000 1.185818
v -1.185818 0.000000 -1.204203
v 1.204203 3.250000 1.185818
v -1.185818 3.250000 -1.204203
v 1.185818 0.000000 1.204203
v -1.204203 0.000000 -1.185818
v 1.185818 3.250000 1.204203
v -1.204203 3.250000 -1.185818
v -1.204203 0.000000 1.185818
v 1.185818 0.000000 -1.204203
v -1.204203 3.250000 1.185818
v 1.185818 3.250000 -1.204203
vn 0.7071 -0.0000 0.7071
vn 0.7071 -0.0000 -0.7071
vn -0.7071 -0.0000 0.7071
vn -0.7071 -0.0000 -0.7071
vt 0.007812 0.007812
vt 0.992188 0.007812
vt 0.992188 0.992188
vt 0.007812 0.992188
s 0
usemtl tree82
f 1/1/1 2/2/1 4/3/1 3/4/1
f 5/1/2 6/2/2 8/3/2 7/4/2
f 9/1/3 11/4/3 12/3/3 10/2/3
f 13/1/4 15/4/4 16/3/4 14/2/4
o tree082_trunk
v 0.031966 -0.100000 0.008282
v 0.041947 0.819911 0.034942
v -0.068034 -0.100000 0.008282
v -0.013851 0.815170 0.034741
v 0.031966 -0.100000 -0.091718
v 0.041746 0.824653 -0.020856
v -0.068034 -0.100000 -0.091718
v -0.014053 0.819911 -0.021058
v -0.039506 1.162002 0.046253
v 0.030464 0.450000 -0.002230
v -0.037435 0.447629 -0.002331
v -0.037536 0.450000 -0.070230
v 0.030364 0.452371 -0.070129
vn 0.5770 -0.5718 0.5832
vn 0.7245 0.0264 0.6888
vn -0.5936 -0.5572 0.5807
vn -0.6820 -0.0531 0.7294
vn 0.5761 -0.5661 -0.5896
vn 0.7181 0.1797 -0.6724
vn -0.5926 -0.5527 -0.5859
vn -0.6883 0.1154 -0.7162
vn -0.1528 0.9818 0.1126
vn 0.7180 -0.0395 0.6949
vn -0.7195 0.0172 0.6943
vn -0.6969 0.1003 -0.7102
vn 0.6916 0.0535 -0.7203
vt 0.080547 0.061159
vt 0.149329 0.062365
vt 0.148425 0.071906
vt 0.080027 0.072775
vt 0.080289 0.042118
vt 0.149484 0.050527
vt 0.151217 0.059953
vt 0.081820 0.053644
vt 0.080294 0.075290
vt 0.147761 0.076937
vt 0.148573 0.086487
vt 0.080700 0.086910
vt 0.081745 0.013781
vt 0.151327 0.007480
vt 0.149593 0.016905
vt 0.080214 0.025307
vt 0.197144 0.101025
vt 0.197144 0.087334
vt 0.210835 0.087334
vt 0.210835 0.101025
vt 0.210835 0.033708
vt 0.210835 0.075732
vt 0.210835 0.073644
vt 0.012163 0.020082
vt 0.010835 0.033708
vt 0.012828 0.073644
vt 0.012828 0.087334
vt 0.011095 0.033708
vt 0.012422 0.047335
vt 0.011764 0.059953
vt 0.011629 0.073644
s 1
usemtl tree82
f 26/5/14 18/6/6 20/7/8 27/8/15
f 27/9/15 20/10/8 24/11/12 28/12/16
f 28/13/16 24/14/12 22/15/10 29/16/17
f 29/17/17 22/18/10 18/19/6 26/20/14
f 19/21/7 23/22/11 21/23/9 17/24/5
f 18/19/6 22/18/10 25/25/13
f 24/11/12 20/10/8 25/25/13
f 22/15/10 24/14/12 25/26/13
f 20/7/8 18/6/6 25/27/13
f 21/28/9 29/17/17 26/20/14 17/29/5
f 23/30/11 28/13/16 29/16/17 21/31/9
f 19/32/7 27/9/15 28/12/16 23/33/11
f 17/34/5 26/5/14 27/8/15 19/35/7
