# Blender 5.1.2
# www.blender.org
mtllib tree089.mtl
o tree089
v -1.369666 0.000000 1.388051
v 1.388051 0.000000 -1.369666
v -1.369666 3.250000 1.388051
v 1.388051 3.250000 -1.369666
v 1.388051 0.000000 1.369666
v -1.369666 0.000000 -1.388051
v 1.388051 3.250000 1.369666
v -1.369666 3.250000 -1.388051
v 1.369666 0.000000 1.388051
v -1.388051 0.000000 -1.369666
v 1.369666 3.250000 1.388051
v -1.388051 3.250000 -1.369666
v -1.388051 0.000000 1.369666
v 1.369666 0.000000 -1.388051
v -1.388051 3.250000 1.369666
v 1.369666 3.250000 -1.388051
vn 0.7071 -0.0000 0.7071
vn 0.7071 -0.0000 -0.7071
vn -0.7071 -0.0000 0.7071
vn -0.7071 -0.0000 -0.7071
vt 0.007812 0.007812
vt 0.992188 0.007812
vt 0.992188 0.992188
vt 0.007812 0.992188
s 0
usemtl tree89
f 1/1/1 2/2/1 4/3/1 3/4/1
f 5/1/2 6/2/2 8/3/2 7/4/2
f 9/1/3 11/4/3 12/3/3 10/2/3
f 13/1/4 15/4/4 16/3/4 14/2/4
o tree089_trunk
v 0.083278 -0.100000 0.176373
v 0.036621 0.835994 0.239097
v -0.083764 -0.100000 0.176373
v -0.035918 0.831253 0.238835
v 0.083278 -0.100000 0.009330
v 0.036359 0.840736 0.166559
v -0.083764 -0.100000 0.009330
v -0.036180 0.835994 0.166297
v -0.003587 1.124887 0.188119
v 0.035535 0.450000 0.202168
v -0.063451 0.447341 0.202021
v -0.063598 0.450000 0.103036
v 0.035388 0.452659 0.103183
vn 0.6069 -0.5652 0.5587
vn 0.6888 0.0716 0.7214
vn -0.5914 -0.5792 0.5610
vn -0.6787 0.0788 0.7302
vn 0.5935 -0.5103 -0.6224
vn 0.7271 0.1290 -0.6743
vn -0.5803 -0.5219 -0.6252
vn -0.7186 0.1498 -0.6791
vn -0.0142 0.9987 -0.0480
vn 0.7035 -0.0218 0.7103
vn -0.7153 -0.0100 0.6988
vn -0.7096 0.1522 -0.6880
vn 0.6929 0.1496 -0.7054
vt 0.083622 0.061774
vt 0.152405 0.062980
vt 0.151501 0.072521
vt 0.083103 0.073390
vt 0.083365 0.042733
vt 0.152560 0.051143
vt 0.154293 0.060568
vt 0.084896 0.054259
vt 0.083370 0.075906
vt 0.150837 0.077553
vt 0.151649 0.087102
vt 0.083776 0.087526
vt 0.084821 0.014396
vt 0.154402 0.008095
vt 0.152669 0.017520
vt 0.083290 0.025922
vt 0.200220 0.101641
vt 0.200220 0.087950
vt 0.213911 0.087950
vt 0.213911 0.101641
vt 0.213911 0.034323
vt 0.213911 0.076347
vt 0.213911 0.074259
vt 0.015239 0.020697
vt 0.013911 0.034323
vt 0.015904 0.074259
vt 0.015904 0.087950
vt 0.014171 0.034324
vt 0.015498 0.047950
vt 0.014840 0.060568
vt 0.014705 0.074259
s 1
usemtl tree89
f 26/5/14 18/6/6 20/7/8 27/8/15
f 27/9/15 20/10/8 24/11/12 28/12/16
f 28/13/16 24/14/12 22/15/10 29/16/17
f 29/17/17 22/18/10 18/19/6 26/20/14
f 19/21/7 23/22/11 21/23/9 17/24/5
f 18/19/6 22/18/10 25/25/13
f 24/11/12 20/10/8 25/25/13
f 22/15/10 24/14/12 25/26/13
f 20/7/8 18/6/6 25/27/13
f 21/28/9 29/17/17 26/20/14 17/29/5
f 23/30/11 28/13/16 29/16/17 21/31/9
f 19/32/7 27/9/15 28/12/16 23/33/11
f 17/34/5 26/5/14 27/8/15 19/35/7
