# Blender 5.1.2
# www.blender.org
mtllib tree037.mtl
o tree037
v -1.195011 0.000000 1.209153
v 0.926310 0.000000 -0.912168
v -1.195011 4.993049 1.209153
v 0.926310 4.993049 -0.912168
v 1.187939 0.000000 1.173797
v -0.912168 0.000000 -0.926310
v 1.187940 4.993049 1.173797
v -0.912168 4.993049 -0.926310
v 1.173797 0.000000 1.187940
v -0.926310 0.000000 -0.912168
v 1.173797 4.993049 1.187940
v -0.926310 4.993049 -0.912168
v -1.209153 0.000000 1.195010
v 0.912168 0.000000 -0.926310
v -1.209153 4.993049 1.195011
v 0.912168 4.993049 -0.926310
vn 0.7071 -0.0000 0.7071
vn 0.7071 -0.0000 -0.7071
vn -0.7071 -0.0000 0.7071
vn -0.7071 -0.0000 -0.7071
vt 0.171875 0.007812
vt 0.812500 0.007812
vt 0.812500 0.992188
vt 0.171875 0.992188
s 0
usemtl tree37
f 1/1/1 2/2/1 4/3/1 3/4/1
f 5/1/2 6/2/2 8/3/2 7/4/2
f 9/1/3 11/4/3 12/3/3 10/2/3
f 13/1/4 15/4/4 16/3/4 14/2/4
o tree037_trunk
v 0.082071 -0.100000 -0.002782
v 0.006787 1.600000 0.105782
v -0.067929 -0.100000 -0.002782
v -0.049012 1.595258 0.105580
v 0.082071 -0.100000 -0.152782
v 0.006585 1.604741 0.049983
v -0.067929 -0.100000 -0.152782
v -0.049213 1.600000 0.049782
v -0.021666 2.462002 0.064093
v 0.023393 0.780000 0.023393
v -0.044506 0.777629 0.023293
v -0.044607 0.780000 -0.044607
v 0.023293 0.782371 -0.044506
vn 0.5997 -0.5668 0.5649
vn 0.6917 0.0015 0.7222
vn -0.5872 -0.5777 0.5669
vn -0.6944 -0.0135 0.7195
vn 0.5905 -0.5278 -0.6105
vn 0.7181 0.0634 -0.6930
vn -0.5796 -0.5375 -0.6126
vn -0.7239 0.0570 -0.6875
vn -0.0006 0.9999 -0.0158
vn 0.7110 -0.0150 0.7031
vn -0.7107 -0.0377 0.7025
vn -0.7052 0.0917 -0.7030
vn 0.6991 0.1152 -0.7057
vt 0.084521 0.155289
vt 0.085727 0.086506
vt 0.095268 0.087410
vt 0.096137 0.155808
vt 0.065480 0.155546
vt 0.073890 0.086351
vt 0.083315 0.084618
vt 0.077006 0.154016
vt 0.098653 0.155541
vt 0.100300 0.088075
vt 0.109849 0.087263
vt 0.110273 0.155135
vt 0.037143 0.154091
vt 0.030842 0.084509
vt 0.040267 0.086242
vt 0.048669 0.155621
vt 0.124388 0.038691
vt 0.110697 0.038691
vt 0.110697 0.025000
vt 0.124388 0.025000
vt 0.057071 0.025000
vt 0.099094 0.025000
vt 0.097006 0.025000
vt 0.043444 0.223672
vt 0.057071 0.225000
vt 0.097006 0.223007
vt 0.110697 0.223007
vt 0.057071 0.224741
vt 0.070697 0.223413
vt 0.083315 0.224072
vt 0.097006 0.224206
s 1
usemtl tree37
f 26/5/14 18/6/6 20/7/8 27/8/15
f 27/9/15 20/10/8 24/11/12 28/12/16
f 28/13/16 24/14/12 22/15/10 29/16/17
f 29/17/17 22/18/10 18/19/6 26/20/14
f 19/21/7 23/22/11 21/23/9 17/24/5
f 18/19/6 22/18/10 25/25/13
f 24/11/12 20/10/8 25/25/13
f 22/15/10 24/14/12 25/26/13
f 20/7/8 18/6/6 25/27/13
f 21/28/9 29/17/17 26/20/14 17/29/5
f 23/30/11 28/13/16 29/16/17 21/31/9
f 19/32/7 27/9/15 28/12/16 23/33/11
f 17/34/5 26/5/14 27/8/15 19/35/7
