# Blender 5.1.2
# www.blender.org
mtllib tree058.mtl
o tree058
v -1.141695 0.000000 1.174787
v 1.174787 0.000000 -1.141695
v -1.141695 4.914000 1.174787
v 1.174787 4.914000 -1.141695
v 1.174787 0.000000 1.141695
v -1.141695 0.000000 -1.174787
v 1.174787 4.914000 1.141695
v -1.141695 4.914000 -1.174787
v 1.141695 0.000000 1.174787
v -1.174787 0.000000 -1.141695
v 1.141695 4.914000 1.174787
v -1.174787 4.914000 -1.141695
v -1.174787 0.000000 1.141695
v 1.141695 0.000000 -1.174787
v -1.174787 4.914000 1.141695
v 1.141695 4.914000 -1.174787
vn 0.7071 -0.0000 0.7071
vn 0.7071 -0.0000 -0.7071
vn -0.7071 -0.0000 0.7071
vn -0.7071 -0.0000 -0.7071
vt 0.125000 0.007812
vt 0.875000 0.007812
vt 0.875000 0.992188
vt 0.125000 0.992188
s 0
usemtl tree58
f 1/1/1 2/2/1 4/3/1 3/4/1
f 5/1/2 6/2/2 8/3/2 7/4/2
f 9/1/3 11/4/3 12/3/3 10/2/3
f 13/1/4 15/4/4 16/3/4 14/2/4
o tree058_trunk
v 0.084609 -0.100000 0.139791
v 0.019458 2.040000 0.005316
v -0.083223 -0.100000 0.139791
v -0.047500 2.034310 0.005074
v 0.084609 -0.100000 -0.028040
v 0.019216 2.045690 -0.061643
v -0.083223 -0.100000 -0.028040
v -0.047742 2.040000 -0.061884
v -0.014595 2.602003 -0.041973
v 0.054265 0.990000 0.054265
v -0.061164 0.985970 0.054093
v -0.061336 0.990000 -0.061336
v 0.054093 0.994030 -0.061164
vn 0.5812 -0.5495 0.6002
vn 0.7013 0.0786 0.7085
vn -0.5799 -0.5506 0.6004
vn -0.7076 0.0681 0.7033
vn 0.5881 -0.5775 -0.5663
vn 0.7058 0.0462 -0.7069
vn -0.5852 -0.5801 -0.5666
vn -0.7091 0.0375 -0.7042
vn -0.0012 0.9997 -0.0239
vn 0.7093 0.0655 0.7019
vn -0.7099 0.0562 0.7021
vn -0.7030 0.0003 -0.7111
vn 0.7047 0.0106 -0.7095
vt 0.084521 0.155289
vt 0.085727 0.086506
vt 0.095268 0.087410
vt 0.096137 0.155808
vt 0.065480 0.155546
vt 0.073890 0.086351
vt 0.083315 0.084618
vt 0.077006 0.154016
vt 0.098653 0.155541
vt 0.100300 0.088075
vt 0.109849 0.087263
vt 0.110273 0.155135
vt 0.037143 0.154091
vt 0.030842 0.084509
vt 0.040267 0.086242
vt 0.048669 0.155621
vt 0.124388 0.038691
vt 0.110697 0.038691
vt 0.110697 0.025000
vt 0.124388 0.025000
vt 0.057071 0.025000
vt 0.099094 0.025000
vt 0.097006 0.025000
vt 0.043444 0.223672
vt 0.057071 0.225000
vt 0.097006 0.223007
vt 0.110697 0.223007
vt 0.057071 0.224741
vt 0.070697 0.223413
vt 0.083315 0.224072
vt 0.097006 0.224206
s 1
usemtl tree58
f 26/5/14 18/6/6 20/7/8 27/8/15
f 27/9/15 20/10/8 24/11/12 28/12/16
f 28/13/16 24/14/12 22/15/10 29/16/17
f 29/17/17 22/18/10 18/19/6 26/20/14
f 19/21/7 23/22/11 21/23/9 17/24/5
f 18/19/6 22/18/10 25/25/13
f 24/11/12 20/10/8 25/25/13
f 22/15/10 24/14/12 25/26/13
f 20/7/8 18/6/6 25/27/13
f 21/28/9 29/17/17 26/20/14 17/29/5
f 23/30/11 28/13/16 29/16/17 21/31/9
f 19/32/7 27/9/15 28/12/16 23/33/11
f 17/34/5 26/5/14 27/8/15 19/35/7
