# Blender 5.1.2
# www.blender.org
mtllib tree074.mtl
o tree074
v -1.185818 0.000000 1.204203
v 1.204203 0.000000 -1.185818
v -1.185818 3.250000 1.204203
v 1.204203 3.250000 -1.185818
v 1.204203 0.000000 1.185818
v -1.185818 0.000000 -1.204203
v 1.204203 3.250000 1.185818
v -1.185818 3.250000 -1.204203
v 1.185818 0.000000 1.204203
v -1.204203 0.000000 -1.185818
v 1.185818 3.250000 1.204203
v -1.204203 3.250000 -1.185818
v -1.204203 0.000000 1.185818
v 1.185818 0.000000 -1.204203
v -1.204203 3.250000 1.185818
v 1.185818 3.250000 -1.204203
vn 0.7071 -0.0000 0.7071
vn 0.7071 -0.0000 -0.7071
vn -0.7071 -0.0000 0.7071
vn -0.7071 -0.0000 -0.7071
vt 0.039062 0.007812
vt 0.992188 0.007812
vt 0.992188 0.992188
vt 0.039062 0.992188
s 0
usemtl tree74
f 1/1/1 2/2/1 4/3/1 3/4/1
f 5/1/2 6/2/2 8/3/2 7/4/2
f 9/1/3 11/4/3 12/3/3 10/2/3
f 13/1/4 15/4/4 16/3/4 14/2/4
o tree074_trunk
v 0.066369 -0.100000 0.036194
v 0.043342 1.100000 0.033127
v -0.033631 -0.100000 0.036194
v -0.012456 1.095258 0.032925
v 0.066369 -0.100000 -0.063806
v 0.043141 1.104741 -0.022672
v -0.033631 -0.100000 -0.063806
v -0.012658 1.100000 -0.022873
v -0.054848 1.379284 0.061174
v 0.025815 0.450000 0.052208
v -0.042084 0.447629 0.052108
v -0.042185 0.450000 -0.015792
v 0.025715 0.452371 -0.015691
vn 0.6018 -0.5647 0.5648
vn 0.7469 0.0916 0.6586
vn -0.5739 -0.5889 0.5690
vn -0.6983 -0.0571 0.7135
vn 0.5948 -0.5355 -0.5996
vn 0.6992 0.1970 -0.6873
vn -0.5685 -0.5576 -0.6049
vn -0.6559 0.0721 -0.7514
vn -0.2375 0.9527 0.1898
vn 0.6884 0.0172 0.7251
vn -0.7071 0.0097 0.7070
vn -0.7252 0.0382 -0.6875
vn 0.7061 0.0431 -0.7068
vt 0.084521 0.155289
vt 0.085727 0.086506
vt 0.095268 0.087410
vt 0.096137 0.155808
vt 0.065480 0.155546
vt 0.073890 0.086351
vt 0.083315 0.084618
vt 0.077006 0.154016
vt 0.098653 0.155541
vt 0.100300 0.088075
vt 0.109849 0.087263
vt 0.110273 0.155135
vt 0.037143 0.154091
vt 0.030842 0.084509
vt 0.040267 0.086242
vt 0.048669 0.155621
vt 0.124388 0.038691
vt 0.110697 0.038691
vt 0.110697 0.025000
vt 0.124388 0.025000
vt 0.057071 0.025000
vt 0.099094 0.025000
vt 0.097006 0.025000
vt 0.043444 0.223672
vt 0.057071 0.225000
vt 0.097006 0.223007
vt 0.110697 0.223007
vt 0.057071 0.224741
vt 0.070697 0.223413
vt 0.083315 0.224072
vt 0.097006 0.224206
s 1
usemtl tree74
f 26/5/14 18/6/6 20/7/8 27/8/15
f 27/9/15 20/10/8 24/11/12 28/12/16
f 28/13/16 24/14/12 22/15/10 29/16/17
f 29/17/17 22/18/10 18/19/6 26/20/14
f 19/21/7 23/22/11 21/23/9 17/24/5
f 18/19/6 22/18/10 25/25/13
f 24/11/12 20/10/8 25/25/13
f 22/15/10 24/14/12 25/26/13
f 20/7/8 18/6/6 25/27/13
f 21/28/9 29/17/17 26/20/14 17/29/5
f 23/30/11 28/13/16 29/16/17 21/31/9
f 19/32/7 27/9/15 28/12/16 23/33/11
f 17/34/5 26/5/14 27/8/15 19/35/7
