# Blender 5.1.2
# www.blender.org
mtllib tree014.mtl
o tree014
v -1.077338 0.000000 1.077764
v 1.043983 0.000000 -1.043556
v -1.077338 3.000000 1.077765
v 1.043983 3.000000 -1.043556
v 1.072267 0.000000 1.063622
v -1.049054 0.000000 -1.057698
v 1.072267 3.000000 1.063622
v -1.049054 3.000000 -1.057698
v 1.058125 0.000000 1.077764
v -1.063196 0.000000 -1.043556
v 1.058125 3.000000 1.077764
v -1.063196 3.000000 -1.043556
v -1.091480 0.000000 1.063622
v 1.029840 0.000000 -1.057698
v -1.091480 3.000000 1.063622
v 1.029840 3.000000 -1.057698
vn 0.7071 -0.0000 0.7071
vn 0.7071 -0.0000 -0.7071
vn -0.7071 -0.0000 0.7071
vn -0.7071 -0.0000 -0.7071
vt 0.007812 0.007812
vt 0.992188 0.007812
vt 0.992188 0.992188
vt 0.007812 0.992188
s 0
usemtl tree14
f 1/1/1 2/2/1 4/3/1 3/4/1
f 5/1/2 6/2/2 8/3/2 7/4/2
f 9/1/3 11/4/3 12/3/3 10/2/3
f 13/1/4 15/4/4 16/3/4 14/2/4
o tree014_trunk
v 0.040000 -0.100000 0.050000
v 0.032142 0.480000 0.028000
v -0.060000 -0.100000 0.050000
v -0.023852 0.479189 0.027994
v 0.040000 -0.100000 -0.050000
v 0.032136 0.480810 -0.027994
v -0.060000 -0.100000 -0.050000
v -0.023858 0.480000 -0.028000
v 0.017831 0.842002 0.009448
v 0.027536 0.250000 0.037536
v -0.040364 0.247629 0.037435
v -0.040464 0.250000 -0.030464
v 0.027435 0.252371 -0.030364
vn 0.5861 -0.5588 0.5867
vn 0.7121 0.0384 0.7010
vn -0.5928 -0.5528 0.5857
vn -0.7060 0.0973 0.7015
vn 0.5853 -0.5534 -0.5927
vn 0.7030 0.0467 -0.7096
vn -0.5918 -0.5482 -0.5909
vn -0.6978 0.1029 -0.7088
vn 0.0373 0.9990 0.0260
vn 0.6996 0.0338 0.7137
vn -0.7058 0.0718 0.7048
vn -0.7124 0.0698 -0.6983
vn 0.7055 0.0285 -0.7081
vt 0.084521 0.155289
vt 0.085727 0.086506
vt 0.095268 0.087410
vt 0.096137 0.155808
vt 0.065480 0.155546
vt 0.073890 0.086351
vt 0.083315 0.084618
vt 0.077006 0.154016
vt 0.098653 0.155541
vt 0.100300 0.088075
vt 0.109849 0.087263
vt 0.110273 0.155135
vt 0.037143 0.154091
vt 0.030842 0.084509
vt 0.040267 0.086242
vt 0.048669 0.155621
vt 0.124388 0.038691
vt 0.110697 0.038691
vt 0.110697 0.025000
vt 0.124388 0.025000
vt 0.057071 0.025000
vt 0.099094 0.025000
vt 0.097006 0.025000
vt 0.043444 0.223672
vt 0.057071 0.225000
vt 0.097006 0.223007
vt 0.110697 0.223007
vt 0.057071 0.224741
vt 0.070697 0.223413
vt 0.083315 0.224072
vt 0.097006 0.224206
s 1
usemtl tree14
f 26/5/14 18/6/6 20/7/8 27/8/15
f 27/9/15 20/10/8 24/11/12 28/12/16
f 28/13/16 24/14/12 22/15/10 29/16/17
f 29/17/17 22/18/10 18/19/6 26/20/14
f 19/21/7 23/22/11 21/23/9 17/24/5
f 18/19/6 22/18/10 25/25/13
f 24/11/12 20/10/8 25/25/13
f 22/15/10 24/14/12 25/26/13
f 20/7/8 18/6/6 25/27/13
f 21/28/9 29/17/17 26/20/14 17/29/5
f 23/30/11 28/13/16 29/16/17 21/31/9
f 19/32/7 27/9/15 28/12/16 23/33/11
f 17/34/5 26/5/14 27/8/15 19/35/7
