# Blender 5.1.2
# www.blender.org
mtllib tree041.mtl
o tree041
v -1.761407 0.000000 1.756970
v 1.067021 0.000000 -1.071457
v -0.983589 4.993049 2.534788
v 1.844838 4.993049 -0.293640
v 1.752914 0.000000 1.721615
v -1.054300 0.000000 -1.085599
v 0.904386 4.993049 2.570143
v -1.902828 4.993049 -0.237071
v 1.738772 0.000000 1.735757
v -1.068442 0.000000 -1.071457
v 0.890244 4.993049 2.584285
v -1.916970 4.993049 -0.222929
v -1.775549 0.000000 1.742828
v 1.052878 0.000000 -1.085599
v -0.997731 4.993049 2.520645
v 1.830696 4.993049 -0.307782
v -1.832117 0.998610 1.686259
v 0.996310 0.998610 -1.142168
v -1.846259 0.998610 1.672117
v 0.982168 0.998610 -1.156310
v 1.774127 0.998610 1.700402
v -1.033087 0.998610 -1.106812
v 1.759985 0.998610 1.714544
v -1.047229 0.998610 -1.092670
vn 0.6772 -0.2877 0.6772
vn 0.6758 0.2943 -0.6758
vn -0.6758 -0.2943 0.6758
vn -0.6772 0.2877 -0.6772
vn 0.7036 0.0996 0.7036
vn -0.7036 -0.0996 -0.7036
vn 0.7068 -0.0300 -0.7068
vn -0.7068 0.0300 0.7068
vt 0.007812 0.203125
vt 0.992188 0.203125
vt 0.992188 0.992188
vt 0.007812 0.992188
vt 0.007812 0.007812
vt 0.992188 0.007812
s 0
usemtl tree41
f 17/1/1 18/2/1 4/3/1 3/4/1
f 21/1/2 22/2/2 8/3/2 7/4/2
f 23/1/3 11/4/3 12/3/3 24/2/3
f 19/1/4 15/4/4 16/3/4 20/2/4
f 1/5/5 2/6/5 18/2/5 17/1/5
f 13/5/6 19/1/6 20/2/6 14/6/6
f 5/5/7 6/6/7 22/2/7 21/1/7
f 9/5/8 23/1/8 24/2/8 10/6/8
o tree041_trunk
v 0.046360 -0.100000 0.059203
v 0.017289 1.900000 0.270548
v -0.053640 -0.100000 0.059203
v -0.038509 1.895258 0.270347
v 0.046360 -0.100000 -0.040797
v 0.017088 1.904741 0.214750
v -0.053640 -0.100000 -0.040797
v -0.038711 1.900000 0.214548
v -0.011164 2.762002 0.653123
v 0.019754 0.950000 -0.052256
v -0.048146 0.947629 -0.052357
v -0.048246 0.950000 -0.120256
v 0.019653 0.952371 -0.120156
v 0.004379 1.425000 0.052578
v -0.057470 1.421444 0.052426
v -0.057621 1.425000 -0.009423
v 0.004228 1.428556 -0.009271
vn 0.5788 -0.5427 0.6086
vn 0.7239 -0.2781 0.6313
vn -0.5742 -0.5467 0.6094
vn -0.6967 -0.2746 0.6627
vn 0.5901 -0.5892 -0.5520
vn 0.6978 0.3136 -0.6440
vn -0.5826 -0.5955 -0.5530
vn -0.7101 0.3299 -0.6220
vn -0.0005 0.9030 0.4296
vn 0.7471 -0.0159 0.6645
vn -0.7413 -0.0410 0.6700
vn -0.6734 0.0501 -0.7376
vn 0.6728 0.0764 -0.7358
vn 0.7327 -0.2202 0.6439
vn -0.7323 -0.2044 0.6495
vn -0.6972 0.2352 -0.6771
vn 0.6689 0.2518 -0.6994
vt 0.085124 0.120897
vt 0.085727 0.086506
vt 0.095268 0.087410
vt 0.095702 0.121609
vt 0.069685 0.120949
vt 0.073890 0.086351
vt 0.083315 0.084618
vt 0.080161 0.119317
vt 0.099476 0.121808
vt 0.100300 0.088075
vt 0.109849 0.087263
vt 0.110061 0.121199
vt 0.033992 0.119300
vt 0.030842 0.084509
vt 0.040267 0.086242
vt 0.044468 0.120932
vt 0.124388 0.038691
vt 0.110697 0.038691
vt 0.110697 0.025000
vt 0.124388 0.025000
vt 0.057071 0.025000
vt 0.099094 0.025000
vt 0.097006 0.025000
vt 0.043444 0.223672
vt 0.037143 0.154091
vt 0.048669 0.155621
vt 0.057071 0.225000
vt 0.097006 0.223007
vt 0.098653 0.155541
vt 0.110273 0.155135
vt 0.110697 0.223007
vt 0.057071 0.224741
vt 0.065480 0.155546
vt 0.077006 0.154016
vt 0.070697 0.223413
vt 0.083315 0.224072
vt 0.084521 0.155289
vt 0.096137 0.155808
vt 0.097006 0.224206
s 1
usemtl tree41
f 38/7/22 26/8/10 28/9/12 39/10/23
f 39/11/23 28/12/12 32/13/16 40/14/24
f 40/15/24 32/16/16 30/17/14 41/18/25
f 41/19/25 30/20/14 26/21/10 38/22/22
f 27/23/11 31/24/15 29/25/13 25/26/9
f 26/21/10 30/20/14 33/27/17
f 32/13/16 28/12/12 33/27/17
f 30/17/14 32/16/16 33/28/17
f 28/9/12 26/8/10 33/29/17
f 29/30/13 37/31/21 34/32/18 25/33/9
f 31/34/15 36/35/20 37/36/21 29/37/13
f 27/38/11 35/39/19 36/40/20 31/41/15
f 25/42/9 34/43/18 35/44/19 27/45/11
f 37/31/21 41/19/25 38/22/22 34/32/18
f 36/35/20 40/15/24 41/18/25 37/36/21
f 35/39/19 39/11/23 40/14/24 36/40/20
f 34/43/18 38/7/22 39/10/23 35/44/19
