# Blender 5.1.2
# www.blender.org
mtllib tree009.mtl
o tree009
v -1.060660 0.000000 1.060660
v 1.060660 0.000000 -1.060660
v -1.060660 3.000000 1.060660
v 1.060660 3.000000 -1.060660
v 1.025305 0.000000 1.081874
v -1.096015 0.000000 -1.039447
v 1.025305 3.000000 1.081873
v -1.096016 3.000000 -1.039447
v 1.011163 0.000000 1.096016
v -1.110158 0.000000 -1.025305
v 1.011163 3.000000 1.096016
v -1.110158 3.000000 -1.025305
v -1.074802 0.000000 1.046518
v 1.046518 0.000000 -1.074802
v -1.074802 3.000000 1.046518
v 1.046518 3.000000 -1.074802
vn 0.7071 -0.0000 0.7071
vn 0.7071 -0.0000 -0.7071
vn -0.7071 -0.0000 0.7071
vn -0.7071 -0.0000 -0.7071
vt 0.007812 0.007812
vt 0.992188 0.007812
vt 0.992188 0.992188
vt 0.007812 0.992188
s 0
usemtl tree09
f 1/1/1 2/2/1 4/3/1 3/4/1
f 5/1/2 6/2/2 8/3/2 7/4/2
f 9/1/3 11/4/3 12/3/3 10/2/3
f 13/1/4 15/4/4 16/3/4 14/2/4
o tree009_trunk
v 0.065000 -0.100000 0.065000
v 0.026529 0.730000 0.054813
v -0.065000 -0.100000 0.065000
v -0.040429 0.724310 0.054571
v 0.065000 -0.100000 -0.065000
v 0.026287 0.735690 -0.012145
v -0.065000 -0.100000 -0.065000
v -0.040671 0.730000 -0.012387
v -0.000453 1.142002 0.085306
v 0.036668 0.450000 0.064953
v -0.043620 0.447197 0.064834
v -0.043739 0.450000 -0.015455
v 0.036549 0.452803 -0.015336
vn 0.5931 -0.5636 0.5749
vn 0.7217 0.0226 0.6918
vn -0.5894 -0.5667 0.5757
vn -0.7259 0.0279 0.6872
vn 0.5880 -0.5403 -0.6019
vn 0.6806 0.1255 -0.7219
vn -0.5849 -0.5435 -0.6021
vn -0.6943 0.1168 -0.7101
vn 0.0150 0.9881 0.1531
vn 0.6995 0.0440 0.7133
vn -0.6996 0.0304 0.7138
vn -0.7129 0.0544 -0.6992
vn 0.7130 0.0667 -0.6980
vt 0.075625 0.060544
vt 0.144408 0.061749
vt 0.143504 0.071290
vt 0.075106 0.072159
vt 0.075368 0.041503
vt 0.144562 0.049912
vt 0.146296 0.059338
vt 0.076898 0.053029
vt 0.075373 0.074675
vt 0.142839 0.076322
vt 0.143651 0.085871
vt 0.075779 0.086295
vt 0.076823 0.013166
vt 0.146405 0.006864
vt 0.144671 0.016290
vt 0.075293 0.024692
vt 0.192223 0.100410
vt 0.192223 0.086719
vt 0.205914 0.086719
vt 0.205914 0.100410
vt 0.205914 0.033093
vt 0.205914 0.075116
vt 0.205914 0.073028
vt 0.007242 0.019467
vt 0.005914 0.033093
vt 0.007906 0.073028
vt 0.007906 0.086719
vt 0.006173 0.033093
vt 0.007501 0.046720
vt 0.006842 0.059338
vt 0.006707 0.073028
s 1
usemtl tree09
f 26/5/14 18/6/6 20/7/8 27/8/15
f 27/9/15 20/10/8 24/11/12 28/12/16
f 28/13/16 24/14/12 22/15/10 29/16/17
f 29/17/17 22/18/10 18/19/6 26/20/14
f 19/21/7 23/22/11 21/23/9 17/24/5
f 18/19/6 22/18/10 25/25/13
f 24/11/12 20/10/8 25/25/13
f 22/15/10 24/14/12 25/26/13
f 20/7/8 18/6/6 25/27/13
f 21/28/9 29/17/17 26/20/14 17/29/5
f 23/30/11 28/13/16 29/16/17 21/31/9
f 19/32/7 27/9/15 28/12/16 23/33/11
f 17/34/5 26/5/14 27/8/15 19/35/7
