# Blender 5.1.2
# www.blender.org
mtllib tree002.mtl
o tree002
v -1.060660 0.000000 0.989949
v 1.060660 0.000000 -1.131371
v -1.060660 3.000000 0.989949
v 1.060660 3.000000 -1.131371
v 1.025305 0.000000 1.011163
v -1.096015 0.000000 -1.110158
v 1.025305 3.000000 1.011163
v -1.096016 3.000000 -1.110158
v 1.011163 0.000000 1.025305
v -1.110158 0.000000 -1.096015
v 1.011163 3.000000 1.025305
v -1.110158 3.000000 -1.096016
v -1.074802 0.000000 0.975807
v 1.046518 0.000000 -1.145513
v -1.074802 3.000000 0.975807
v 1.046518 3.000000 -1.145513
vn 0.7071 -0.0000 0.7071
vn 0.7071 -0.0000 -0.7071
vn -0.7071 -0.0000 0.7071
vn -0.7071 -0.0000 -0.7071
vt 0.007812 0.007812
vt 0.992188 0.007812
vt 0.992188 0.992188
vt 0.007812 0.992188
s 0
usemtl tree02
f 1/1/1 2/2/1 4/3/1 3/4/1
f 5/1/2 6/2/2 8/3/2 7/4/2
f 9/1/3 11/4/3 12/3/3 10/2/3
f 13/1/4 15/4/4 16/3/4 14/2/4
o tree002_trunk
v 0.050000 -0.100000 0.050000
v 0.020858 1.000000 0.006716
v -0.050000 -0.100000 0.050000
v -0.048890 0.994073 0.006464
v 0.050000 -0.100000 -0.050000
v 0.020606 1.005927 -0.063032
v -0.050000 -0.100000 -0.050000
v -0.049142 1.000000 -0.063284
v -0.014595 1.452002 0.071164
vn 0.5825 -0.5606 0.5885
vn 0.7339 0.0021 0.6792
vn -0.5764 -0.5658 0.5896
vn -0.7330 -0.0027 0.6802
vn 0.5869 -0.5729 -0.5721
vn 0.6737 0.1392 -0.7258
vn -0.5779 -0.5808 -0.5733
vn -0.6862 0.1168 -0.7180
vn -0.0016 0.9768 0.2139
vt 0.083315 0.224072
vt 0.085727 0.086506
vt 0.095268 0.087410
vt 0.097006 0.224206
vt 0.057071 0.224741
vt 0.073890 0.086351
vt 0.083315 0.084618
vt 0.070697 0.223413
vt 0.097006 0.223007
vt 0.100300 0.088075
vt 0.109849 0.087263
vt 0.110697 0.223007
vt 0.043444 0.223672
vt 0.030842 0.084509
vt 0.040267 0.086242
vt 0.057071 0.225000
vt 0.124388 0.038691
vt 0.110697 0.038691
vt 0.110697 0.025000
vt 0.124388 0.025000
vt 0.057071 0.025000
vt 0.099094 0.025000
vt 0.097006 0.025000
s 1
usemtl tree02
f 17/5/5 18/6/6 20/7/8 19/8/7
f 19/9/7 20/10/8 24/11/12 23/12/11
f 23/13/11 24/14/12 22/15/10 21/16/9
f 21/17/9 22/18/10 18/19/6 17/20/5
f 19/21/7 23/22/11 21/23/9 17/24/5
f 18/19/6 22/18/10 25/25/13
f 24/11/12 20/10/8 25/25/13
f 22/15/10 24/14/12 25/26/13
f 20/7/8 18/6/6 25/27/13
