# Blender 5.1.2
# www.blender.org
mtllib tree103.mtl
o tree103
v -1.185818 0.000000 1.204203
v 1.571899 0.000000 -1.553514
v -1.185818 3.900000 1.204203
v 1.571899 3.900000 -1.553514
v 1.204203 0.000000 1.185818
v -1.553514 0.000000 -1.571898
v 1.204203 3.900000 1.185818
v -1.553514 3.900000 -1.571898
v 1.185818 0.000000 1.204203
v -1.571898 0.000000 -1.553514
v 1.185818 3.900000 1.204203
v -1.571898 3.900000 -1.553514
v -1.204203 0.000000 1.185818
v 1.553514 0.000000 -1.571898
v -1.204203 3.900000 1.185818
v 1.553514 3.900000 -1.571898
vn 0.7071 -0.0000 0.7071
vn 0.7071 -0.0000 -0.7071
vn -0.7071 -0.0000 0.7071
vn -0.7071 -0.0000 -0.7071
vt 0.007812 0.007812
vt 0.992188 0.007812
vt 0.992188 0.992188
vt 0.007812 0.992188
s 0
usemtl tree103
f 1/1/1 2/2/1 4/3/1 3/4/1
f 5/1/2 6/2/2 8/3/2 7/4/2
f 9/1/3 11/4/3 12/3/3 10/2/3
f 13/1/4 15/4/4 16/3/4 14/2/4
o tree103_trunk
v 0.087337 -0.100000 0.120348
v 0.056390 1.100000 -0.075696
v -0.106206 -0.100000 0.120348
v 0.000591 1.095258 -0.075897
v 0.087337 -0.100000 -0.073195
v 0.056188 1.104741 -0.131494
v -0.106206 -0.100000 -0.073195
v 0.000390 1.100000 -0.131696
v 0.030439 1.662002 -0.119887
v 0.067812 0.450000 0.020342
v -0.041987 0.446166 0.020179
v -0.042149 0.450000 -0.089620
v 0.067650 0.453834 -0.089457
vn 0.5778 -0.5192 0.6298
vn 0.7132 0.0993 0.6939
vn -0.6021 -0.4986 0.6236
vn -0.7110 0.1225 0.6924
vn 0.5904 -0.5753 -0.5661
vn 0.7018 0.0084 -0.7123
vn -0.6151 -0.5529 -0.5620
vn -0.6966 0.0228 -0.7171
vn 0.0034 0.9996 -0.0284
vn 0.7050 0.1347 0.6963
vn -0.6976 0.1809 0.6933
vn -0.7042 0.0312 -0.7093
vn 0.7102 -0.0149 -0.7039
vt 0.084521 0.155289
vt 0.085727 0.086506
vt 0.095268 0.087410
vt 0.096137 0.155808
vt 0.065480 0.155546
vt 0.073890 0.086351
vt 0.083315 0.084618
vt 0.077006 0.154016
vt 0.098653 0.155541
vt 0.100300 0.088075
vt 0.109849 0.087263
vt 0.110273 0.155135
vt 0.037143 0.154091
vt 0.030842 0.084509
vt 0.040267 0.086242
vt 0.048669 0.155621
vt 0.124388 0.038691
vt 0.110697 0.038691
vt 0.110697 0.025000
vt 0.124388 0.025000
vt 0.057071 0.025000
vt 0.099094 0.025000
vt 0.097006 0.025000
vt 0.043444 0.223672
vt 0.057071 0.225000
vt 0.097006 0.223007
vt 0.110697 0.223007
vt 0.057071 0.224741
vt 0.070697 0.223413
vt 0.083315 0.224072
vt 0.097006 0.224206
s 1
usemtl tree103
f 26/5/14 18/6/6 20/7/8 27/8/15
f 27/9/15 20/10/8 24/11/12 28/12/16
f 28/13/16 24/14/12 22/15/10 29/16/17
f 29/17/17 22/18/10 18/19/6 26/20/14
f 19/21/7 23/22/11 21/23/9 17/24/5
f 18/19/6 22/18/10 25/25/13
f 24/11/12 20/10/8 25/25/13
f 22/15/10 24/14/12 25/26/13
f 20/7/8 18/6/6 25/27/13
f 21/28/9 29/17/17 26/20/14 17/29/5
f 23/30/11 28/13/16 29/16/17 21/31/9
f 19/32/7 27/9/15 28/12/16 23/33/11
f 17/34/5 26/5/14 27/8/15 19/35/7
