# Blender 5.1.2
# www.blender.org
mtllib tree101.mtl
o tree101
v -1.222588 0.000000 1.240973
v 1.535129 0.000000 -1.516744
v -2.509522 3.900000 -0.045962
v 0.248195 3.900000 -2.803679
v 1.250165 0.000000 1.231781
v -1.507552 0.000000 -1.525936
v 2.537100 3.900000 -0.055154
v -0.220617 3.900000 -2.812871
v 1.231780 0.000000 1.250165
v -1.525936 0.000000 -1.507552
v 2.518715 3.900000 -0.036769
v -0.239002 3.900000 -2.794486
v -1.240973 0.000000 1.222588
v 1.516744 0.000000 -1.535129
v -2.527907 3.900000 -0.064347
v 0.229810 3.900000 -2.822063
v 1.231780 0.195000 1.250165
v -1.525936 0.195000 -1.507552
v 1.250165 0.195000 1.231781
v -1.507552 0.195000 -1.525936
v -1.222588 0.195000 1.240973
v 1.535129 0.195000 -1.516744
v -1.240973 0.195000 1.222588
v 1.516744 0.195000 -1.535129
vn 0.6347 0.4409 0.6347
vn 0.6347 -0.4409 -0.6347
vn -0.6347 0.4409 0.6347
vn -0.6347 -0.4409 -0.6347
vn -0.7071 -0.0000 0.7071
vn 0.7071 -0.0000 -0.7071
vn 0.7071 -0.0000 0.7071
vn -0.7071 -0.0000 -0.7071
vt 0.007812 0.046875
vt 0.992188 0.054688
vt 0.992188 0.992188
vt 0.007812 0.992188
vt 0.007812 0.007812
vt 0.992188 0.007812
s 0
usemtl tree101
f 21/1/1 22/2/1 4/3/1 3/4/1
f 19/1/2 20/2/2 8/3/2 7/4/2
f 17/1/3 11/4/3 12/3/3 18/2/3
f 23/1/4 15/4/4 16/3/4 24/2/4
f 9/5/5 17/1/5 18/2/5 10/6/5
f 5/5/6 6/6/6 20/2/6 19/1/6
f 1/5/7 2/6/7 22/2/7 21/1/7
f 13/5/8 23/1/8 24/2/8 14/6/8
o tree101_trunk
v 0.086570 -0.100000 0.086570
v 0.054610 0.578680 -0.259039
v -0.072428 -0.100000 0.086570
v -0.052472 0.600079 -0.261177
v 0.086570 -0.100000 -0.072428
v 0.052472 0.557282 -0.366122
v -0.072428 -0.100000 -0.072428
v -0.054610 0.578680 -0.368259
v -0.022461 1.062874 -0.277821
v 0.090724 0.274930 0.086771
v -0.028531 0.320280 0.078029
v -0.037274 0.274930 -0.041226
v 0.081982 0.229581 -0.032484
vn 0.5735 -0.5824 0.5762
vn 0.8395 0.3466 0.4185
vn -0.6130 -0.5411 0.5757
vn -0.7856 0.2498 0.5661
vn 0.5815 -0.5399 -0.6085
vn 0.5825 -0.2539 -0.7722
vn -0.5900 -0.5348 -0.6048
vn -0.6578 -0.1792 -0.7316
vn -0.0425 0.9967 0.0696
vn 0.6662 0.2653 0.6970
vn -0.5408 0.4363 0.7191
vn -0.8508 -0.2094 -0.4820
vn 0.7965 -0.1201 -0.5927
vt 0.084521 0.155289
vt 0.085727 0.086506
vt 0.095268 0.087410
vt 0.096137 0.155808
vt 0.065480 0.155546
vt 0.073890 0.086351
vt 0.083315 0.084618
vt 0.077006 0.154016
vt 0.098653 0.155541
vt 0.100300 0.088075
vt 0.109849 0.087263
vt 0.110273 0.155135
vt 0.037143 0.154091
vt 0.030842 0.084509
vt 0.040267 0.086242
vt 0.048669 0.155621
vt 0.124388 0.038691
vt 0.110697 0.038691
vt 0.110697 0.025000
vt 0.124388 0.025000
vt 0.057071 0.025000
vt 0.099094 0.025000
vt 0.097006 0.025000
vt 0.043444 0.223672
vt 0.057071 0.225000
vt 0.097006 0.223007
vt 0.110697 0.223007
vt 0.057071 0.224741
vt 0.070697 0.223413
vt 0.083315 0.224072
vt 0.097006 0.224206
s 1
usemtl tree101
f 34/7/18 26/8/10 28/9/12 35/10/19
f 35/11/19 28/12/12 32/13/16 36/14/20
f 36/15/20 32/16/16 30/17/14 37/18/21
f 37/19/21 30/20/14 26/21/10 34/22/18
f 27/23/11 31/24/15 29/25/13 25/26/9
f 26/21/10 30/20/14 33/27/17
f 32/13/16 28/12/12 33/27/17
f 30/17/14 32/16/16 33/28/17
f 28/9/12 26/8/10 33/29/17
f 29/30/13 37/19/21 34/22/18 25/31/9
f 31/32/15 36/15/20 37/18/21 29/33/13
f 27/34/11 35/11/19 36/14/20 31/35/15
f 25/36/9 34/7/18 35/10/19 27/37/11
