# Blender 5.1.2
# www.blender.org
mtllib tree005.mtl
o tree005
v -1.039447 0.000000 1.053589
v 1.081873 0.000000 -1.067731
v -1.463711 3.000000 0.629325
v 0.657609 3.000000 -1.491995
v 1.046518 0.000000 1.074803
v -1.074802 0.000000 -1.046518
v 1.470782 3.000000 0.650538
v -0.650538 3.000000 -1.470782
v 1.032376 0.000000 1.088945
v -1.088944 0.000000 -1.032376
v 1.456640 3.000000 0.664680
v -0.664680 3.000000 -1.456640
v -1.053589 0.000000 1.039447
v 1.067731 0.000000 -1.081873
v -1.477853 3.000000 0.615183
v 0.643467 3.000000 -1.506137
vn 0.6934 0.1961 0.6934
vn 0.6934 -0.1961 -0.6934
vn -0.6934 0.1961 0.6934
vn -0.6934 -0.1961 -0.6934
vt 0.007812 0.007812
vt 0.992188 0.007812
vt 0.992188 0.992188
vt 0.007812 0.992188
s 0
usemtl tree05
f 1/1/1 2/2/1 4/3/1 3/4/1
f 5/1/2 6/2/2 8/3/2 7/4/2
f 9/1/3 11/4/3 12/3/3 10/2/3
f 13/1/4 15/4/4 16/3/4 14/2/4
o tree005_trunk
v 0.042929 -0.100000 0.071213
v 0.042142 1.090000 -0.184132
v -0.057071 -0.100000 0.071213
v -0.013656 1.085258 -0.184333
v 0.042929 -0.100000 -0.028787
v 0.041941 1.094741 -0.239931
v -0.057071 -0.100000 -0.028787
v -0.013858 1.090000 -0.240132
v 0.013689 1.562002 -0.239963
v 0.044607 0.450000 -0.068530
v -0.023293 0.447629 -0.068631
v -0.023393 0.450000 -0.136530
v 0.044506 0.452371 -0.136430
v 0.039839 0.760000 -0.144009
v -0.022092 0.761606 -0.144079
v -0.022161 0.760000 -0.206009
v 0.039769 0.758394 -0.205939
vn 0.5630 -0.5076 0.6522
vn 0.7106 0.0998 0.6964
vn -0.5837 -0.4918 0.6461
vn -0.7105 0.1114 0.6948
vn 0.5881 -0.6246 -0.5139
vn 0.7050 -0.0139 -0.7091
vn -0.6078 -0.6066 -0.5125
vn -0.7002 -0.0089 -0.7139
vn -0.0014 0.9983 -0.0582
vn 0.7090 0.1730 0.6837
vn -0.6993 0.1971 0.6871
vn -0.7050 -0.1265 -0.6978
vn 0.7138 -0.1392 -0.6864
vn 0.7171 0.1292 0.6849
vn -0.7220 0.1330 0.6790
vn -0.6967 -0.1046 -0.7097
vn 0.6920 -0.1149 -0.7127
vt 0.085124 0.120897
vt 0.085727 0.086506
vt 0.095268 0.087410
vt 0.095702 0.121609
vt 0.069685 0.120949
vt 0.073890 0.086351
vt 0.083315 0.084618
vt 0.080161 0.119317
vt 0.099476 0.121808
vt 0.100300 0.088075
vt 0.109849 0.087263
vt 0.110061 0.121199
vt 0.033992 0.119300
vt 0.030842 0.084509
vt 0.040267 0.086242
vt 0.044468 0.120932
vt 0.124388 0.038691
vt 0.110697 0.038691
vt 0.110697 0.025000
vt 0.124388 0.025000
vt 0.057071 0.025000
vt 0.099094 0.025000
vt 0.097006 0.025000
vt 0.043444 0.223672
vt 0.037143 0.154091
vt 0.048669 0.155621
vt 0.057071 0.225000
vt 0.097006 0.223007
vt 0.098653 0.155541
vt 0.110273 0.155135
vt 0.110697 0.223007
vt 0.057071 0.224741
vt 0.065480 0.155546
vt 0.077006 0.154016
vt 0.070697 0.223413
vt 0.083315 0.224072
vt 0.084521 0.155289
vt 0.096137 0.155808
vt 0.097006 0.224206
s 1
usemtl tree05
f 30/5/18 18/6/6 20/7/8 31/8/19
f 31/9/19 20/10/8 24/11/12 32/12/20
f 32/13/20 24/14/12 22/15/10 33/16/21
f 33/17/21 22/18/10 18/19/6 30/20/18
f 19/21/7 23/22/11 21/23/9 17/24/5
f 18/19/6 22/18/10 25/25/13
f 24/11/12 20/10/8 25/25/13
f 22/15/10 24/14/12 25/26/13
f 20/7/8 18/6/6 25/27/13
f 21/28/9 29/29/17 26/30/14 17/31/5
f 23/32/11 28/33/16 29/34/17 21/35/9
f 19/36/7 27/37/15 28/38/16 23/39/11
f 17/40/5 26/41/14 27/42/15 19/43/7
f 29/29/17 33/17/21 30/20/18 26/30/14
f 28/33/16 32/13/20 33/16/21 29/34/17
f 27/37/15 31/9/19 32/12/20 28/38/16
f 26/41/14 30/5/18 31/8/19 27/42/15
