# Blender 5.1.2
# www.blender.org
mtllib tree010.mtl
o tree010
v -1.202082 0.000000 1.103087
v 0.919239 0.000000 -1.018234
v -1.202082 3.000000 1.103087
v 0.636396 3.000000 -1.301076
v 1.166726 0.000000 1.124300
v -0.954594 0.000000 -0.997020
v 1.449569 3.000000 0.841457
v -0.671751 3.000000 -1.279863
v 1.152584 0.000000 1.138442
v -0.968736 0.000000 -0.982878
v 1.435427 3.000000 0.855599
v -0.685894 3.000000 -1.265721
v -1.216224 0.000000 1.088944
v 0.905097 0.000000 -1.032376
v -1.216224 3.000000 1.088944
v 0.622254 3.000000 -1.315219
vn 0.7509 0.0664 0.6571
vn 0.7009 -0.1322 -0.7009
vn -0.7009 0.1322 0.7009
vn -0.7509 -0.0664 -0.6571
vt 0.007812 0.007812
vt 0.992188 0.007812
vt 0.992188 0.992188
vt 0.007812 0.992188
s 0
usemtl tree10
f 1/1/1 2/2/1 4/3/1 3/4/1
f 5/1/2 6/2/2 8/3/2 7/4/2
f 9/1/3 11/4/3 12/3/3 10/2/3
f 13/1/4 15/4/4 16/3/4 14/2/4
o tree010_trunk
v 0.050000 -0.100000 0.092426
v 0.013858 0.780000 -0.212416
v -0.050000 -0.100000 0.092426
v -0.042133 0.778998 -0.212425
v 0.050000 -0.100000 -0.007574
v 0.013849 0.781002 -0.268407
v -0.050000 -0.100000 -0.007574
v -0.042142 0.780000 -0.268416
v -0.014595 1.162002 -0.310674
v 0.037536 0.450000 -0.146312
v -0.030364 0.447629 -0.146413
v -0.030464 0.450000 -0.214312
v 0.037435 0.452371 -0.214212
vn 0.5617 -0.4518 0.6931
vn 0.6915 0.2077 0.6919
vn -0.5705 -0.4468 0.6891
vn -0.7134 0.1619 0.6818
vn 0.6080 -0.6502 -0.4556
vn 0.7050 -0.0464 -0.7077
vn -0.6097 -0.6480 -0.4564
vn -0.7129 -0.0793 -0.6968
vn -0.0013 0.9837 -0.1796
vn 0.7295 0.2331 0.6431
vn -0.7257 0.2119 0.6545
vn -0.6752 -0.1960 -0.7112
vn 0.6972 -0.1515 -0.7007
vt 0.084521 0.155289
vt 0.085727 0.086506
vt 0.095268 0.087410
vt 0.096137 0.155808
vt 0.065480 0.155546
vt 0.073890 0.086351
vt 0.083315 0.084618
vt 0.077006 0.154016
vt 0.098653 0.155541
vt 0.100300 0.088075
vt 0.109849 0.087263
vt 0.110273 0.155135
vt 0.037143 0.154091
vt 0.030842 0.084509
vt 0.040267 0.086242
vt 0.048669 0.155621
vt 0.124388 0.038691
vt 0.110697 0.038691
vt 0.110697 0.025000
vt 0.124388 0.025000
vt 0.057071 0.025000
vt 0.099094 0.025000
vt 0.097006 0.025000
vt 0.043444 0.223672
vt 0.057071 0.225000
vt 0.097006 0.223007
vt 0.110697 0.223007
vt 0.057071 0.224741
vt 0.070697 0.223413
vt 0.083315 0.224072
vt 0.097006 0.224206
s 1
usemtl tree10
f 26/5/14 18/6/6 20/7/8 27/8/15
f 27/9/15 20/10/8 24/11/12 28/12/16
f 28/13/16 24/14/12 22/15/10 29/16/17
f 29/17/17 22/18/10 18/19/6 26/20/14
f 19/21/7 23/22/11 21/23/9 17/24/5
f 18/19/6 22/18/10 25/25/13
f 24/11/12 20/10/8 25/25/13
f 22/15/10 24/14/12 25/26/13
f 20/7/8 18/6/6 25/27/13
f 21/28/9 29/17/17 26/20/14 17/29/5
f 23/30/11 28/13/16 29/16/17 21/31/9
f 19/32/7 27/9/15 28/12/16 23/33/11
f 17/34/5 26/5/14 27/8/15 19/35/7
