# Blender 5.1.2
# www.blender.org
mtllib tree045.mtl
o tree045
v -0.910047 0.000000 0.928431
v 0.928431 0.000000 -0.910046
v -0.910046 3.890964 0.928431
v 0.928431 3.890964 -0.910046
v 0.928431 0.000000 0.910047
v -0.910046 0.000000 -0.928431
v 0.928431 3.890964 0.910046
v -0.910046 3.890964 -0.928431
v 0.910047 0.000000 0.928431
v -0.928431 0.000000 -0.910047
v 0.910046 3.890964 0.928431
v -0.928431 3.890964 -0.910047
v -0.928431 0.000000 0.910046
v 0.910046 0.000000 -0.928431
v -0.928431 3.890964 0.910046
v 0.910047 3.890964 -0.928431
vn 0.7071 -0.0000 0.7071
vn 0.7071 -0.0000 -0.7071
vn -0.7071 -0.0000 0.7071
vn -0.7071 -0.0000 -0.7071
vt 0.203125 0.007812
vt 0.812500 0.007812
vt 0.812500 0.992188
vt 0.203125 0.992188
s 0
usemtl tree45
f 1/1/1 2/2/1 4/3/1 3/4/1
f 5/1/2 6/2/2 8/3/2 7/4/2
f 9/1/3 11/4/3 12/3/3 10/2/3
f 13/1/4 15/4/4 16/3/4 14/2/4
o tree045_trunk
v 0.089142 -0.100000 0.018431
v 0.028000 1.050000 0.042142
v -0.060858 -0.100000 0.018431
v -0.027799 1.045259 0.041941
v 0.089142 -0.100000 -0.131569
v 0.027799 1.054742 -0.013656
v -0.060858 -0.100000 -0.131569
v -0.028000 1.050000 -0.013858
v -0.007524 1.522002 0.035808
v 0.054536 0.450000 0.040393
v -0.047313 0.446444 0.040242
v -0.047464 0.450000 -0.061607
v 0.054384 0.453556 -0.061456
vn 0.5992 -0.5703 0.5619
vn 0.7057 0.0454 0.7070
vn -0.5871 -0.5809 0.5638
vn -0.7052 0.0293 0.7085
vn 0.5891 -0.5277 -0.6119
vn 0.7037 0.1073 -0.7024
vn -0.5789 -0.5368 -0.6138
vn -0.7070 0.0909 -0.7014
vn -0.0163 0.9988 0.0461
vn 0.6998 0.0221 0.7140
vn -0.7033 0.0042 0.7109
vn -0.7134 0.0926 -0.6946
vn 0.7069 0.1105 -0.6987
vt 0.084521 0.155289
vt 0.085727 0.086506
vt 0.095268 0.087410
vt 0.096137 0.155808
vt 0.065480 0.155546
vt 0.073890 0.086351
vt 0.083315 0.084618
vt 0.077006 0.154016
vt 0.098653 0.155541
vt 0.100300 0.088075
vt 0.109849 0.087263
vt 0.110273 0.155135
vt 0.037143 0.154091
vt 0.030842 0.084509
vt 0.040267 0.086242
vt 0.048669 0.155621
vt 0.124388 0.038691
vt 0.110697 0.038691
vt 0.110697 0.025000
vt 0.124388 0.025000
vt 0.057071 0.025000
vt 0.099094 0.025000
vt 0.097006 0.025000
vt 0.043444 0.223672
vt 0.057071 0.225000
vt 0.097006 0.223007
vt 0.110697 0.223007
vt 0.057071 0.224741
vt 0.070697 0.223413
vt 0.083315 0.224072
vt 0.097006 0.224206
s 1
usemtl tree45
f 26/5/14 18/6/6 20/7/8 27/8/15
f 27/9/15 20/10/8 24/11/12 28/12/16
f 28/13/16 24/14/12 22/15/10 29/16/17
f 29/17/17 22/18/10 18/19/6 26/20/14
f 19/21/7 23/22/11 21/23/9 17/24/5
f 18/19/6 22/18/10 25/25/13
f 24/11/12 20/10/8 25/25/13
f 22/15/10 24/14/12 25/26/13
f 20/7/8 18/6/6 25/27/13
f 21/28/9 29/17/17 26/20/14 17/29/5
f 23/30/11 28/13/16 29/16/17 21/31/9
f 19/32/7 27/9/15 28/12/16 23/33/11
f 17/34/5 26/5/14 27/8/15 19/35/7
