# Blender 5.1.2
# www.blender.org
mtllib tree081.mtl
o tree081
v -1.047933 0.000000 1.066317
v 1.342089 0.000000 -1.323704
v -1.875247 3.250000 0.239002
v 0.514774 3.250000 -2.151019
v 1.066317 0.000000 1.047933
v -1.323704 0.000000 -1.342089
v 1.985556 3.250000 0.128694
v -0.404465 3.250000 -2.261328
v 1.047933 0.000000 1.066317
v -1.342089 0.000000 -1.323704
v 1.967171 3.250000 0.147079
v -0.422850 3.250000 -2.242943
v -1.066317 0.000000 1.047932
v 1.323704 0.000000 -1.342089
v -1.893632 3.250000 0.220617
v 0.496389 3.250000 -2.169404
v 1.093894 0.487500 1.020355
v -1.342089 0.487500 -1.323704
v 1.112279 0.487500 1.001971
v -1.323704 0.487500 -1.342089
v -1.093894 0.487500 1.020355
v 1.296127 0.487500 -1.369666
v -1.112279 0.487500 1.001970
v 1.277742 0.487500 -1.388051
vn 0.6565 0.3714 0.6565
vn 0.6365 -0.4170 -0.6488
vn -0.6365 0.4170 0.6488
vn -0.6565 -0.3714 -0.6565
vn -0.6987 0.0665 0.7123
vn 0.6987 -0.0665 -0.7123
vn 0.7009 0.1322 0.7009
vn -0.7009 -0.1322 -0.7009
vt 0.007812 0.148438
vt 0.992188 0.148438
vt 0.992188 0.992188
vt 0.007812 0.992188
vt 0.007812 0.007812
vt 0.992188 0.007812
s 0
usemtl tree81
f 21/1/1 22/2/1 4/3/1 3/4/1
f 19/1/2 20/2/2 8/3/2 7/4/2
f 17/1/3 11/4/3 12/3/3 18/2/3
f 23/1/4 15/4/4 16/3/4 24/2/4
f 9/5/5 17/1/5 18/2/5 10/6/5
f 5/5/6 6/6/6 20/2/6 19/1/6
f 1/5/7 2/6/7 22/2/7 21/1/7
f 13/5/8 23/1/8 24/2/8 14/6/8
o tree081_trunk
v 0.078732 -0.100000 0.078732
v -0.076213 -0.100000 0.078732
v 0.078732 -0.100000 -0.076213
v -0.076213 -0.100000 -0.076213
v 0.037505 1.292888 -0.462736
v 0.040807 0.450000 -0.003356
v -0.033732 0.469124 -0.005878
v -0.036255 0.450000 -0.080418
v 0.038284 0.430876 -0.077895
v 0.029602 0.755099 -0.248063
v -0.015828 0.924762 -0.322752
v -0.060539 0.920983 -0.322912
v -0.032639 0.750274 -0.247109
v -0.015986 0.928549 -0.367463
v 0.030716 0.759732 -0.309145
v -0.060699 0.924769 -0.367621
v -0.031138 0.754714 -0.308542
vn 0.5944 -0.5221 0.6116
vn -0.5900 -0.5182 0.6192
vn 0.6001 -0.5553 -0.5758
vn -0.5981 -0.5613 -0.5721
vn 0.1914 0.9354 -0.2971
vn 0.6538 0.3043 0.6928
vn -0.6204 0.3680 0.6926
vn -0.7939 -0.1829 -0.5799
vn 0.7674 -0.1289 -0.6281
vn 0.7413 0.4074 0.5334
vn 0.6258 0.3621 0.6908
vn -0.7657 0.2346 0.5989
vn -0.7300 0.3350 0.5957
vn 0.6596 -0.2110 -0.7214
vn 0.7208 -0.2080 -0.6611
vn -0.7408 -0.1278 -0.6595
vn -0.6322 -0.4097 -0.6576
vt 0.043607 0.074071
vt 0.036054 0.072683
vt 0.057071 0.025000
vt 0.107712 0.074890
vt 0.100060 0.075538
vt 0.099094 0.025000
vt 0.084521 0.155289
vt 0.085465 0.101444
vt 0.095469 0.103250
vt 0.096137 0.155808
vt 0.124388 0.038691
vt 0.110697 0.038691
vt 0.110697 0.025000
vt 0.124388 0.025000
vt 0.095613 0.075003
vt 0.087969 0.074282
vt 0.097006 0.025000
vt 0.065480 0.155546
vt 0.071942 0.102375
vt 0.081939 0.099759
vt 0.077006 0.154016
vt 0.098653 0.155541
vt 0.099940 0.102794
vt 0.109936 0.101171
vt 0.110273 0.155135
vt 0.078099 0.072768
vt 0.070546 0.074155
vt 0.043444 0.223672
vt 0.037143 0.154091
vt 0.048669 0.155621
vt 0.057071 0.225000
vt 0.097006 0.223007
vt 0.110697 0.223007
vt 0.057071 0.224741
vt 0.070697 0.223413
vt 0.083315 0.224072
vt 0.097006 0.224206
vt 0.042092 0.101310
vt 0.032133 0.098767
s 1
usemtl tree81
f 35/7/19 38/8/22 29/9/13
f 38/10/22 40/11/24 29/12/13
f 30/13/14 34/14/18 37/15/21 31/16/15
f 26/17/10 28/18/12 27/19/11 25/20/9
f 36/21/20 35/22/19 29/23/13
f 31/24/15 37/25/21 41/26/25 32/27/16
f 32/28/16 41/29/25 39/30/23 33/31/17
f 40/32/24 36/33/20 29/9/13
f 27/34/11 33/35/17 30/36/14 25/37/9
f 28/38/12 32/28/16 33/31/17 27/39/11
f 26/40/10 31/24/15 32/27/16 28/41/12
f 25/42/9 30/13/14 31/16/15 26/43/10
f 35/22/19 36/21/20 37/15/21 34/14/18
f 36/33/20 40/32/24 41/26/25 37/25/21
f 40/11/24 38/10/22 39/30/23 41/29/25
f 38/8/22 35/7/19 34/44/18 39/45/23
f 33/35/17 39/45/23 34/44/18 30/36/14
