# Blender 5.1.2
# www.blender.org
mtllib tree071.mtl
o tree071
v -1.250165 0.000000 1.268550
v 1.139856 0.000000 -1.121472
v -1.250165 3.250000 1.268550
v 1.139856 3.250000 -1.121472
v 1.268550 0.000000 1.250165
v -1.121472 0.000000 -1.139856
v 1.268550 3.250000 1.250165
v -1.121472 3.250000 -1.139856
v 1.250165 0.000000 1.268550
v -1.139856 0.000000 -1.121472
v 1.250165 3.250000 1.268550
v -1.139856 3.250000 -1.121472
v -1.268550 0.000000 1.250165
v 1.121472 0.000000 -1.139856
v -1.268550 3.250000 1.250165
v 1.121472 3.250000 -1.139856
vn 0.7071 -0.0000 0.7071
vn 0.7071 -0.0000 -0.7071
vn -0.7071 -0.0000 0.7071
vn -0.7071 -0.0000 -0.7071
vt 0.007812 0.007812
vt 0.992188 0.007812
vt 0.992188 0.992188
vt 0.007812 0.992188
s 0
usemtl tree71
f 1/1/1 2/2/1 4/3/1 3/4/1
f 5/1/2 6/2/2 8/3/2 7/4/2
f 9/1/3 11/4/3 12/3/3 10/2/3
f 13/1/4 15/4/4 16/3/4 14/2/4
o tree071_trunk
v 0.057071 -0.100000 0.057071
v 0.224801 0.820021 0.221515
v -0.042929 -0.100000 0.057071
v -0.171909 0.822089 0.270904
v 0.057071 -0.100000 -0.042929
v 0.278839 0.809187 -0.179844
v -0.042929 -0.100000 -0.042929
v -0.229063 0.800844 -0.232348
v 0.057661 0.978218 0.027192
v 0.030464 0.505886 0.087033
v -0.037435 0.503515 0.086932
v -0.037536 0.505886 0.019033
v 0.030364 0.508257 0.019134
vn 0.5939 -0.5780 0.5596
vn 0.7075 0.1463 0.6914
vn -0.5827 -0.5875 0.5615
vn -0.6149 0.2016 0.7624
vn 0.5850 -0.5390 -0.6060
vn 0.7712 0.0938 -0.6296
vn -0.5753 -0.5475 -0.6077
vn -0.6913 0.1171 -0.7130
vn 0.0658 0.9978 0.0021
vn 0.6175 -0.3864 0.6852
vn -0.6248 -0.3655 0.6900
vn -0.6899 -0.4125 -0.5949
vn 0.6723 -0.4398 -0.5955
vt 0.078086 0.058698
vt 0.146869 0.059904
vt 0.145965 0.069445
vt 0.077566 0.070314
vt 0.077829 0.039657
vt 0.147023 0.048067
vt 0.148757 0.057492
vt 0.079359 0.051183
vt 0.077834 0.072830
vt 0.145300 0.074477
vt 0.146112 0.084026
vt 0.078240 0.084450
vt 0.079284 0.011320
vt 0.148866 0.005019
vt 0.147132 0.014444
vt 0.077753 0.022846
vt 0.194683 0.098565
vt 0.194683 0.084874
vt 0.208375 0.084874
vt 0.208375 0.098565
vt 0.208375 0.031247
vt 0.208375 0.073271
vt 0.208375 0.071183
vt 0.009702 0.017621
vt 0.008375 0.031248
vt 0.010367 0.071183
vt 0.010367 0.084874
vt 0.008634 0.031248
vt 0.009961 0.044874
vt 0.009303 0.057492
vt 0.009168 0.071183
s 1
usemtl tree71
f 26/5/14 18/6/6 20/7/8 27/8/15
f 27/9/15 20/10/8 24/11/12 28/12/16
f 28/13/16 24/14/12 22/15/10 29/16/17
f 29/17/17 22/18/10 18/19/6 26/20/14
f 19/21/7 23/22/11 21/23/9 17/24/5
f 18/19/6 22/18/10 25/25/13
f 24/11/12 20/10/8 25/25/13
f 22/15/10 24/14/12 25/26/13
f 20/7/8 18/6/6 25/27/13
f 21/28/9 29/17/17 26/20/14 17/29/5
f 23/30/11 28/13/16 29/16/17 21/31/9
f 19/32/7 27/9/15 28/12/16 23/33/11
f 17/34/5 26/5/14 27/8/15 19/35/7
