# Blender 5.1.2
# www.blender.org
mtllib tree060.mtl
o tree060
v -1.141695 0.000000 1.174787
v 1.174787 0.000000 -1.141695
v -1.141695 4.914000 1.174787
v 1.174787 4.914000 -1.141695
v 1.174787 0.000000 1.141695
v -1.141695 0.000000 -1.174787
v 1.174787 4.914000 1.141695
v -1.141695 4.914000 -1.174787
v 1.141695 0.000000 1.174787
v -1.174787 0.000000 -1.141695
v 1.141695 4.914000 1.174787
v -1.174787 4.914000 -1.141695
v -1.174787 0.000000 1.141695
v 1.141695 0.000000 -1.174787
v -1.174787 4.914000 1.141695
v 1.141695 4.914000 -1.174787
vn 0.7071 -0.0000 0.7071
vn 0.7071 -0.0000 -0.7071
vn -0.7071 -0.0000 0.7071
vn -0.7071 -0.0000 -0.7071
vt 0.203125 0.007812
vt 0.796875 0.007812
vt 0.796875 0.992188
vt 0.203125 0.992188
s 0
usemtl tree60
f 1/1/1 2/2/1 4/3/1 3/4/1
f 5/1/2 6/2/2 8/3/2 7/4/2
f 9/1/3 11/4/3 12/3/3 10/2/3
f 13/1/4 15/4/4 16/3/4 14/2/4
o tree060_trunk
v 0.072900 -0.100000 0.157753
v 0.027548 1.990000 0.069975
v -0.090950 -0.100000 0.157753
v -0.028250 1.985258 0.069773
v 0.072900 -0.100000 -0.006097
v 0.027347 1.994742 0.014176
v -0.090950 -0.100000 -0.006097
v -0.028452 1.990000 0.013975
v 0.001969 2.552002 0.031159
v 0.047464 0.950000 0.104033
v -0.054384 0.946444 0.103882
v -0.054536 0.950000 0.002033
v 0.047313 0.953556 0.002184
vn 0.5817 -0.5577 0.5921
vn 0.7029 0.0585 0.7089
vn -0.5856 -0.5543 0.5914
vn -0.7054 0.0614 0.7061
vn 0.5846 -0.5688 -0.5785
vn 0.7076 0.0383 -0.7056
vn -0.5878 -0.5664 -0.5777
vn -0.7090 0.0428 -0.7039
vn 0.0039 0.9998 -0.0190
vn 0.7074 0.0451 0.7053
vn -0.7074 0.0512 0.7049
vn -0.7056 0.0279 -0.7080
vn 0.7060 0.0221 -0.7079
vt 0.084521 0.155289
vt 0.085727 0.086506
vt 0.095268 0.087410
vt 0.096137 0.155808
vt 0.065480 0.155546
vt 0.073890 0.086351
vt 0.083315 0.084618
vt 0.077006 0.154016
vt 0.098653 0.155541
vt 0.100300 0.088075
vt 0.109849 0.087263
vt 0.110273 0.155135
vt 0.037143 0.154091
vt 0.030842 0.084509
vt 0.040267 0.086242
vt 0.048669 0.155621
vt 0.124388 0.038691
vt 0.110697 0.038691
vt 0.110697 0.025000
vt 0.124388 0.025000
vt 0.057071 0.025000
vt 0.099094 0.025000
vt 0.097006 0.025000
vt 0.043444 0.223672
vt 0.057071 0.225000
vt 0.097006 0.223007
vt 0.110697 0.223007
vt 0.057071 0.224741
vt 0.070697 0.223413
vt 0.083315 0.224072
vt 0.097006 0.224206
s 1
usemtl tree60
f 26/5/14 18/6/6 20/7/8 27/8/15
f 27/9/15 20/10/8 24/11/12 28/12/16
f 28/13/16 24/14/12 22/15/10 29/16/17
f 29/17/17 22/18/10 18/19/6 26/20/14
f 19/21/7 23/22/11 21/23/9 17/24/5
f 18/19/6 22/18/10 25/25/13
f 24/11/12 20/10/8 25/25/13
f 22/15/10 24/14/12 25/26/13
f 20/7/8 18/6/6 25/27/13
f 21/28/9 29/17/17 26/20/14 17/29/5
f 23/30/11 28/13/16 29/16/17 21/31/9
f 19/32/7 27/9/15 28/12/16 23/33/11
f 17/34/5 26/5/14 27/8/15 19/35/7
