# Blender 5.1.2
# www.blender.org
mtllib tree001.mtl
o tree001
v -0.912875 0.000000 -0.883176
v 1.208446 0.000000 1.238144
v -0.771454 3.000000 -1.024598
v 1.349867 3.000000 1.096723
v -0.912875 0.000000 0.941159
v 1.208445 0.000000 -1.180161
v -0.771453 3.000000 1.082581
v 1.349867 3.000000 -1.038740
v -0.898733 0.000000 -0.897318
v 1.222588 0.000000 1.224002
v -0.757311 3.000000 -1.038740
v 1.364009 3.000000 1.082581
v -0.898733 0.000000 0.955301
v 1.222588 0.000000 -1.166019
v -0.757311 3.000000 1.096723
v 1.364009 3.000000 -1.024598
vn -0.7055 0.0665 0.7055
vn -0.7055 0.0665 -0.7055
vn 0.7055 -0.0665 -0.7055
vn 0.7055 -0.0665 0.7055
vt 0.007812 0.007812
vt 0.992188 0.007812
vt 0.992188 0.992188
vt 0.007812 0.992188
s 0
usemtl tree01
f 1/1/1 2/2/1 4/3/1 3/4/1
f 5/1/2 7/4/2 8/3/2 6/2/2
f 9/1/3 11/4/3 12/3/3 10/2/3
f 13/1/4 14/2/4 16/3/4 15/4/4
o tree001_trunk
v -0.071213 -0.100000 0.042929
v 0.184203 1.000000 0.070355
v -0.071213 -0.100000 -0.057071
v 0.184455 0.994073 0.000607
v 0.028787 -0.100000 0.042929
v 0.253951 1.005927 0.070104
v 0.028787 -0.100000 -0.057071
v 0.254203 1.000000 0.000355
v 0.077329 1.452002 0.020760
vn -0.6488 -0.5200 0.5556
vn -0.6320 0.0251 0.7745
vn -0.6406 -0.4982 -0.5843
vn -0.6510 0.0485 -0.7576
vn 0.5114 -0.6317 0.5825
vn 0.7470 0.0983 0.6575
vn 0.5098 -0.6124 -0.6042
vn 0.7551 0.0780 -0.6510
vn -0.2979 0.9541 -0.0312
vt 0.083315 0.224072
vt 0.085727 0.086506
vt 0.095268 0.087410
vt 0.097006 0.224206
vt 0.057071 0.224741
vt 0.073890 0.086351
vt 0.083315 0.084618
vt 0.070697 0.223413
vt 0.097006 0.223007
vt 0.100300 0.088075
vt 0.109849 0.087263
vt 0.110697 0.223007
vt 0.043444 0.223672
vt 0.030842 0.084509
vt 0.040267 0.086242
vt 0.057071 0.225000
vt 0.124388 0.038691
vt 0.110697 0.038691
vt 0.110697 0.025000
vt 0.124388 0.025000
vt 0.057071 0.025000
vt 0.099094 0.025000
vt 0.097006 0.025000
s 1
usemtl tree01
f 17/5/5 18/6/6 20/7/8 19/8/7
f 19/9/7 20/10/8 24/11/12 23/12/11
f 23/13/11 24/14/12 22/15/10 21/16/9
f 21/17/9 22/18/10 18/19/6 17/20/5
f 19/21/7 23/22/11 21/23/9 17/24/5
f 18/19/6 22/18/10 25/25/13
f 24/11/12 20/10/8 25/25/13
f 22/15/10 24/14/12 25/26/13
f 20/7/8 18/6/6 25/27/13
