# Blender 5.1.2
# www.blender.org
mtllib tree052.mtl
o tree052
v -0.682994 0.000000 0.695864
v 0.695864 0.000000 -0.682994
v -0.682994 2.723674 0.695864
v 0.695864 2.723674 -0.682994
v 0.695864 0.000000 0.682995
v -0.682994 0.000000 -0.695864
v 0.695864 2.723674 0.682994
v -0.682994 2.723674 -0.695864
v 0.682995 0.000000 0.695864
v -0.695864 0.000000 -0.682994
v 0.682994 2.723674 0.695864
v -0.695864 2.723674 -0.682994
v -0.695864 0.000000 0.682994
v 0.682994 0.000000 -0.695864
v -0.695864 2.723674 0.682994
v 0.682994 2.723674 -0.695864
vn 0.7071 -0.0000 0.7071
vn 0.7071 -0.0000 -0.7071
vn -0.7071 -0.0000 0.7071
vn -0.7071 -0.0000 -0.7071
vt 0.125000 0.007812
vt 0.875000 0.007812
vt 0.875000 0.992188
vt 0.125000 0.992188
s 0
usemtl tree52
f 1/1/1 2/2/1 4/3/1 3/4/1
f 5/1/2 6/2/2 8/3/2 7/4/2
f 9/1/3 11/4/3 12/3/3 10/2/3
f 13/1/4 15/4/4 16/3/4 14/2/4
o tree052_trunk
v 0.067929 -0.100000 0.096213
v 0.075742 1.100000 0.075742
v -0.082071 -0.100000 0.096213
v -0.047015 1.089569 0.075299
v 0.067929 -0.100000 -0.053787
v 0.075299 1.110431 -0.047015
v -0.082071 -0.100000 -0.053787
v -0.047458 1.100000 -0.047458
v -0.000453 1.662002 0.085306
v 0.068407 0.450000 0.068407
v -0.047022 0.445970 0.068235
v -0.047193 0.450000 -0.047193
v 0.068235 0.454030 -0.047022
vn 0.5742 -0.5643 0.5933
vn 0.7211 0.0325 0.6921
vn -0.5943 -0.5468 0.5898
vn -0.7149 0.0178 0.6990
vn 0.5765 -0.5742 -0.5813
vn 0.6924 0.1267 -0.7103
vn -0.5965 -0.5575 -0.5773
vn -0.6935 0.1043 -0.7128
vn -0.0267 0.9918 0.1250
vn 0.7131 0.0093 0.7010
vn -0.7061 0.0381 0.7071
vn -0.7010 0.0263 -0.7127
vn 0.7072 -0.0001 -0.7070
vt 0.084521 0.155289
vt 0.085727 0.086506
vt 0.095268 0.087410
vt 0.096137 0.155808
vt 0.065480 0.155546
vt 0.073890 0.086351
vt 0.083315 0.084618
vt 0.077006 0.154016
vt 0.098653 0.155541
vt 0.100300 0.088075
vt 0.109849 0.087263
vt 0.110273 0.155135
vt 0.037143 0.154091
vt 0.030842 0.084509
vt 0.040267 0.086242
vt 0.048669 0.155621
vt 0.124388 0.038691
vt 0.110697 0.038691
vt 0.110697 0.025000
vt 0.124388 0.025000
vt 0.057071 0.025000
vt 0.099094 0.025000
vt 0.097006 0.025000
vt 0.043444 0.223672
vt 0.057071 0.225000
vt 0.097006 0.223007
vt 0.110697 0.223007
vt 0.057071 0.224741
vt 0.070697 0.223413
vt 0.083315 0.224072
vt 0.097006 0.224206
s 1
usemtl tree52
f 26/5/14 18/6/6 20/7/8 27/8/15
f 27/9/15 20/10/8 24/11/12 28/12/16
f 28/13/16 24/14/12 22/15/10 29/16/17
f 29/17/17 22/18/10 18/19/6 26/20/14
f 19/21/7 23/22/11 21/23/9 17/24/5
f 18/19/6 22/18/10 25/25/13
f 24/11/12 20/10/8 25/25/13
f 22/15/10 24/14/12 25/26/13
f 20/7/8 18/6/6 25/27/13
f 21/28/9 29/17/17 26/20/14 17/29/5
f 23/30/11 28/13/16 29/16/17 21/31/9
f 19/32/7 27/9/15 28/12/16 23/33/11
f 17/34/5 26/5/14 27/8/15 19/35/7
