# Blender 5.1.2
# www.blender.org
mtllib tree104.mtl
o tree104
v -1.369666 0.000000 1.388051
v 1.388051 0.000000 -1.369666
v -1.369666 3.900000 1.388051
v 1.388051 3.900000 -1.369666
v 1.388051 0.000000 1.369666
v -1.369666 0.000000 -1.388051
v 1.388051 3.900000 1.369666
v -1.369666 3.900000 -1.388051
v 1.369666 0.000000 1.388051
v -1.388051 0.000000 -1.369666
v 1.369666 3.900000 1.388051
v -1.388051 3.900000 -1.369666
v -1.388051 0.000000 1.369666
v 1.369666 0.000000 -1.388051
v -1.388051 3.900000 1.369666
v 1.369666 3.900000 -1.388051
vn 0.7071 -0.0000 0.7071
vn 0.7071 -0.0000 -0.7071
vn -0.7071 -0.0000 0.7071
vn -0.7071 -0.0000 -0.7071
vt 0.007812 0.007812
vt 0.992188 0.007812
vt 0.992188 0.992188
vt 0.007812 0.992188
s 0
usemtl tree104
f 1/1/1 2/2/1 4/3/1 3/4/1
f 5/1/2 6/2/2 8/3/2 7/4/2
f 9/1/3 11/4/3 12/3/3 10/2/3
f 13/1/4 15/4/4 16/3/4 14/2/4
o tree104_trunk
v 0.267871 -0.100000 0.421925
v 0.430792 1.100000 0.529787
v -0.277387 -0.100000 0.412572
v -0.402578 1.018666 0.584101
v 0.258518 -0.100000 -0.123333
v 0.375068 1.181336 -0.193545
v -0.291784 -0.100000 -0.137730
v -0.298746 1.100000 -0.199751
v 0.007800 1.269068 0.077053
v 0.261725 0.325506 0.466846
v -0.286134 0.306242 0.456674
v -0.301349 0.325506 -0.096229
v 0.284565 0.344769 -0.114025
v 0.413657 0.712753 0.565715
v -0.379293 0.666345 0.574581
v -0.330079 0.712753 -0.178021
v 0.384011 0.763053 -0.188722
vn 0.5756 -0.6077 0.5471
vn 0.6419 0.5061 0.5760
vn -0.5716 -0.6128 0.5457
vn -0.6502 0.4593 0.6052
vn 0.5674 -0.5723 -0.5921
vn 0.5767 0.5420 -0.6113
vn -0.5705 -0.5638 -0.5972
vn -0.5971 0.4609 -0.6565
vn -0.1094 0.9940 -0.0057
vn 0.6571 -0.2636 0.7062
vn -0.6973 -0.2093 0.6855
vn -0.7313 -0.1150 -0.6723
vn 0.6886 -0.1767 -0.7033
vn 0.7137 -0.1760 0.6780
vn -0.7060 -0.1345 0.6953
vn -0.6812 -0.1223 -0.7218
vn 0.6881 -0.1688 -0.7057
vt 0.085124 0.120897
vt 0.085727 0.086506
vt 0.095268 0.087410
vt 0.095702 0.121609
vt 0.069685 0.120949
vt 0.073890 0.086351
vt 0.083315 0.084618
vt 0.080161 0.119317
vt 0.099476 0.121808
vt 0.100300 0.088075
vt 0.109849 0.087263
vt 0.110061 0.121199
vt 0.033992 0.119300
vt 0.030842 0.084509
vt 0.040267 0.086242
vt 0.044468 0.120932
vt 0.124388 0.038691
vt 0.110697 0.038691
vt 0.110697 0.025000
vt 0.124388 0.025000
vt 0.057071 0.025000
vt 0.099094 0.025000
vt 0.097006 0.025000
vt 0.043444 0.223672
vt 0.037143 0.154091
vt 0.048669 0.155621
vt 0.057071 0.225000
vt 0.097006 0.223007
vt 0.098653 0.155541
vt 0.110273 0.155135
vt 0.110697 0.223007
vt 0.057071 0.224741
vt 0.065480 0.155546
vt 0.077006 0.154016
vt 0.070697 0.223413
vt 0.083315 0.224072
vt 0.084521 0.155289
vt 0.096137 0.155808
vt 0.097006 0.224206
s 1
usemtl tree104
f 30/5/18 18/6/6 20/7/8 31/8/19
f 31/9/19 20/10/8 24/11/12 32/12/20
f 32/13/20 24/14/12 22/15/10 33/16/21
f 33/17/21 22/18/10 18/19/6 30/20/18
f 19/21/7 23/22/11 21/23/9 17/24/5
f 18/19/6 22/18/10 25/25/13
f 24/11/12 20/10/8 25/25/13
f 22/15/10 24/14/12 25/26/13
f 20/7/8 18/6/6 25/27/13
f 21/28/9 29/29/17 26/30/14 17/31/5
f 23/32/11 28/33/16 29/34/17 21/35/9
f 19/36/7 27/37/15 28/38/16 23/39/11
f 17/40/5 26/41/14 27/42/15 19/43/7
f 29/29/17 33/17/21 30/20/18 26/30/14
f 28/33/16 32/13/20 33/16/21 29/34/17
f 27/37/15 31/9/19 32/12/20 28/38/16
f 26/41/14 30/5/18 31/8/19 27/42/15
