# Blender 5.1.2
# www.blender.org
mtllib tree108.mtl
o tree108
v -1.185818 0.000000 1.204203
v 1.571899 0.000000 -1.553514
v -1.185818 3.900000 1.204203
v 1.571899 3.900000 -1.553514
v 1.204203 0.000000 1.185818
v -1.553514 0.000000 -1.571898
v 1.204203 3.900000 1.185818
v -1.553514 3.900000 -1.571898
v 1.185818 0.000000 1.204203
v -1.571898 0.000000 -1.553514
v 1.185818 3.900000 1.204203
v -1.571898 3.900000 -1.553514
v -1.204203 0.000000 1.185818
v 1.553514 0.000000 -1.571898
v -1.204203 3.900000 1.185818
v 1.553514 3.900000 -1.571898
vn 0.7071 -0.0000 0.7071
vn 0.7071 -0.0000 -0.7071
vn -0.7071 -0.0000 0.7071
vn -0.7071 -0.0000 -0.7071
vt 0.007812 0.007812
vt 0.992188 0.007812
vt 0.992188 0.992188
vt 0.007812 0.992188
s 0
usemtl tree108
f 1/1/1 2/2/1 4/3/1 3/4/1
f 5/1/2 6/2/2 8/3/2 7/4/2
f 9/1/3 11/4/3 12/3/3 10/2/3
f 13/1/4 15/4/4 16/3/4 14/2/4
o tree108_trunk
v 0.058443 -0.100000 0.038636
v 0.175567 1.043977 0.056686
v -0.103721 -0.100000 0.038636
v -0.188454 1.028789 0.056369
v 0.058443 -0.100000 -0.123528
v 0.175250 1.059167 -0.307335
v -0.103721 -0.100000 -0.123528
v -0.188771 1.043977 -0.307652
v -0.013658 1.209155 -0.106161
v 0.130395 0.440663 0.041713
v -0.116974 0.455886 0.041028
v -0.117659 0.440663 -0.206341
v 0.129710 0.425440 -0.205656
vn 0.5333 -0.6118 0.5842
vn 0.6612 0.3692 0.6531
vn -0.5700 -0.5844 0.5776
vn -0.6832 0.3245 0.6542
vn 0.5394 -0.6528 -0.5318
vn 0.6430 0.3699 -0.6706
vn -0.5791 -0.6221 -0.5270
vn -0.6661 0.3245 -0.6715
vn -0.0420 0.9966 0.0714
vn 0.7105 -0.0837 0.6987
vn -0.6955 -0.0637 0.7157
vn -0.6932 -0.1647 -0.7017
vn 0.7051 -0.1812 -0.6856
vt 0.099084 0.066477
vt 0.167867 0.067682
vt 0.166963 0.077223
vt 0.098564 0.078092
vt 0.098827 0.047436
vt 0.168021 0.055845
vt 0.169755 0.065271
vt 0.100357 0.058962
vt 0.098832 0.080608
vt 0.166298 0.082255
vt 0.167110 0.091804
vt 0.099238 0.092228
vt 0.100282 0.019099
vt 0.169864 0.012797
vt 0.168130 0.022223
vt 0.098751 0.030625
vt 0.215681 0.106343
vt 0.215681 0.092652
vt 0.229373 0.092652
vt 0.229373 0.106343
vt 0.229373 0.039026
vt 0.229373 0.081049
vt 0.229373 0.078961
vt 0.030700 0.025400
vt 0.029373 0.039026
vt 0.031365 0.078961
vt 0.031365 0.092652
vt 0.029632 0.039026
vt 0.030959 0.052653
vt 0.030301 0.065271
vt 0.030166 0.078961
s 1
usemtl tree108
f 26/5/14 18/6/6 20/7/8 27/8/15
f 27/9/15 20/10/8 24/11/12 28/12/16
f 28/13/16 24/14/12 22/15/10 29/16/17
f 29/17/17 22/18/10 18/19/6 26/20/14
f 19/21/7 23/22/11 21/23/9 17/24/5
f 18/19/6 22/18/10 25/25/13
f 24/11/12 20/10/8 25/25/13
f 22/15/10 24/14/12 25/26/13
f 20/7/8 18/6/6 25/27/13
f 21/28/9 29/17/17 26/20/14 17/29/5
f 23/30/11 28/13/16 29/16/17 21/31/9
f 19/32/7 27/9/15 28/12/16 23/33/11
f 17/34/5 26/5/14 27/8/15 19/35/7
