# Blender 5.1.2
# www.blender.org
mtllib tree095.mtl
o tree095
v -1.369666 0.000000 1.388051
v 1.388051 0.000000 -1.369666
v -1.369666 3.900000 1.388051
v 1.388051 3.900000 -1.369666
v 1.388051 0.000000 1.369666
v -1.369666 0.000000 -1.388051
v 1.388051 3.900000 1.369666
v -1.369666 3.900000 -1.388051
v 1.369666 0.000000 1.388051
v -1.388051 0.000000 -1.369666
v 1.369666 3.900000 1.388051
v -1.388051 3.900000 -1.369666
v -1.388051 0.000000 1.369666
v 1.369666 0.000000 -1.388051
v -1.388051 3.900000 1.369666
v 1.369666 3.900000 -1.388051
vn 0.7071 -0.0000 0.7071
vn 0.7071 -0.0000 -0.7071
vn -0.7071 -0.0000 0.7071
vn -0.7071 -0.0000 -0.7071
vt 0.007812 0.007812
vt 0.992188 0.007812
vt 0.992188 0.992188
vt 0.007812 0.992188
s 0
usemtl tree95
f 1/1/1 2/2/1 4/3/1 3/4/1
f 5/1/2 6/2/2 8/3/2 7/4/2
f 9/1/3 11/4/3 12/3/3 10/2/3
f 13/1/4 15/4/4 16/3/4 14/2/4
o tree095_trunk
v 0.101607 -0.100000 -0.037042
v 0.081169 1.375443 -0.004700
v -0.107271 -0.100000 -0.037042
v -0.054271 1.363934 -0.005189
v 0.101607 -0.100000 -0.245920
v 0.080680 1.386953 -0.140140
v -0.107271 -0.100000 -0.245920
v -0.054760 1.375443 -0.140629
v 0.012752 1.662002 -0.086354
v 0.061109 0.450000 -0.020971
v -0.087766 0.444802 -0.021192
v -0.087987 0.450000 -0.170066
v 0.060888 0.455198 -0.169846
vn 0.6017 -0.5647 0.5648
vn 0.6901 0.1514 0.7077
vn -0.5899 -0.5751 0.5667
vn -0.6881 0.1555 0.7088
vn 0.5916 -0.5223 -0.6142
vn 0.7095 0.1525 -0.6880
vn -0.5816 -0.5313 -0.6161
vn -0.7069 0.1616 -0.6886
vn -0.0073 0.9992 -0.0387
vn 0.6950 0.0016 0.7190
vn -0.7050 0.0085 0.7092
vn -0.7188 0.0857 -0.6899
vn 0.7065 0.0784 -0.7033
vt 0.079880 0.066023
vt 0.148663 0.067229
vt 0.147759 0.076770
vt 0.079361 0.077639
vt 0.079623 0.046982
vt 0.148818 0.055392
vt 0.150551 0.064817
vt 0.081153 0.058508
vt 0.079628 0.080155
vt 0.147094 0.081802
vt 0.147906 0.091351
vt 0.080034 0.091775
vt 0.081078 0.018645
vt 0.150660 0.012344
vt 0.148926 0.021769
vt 0.079548 0.030171
vt 0.196478 0.105890
vt 0.196478 0.092198
vt 0.210169 0.092198
vt 0.210169 0.105890
vt 0.210169 0.038572
vt 0.210169 0.080596
vt 0.210169 0.078508
vt 0.011497 0.024946
vt 0.010169 0.038572
vt 0.012161 0.078508
vt 0.012161 0.092198
vt 0.010428 0.038572
vt 0.011756 0.052199
vt 0.011097 0.064817
vt 0.010963 0.078508
s 1
usemtl tree95
f 26/5/14 18/6/6 20/7/8 27/8/15
f 27/9/15 20/10/8 24/11/12 28/12/16
f 28/13/16 24/14/12 22/15/10 29/16/17
f 29/17/17 22/18/10 18/19/6 26/20/14
f 19/21/7 23/22/11 21/23/9 17/24/5
f 18/19/6 22/18/10 25/25/13
f 24/11/12 20/10/8 25/25/13
f 22/15/10 24/14/12 25/26/13
f 20/7/8 18/6/6 25/27/13
f 21/28/9 29/17/17 26/20/14 17/29/5
f 23/30/11 28/13/16 29/16/17 21/31/9
f 19/32/7 27/9/15 28/12/16 23/33/11
f 17/34/5 26/5/14 27/8/15 19/35/7
