# Blender 5.1.2
# www.blender.org
mtllib tree065.mtl
o tree065
v -1.307158 0.000000 1.340250
v 1.340250 0.000000 -1.307158
v -1.307158 4.914000 1.340250
v 1.340250 4.914000 -1.307158
v 1.340250 0.000000 1.307158
v -1.307158 0.000000 -1.340250
v 1.340250 4.914000 1.307158
v -1.307158 4.914000 -1.340250
v 1.307158 0.000000 1.340250
v -1.340250 0.000000 -1.307158
v 1.307158 4.914000 1.340250
v -1.340250 4.914000 -1.307158
v -1.340250 0.000000 1.307158
v 1.307158 0.000000 -1.340250
v -1.340250 4.914000 1.307158
v 1.307158 4.914000 -1.340250
vn 0.7071 -0.0000 0.7071
vn 0.7071 -0.0000 -0.7071
vn -0.7071 -0.0000 0.7071
vn -0.7071 -0.0000 -0.7071
vt 0.148438 0.007812
vt 0.867188 0.007812
vt 0.867188 0.992188
vt 0.148438 0.992188
s 0
usemtl tree65
f 1/1/1 2/2/1 4/3/1 3/4/1
f 5/1/2 6/2/2 8/3/2 7/4/2
f 9/1/3 11/4/3 12/3/3 10/2/3
f 13/1/4 15/4/4 16/3/4 14/2/4
o tree065_trunk
v 0.054045 -0.100000 -0.035256
v 0.041474 1.100000 -0.023475
v -0.095955 -0.100000 -0.035256
v -0.042224 1.095258 -0.023777
v 0.054045 -0.100000 -0.185256
v 0.041171 1.104741 -0.107173
v -0.095955 -0.100000 -0.185256
v -0.042526 1.100000 -0.107475
v 0.019484 1.662002 -0.065319
v 0.055515 0.450000 -0.031693
v -0.046334 0.447629 -0.031844
v -0.046485 0.450000 -0.133693
v 0.055364 0.452371 -0.133542
vn 0.5768 -0.5799 0.5754
vn 0.6976 0.0435 0.7152
vn -0.6054 -0.5542 0.5712
vn -0.7068 0.0578 0.7050
vn 0.5716 -0.5526 -0.6065
vn 0.7037 0.0624 -0.7077
vn -0.5997 -0.5295 -0.6000
vn -0.7144 0.0807 -0.6951
vn 0.0349 0.9994 0.0007
vn 0.7105 0.0001 0.7037
vn -0.6972 0.0271 0.7164
vn -0.7022 0.0829 -0.7072
vn 0.7152 0.0531 -0.6969
vt 0.084521 0.155289
vt 0.085727 0.086506
vt 0.095268 0.087410
vt 0.096137 0.155808
vt 0.065480 0.155546
vt 0.073890 0.086351
vt 0.083315 0.084618
vt 0.077006 0.154016
vt 0.098653 0.155541
vt 0.100300 0.088075
vt 0.109849 0.087263
vt 0.110273 0.155135
vt 0.037143 0.154091
vt 0.030842 0.084509
vt 0.040267 0.086242
vt 0.048669 0.155621
vt 0.124388 0.038691
vt 0.110697 0.038691
vt 0.110697 0.025000
vt 0.124388 0.025000
vt 0.057071 0.025000
vt 0.099094 0.025000
vt 0.097006 0.025000
vt 0.043444 0.223672
vt 0.057071 0.225000
vt 0.097006 0.223007
vt 0.110697 0.223007
vt 0.057071 0.224741
vt 0.070697 0.223413
vt 0.083315 0.224072
vt 0.097006 0.224206
s 1
usemtl tree65
f 26/5/14 18/6/6 20/7/8 27/8/15
f 27/9/15 20/10/8 24/11/12 28/12/16
f 28/13/16 24/14/12 22/15/10 29/16/17
f 29/17/17 22/18/10 18/19/6 26/20/14
f 19/21/7 23/22/11 21/23/9 17/24/5
f 18/19/6 22/18/10 25/25/13
f 24/11/12 20/10/8 25/25/13
f 22/15/10 24/14/12 25/26/13
f 20/7/8 18/6/6 25/27/13
f 21/28/9 29/17/17 26/20/14 17/29/5
f 23/30/11 28/13/16 29/16/17 21/31/9
f 19/32/7 27/9/15 28/12/16 23/33/11
f 17/34/5 26/5/14 27/8/15 19/35/7
