# Blender 5.1.2
# www.blender.org
mtllib tree061.mtl
o tree061
v -1.141695 0.000000 1.174787
v 1.174787 0.000000 -1.141695
v -1.389889 4.914000 0.926593
v 0.926593 4.914000 -1.389889
v 1.174787 0.000000 1.141695
v -1.141695 0.000000 -1.174787
v 1.422982 4.914000 0.893500
v -0.893500 4.914000 -1.422982
v 1.141695 0.000000 1.174787
v -1.174787 0.000000 -1.141695
v 1.389889 4.914000 0.926593
v -0.926593 4.914000 -1.389889
v -1.174787 0.000000 1.141695
v 1.141695 0.000000 -1.174787
v -1.422982 4.914000 0.893500
v 0.893500 4.914000 -1.422982
vn 0.7053 0.0712 0.7053
vn 0.7053 -0.0712 -0.7053
vn -0.7053 0.0712 0.7053
vn -0.7053 -0.0712 -0.7053
vt 0.187500 0.007812
vt 0.812500 0.007812
vt 0.812500 0.992188
vt 0.187500 0.992188
s 0
usemtl tree61
f 1/1/1 2/2/1 4/3/1 3/4/1
f 5/1/2 6/2/2 8/3/2 7/4/2
f 9/1/3 11/4/3 12/3/3 10/2/3
f 13/1/4 15/4/4 16/3/4 14/2/4
o tree061_trunk
v 0.103795 -0.100000 0.103795
v 0.030078 1.425268 -0.109059
v -0.106205 -0.100000 0.103795
v -0.094235 1.414704 -0.109508
v 0.103795 -0.100000 -0.106205
v 0.029629 1.435832 -0.233373
v -0.106205 -0.100000 -0.106205
v -0.094684 1.425268 -0.233822
v -0.033312 2.677349 -0.201938
v 0.087720 0.450000 0.033942
v -0.075239 0.444310 0.033700
v -0.075480 0.450000 -0.129258
v 0.087478 0.455690 -0.129016
vn 0.5789 -0.5358 0.6147
vn 0.7072 0.1158 0.6975
vn -0.5881 -0.5281 0.6125
vn -0.7244 0.0841 0.6843
vn 0.5892 -0.5799 -0.5627
vn 0.6934 0.0094 -0.7204
vn -0.5972 -0.5729 -0.5613
vn -0.7003 -0.0197 -0.7136
vn -0.0011 0.9997 -0.0240
vn 0.7032 0.1261 0.6998
vn -0.6969 0.1126 0.7083
vn -0.7050 -0.0404 -0.7080
vn 0.7200 -0.0188 -0.6938
vt 0.084521 0.155289
vt 0.085727 0.086506
vt 0.095268 0.087410
vt 0.096137 0.155808
vt 0.065480 0.155546
vt 0.073890 0.086351
vt 0.083315 0.084618
vt 0.077006 0.154016
vt 0.098653 0.155541
vt 0.100300 0.088075
vt 0.109849 0.087263
vt 0.110273 0.155135
vt 0.037143 0.154091
vt 0.030842 0.084509
vt 0.040267 0.086242
vt 0.048669 0.155621
vt 0.124388 0.038691
vt 0.110697 0.038691
vt 0.110697 0.025000
vt 0.124388 0.025000
vt 0.057071 0.025000
vt 0.099094 0.025000
vt 0.097006 0.025000
vt 0.043444 0.223672
vt 0.057071 0.225000
vt 0.097006 0.223007
vt 0.110697 0.223007
vt 0.057071 0.224741
vt 0.070697 0.223413
vt 0.083315 0.224072
vt 0.097006 0.224206
s 1
usemtl tree61
f 26/5/14 18/6/6 20/7/8 27/8/15
f 27/9/15 20/10/8 24/11/12 28/12/16
f 28/13/16 24/14/12 22/15/10 29/16/17
f 29/17/17 22/18/10 18/19/6 26/20/14
f 19/21/7 23/22/11 21/23/9 17/24/5
f 18/19/6 22/18/10 25/25/13
f 24/11/12 20/10/8 25/25/13
f 22/15/10 24/14/12 25/26/13
f 20/7/8 18/6/6 25/27/13
f 21/28/9 29/17/17 26/20/14 17/29/5
f 23/30/11 28/13/16 29/16/17 21/31/9
f 19/32/7 27/9/15 28/12/16 23/33/11
f 17/34/5 26/5/14 27/8/15 19/35/7
