# Blender 5.1.2
# www.blender.org
mtllib tree077.mtl
o tree077
v -1.250165 0.000000 1.268550
v 1.139856 0.000000 -1.121472
v -1.250165 3.250000 1.268550
v 1.139856 3.250000 -1.121472
v 1.268550 0.000000 1.250165
v -1.121472 0.000000 -1.139856
v 1.268550 3.250000 1.250165
v -1.121472 3.250000 -1.139856
v 1.250165 0.000000 1.268550
v -1.139856 0.000000 -1.121472
v 1.250165 3.250000 1.268550
v -1.139856 3.250000 -1.121472
v -1.268550 0.000000 1.250165
v 1.121472 0.000000 -1.139856
v -1.268550 3.250000 1.250165
v 1.121472 3.250000 -1.139856
vn 0.7071 -0.0000 0.7071
vn 0.7071 -0.0000 -0.7071
vn -0.7071 -0.0000 0.7071
vn -0.7071 -0.0000 -0.7071
vt 0.007812 0.007812
vt 0.992188 0.007812
vt 0.992188 0.992188
vt 0.007812 0.992188
s 0
usemtl tree77
f 1/1/1 2/2/1 4/3/1 3/4/1
f 5/1/2 6/2/2 8/3/2 7/4/2
f 9/1/3 11/4/3 12/3/3 10/2/3
f 13/1/4 15/4/4 16/3/4 14/2/4
o tree077_trunk
v 0.064045 -0.100000 0.050097
v 0.024281 1.100000 -0.025496
v -0.035955 -0.100000 0.050097
v -0.031518 1.095258 -0.025698
v 0.064045 -0.100000 -0.049903
v 0.024079 1.104741 -0.081295
v -0.035955 -0.100000 -0.049903
v -0.031719 1.100000 -0.081496
v -0.000918 1.662002 -0.059282
v 0.052205 0.450000 0.048335
v -0.043327 0.446664 0.048193
v -0.043469 0.450000 -0.047339
v 0.052063 0.453336 -0.047198
vn 0.5837 -0.5710 0.5773
vn 0.7083 0.0914 0.7000
vn -0.5731 -0.5798 0.5792
vn -0.7167 0.0856 0.6921
vn 0.5840 -0.5702 -0.5777
vn 0.6975 0.0268 -0.7161
vn -0.5727 -0.5798 -0.5795
vn -0.7017 0.0192 -0.7122
vn 0.0047 0.9999 -0.0100
vn 0.6948 0.0639 0.7164
vn -0.6995 0.0416 0.7135
vn -0.7168 -0.0140 -0.6971
vn 0.7168 0.0067 -0.6973
vt 0.084521 0.155289
vt 0.085727 0.086506
vt 0.095268 0.087410
vt 0.096137 0.155808
vt 0.065480 0.155546
vt 0.073890 0.086351
vt 0.083315 0.084618
vt 0.077006 0.154016
vt 0.098653 0.155541
vt 0.100300 0.088075
vt 0.109849 0.087263
vt 0.110273 0.155135
vt 0.037143 0.154091
vt 0.030842 0.084509
vt 0.040267 0.086242
vt 0.048669 0.155621
vt 0.124388 0.038691
vt 0.110697 0.038691
vt 0.110697 0.025000
vt 0.124388 0.025000
vt 0.057071 0.025000
vt 0.099094 0.025000
vt 0.097006 0.025000
vt 0.043444 0.223672
vt 0.057071 0.225000
vt 0.097006 0.223007
vt 0.110697 0.223007
vt 0.057071 0.224741
vt 0.070697 0.223413
vt 0.083315 0.224072
vt 0.097006 0.224206
s 1
usemtl tree77
f 26/5/14 18/6/6 20/7/8 27/8/15
f 27/9/15 20/10/8 24/11/12 28/12/16
f 28/13/16 24/14/12 22/15/10 29/16/17
f 29/17/17 22/18/10 18/19/6 26/20/14
f 19/21/7 23/22/11 21/23/9 17/24/5
f 18/19/6 22/18/10 25/25/13
f 24/11/12 20/10/8 25/25/13
f 22/15/10 24/14/12 25/26/13
f 20/7/8 18/6/6 25/27/13
f 21/28/9 29/17/17 26/20/14 17/29/5
f 23/30/11 28/13/16 29/16/17 21/31/9
f 19/32/7 27/9/15 28/12/16 23/33/11
f 17/34/5 26/5/14 27/8/15 19/35/7
