# Blender 5.1.2
# www.blender.org
mtllib tree022.mtl
o tree022
v -1.053589 0.000000 1.067731
v 1.067731 0.000000 -1.053589
v -1.053589 3.000000 1.067731
v 1.067731 3.000000 -1.053589
v 1.067731 0.000000 1.053589
v -1.053589 0.000000 -1.067731
v 1.067731 3.000000 1.053589
v -1.053589 3.000000 -1.067731
v 1.053589 0.000000 1.067731
v -1.067731 0.000000 -1.053589
v 1.053589 3.000000 1.067731
v -1.067731 3.000000 -1.053589
v -1.067731 0.000000 1.053589
v 1.053589 0.000000 -1.067731
v -1.067731 3.000000 1.053589
v 1.053589 3.000000 -1.067731
vn 0.7071 -0.0000 0.7071
vn 0.7071 -0.0000 -0.7071
vn -0.7071 -0.0000 0.7071
vn -0.7071 -0.0000 -0.7071
vt 0.007812 0.007812
vt 0.992188 0.007812
vt 0.992188 0.992188
vt 0.007812 0.992188
s 0
usemtl tree22
f 1/1/1 2/2/1 4/3/1 3/4/1
f 5/1/2 6/2/2 8/3/2 7/4/2
f 9/1/3 11/4/3 12/3/3 10/2/3
f 13/1/4 15/4/4 16/3/4 14/2/4
o tree022_trunk
v 0.099858 -0.100000 0.000863
v 0.067200 0.800000 -0.116648
v -0.128142 -0.100000 0.000863
v -0.066717 0.788620 -0.117131
v 0.099858 -0.100000 -0.227137
v 0.066717 0.811380 -0.250564
v -0.128142 -0.100000 -0.227137
v -0.067200 0.800000 -0.251048
v -0.000453 1.162002 -0.197537
v 0.125498 0.220000 -0.001781
v -0.089823 0.212482 -0.002101
v -0.090143 0.220000 -0.217422
v 0.125179 0.227518 -0.217102
vn 0.5518 -0.5952 0.5841
vn 0.6893 0.2375 0.6845
vn -0.6134 -0.5420 0.5745
vn -0.7120 0.2061 0.6712
vn 0.5508 -0.5886 -0.5918
vn 0.6874 0.1305 -0.7145
vn -0.6124 -0.5374 -0.5798
vn -0.6993 0.1015 -0.7075
vn -0.0049 0.9995 -0.0325
vn 0.7037 0.0756 0.7065
vn -0.6731 0.1260 0.7288
vn -0.7066 0.0488 -0.7059
vn 0.7367 0.0004 -0.6762
vt 0.084521 0.155289
vt 0.085727 0.086506
vt 0.095268 0.087410
vt 0.096137 0.155808
vt 0.065480 0.155546
vt 0.073890 0.086351
vt 0.083315 0.084618
vt 0.077006 0.154016
vt 0.098653 0.155541
vt 0.100300 0.088075
vt 0.109849 0.087263
vt 0.110273 0.155135
vt 0.037143 0.154091
vt 0.030842 0.084509
vt 0.040267 0.086242
vt 0.048669 0.155621
vt 0.124388 0.038691
vt 0.110697 0.038691
vt 0.110697 0.025000
vt 0.124388 0.025000
vt 0.057071 0.025000
vt 0.099094 0.025000
vt 0.097006 0.025000
vt 0.043444 0.223672
vt 0.057071 0.225000
vt 0.097006 0.223007
vt 0.110697 0.223007
vt 0.057071 0.224741
vt 0.070697 0.223413
vt 0.083315 0.224072
vt 0.097006 0.224206
s 1
usemtl tree22
f 26/5/14 18/6/6 20/7/8 27/8/15
f 27/9/15 20/10/8 24/11/12 28/12/16
f 28/13/16 24/14/12 22/15/10 29/16/17
f 29/17/17 22/18/10 18/19/6 26/20/14
f 19/21/7 23/22/11 21/23/9 17/24/5
f 18/19/6 22/18/10 25/25/13
f 24/11/12 20/10/8 25/25/13
f 22/15/10 24/14/12 25/26/13
f 20/7/8 18/6/6 25/27/13
f 21/28/9 29/17/17 26/20/14 17/29/5
f 23/30/11 28/13/16 29/16/17 21/31/9
f 19/32/7 27/9/15 28/12/16 23/33/11
f 17/34/5 26/5/14 27/8/15 19/35/7
