# Blender 5.1.2
# www.blender.org
mtllib tree051.mtl
o tree051
v -0.912804 0.000000 0.925673
v 1.017597 0.000000 -1.004728
v -0.912804 2.723674 0.925673
v 1.017597 2.723674 -1.004728
v 0.925674 0.000000 0.912804
v -1.004728 0.000000 -1.017597
v 0.925673 2.723674 0.912804
v -1.004728 2.723674 -1.017597
v 0.912804 0.000000 0.925674
v -1.017597 0.000000 -1.004728
v 0.912804 2.723674 0.925673
v -1.017597 2.723674 -1.004728
v -0.925674 0.000000 0.912804
v 1.004728 0.000000 -1.017597
v -0.925673 2.723674 0.912804
v 1.004728 2.723674 -1.017597
vn 0.7071 -0.0000 0.7071
vn 0.7071 -0.0000 -0.7071
vn -0.7071 -0.0000 0.7071
vn -0.7071 -0.0000 -0.7071
vt 0.007812 0.007812
vt 0.992188 0.007812
vt 0.992188 0.992188
vt 0.007812 0.992188
s 0
usemtl tree51
f 1/1/1 2/2/1 4/3/1 3/4/1
f 5/1/2 6/2/2 8/3/2 7/4/2
f 9/1/3 11/4/3 12/3/3 10/2/3
f 13/1/4 15/4/4 16/3/4 14/2/4
o tree051_trunk
v 0.082071 -0.100000 0.039645
v 0.054927 1.114184 0.012501
v -0.067929 -0.100000 0.039645
v -0.028342 1.103142 0.013107
v 0.082071 -0.100000 -0.110355
v 0.056626 1.096858 -0.069675
v -0.067929 -0.100000 -0.110355
v -0.026643 1.085815 -0.069069
v -0.035808 1.662002 -0.091471
v 0.072813 0.450000 0.058671
v -0.051416 0.445662 0.058487
v -0.051600 0.450000 -0.065742
v 0.072629 0.454338 -0.065558
vn 0.5846 -0.5818 0.5655
vn 0.6993 0.1595 0.6968
vn -0.5885 -0.5780 0.5653
vn -0.6965 0.0942 0.7113
vn 0.5781 -0.5513 -0.6015
vn 0.7218 0.0466 -0.6906
vn -0.5827 -0.5481 -0.6000
vn -0.7006 -0.0055 -0.7135
vn -0.0883 0.9898 -0.1120
vn 0.6950 0.0276 0.7185
vn -0.6976 0.0340 0.7157
vn -0.7160 0.0512 -0.6963
vn 0.7180 0.0414 -0.6948
vt 0.084521 0.155289
vt 0.085727 0.086506
vt 0.095268 0.087410
vt 0.096137 0.155808
vt 0.065480 0.155546
vt 0.073890 0.086351
vt 0.083315 0.084618
vt 0.077006 0.154016
vt 0.098653 0.155541
vt 0.100300 0.088075
vt 0.109849 0.087263
vt 0.110273 0.155135
vt 0.037143 0.154091
vt 0.030842 0.084509
vt 0.040267 0.086242
vt 0.048669 0.155621
vt 0.124388 0.038691
vt 0.110697 0.038691
vt 0.110697 0.025000
vt 0.124388 0.025000
vt 0.057071 0.025000
vt 0.099094 0.025000
vt 0.097006 0.025000
vt 0.043444 0.223672
vt 0.057071 0.225000
vt 0.097006 0.223007
vt 0.110697 0.223007
vt 0.057071 0.224741
vt 0.070697 0.223413
vt 0.083315 0.224072
vt 0.097006 0.224206
s 1
usemtl tree51
f 26/5/14 18/6/6 20/7/8 27/8/15
f 27/9/15 20/10/8 24/11/12 28/12/16
f 28/13/16 24/14/12 22/15/10 29/16/17
f 29/17/17 22/18/10 18/19/6 26/20/14
f 19/21/7 23/22/11 21/23/9 17/24/5
f 18/19/6 22/18/10 25/25/13
f 24/11/12 20/10/8 25/25/13
f 22/15/10 24/14/12 25/26/13
f 20/7/8 18/6/6 25/27/13
f 21/28/9 29/17/17 26/20/14 17/29/5
f 23/30/11 28/13/16 29/16/17 21/31/9
f 19/32/7 27/9/15 28/12/16 23/33/11
f 17/34/5 26/5/14 27/8/15 19/35/7
