# Blender 5.1.2
# www.blender.org
mtllib tree032.mtl
o tree032
v -1.195011 0.000000 1.209153
v 0.926310 0.000000 -0.912168
v -0.770746 5.000000 1.633417
v 1.350574 5.000000 -0.487904
v 1.187939 0.000000 1.173797
v -0.912168 0.000000 -0.926310
v 0.834386 5.000000 1.527351
v -1.265721 5.000000 -0.572757
v 1.173797 0.000000 1.187940
v -0.926310 0.000000 -0.912168
v 0.820244 5.000000 1.541493
v -1.279863 5.000000 -0.558614
v -1.209153 0.000000 1.195010
v 0.912168 0.000000 -0.926310
v -0.784889 5.000000 1.619275
v 1.336432 5.000000 -0.502046
vn 0.7021 -0.1191 0.7021
vn 0.7036 0.0995 -0.7036
vn -0.7036 -0.0995 0.7036
vn -0.7021 0.1191 -0.7021
vt 0.125000 0.007812
vt 0.875000 0.007812
vt 0.875000 0.992188
vt 0.125000 0.992188
s 0
usemtl tree32
f 1/1/1 2/2/1 4/3/1 3/4/1
f 5/1/2 6/2/2 8/3/2 7/4/2
f 9/1/3 11/4/3 12/3/3 10/2/3
f 13/1/4 15/4/4 16/3/4 14/2/4
o tree032_trunk
v 0.101178 -0.100000 0.016325
v 0.013858 1.500000 0.324985
v -0.094107 -0.100000 0.009254
v -0.041941 1.495258 0.324783
v 0.079965 -0.100000 -0.164818
v 0.013656 1.504741 0.269186
v -0.087036 -0.100000 -0.171889
v -0.042142 1.500000 0.268985
v -0.014595 2.182002 0.339864
v 0.023393 0.750000 0.207241
v -0.044506 0.747629 0.207140
v -0.044607 0.750000 0.139241
v 0.023293 0.752371 0.139342
vn 0.6462 -0.5871 0.4875
vn 0.6973 -0.0430 0.7155
vn -0.6250 -0.6122 0.4843
vn -0.6944 -0.0521 0.7177
vn 0.5587 -0.4786 -0.6773
vn 0.7138 0.1139 -0.6910
vn -0.5593 -0.4630 -0.6876
vn -0.7215 0.1114 -0.6834
vn -0.0008 0.9980 0.0628
vn 0.7030 -0.1034 0.7037
vn -0.7017 -0.1176 0.7027
vn -0.7110 0.2042 -0.6729
vn 0.6999 0.2161 -0.6807
vt 0.084521 0.155289
vt 0.085727 0.086506
vt 0.095268 0.087410
vt 0.096137 0.155808
vt 0.065480 0.155546
vt 0.073890 0.086351
vt 0.083315 0.084618
vt 0.077006 0.154016
vt 0.098653 0.155541
vt 0.100300 0.088075
vt 0.109849 0.087263
vt 0.110273 0.155135
vt 0.037143 0.154091
vt 0.030842 0.084509
vt 0.040267 0.086242
vt 0.048669 0.155621
vt 0.124388 0.038691
vt 0.110697 0.038691
vt 0.110697 0.025000
vt 0.124388 0.025000
vt 0.057071 0.025000
vt 0.099094 0.025000
vt 0.097006 0.025000
vt 0.043444 0.223672
vt 0.057071 0.225000
vt 0.097006 0.223007
vt 0.110697 0.223007
vt 0.057071 0.224741
vt 0.070697 0.223413
vt 0.083315 0.224072
vt 0.097006 0.224206
s 1
usemtl tree32
f 26/5/14 18/6/6 20/7/8 27/8/15
f 27/9/15 20/10/8 24/11/12 28/12/16
f 28/13/16 24/14/12 22/15/10 29/16/17
f 29/17/17 22/18/10 18/19/6 26/20/14
f 19/21/7 23/22/11 21/23/9 17/24/5
f 18/19/6 22/18/10 25/25/13
f 24/11/12 20/10/8 25/25/13
f 22/15/10 24/14/12 25/26/13
f 20/7/8 18/6/6 25/27/13
f 21/28/9 29/17/17 26/20/14 17/29/5
f 23/30/11 28/13/16 29/16/17 21/31/9
f 19/32/7 27/9/15 28/12/16 23/33/11
f 17/34/5 26/5/14 27/8/15 19/35/7
