# Blender 5.1.2
# www.blender.org
mtllib tree031.mtl
o tree031
v -1.124300 0.000000 1.138442
v 0.997021 0.000000 -0.982878
v -1.124300 5.000000 1.138442
v 1.067731 5.000000 -0.912168
v 1.117229 0.000000 1.103087
v -0.982878 0.000000 -0.997021
v 1.046518 5.000000 1.173797
v -1.053589 5.000000 -0.926310
v 1.103087 0.000000 1.117229
v -0.997021 0.000000 -0.982878
v 1.032376 5.000000 1.187939
v -1.067731 5.000000 -0.912168
v -1.138442 0.000000 1.124300
v 0.982878 0.000000 -0.997021
v -1.138442 5.000000 1.124300
v 1.053589 5.000000 -0.926310
vn 0.6952 -0.0100 0.7188
vn 0.7070 0.0200 -0.7070
vn -0.7070 -0.0200 0.7070
vn -0.6952 0.0100 -0.7188
vt 0.250000 0.007812
vt 0.750000 0.007812
vt 0.750000 0.992188
vt 0.250000 0.992188
s 0
usemtl tree31
f 1/1/1 2/2/1 4/3/1 3/4/1
f 5/1/2 6/2/2 8/3/2 7/4/2
f 9/1/3 11/4/3 12/3/3 10/2/3
f 13/1/4 15/4/4 16/3/4 14/2/4
o tree031_trunk
v 0.035858 -0.100000 0.035858
v 0.028000 2.100000 0.126995
v -0.064142 -0.100000 0.035858
v -0.027799 2.095258 0.126794
v 0.035858 -0.100000 -0.064142
v 0.027799 2.104742 0.071196
v -0.064142 -0.100000 -0.064142
v -0.028000 2.100000 0.070995
v -0.000453 2.662002 0.085306
v 0.016322 0.950000 0.016322
v -0.051577 0.947629 0.016222
v -0.051678 0.950000 -0.051678
v 0.016222 0.952371 -0.051577
vn 0.5819 -0.5678 0.5822
vn 0.6944 0.0076 0.7196
vn -0.5803 -0.5690 0.5827
vn -0.6907 0.0105 0.7231
vn 0.5826 -0.5692 -0.5801
vn 0.7215 0.0593 -0.6898
vn -0.5804 -0.5713 -0.5802
vn -0.7206 0.0729 -0.6895
vn -0.0011 0.9997 -0.0239
vn 0.7181 -0.0246 0.6955
vn -0.7202 -0.0139 0.6937
vn -0.6985 0.0524 -0.7137
vn 0.6921 0.0464 -0.7203
vt 0.084521 0.155289
vt 0.085727 0.086506
vt 0.095268 0.087410
vt 0.096137 0.155808
vt 0.065480 0.155546
vt 0.073890 0.086351
vt 0.083315 0.084618
vt 0.077006 0.154016
vt 0.098653 0.155541
vt 0.100300 0.088075
vt 0.109849 0.087263
vt 0.110273 0.155135
vt 0.124388 0.038691
vt 0.110697 0.038691
vt 0.110697 0.025000
vt 0.124388 0.025000
vt 0.040267 0.086242
vt 0.030842 0.084509
vt 0.057071 0.025000
vt 0.099094 0.025000
vt 0.097006 0.025000
vt 0.043444 0.223672
vt 0.037143 0.154091
vt 0.048669 0.155621
vt 0.057071 0.225000
vt 0.097006 0.223007
vt 0.110697 0.223007
vt 0.057071 0.224741
vt 0.070697 0.223413
vt 0.083315 0.224072
vt 0.097006 0.224206
s 1
usemtl tree31
f 26/5/14 18/6/6 20/7/8 27/8/15
f 27/9/15 20/10/8 24/11/12 28/12/16
f 28/13/16 24/14/12 22/15/10 29/16/17
f 19/17/7 23/18/11 21/19/9 17/20/5
f 18/21/6 22/22/10 25/23/13
f 24/11/12 20/10/8 25/23/13
f 22/15/10 24/14/12 25/24/13
f 20/7/8 18/6/6 25/25/13
f 21/26/9 29/27/17 26/28/14 17/29/5
f 23/30/11 28/13/16 29/16/17 21/31/9
f 19/32/7 27/9/15 28/12/16 23/33/11
f 17/34/5 26/5/14 27/8/15 19/35/7
f 29/27/17 22/22/10 18/21/6 26/28/14
