# Blender 5.1.2
# www.blender.org
mtllib tree064.mtl
o tree064
v -1.141695 0.000000 1.174787
v 1.174787 0.000000 -1.141695
v -1.141695 4.914000 1.174787
v 1.174787 4.914000 -1.141695
v 1.174787 0.000000 1.141695
v -1.141695 0.000000 -1.174787
v 1.174787 4.914000 1.141695
v -1.141695 4.914000 -1.174787
v 1.141695 0.000000 1.174787
v -1.174787 0.000000 -1.141695
v 1.141695 4.914000 1.174787
v -1.174787 4.914000 -1.141695
v -1.174787 0.000000 1.141695
v 1.141695 0.000000 -1.174787
v -1.174787 4.914000 1.141695
v 1.141695 4.914000 -1.174787
vn 0.7071 -0.0000 0.7071
vn 0.7071 -0.0000 -0.7071
vn -0.7071 -0.0000 0.7071
vn -0.7071 -0.0000 -0.7071
vt 0.171875 0.007812
vt 0.828125 0.007812
vt 0.828125 0.992188
vt 0.171875 0.992188
s 0
usemtl tree64
f 1/1/1 2/2/1 4/3/1 3/4/1
f 5/1/2 6/2/2 8/3/2 7/4/2
f 9/1/3 11/4/3 12/3/3 10/2/3
f 13/1/4 15/4/4 16/3/4 14/2/4
o tree064_trunk
v 0.147148 -0.100000 -0.049215
v 0.088229 1.200000 -0.052243
v -0.122852 -0.100000 -0.049215
v -0.034528 1.189569 -0.052687
v 0.147148 -0.100000 -0.319215
v 0.087786 1.210431 -0.175000
v -0.122852 -0.100000 -0.319215
v -0.034971 1.200000 -0.175444
v 0.047864 1.962002 -0.149220
v 0.086541 0.450000 -0.053253
v -0.083207 0.444073 -0.053505
v -0.083459 0.450000 -0.223253
v 0.086289 0.455927 -0.223002
vn 0.6101 -0.5457 0.5745
vn 0.6958 0.0625 0.7155
vn -0.5991 -0.5558 0.5763
vn -0.6935 0.0973 0.7139
vn 0.5997 -0.5039 -0.6217
vn 0.7154 0.0524 -0.6967
vn -0.5903 -0.5126 -0.6235
vn -0.7144 0.0975 -0.6929
vn 0.0269 0.9986 -0.0452
vn 0.6936 0.0406 0.7192
vn -0.7047 0.0507 0.7077
vn -0.7161 0.1330 -0.6853
vn 0.7025 0.1231 -0.7009
vt 0.084521 0.155289
vt 0.085727 0.086506
vt 0.095268 0.087410
vt 0.096137 0.155808
vt 0.065480 0.155546
vt 0.073890 0.086351
vt 0.083315 0.084618
vt 0.077006 0.154016
vt 0.098653 0.155541
vt 0.100300 0.088075
vt 0.109849 0.087263
vt 0.110273 0.155135
vt 0.037143 0.154091
vt 0.030842 0.084509
vt 0.040267 0.086242
vt 0.048669 0.155621
vt 0.124388 0.038691
vt 0.110697 0.038691
vt 0.110697 0.025000
vt 0.124388 0.025000
vt 0.057071 0.025000
vt 0.099094 0.025000
vt 0.097006 0.025000
vt 0.043444 0.223672
vt 0.057071 0.225000
vt 0.097006 0.223007
vt 0.110697 0.223007
vt 0.057071 0.224741
vt 0.070697 0.223413
vt 0.083315 0.224072
vt 0.097006 0.224206
s 1
usemtl tree64
f 26/5/14 18/6/6 20/7/8 27/8/15
f 27/9/15 20/10/8 24/11/12 28/12/16
f 28/13/16 24/14/12 22/15/10 29/16/17
f 29/17/17 22/18/10 18/19/6 26/20/14
f 19/21/7 23/22/11 21/23/9 17/24/5
f 18/19/6 22/18/10 25/25/13
f 24/11/12 20/10/8 25/25/13
f 22/15/10 24/14/12 25/26/13
f 20/7/8 18/6/6 25/27/13
f 21/28/9 29/17/17 26/20/14 17/29/5
f 23/30/11 28/13/16 29/16/17 21/31/9
f 19/32/7 27/9/15 28/12/16 23/33/11
f 17/34/5 26/5/14 27/8/15 19/35/7
