# Blender 5.1.2
# www.blender.org
mtllib tree056.mtl
o tree056
v -1.141695 0.000000 1.174787
v 1.174787 0.000000 -1.141695
v -1.141695 4.914000 1.174787
v 1.174787 4.914000 -1.141695
v 1.174787 0.000000 1.141695
v -1.141695 0.000000 -1.174787
v 1.174787 4.914000 1.141695
v -1.141695 4.914000 -1.174787
v 1.141695 0.000000 1.174787
v -1.174787 0.000000 -1.141695
v 1.141695 4.914000 1.174787
v -1.174787 4.914000 -1.141695
v -1.174787 0.000000 1.141695
v 1.141695 0.000000 -1.174787
v -1.174787 4.914000 1.141695
v 1.141695 4.914000 -1.174787
vn 0.7071 -0.0000 0.7071
vn 0.7071 -0.0000 -0.7071
vn -0.7071 -0.0000 0.7071
vn -0.7071 -0.0000 -0.7071
vt 0.125000 0.007812
vt 0.875000 0.007812
vt 0.875000 0.992188
vt 0.125000 0.992188
s 0
usemtl tree56
f 1/1/1 2/2/1 4/3/1 3/4/1
f 5/1/2 6/2/2 8/3/2 7/4/2
f 9/1/3 11/4/3 12/3/3 10/2/3
f 13/1/4 15/4/4 16/3/4 14/2/4
o tree056_trunk
v 0.217071 -0.100000 0.217071
v 0.200275 2.300000 0.157849
v -0.202929 -0.100000 0.217071
v -0.128378 2.272073 0.156662
v 0.217071 -0.100000 -0.202929
v 0.199089 2.327928 -0.170805
v -0.202929 -0.100000 -0.202929
v -0.129565 2.300000 -0.171991
v 0.034902 2.662002 -0.020760
v 0.185165 1.150000 0.241733
v -0.191677 1.136842 0.241174
v -0.192236 1.150000 -0.135667
v 0.184606 1.163158 -0.135108
vn 0.5864 -0.5757 0.5699
vn 0.6791 0.2790 0.6789
vn -0.5812 -0.5799 0.5709
vn -0.6801 0.2793 0.6779
vn 0.5823 -0.5564 -0.5927
vn 0.6839 0.2572 -0.6827
vn -0.5775 -0.5609 -0.5933
vn -0.6840 0.2514 -0.6848
vn -0.0190 0.9997 -0.0118
vn 0.6916 0.0251 0.7219
vn -0.7015 0.0396 0.7116
vn -0.7218 0.0325 -0.6913
vn 0.7125 0.0116 -0.7016
vt 0.084521 0.155289
vt 0.085727 0.086506
vt 0.095268 0.087410
vt 0.096137 0.155808
vt 0.065480 0.155546
vt 0.073890 0.086351
vt 0.083315 0.084618
vt 0.077006 0.154016
vt 0.098653 0.155541
vt 0.100300 0.088075
vt 0.109849 0.087263
vt 0.110273 0.155135
vt 0.037143 0.154091
vt 0.030842 0.084509
vt 0.040267 0.086242
vt 0.048669 0.155621
vt 0.124388 0.038691
vt 0.110697 0.038691
vt 0.110697 0.025000
vt 0.124388 0.025000
vt 0.057071 0.025000
vt 0.099094 0.025000
vt 0.097006 0.025000
vt 0.043444 0.223672
vt 0.057071 0.225000
vt 0.097006 0.223007
vt 0.110697 0.223007
vt 0.057071 0.224741
vt 0.070697 0.223413
vt 0.083315 0.224072
vt 0.097006 0.224206
s 1
usemtl tree56
f 26/5/14 18/6/6 20/7/8 27/8/15
f 27/9/15 20/10/8 24/11/12 28/12/16
f 28/13/16 24/14/12 22/15/10 29/16/17
f 29/17/17 22/18/10 18/19/6 26/20/14
f 19/21/7 23/22/11 21/23/9 17/24/5
f 18/19/6 22/18/10 25/25/13
f 24/11/12 20/10/8 25/25/13
f 22/15/10 24/14/12 25/26/13
f 20/7/8 18/6/6 25/27/13
f 21/28/9 29/17/17 26/20/14 17/29/5
f 23/30/11 28/13/16 29/16/17 21/31/9
f 19/32/7 27/9/15 28/12/16 23/33/11
f 17/34/5 26/5/14 27/8/15 19/35/7
