# Blender 5.1.2
# www.blender.org
mtllib tree053.mtl
o tree053
v -0.407223 0.000000 0.420092
v 0.603940 0.000000 -0.591071
v -0.407223 2.723674 0.420092
v 0.603940 2.723674 -0.591071
v 0.420092 0.000000 0.407223
v -0.591071 0.000000 -0.603940
v 0.420092 2.723674 0.407223
v -0.591071 2.723674 -0.603940
v 0.407223 0.000000 0.420092
v -0.603940 0.000000 -0.591071
v 0.407223 2.723674 0.420092
v -0.603940 2.723674 -0.591071
v -0.420092 0.000000 0.407223
v 0.591071 0.000000 -0.603940
v -0.420092 2.723674 0.407223
v 0.591071 2.723674 -0.603940
vn 0.7071 -0.0000 0.7071
vn 0.7071 -0.0000 -0.7071
vn -0.7071 -0.0000 0.7071
vn -0.7071 -0.0000 -0.7071
vt 0.250000 0.007812
vt 0.750000 0.007812
vt 0.750000 0.992188
vt 0.250000 0.992188
s 0
usemtl tree53
f 1/1/1 2/2/1 4/3/1 3/4/1
f 5/1/2 6/2/2 8/3/2 7/4/2
f 9/1/3 11/4/3 12/3/3 10/2/3
f 13/1/4 15/4/4 16/3/4 14/2/4
o tree053_trunk
v 0.077071 -0.100000 0.077071
v 0.039200 1.100000 -0.003226
v -0.062929 -0.100000 0.077071
v -0.038918 1.093362 -0.003508
v 0.077071 -0.100000 -0.062929
v 0.038918 1.106638 -0.081344
v -0.062929 -0.100000 -0.062929
v -0.039200 1.100000 -0.081626
v -0.000453 1.362002 -0.056116
v 0.054536 0.450000 0.040393
v -0.047313 0.446444 0.040242
v -0.047464 0.450000 -0.061607
v 0.054384 0.453556 -0.061456
vn 0.5858 -0.5492 0.5959
vn 0.6950 0.1483 0.7036
vn -0.5829 -0.5518 0.5965
vn -0.7040 0.1354 0.6972
vn 0.5902 -0.5657 -0.5759
vn 0.7046 0.0873 -0.7042
vn -0.5861 -0.5694 -0.5764
vn -0.7079 0.0766 -0.7021
vn -0.0041 0.9988 -0.0483
vn 0.7027 0.0708 0.7079
vn -0.7053 0.0622 0.7062
vn -0.7090 0.0050 -0.7052
vn 0.7093 0.0128 -0.7048
vt 0.084521 0.155289
vt 0.085727 0.086506
vt 0.095268 0.087410
vt 0.096137 0.155808
vt 0.065480 0.155546
vt 0.073890 0.086351
vt 0.083315 0.084618
vt 0.077006 0.154016
vt 0.098653 0.155541
vt 0.100300 0.088075
vt 0.109849 0.087263
vt 0.110273 0.155135
vt 0.037143 0.154091
vt 0.030842 0.084509
vt 0.040267 0.086242
vt 0.048669 0.155621
vt 0.124388 0.038691
vt 0.110697 0.038691
vt 0.110697 0.025000
vt 0.124388 0.025000
vt 0.057071 0.025000
vt 0.099094 0.025000
vt 0.097006 0.025000
vt 0.043444 0.223672
vt 0.057071 0.225000
vt 0.097006 0.223007
vt 0.110697 0.223007
vt 0.057071 0.224741
vt 0.070697 0.223413
vt 0.083315 0.224072
vt 0.097006 0.224206
s 1
usemtl tree53
f 26/5/14 18/6/6 20/7/8 27/8/15
f 27/9/15 20/10/8 24/11/12 28/12/16
f 28/13/16 24/14/12 22/15/10 29/16/17
f 29/17/17 22/18/10 18/19/6 26/20/14
f 19/21/7 23/22/11 21/23/9 17/24/5
f 18/19/6 22/18/10 25/25/13
f 24/11/12 20/10/8 25/25/13
f 22/15/10 24/14/12 25/26/13
f 20/7/8 18/6/6 25/27/13
f 21/28/9 29/17/17 26/20/14 17/29/5
f 23/30/11 28/13/16 29/16/17 21/31/9
f 19/32/7 27/9/15 28/12/16 23/33/11
f 17/34/5 26/5/14 27/8/15 19/35/7
