# Blender 5.1.2
# www.blender.org
mtllib tree033.mtl
o tree033
v -0.593970 0.000000 0.608112
v 1.527351 0.000000 -1.513208
v -1.230366 4.993049 -0.028284
v 0.890954 4.993049 -2.149605
v 0.593970 0.000000 0.565686
v -1.506137 0.000000 -1.534422
v 1.230366 4.993049 -0.070711
v -0.869741 4.993049 -2.170818
v 0.579828 0.000000 0.579828
v -1.520279 0.000000 -1.520280
v 1.216224 4.993049 -0.056569
v -0.883883 4.993049 -2.156676
v -0.608112 0.000000 0.593970
v 1.513208 0.000000 -1.527351
v -1.244508 4.993049 -0.042426
v 0.876812 4.993049 -2.163747
vn 0.6959 0.1774 0.6959
vn 0.6959 -0.1774 -0.6959
vn -0.6959 0.1774 0.6959
vn -0.6959 -0.1774 -0.6959
vt 0.218750 0.007812
vt 0.765625 0.007812
vt 0.765625 0.992188
vt 0.218750 0.992188
s 0
usemtl tree33
f 1/1/1 2/2/1 4/3/1 3/4/1
f 5/1/2 6/2/2 8/3/2 7/4/2
f 9/1/3 11/4/3 12/3/3 10/2/3
f 13/1/4 15/4/4 16/3/4 14/2/4
o tree033_trunk
v 0.092426 -0.100000 0.092426
v 0.012477 2.218879 -0.592873
v -0.113640 -0.100000 0.127782
v -0.042554 2.229203 -0.593842
v 0.057071 -0.100000 -0.042929
v 0.011509 2.208554 -0.647905
v -0.078284 -0.100000 -0.078284
v -0.043523 2.218879 -0.648873
v -0.030284 2.876488 -0.761675
v 0.016322 0.850000 -0.096815
v -0.051577 0.847629 -0.096915
v -0.051678 0.850000 -0.164815
v 0.016222 0.852371 -0.164714
v 0.027565 1.645360 -0.317537
v -0.033624 1.638291 -0.317795
v -0.032481 1.623518 -0.377582
v 0.028708 1.630588 -0.377324
vn 0.6742 -0.4928 0.5501
vn 0.7386 0.2675 0.6188
vn -0.5958 -0.4630 0.6563
vn -0.7226 0.2278 0.6526
vn 0.5681 -0.6411 -0.5160
vn 0.6786 -0.2009 -0.7065
vn -0.5028 -0.5857 -0.6358
vn -0.6890 -0.2029 -0.6958
vn -0.0215 0.9776 -0.2093
vn 0.7362 0.1886 0.6500
vn -0.7028 0.2012 0.6824
vn -0.6717 -0.1118 -0.7323
vn 0.7258 -0.1167 -0.6779
vn 0.6878 0.2600 0.6777
vn -0.6895 0.2525 0.6789
vn -0.7155 -0.2344 -0.6582
vn 0.7367 -0.2308 -0.6356
vt 0.085124 0.120897
vt 0.085727 0.086506
vt 0.095268 0.087410
vt 0.095702 0.121609
vt 0.069685 0.120949
vt 0.073890 0.086351
vt 0.083315 0.084618
vt 0.080161 0.119317
vt 0.099476 0.121808
vt 0.100300 0.088075
vt 0.109849 0.087263
vt 0.110061 0.121199
vt 0.033992 0.119300
vt 0.030842 0.084509
vt 0.040267 0.086242
vt 0.044468 0.120932
vt 0.124388 0.038691
vt 0.110697 0.038691
vt 0.110697 0.025000
vt 0.124388 0.025000
vt 0.057071 0.025000
vt 0.099094 0.025000
vt 0.097006 0.025000
vt 0.043444 0.223672
vt 0.037143 0.154091
vt 0.048669 0.155621
vt 0.057071 0.225000
vt 0.097006 0.223007
vt 0.098653 0.155541
vt 0.110273 0.155135
vt 0.110697 0.223007
vt 0.057071 0.224741
vt 0.065480 0.155546
vt 0.077006 0.154016
vt 0.070697 0.223413
vt 0.083315 0.224072
vt 0.084521 0.155289
vt 0.096137 0.155808
vt 0.097006 0.224206
s 1
usemtl tree33
f 30/5/18 18/6/6 20/7/8 31/8/19
f 31/9/19 20/10/8 24/11/12 32/12/20
f 32/13/20 24/14/12 22/15/10 33/16/21
f 33/17/21 22/18/10 18/19/6 30/20/18
f 19/21/7 23/22/11 21/23/9 17/24/5
f 18/19/6 22/18/10 25/25/13
f 24/11/12 20/10/8 25/25/13
f 22/15/10 24/14/12 25/26/13
f 20/7/8 18/6/6 25/27/13
f 21/28/9 29/29/17 26/30/14 17/31/5
f 23/32/11 28/33/16 29/34/17 21/35/9
f 19/36/7 27/37/15 28/38/16 23/39/11
f 17/40/5 26/41/14 27/42/15 19/43/7
f 29/29/17 33/17/21 30/20/18 26/30/14
f 28/33/16 32/13/20 33/16/21 29/34/17
f 27/37/15 31/9/19 32/12/20 28/38/16
f 26/41/14 30/5/18 31/8/19 27/42/15
