# Blender 5.1.2
# www.blender.org
mtllib tree094.mtl
o tree094
v -1.369666 0.000000 1.388051
v 1.388051 0.000000 -1.369666
v -1.369666 3.900000 1.388051
v 1.388051 3.900000 -1.369666
v 1.388051 0.000000 1.369666
v -1.369666 0.000000 -1.388051
v 1.388051 3.900000 1.369666
v -1.369666 3.900000 -1.388051
v 1.369666 0.000000 1.388051
v -1.388051 0.000000 -1.369666
v 1.369666 3.900000 1.388051
v -1.388051 3.900000 -1.369666
v -1.388051 0.000000 1.369666
v 1.369666 0.000000 -1.388051
v -1.388051 3.900000 1.369666
v 1.369666 3.900000 -1.388051
vn 0.7071 -0.0000 0.7071
vn 0.7071 -0.0000 -0.7071
vn -0.7071 -0.0000 0.7071
vn -0.7071 -0.0000 -0.7071
vt 0.007812 0.007812
vt 0.992188 0.007812
vt 0.992188 0.992188
vt 0.007812 0.992188
s 0
usemtl tree94
f 1/1/1 2/2/1 4/3/1 3/4/1
f 5/1/2 6/2/2 8/3/2 7/4/2
f 9/1/3 11/4/3 12/3/3 10/2/3
f 13/1/4 15/4/4 16/3/4 14/2/4
o tree094_trunk
v 0.096039 -0.100000 0.200576
v 0.072535 1.111671 0.122013
v -0.186434 -0.100000 0.200576
v -0.022674 1.103581 0.121669
v 0.096039 -0.100000 -0.081897
v 0.072191 1.119762 0.026804
v -0.186433 -0.100000 -0.081897
v -0.023018 1.111671 0.026460
v -0.000453 1.774825 0.085306
v 0.068289 0.450000 0.124858
v -0.075148 0.444992 0.124645
v -0.075360 0.450000 -0.018792
v 0.068076 0.455008 -0.018579
vn 0.5846 -0.5276 0.6163
vn 0.7105 0.0550 0.7015
vn -0.6274 -0.4883 0.6065
vn -0.6941 0.0595 0.7174
vn 0.5863 -0.5340 -0.6091
vn 0.7147 0.0921 -0.6934
vn -0.6299 -0.4949 -0.5986
vn -0.7003 0.0946 -0.7076
vn -0.0383 0.9991 0.0171
vn 0.7148 0.0664 0.6962
vn -0.6965 0.1551 0.7006
vn -0.6888 0.1648 -0.7060
vn 0.7041 0.0805 -0.7055
vt 0.082980 0.062148
vt 0.151763 0.063353
vt 0.150859 0.072894
vt 0.082461 0.073763
vt 0.082723 0.043107
vt 0.151918 0.051516
vt 0.153651 0.060942
vt 0.084254 0.054633
vt 0.082728 0.076279
vt 0.150195 0.077926
vt 0.151007 0.087475
vt 0.083134 0.087899
vt 0.084179 0.014769
vt 0.153760 0.008468
vt 0.152027 0.017894
vt 0.082648 0.026295
vt 0.199578 0.102014
vt 0.199578 0.088323
vt 0.213269 0.088323
vt 0.213269 0.102014
vt 0.213269 0.034697
vt 0.213269 0.076720
vt 0.213269 0.074632
vt 0.014597 0.021071
vt 0.013269 0.034697
vt 0.015262 0.074632
vt 0.015262 0.088323
vt 0.013529 0.034697
vt 0.014856 0.048324
vt 0.014197 0.060942
vt 0.014063 0.074632
s 1
usemtl tree94
f 26/5/14 18/6/6 20/7/8 27/8/15
f 27/9/15 20/10/8 24/11/12 28/12/16
f 28/13/16 24/14/12 22/15/10 29/16/17
f 29/17/17 22/18/10 18/19/6 26/20/14
f 19/21/7 23/22/11 21/23/9 17/24/5
f 18/19/6 22/18/10 25/25/13
f 24/11/12 20/10/8 25/25/13
f 22/15/10 24/14/12 25/26/13
f 20/7/8 18/6/6 25/27/13
f 21/28/9 29/17/17 26/20/14 17/29/5
f 23/30/11 28/13/16 29/16/17 21/31/9
f 19/32/7 27/9/15 28/12/16 23/33/11
f 17/34/5 26/5/14 27/8/15 19/35/7
