# Blender 5.1.2
# www.blender.org
mtllib tree097.mtl
o tree097
v -1.479975 0.000000 1.498360
v 1.277742 0.000000 -1.259357
v -1.479975 3.900000 1.498360
v 1.277742 3.900000 -1.259357
v 1.498360 0.000000 1.479975
v -1.259357 0.000000 -1.277742
v 1.498360 3.900000 1.479975
v -1.259357 3.900000 -1.277742
v 1.479975 0.000000 1.498360
v -1.277742 0.000000 -1.259357
v 1.479975 3.900000 1.498360
v -1.277742 3.900000 -1.259357
v -1.498360 0.000000 1.479975
v 1.259357 0.000000 -1.277742
v -1.498360 3.900000 1.479975
v 1.259357 3.900000 -1.277742
vn 0.7071 -0.0000 0.7071
vn 0.7071 -0.0000 -0.7071
vn -0.7071 -0.0000 0.7071
vn -0.7071 -0.0000 -0.7071
vt 0.007812 0.007812
vt 0.992188 0.007812
vt 0.992188 0.992188
vt 0.007812 0.992188
s 0
usemtl tree97
f 1/1/1 2/2/1 4/3/1 3/4/1
f 5/1/2 6/2/2 8/3/2 7/4/2
f 9/1/3 11/4/3 12/3/3 10/2/3
f 13/1/4 15/4/4 16/3/4 14/2/4
o tree097_trunk
v 0.101419 -0.100000 0.089704
v 0.037785 1.048646 0.062316
v -0.068581 -0.100000 0.089704
v -0.057073 1.043905 0.061973
v 0.101419 -0.100000 -0.080296
v 0.037442 1.053388 -0.032542
v -0.068581 -0.100000 -0.080296
v -0.057415 1.048646 -0.032884
v -0.030392 1.493935 0.037660
v 0.065724 0.450000 0.057744
v -0.049705 0.447629 0.057573
v -0.049876 0.450000 -0.057856
v 0.065553 0.452371 -0.057685
vn 0.5937 -0.5452 0.5919
vn 0.7057 0.0846 0.7035
vn -0.5850 -0.5527 0.5935
vn -0.7079 0.0308 0.7057
vn 0.5951 -0.5495 -0.5864
vn 0.6993 0.1375 -0.7015
vn -0.5858 -0.5578 -0.5879
vn -0.7035 0.0845 -0.7056
vn -0.0462 0.9976 0.0514
vn 0.7105 0.0582 0.7013
vn -0.7092 0.0265 0.7045
vn -0.7018 0.0373 -0.7114
vn 0.7031 0.0685 -0.7078
vt 0.085412 0.062082
vt 0.154195 0.063288
vt 0.153291 0.072829
vt 0.084893 0.073698
vt 0.085155 0.043041
vt 0.154349 0.051451
vt 0.156083 0.060876
vt 0.086685 0.054567
vt 0.085160 0.076214
vt 0.152626 0.077861
vt 0.153438 0.087410
vt 0.085566 0.087834
vt 0.086610 0.014704
vt 0.156192 0.008403
vt 0.154458 0.017829
vt 0.085079 0.026230
vt 0.202010 0.101949
vt 0.202010 0.088258
vt 0.215701 0.088258
vt 0.215701 0.101949
vt 0.215701 0.034632
vt 0.215701 0.076655
vt 0.215701 0.074567
vt 0.017028 0.021005
vt 0.015701 0.034632
vt 0.017693 0.074567
vt 0.017693 0.088258
vt 0.015960 0.034632
vt 0.017288 0.048258
vt 0.016629 0.060876
vt 0.016494 0.074567
s 1
usemtl tree97
f 26/5/14 18/6/6 20/7/8 27/8/15
f 27/9/15 20/10/8 24/11/12 28/12/16
f 28/13/16 24/14/12 22/15/10 29/16/17
f 29/17/17 22/18/10 18/19/6 26/20/14
f 19/21/7 23/22/11 21/23/9 17/24/5
f 18/19/6 22/18/10 25/25/13
f 24/11/12 20/10/8 25/25/13
f 22/15/10 24/14/12 25/26/13
f 20/7/8 18/6/6 25/27/13
f 21/28/9 29/17/17 26/20/14 17/29/5
f 23/30/11 28/13/16 29/16/17 21/31/9
f 19/32/7 27/9/15 28/12/16 23/33/11
f 17/34/5 26/5/14 27/8/15 19/35/7
