# Blender 5.1.2
# www.blender.org
mtllib tree042.mtl
o tree042
v -0.910047 0.000000 0.928431
v 0.928431 0.000000 -0.910046
v -0.910046 3.240963 0.928431
v 0.928431 3.240963 -0.910046
v 0.928431 0.000000 0.910047
v -0.910046 0.000000 -0.928431
v 0.928431 3.240963 0.910046
v -0.910046 3.240963 -0.928431
v 0.910047 0.000000 0.928431
v -0.928431 0.000000 -0.910047
v 0.910046 3.240963 0.928431
v -0.928431 3.240963 -0.910047
v -0.928431 0.000000 0.910046
v 0.910046 0.000000 -0.928431
v -0.928431 3.240963 0.910046
v 0.910047 3.240963 -0.928431
vn 0.7071 -0.0000 0.7071
vn 0.7071 -0.0000 -0.7071
vn -0.7071 -0.0000 0.7071
vn -0.7071 -0.0000 -0.7071
vt 0.187500 0.007812
vt 0.812500 0.007812
vt 0.812500 0.992188
vt 0.187500 0.992188
s 0
usemtl tree42
f 1/1/1 2/2/1 4/3/1 3/4/1
f 5/1/2 6/2/2 8/3/2 7/4/2
f 9/1/3 11/4/3 12/3/3 10/2/3
f 13/1/4 15/4/4 16/3/4 14/2/4
o tree042_trunk
v 0.165355 -0.100000 0.108787
v 0.072800 1.700000 0.030374
v -0.094645 -0.100000 0.108787
v -0.072276 1.687672 0.029850
v 0.165355 -0.100000 -0.151213
v 0.072276 1.712328 -0.114703
v -0.094645 -0.100000 -0.151213
v -0.072800 1.700000 -0.115226
v -0.000453 1.862002 -0.056116
v 0.091665 0.450000 0.148233
v -0.098454 0.443362 0.147951
v -0.098736 0.450000 -0.042167
v 0.091382 0.456638 -0.041885
vn 0.6226 -0.5572 0.5494
vn 0.6704 0.3033 0.6772
vn -0.5787 -0.5977 0.5549
vn -0.6860 0.2800 0.6716
vn 0.6046 -0.4922 -0.6263
vn 0.6835 0.2445 -0.6878
vn -0.5665 -0.5241 -0.6359
vn -0.6927 0.2195 -0.6870
vn -0.0198 0.9986 -0.0496
vn 0.6714 0.0579 0.7388
vn -0.6926 0.0110 0.7212
vn -0.7398 0.0532 -0.6707
vn 0.7201 0.1029 -0.6862
vt 0.084521 0.155289
vt 0.085727 0.086506
vt 0.095268 0.087410
vt 0.096137 0.155808
vt 0.065480 0.155546
vt 0.073890 0.086351
vt 0.083315 0.084618
vt 0.077006 0.154016
vt 0.098653 0.155541
vt 0.100300 0.088075
vt 0.109849 0.087263
vt 0.110273 0.155135
vt 0.037143 0.154091
vt 0.030842 0.084509
vt 0.040267 0.086242
vt 0.048669 0.155621
vt 0.124388 0.038691
vt 0.110697 0.038691
vt 0.110697 0.025000
vt 0.124388 0.025000
vt 0.057071 0.025000
vt 0.099094 0.025000
vt 0.097006 0.025000
vt 0.043444 0.223672
vt 0.057071 0.225000
vt 0.097006 0.223007
vt 0.110697 0.223007
vt 0.057071 0.224741
vt 0.070697 0.223413
vt 0.083315 0.224072
vt 0.097006 0.224206
s 1
usemtl tree42
f 26/5/14 18/6/6 20/7/8 27/8/15
f 27/9/15 20/10/8 24/11/12 28/12/16
f 28/13/16 24/14/12 22/15/10 29/16/17
f 29/17/17 22/18/10 18/19/6 26/20/14
f 19/21/7 23/22/11 21/23/9 17/24/5
f 18/19/6 22/18/10 25/25/13
f 24/11/12 20/10/8 25/25/13
f 22/15/10 24/14/12 25/26/13
f 20/7/8 18/6/6 25/27/13
f 21/28/9 29/17/17 26/20/14 17/29/5
f 23/30/11 28/13/16 29/16/17 21/31/9
f 19/32/7 27/9/15 28/12/16 23/33/11
f 17/34/5 26/5/14 27/8/15 19/35/7
