# Blender 5.1.2
# www.blender.org
mtllib tree048.mtl
o tree048
v -1.001970 0.000000 1.020355
v 0.836507 0.000000 -0.818122
v -1.001970 3.890964 1.020355
v 0.836507 3.890964 -0.818122
v 1.020355 0.000000 1.001971
v -0.818123 0.000000 -0.836507
v 1.020355 3.890964 1.001970
v -0.818123 3.890964 -0.836507
v 1.001971 0.000000 1.020355
v -0.836507 0.000000 -0.818123
v 1.001970 3.890964 1.020355
v -0.836507 3.890964 -0.818123
v -1.020355 0.000000 1.001970
v 0.818122 0.000000 -0.836507
v -1.020355 3.890964 1.001970
v 0.818123 3.890964 -0.836507
vn 0.7071 -0.0000 0.7071
vn 0.7071 -0.0000 -0.7071
vn -0.7071 -0.0000 0.7071
vn -0.7071 -0.0000 -0.7071
vt 0.125000 0.007812
vt 0.875000 0.007812
vt 0.875000 0.992188
vt 0.125000 0.992188
s 0
usemtl tree48
f 1/1/1 2/2/1 4/3/1 3/4/1
f 5/1/2 6/2/2 8/3/2 7/4/2
f 9/1/3 11/4/3 12/3/3 10/2/3
f 13/1/4 15/4/4 16/3/4 14/2/4
o tree048_trunk
v 0.455444 -0.100000 0.356450
v 0.118102 1.370000 0.061533
v -0.413018 -0.100000 0.427160
v 0.037752 1.363172 0.061243
v 0.547368 -0.100000 -0.533226
v 0.117812 1.376828 -0.018817
v -0.483729 -0.100000 -0.582724
v 0.037462 1.370000 -0.019107
v 0.112684 1.782002 -0.027831
v 0.434251 0.540000 0.349399
v -0.432892 0.527995 0.397536
v -0.420109 0.550000 -0.504962
v 0.475318 0.512005 -0.510673
v 0.058002 0.600000 0.072144
v -0.082513 0.594399 0.071906
v -0.082751 0.600000 -0.068609
v 0.057764 0.605601 -0.068371
v 0.081728 0.995000 0.102941
v -0.016077 0.989262 0.102698
v -0.016321 0.995000 0.004892
v 0.081484 1.000738 0.005136
v -0.444168 0.243997 0.391135
v -0.494345 0.320000 -0.586269
v 0.518414 0.246003 -0.571447
v 0.455455 0.230000 0.363531
vn 0.5812 -0.5595 0.5909
vn 0.7063 0.0822 0.7031
vn -0.5050 -0.5773 0.6416
vn -0.6833 0.2152 0.6977
vn 0.6450 -0.5730 -0.5056
vn 0.7135 -0.0558 -0.6984
vn -0.5694 -0.6028 -0.5589
vn -0.7031 0.0835 -0.7062
vn 0.0819 0.9899 -0.1154
vn 0.5714 0.5825 0.5781
vn -0.5395 0.5839 0.6066
vn -0.5329 0.6709 -0.5156
vn 0.5853 0.6345 -0.5048
vn 0.3804 0.8311 0.4058
vn -0.3616 0.8649 0.3482
vn -0.3132 0.9053 -0.2870
vn 0.3450 0.8638 -0.3671
vn 0.6816 -0.0348 0.7309
vn -0.6731 0.1077 0.7316
vn -0.7246 0.1650 -0.6691
vn 0.7286 -0.0236 -0.6845
vn -0.6998 0.0541 0.7123
vn -0.7108 0.1110 -0.6946
vn 0.7079 0.1207 -0.6959
vn 0.6971 0.0707 0.7135
vt 0.085425 0.103702
vt 0.085727 0.086506
vt 0.095268 0.087410
vt 0.095485 0.104510
vt 0.071787 0.103650
vt 0.073890 0.086351
vt 0.083315 0.084618
vt 0.081738 0.101967
vt 0.099888 0.104941
vt 0.100300 0.088075
vt 0.109849 0.087263
vt 0.109955 0.104231
vt 0.032417 0.101904
vt 0.030842 0.084509
vt 0.040267 0.086242
vt 0.042368 0.103587
vt 0.124388 0.038691
vt 0.110697 0.038691
vt 0.110697 0.025000
vt 0.124388 0.025000
vt 0.057071 0.025000
vt 0.099094 0.025000
vt 0.097006 0.025000
vt 0.040293 0.188881
vt 0.037143 0.154091
vt 0.048669 0.155621
vt 0.052870 0.190311
vt 0.097829 0.189274
vt 0.098653 0.155541
vt 0.110273 0.155135
vt 0.110485 0.189071
vt 0.061275 0.190143
vt 0.065480 0.155546
vt 0.077006 0.154016
vt 0.073852 0.188714
vt 0.083918 0.189680
vt 0.084521 0.155289
vt 0.096137 0.155808
vt 0.096571 0.190007
vt 0.033992 0.119300
vt 0.044468 0.120932
vt 0.099476 0.121808
vt 0.110061 0.121199
vt 0.069685 0.120949
vt 0.080161 0.119317
vt 0.085124 0.120897
vt 0.095702 0.121609
vt 0.083315 0.224072
vt 0.097006 0.224206
vt 0.057071 0.224741
vt 0.070697 0.223413
vt 0.097006 0.223007
vt 0.110697 0.223007
vt 0.043444 0.223672
vt 0.057071 0.225000
s 1
usemtl tree48
f 34/5/22 18/6/6 20/7/8 35/8/23
f 35/9/23 20/10/8 24/11/12 36/12/24
f 36/13/24 24/14/12 22/15/10 37/16/25
f 37/17/25 22/18/10 18/19/6 34/20/22
f 19/21/7 23/22/11 21/23/9 17/24/5
f 18/19/6 22/18/10 25/25/13
f 24/11/12 20/10/8 25/25/13
f 22/15/10 24/14/12 25/26/13
f 20/7/8 18/6/6 25/27/13
f 40/28/28 29/29/17 26/30/14 41/31/29
f 39/32/27 28/33/16 29/34/17 40/35/28
f 38/36/26 27/37/15 28/38/16 39/39/27
f 41/40/29 26/41/14 27/42/15 38/43/26
f 29/29/17 33/44/21 30/45/18 26/30/14
f 28/33/16 32/46/20 33/47/21 29/34/17
f 27/37/15 31/48/19 32/49/20 28/38/16
f 26/41/14 30/50/18 31/51/19 27/42/15
f 33/44/21 37/17/25 34/20/22 30/45/18
f 32/46/20 36/13/24 37/16/25 33/47/21
f 31/48/19 35/9/23 36/12/24 32/49/20
f 30/50/18 34/5/22 35/8/23 31/51/19
f 17/52/5 41/40/29 38/43/26 19/53/7
f 19/54/7 38/36/26 39/39/27 23/55/11
f 23/56/11 39/32/27 40/35/28 21/57/9
f 21/58/9 40/28/28 41/31/29 17/59/5
