# Blender 5.1.2
# www.blender.org
mtllib tree087.mtl
o tree087
v -0.910047 0.000000 0.928432
v 0.928432 0.000000 -0.910047
v -0.910047 3.250000 0.928432
v 0.928432 3.250000 -0.910047
v 0.928432 0.000000 0.910047
v -0.910047 0.000000 -0.928432
v 0.928432 3.250000 0.910047
v -0.910047 3.250000 -0.928432
v 0.910047 0.000000 0.928432
v -0.928432 0.000000 -0.910047
v 0.910047 3.250000 0.928432
v -0.928432 3.250000 -0.910047
v -0.928432 0.000000 0.910047
v 0.910047 0.000000 -0.928432
v -0.928432 3.250000 0.910047
v 0.910047 3.250000 -0.928432
vn 0.7071 -0.0000 0.7071
vn 0.7071 -0.0000 -0.7071
vn -0.7071 -0.0000 0.7071
vn -0.7071 -0.0000 -0.7071
vt 0.007812 0.007812
vt 0.992188 0.007812
vt 0.992188 0.992188
vt 0.007812 0.992188
s 0
usemtl tree87
f 1/1/1 2/2/1 4/3/1 3/4/1
f 5/1/2 6/2/2 8/3/2 7/4/2
f 9/1/3 11/4/3 12/3/3 10/2/3
f 13/1/4 15/4/4 16/3/4 14/2/4
o tree087_trunk
v 0.039100 -0.100000 0.108218
v 0.033050 1.100000 0.020572
v -0.060900 -0.100000 0.108218
v -0.022748 1.095258 0.020370
v 0.039100 -0.100000 0.008218
v 0.032849 1.104741 -0.035227
v -0.060900 -0.100000 0.008218
v -0.022950 1.100000 -0.035428
v -0.000637 1.723935 -0.034314
v 0.041984 0.450000 0.075513
v -0.025915 0.447629 0.075413
v -0.026016 0.450000 0.007513
v 0.041883 0.452371 0.007614
vn 0.5723 -0.5630 0.5962
vn 0.7068 0.0831 0.7025
vn -0.5938 -0.5445 0.5924
vn -0.7111 0.0730 0.6992
vn 0.5759 -0.5788 -0.5774
vn 0.7057 0.0029 -0.7085
vn -0.5972 -0.5609 -0.5733
vn -0.7031 -0.0093 -0.7110
vn -0.0093 0.9990 -0.0426
vn 0.7052 0.0538 0.7070
vn -0.6970 0.0762 0.7130
vn -0.7074 0.0007 -0.7068
vn 0.7173 -0.0204 -0.6964
vt 0.084521 0.155289
vt 0.085727 0.086506
vt 0.095268 0.087410
vt 0.096137 0.155808
vt 0.065480 0.155546
vt 0.073890 0.086351
vt 0.083315 0.084618
vt 0.077006 0.154016
vt 0.098653 0.155541
vt 0.100300 0.088075
vt 0.109849 0.087263
vt 0.110273 0.155135
vt 0.037143 0.154091
vt 0.030842 0.084509
vt 0.040267 0.086242
vt 0.048669 0.155621
vt 0.124388 0.038691
vt 0.110697 0.038691
vt 0.110697 0.025000
vt 0.124388 0.025000
vt 0.057071 0.025000
vt 0.099094 0.025000
vt 0.097006 0.025000
vt 0.043444 0.223672
vt 0.057071 0.225000
vt 0.097006 0.223007
vt 0.110697 0.223007
vt 0.057071 0.224741
vt 0.070697 0.223413
vt 0.083315 0.224072
vt 0.097006 0.224206
s 1
usemtl tree87
f 26/5/14 18/6/6 20/7/8 27/8/15
f 27/9/15 20/10/8 24/11/12 28/12/16
f 28/13/16 24/14/12 22/15/10 29/16/17
f 29/17/17 22/18/10 18/19/6 26/20/14
f 19/21/7 23/22/11 21/23/9 17/24/5
f 18/19/6 22/18/10 25/25/13
f 24/11/12 20/10/8 25/25/13
f 22/15/10 24/14/12 25/26/13
f 20/7/8 18/6/6 25/27/13
f 21/28/9 29/17/17 26/20/14 17/29/5
f 23/30/11 28/13/16 29/16/17 21/31/9
f 19/32/7 27/9/15 28/12/16 23/33/11
f 17/34/5 26/5/14 27/8/15 19/35/7
