# Blender 5.1.2
# www.blender.org
mtllib tree113.mtl
o tree113
v -1.369666 0.000000 1.388051
v 1.388051 0.000000 -1.369666
v -1.369666 3.900000 1.388051
v 1.388051 3.900000 -1.369666
v 1.388051 0.000000 1.369666
v -1.369666 0.000000 -1.388051
v 1.388051 3.900000 1.369666
v -1.369666 3.900000 -1.388051
v 1.369666 0.000000 1.388051
v -1.388051 0.000000 -1.369666
v 1.369666 3.900000 1.388051
v -1.388051 3.900000 -1.369666
v -1.388051 0.000000 1.369666
v 1.369666 0.000000 -1.388051
v -1.388051 3.900000 1.369666
v 1.369666 3.900000 -1.388051
vn 0.7071 -0.0000 0.7071
vn 0.7071 -0.0000 -0.7071
vn -0.7071 -0.0000 0.7071
vn -0.7071 -0.0000 -0.7071
vt 0.007812 0.007812
vt 0.992188 0.007812
vt 0.992188 0.992188
vt 0.007812 0.992188
s 0
usemtl tree113
f 1/1/1 2/2/1 4/3/1 3/4/1
f 5/1/2 6/2/2 8/3/2 7/4/2
f 9/1/3 11/4/3 12/3/3 10/2/3
f 13/1/4 15/4/4 16/3/4 14/2/4
o tree113_trunk
v 0.056803 -0.100000 0.103019
v 0.028000 0.880579 0.126995
v -0.088877 -0.100000 0.103019
v -0.027799 0.875837 0.126794
v 0.056803 -0.100000 -0.042661
v 0.027799 0.885320 0.071196
v -0.088877 -0.100000 -0.042661
v -0.028000 0.880579 0.070995
v -0.000453 1.442581 0.085306
v 0.045601 0.450000 0.102169
v -0.052526 0.446574 0.102024
v -0.052672 0.450000 0.003897
v 0.045455 0.453426 0.004042
vn 0.5835 -0.5717 0.5768
vn 0.6911 0.0385 0.7218
vn -0.5977 -0.5588 0.5749
vn -0.6899 0.0381 0.7229
vn 0.5790 -0.5495 -0.6023
vn 0.7201 0.0939 -0.6874
vn -0.5933 -0.5380 -0.5987
vn -0.7215 0.1041 -0.6846
vn -0.0011 0.9997 -0.0240
vn 0.7161 0.0023 0.6980
vn -0.7108 0.0254 0.7029
vn -0.6967 0.1263 -0.7061
vn 0.6988 0.1060 -0.7074
vt 0.094201 0.072336
vt 0.162984 0.073542
vt 0.162080 0.083083
vt 0.093682 0.083952
vt 0.093944 0.053295
vt 0.163138 0.061705
vt 0.164872 0.071130
vt 0.095474 0.064821
vt 0.093949 0.086468
vt 0.161415 0.088115
vt 0.162227 0.097664
vt 0.094355 0.098088
vt 0.095399 0.024958
vt 0.164981 0.018657
vt 0.163247 0.028082
vt 0.093869 0.036484
vt 0.210799 0.112203
vt 0.210799 0.098512
vt 0.224490 0.098512
vt 0.224490 0.112203
vt 0.224490 0.044885
vt 0.224490 0.086909
vt 0.224490 0.084821
vt 0.025818 0.031259
vt 0.024490 0.044886
vt 0.026482 0.084821
vt 0.026482 0.098512
vt 0.024749 0.044886
vt 0.026077 0.058512
vt 0.025418 0.071130
vt 0.025283 0.084821
s 1
usemtl tree113
f 26/5/14 18/6/6 20/7/8 27/8/15
f 27/9/15 20/10/8 24/11/12 28/12/16
f 28/13/16 24/14/12 22/15/10 29/16/17
f 29/17/17 22/18/10 18/19/6 26/20/14
f 19/21/7 23/22/11 21/23/9 17/24/5
f 18/19/6 22/18/10 25/25/13
f 24/11/12 20/10/8 25/25/13
f 22/15/10 24/14/12 25/26/13
f 20/7/8 18/6/6 25/27/13
f 21/28/9 29/17/17 26/20/14 17/29/5
f 23/30/11 28/13/16 29/16/17 21/31/9
f 19/32/7 27/9/15 28/12/16 23/33/11
f 17/34/5 26/5/14 27/8/15 19/35/7
