# Blender 5.1.2
# www.blender.org
mtllib tree072.mtl
o tree072
v -1.277742 0.000000 1.296127
v 1.112279 0.000000 -1.093894
v -1.277742 3.250000 1.296127
v 1.112279 3.250000 -1.093894
v 1.296127 0.000000 1.277742
v -1.093894 0.000000 -1.112279
v 1.296127 3.250000 1.277742
v -1.093894 3.250000 -1.112279
v 1.277742 0.000000 1.296127
v -1.112279 0.000000 -1.093894
v 1.277742 3.250000 1.296127
v -1.112279 3.250000 -1.093894
v -1.296127 0.000000 1.277742
v 1.093894 0.000000 -1.112279
v -1.296127 3.250000 1.277742
v 1.093894 3.250000 -1.112279
vn 0.7071 -0.0000 0.7071
vn 0.7071 -0.0000 -0.7071
vn -0.7071 -0.0000 0.7071
vn -0.7071 -0.0000 -0.7071
vt 0.007812 0.007812
vt 0.992188 0.007812
vt 0.992188 0.992188
vt 0.007812 0.992188
s 0
usemtl tree72
f 1/1/1 2/2/1 4/3/1 3/4/1
f 5/1/2 6/2/2 8/3/2 7/4/2
f 9/1/3 11/4/3 12/3/3 10/2/3
f 13/1/4 15/4/4 16/3/4 14/2/4
o tree072_trunk
v 0.102921 -0.100000 0.051780
v 0.033911 0.669645 -0.091048
v -0.080065 -0.100000 0.051780
v -0.019132 0.687357 -0.094005
v 0.102921 -0.100000 -0.131205
v 0.030954 0.651934 -0.144091
v -0.080064 -0.100000 -0.131205
v -0.022089 0.669645 -0.147048
v 0.018331 1.033421 -0.555731
v 0.055705 0.450000 0.061133
v -0.053899 0.446173 0.060970
v -0.054062 0.450000 -0.048634
v 0.055542 0.453827 -0.048471
vn 0.6046 -0.5583 0.5681
vn 0.7046 0.4953 0.5082
vn -0.5930 -0.5687 0.5700
vn -0.5702 0.6143 0.5454
vn 0.5944 -0.5160 -0.6168
vn 0.6997 -0.3666 -0.6132
vn -0.5845 -0.5250 -0.6187
vn -0.8188 -0.2861 -0.4977
vn 0.0227 0.6409 -0.7673
vn 0.6436 0.2608 0.7195
vn -0.6396 0.2497 0.7270
vn -0.7885 0.0062 -0.6151
vn 0.7750 -0.0105 -0.6319
vt 0.078576 0.058664
vt 0.147359 0.059870
vt 0.146455 0.069411
vt 0.078057 0.070280
vt 0.078319 0.039623
vt 0.147513 0.048033
vt 0.149247 0.057458
vt 0.079849 0.051149
vt 0.078324 0.072796
vt 0.145790 0.074443
vt 0.146602 0.083992
vt 0.078730 0.084416
vt 0.079774 0.011286
vt 0.149356 0.004985
vt 0.147622 0.014411
vt 0.078244 0.022812
vt 0.195174 0.098531
vt 0.195174 0.084840
vt 0.208865 0.084840
vt 0.208865 0.098531
vt 0.208865 0.031214
vt 0.208865 0.073237
vt 0.208865 0.071149
vt 0.010193 0.017587
vt 0.008865 0.031214
vt 0.010857 0.071149
vt 0.010857 0.084840
vt 0.009124 0.031214
vt 0.010452 0.044840
vt 0.009793 0.057458
vt 0.009658 0.071149
s 1
usemtl tree72
f 26/5/14 18/6/6 20/7/8 27/8/15
f 27/9/15 20/10/8 24/11/12 28/12/16
f 28/13/16 24/14/12 22/15/10 29/16/17
f 29/17/17 22/18/10 18/19/6 26/20/14
f 19/21/7 23/22/11 21/23/9 17/24/5
f 18/19/6 22/18/10 25/25/13
f 24/11/12 20/10/8 25/25/13
f 22/15/10 24/14/12 25/26/13
f 20/7/8 18/6/6 25/27/13
f 21/28/9 29/17/17 26/20/14 17/29/5
f 23/30/11 28/13/16 29/16/17 21/31/9
f 19/32/7 27/9/15 28/12/16 23/33/11
f 17/34/5 26/5/14 27/8/15 19/35/7
