# Blender 5.1.2
# www.blender.org
mtllib tree118.mtl
o tree118
v -1.277742 0.000000 1.296127
v 1.479975 0.000000 -1.461590
v -1.277742 3.900000 1.296127
v 1.479975 3.900000 -1.461590
v 1.296127 0.000000 1.277742
v -1.461590 0.000000 -1.479975
v 1.296127 3.900000 1.277742
v -1.461590 3.900000 -1.479975
v 1.277742 0.000000 1.296127
v -1.479974 0.000000 -1.461590
v 1.277742 3.900000 1.296127
v -1.479974 3.900000 -1.461590
v -1.296127 0.000000 1.277742
v 1.461590 0.000000 -1.479975
v -1.296127 3.900000 1.277742
v 1.461590 3.900000 -1.479975
vn 0.7071 -0.0000 0.7071
vn 0.7071 -0.0000 -0.7071
vn -0.7071 -0.0000 0.7071
vn -0.7071 -0.0000 -0.7071
vt 0.125000 0.007812
vt 0.875000 0.007812
vt 0.875000 0.992188
vt 0.125000 0.992188
s 0
usemtl tree118
f 1/1/1 2/2/1 4/3/1 3/4/1
f 5/1/2 6/2/2 8/3/2 7/4/2
f 9/1/3 11/4/3 12/3/3 10/2/3
f 13/1/4 15/4/4 16/3/4 14/2/4
o tree118_trunk
v 0.178292 -0.100000 0.178292
v 0.068293 1.090663 0.022038
v -0.164150 -0.100000 0.178292
v -0.088853 1.077309 0.021470
v 0.178292 -0.100000 -0.164150
v 0.067726 1.104017 -0.135109
v -0.164150 -0.100000 -0.164150
v -0.089421 1.090663 -0.135677
v -0.020920 1.433244 -0.060605
v 0.119383 0.450000 0.070315
v -0.131364 0.441245 0.069943
v -0.131736 0.450000 -0.180805
v 0.119012 0.458755 -0.180433
vn 0.5967 -0.4981 0.6292
vn 0.6844 0.2123 0.6975
vn -0.5855 -0.5083 0.6316
vn -0.6940 0.1813 0.6968
vn 0.6123 -0.5555 -0.5626
vn 0.6932 0.2149 -0.6879
vn -0.5977 -0.5690 -0.5649
vn -0.7006 0.1831 -0.6896
vn -0.0338 0.9994 -0.0048
vn 0.7078 0.1624 0.6875
vn -0.7177 0.1402 0.6820
vn -0.6964 0.0563 -0.7155
vn 0.6900 0.0775 -0.7197
vt 0.084521 0.155289
vt 0.085727 0.086506
vt 0.095268 0.087410
vt 0.096137 0.155808
vt 0.065480 0.155546
vt 0.073890 0.086351
vt 0.083315 0.084618
vt 0.077006 0.154016
vt 0.098653 0.155541
vt 0.100300 0.088075
vt 0.109849 0.087263
vt 0.110273 0.155135
vt 0.037143 0.154091
vt 0.030842 0.084509
vt 0.040267 0.086242
vt 0.048669 0.155621
vt 0.124388 0.038691
vt 0.110697 0.038691
vt 0.110697 0.025000
vt 0.124388 0.025000
vt 0.057071 0.025000
vt 0.099094 0.025000
vt 0.097006 0.025000
vt 0.043444 0.223672
vt 0.057071 0.225000
vt 0.097006 0.223007
vt 0.110697 0.223007
vt 0.057071 0.224741
vt 0.070697 0.223413
vt 0.083315 0.224072
vt 0.097006 0.224206
s 1
usemtl tree118
f 26/5/14 18/6/6 20/7/8 27/8/15
f 27/9/15 20/10/8 24/11/12 28/12/16
f 28/13/16 24/14/12 22/15/10 29/16/17
f 29/17/17 22/18/10 18/19/6 26/20/14
f 19/21/7 23/22/11 21/23/9 17/24/5
f 18/19/6 22/18/10 25/25/13
f 24/11/12 20/10/8 25/25/13
f 22/15/10 24/14/12 25/26/13
f 20/7/8 18/6/6 25/27/13
f 21/28/9 29/17/17 26/20/14 17/29/5
f 23/30/11 28/13/16 29/16/17 21/31/9
f 19/32/7 27/9/15 28/12/16 23/33/11
f 17/34/5 26/5/14 27/8/15 19/35/7
