# Blender 5.1.2
# www.blender.org
mtllib tree116.mtl
o tree116
v -1.507552 0.000000 1.525937
v 1.250165 0.000000 -1.231780
v -1.507552 3.900000 1.525937
v 1.250165 3.900000 -1.231780
v 1.544322 0.000000 1.525937
v -1.213395 0.000000 -1.231780
v 1.544322 3.900000 1.525937
v -1.213395 3.900000 -1.231780
v 1.525937 0.000000 1.544322
v -1.231780 0.000000 -1.213395
v 1.525937 3.900000 1.544322
v -1.231780 3.900000 -1.213395
v -1.525937 0.000000 1.507552
v 1.231780 0.000000 -1.250165
v -1.525937 3.900000 1.507552
v 1.231780 3.900000 -1.250165
vn 0.7071 -0.0000 0.7071
vn 0.7071 -0.0000 -0.7071
vn -0.7071 -0.0000 0.7071
vn -0.7071 -0.0000 -0.7071
vt 0.007812 0.007812
vt 0.992188 0.007812
vt 0.992188 0.992188
vt 0.007812 0.992188
s 0
usemtl tree116
f 1/1/1 2/2/1 4/3/1 3/4/1
f 5/1/2 6/2/2 8/3/2 7/4/2
f 9/1/3 11/4/3 12/3/3 10/2/3
f 13/1/4 15/4/4 16/3/4 14/2/4
o tree116_trunk
v 0.083568 -0.100000 0.083568
v 0.221228 0.885247 0.161768
v -0.069426 -0.100000 0.083568
v -0.180165 0.851139 0.160318
v 0.083568 -0.100000 -0.069426
v 0.219779 0.919356 -0.239625
v -0.069426 -0.100000 -0.069426
v -0.181614 0.885247 -0.241074
v 0.002848 1.083104 -0.036837
v 0.084324 0.389309 0.035256
v -0.038395 0.385024 0.035074
v -0.038577 0.389309 -0.087645
v 0.084142 0.393594 -0.087463
vn 0.5713 -0.5512 0.6081
vn 0.6828 0.2441 0.6886
vn -0.5917 -0.5340 0.6040
vn -0.6991 0.1693 0.6947
vn 0.5791 -0.5870 -0.5657
vn 0.6745 0.2960 -0.6763
vn -0.5992 -0.5699 -0.5623
vn -0.6925 0.2152 -0.6886
vn -0.0850 0.9949 0.0541
vn 0.7137 -0.1619 0.6815
vn -0.6995 -0.1436 0.7001
vn -0.6741 -0.2110 -0.7079
vn 0.6911 -0.2206 -0.6882
vt 0.092850 0.072848
vt 0.161633 0.074053
vt 0.160729 0.083594
vt 0.092331 0.084463
vt 0.092593 0.053807
vt 0.161788 0.062216
vt 0.163521 0.071642
vt 0.094124 0.065333
vt 0.092598 0.086979
vt 0.160065 0.088626
vt 0.160877 0.098175
vt 0.093004 0.098599
vt 0.094049 0.025469
vt 0.163630 0.019168
vt 0.161897 0.028594
vt 0.092518 0.036995
vt 0.209448 0.112714
vt 0.209448 0.099023
vt 0.223139 0.099023
vt 0.223139 0.112714
vt 0.223139 0.045397
vt 0.223139 0.087420
vt 0.223139 0.085332
vt 0.024467 0.031771
vt 0.023139 0.045397
vt 0.025132 0.085332
vt 0.025132 0.099023
vt 0.023399 0.045397
vt 0.024726 0.059024
vt 0.024067 0.071642
vt 0.023933 0.085332
s 1
usemtl tree116
f 26/5/14 18/6/6 20/7/8 27/8/15
f 27/9/15 20/10/8 24/11/12 28/12/16
f 28/13/16 24/14/12 22/15/10 29/16/17
f 29/17/17 22/18/10 18/19/6 26/20/14
f 19/21/7 23/22/11 21/23/9 17/24/5
f 18/19/6 22/18/10 25/25/13
f 24/11/12 20/10/8 25/25/13
f 22/15/10 24/14/12 25/26/13
f 20/7/8 18/6/6 25/27/13
f 21/28/9 29/17/17 26/20/14 17/29/5
f 23/30/11 28/13/16 29/16/17 21/31/9
f 19/32/7 27/9/15 28/12/16 23/33/11
f 17/34/5 26/5/14 27/8/15 19/35/7
