# Blender 5.1.2
# www.blender.org
mtllib tree003.mtl
o tree003
v -1.060660 0.000000 1.004092
v 1.060660 0.000000 -1.117229
v -1.060660 3.000000 1.004092
v 1.060660 3.000000 -1.117229
v 1.025305 0.000000 1.025305
v -1.096015 0.000000 -1.096015
v 1.025305 3.000000 1.025305
v -1.096015 3.000000 -1.096016
v 1.011163 0.000000 1.039447
v -1.110158 0.000000 -1.081873
v 1.011163 3.000000 1.039447
v -1.110158 3.000000 -1.081873
v -1.074803 0.000000 0.989949
v 1.046518 0.000000 -1.131371
v -1.074802 3.000000 0.989950
v 1.046518 3.000000 -1.131371
vn 0.7071 -0.0000 0.7071
vn 0.7071 -0.0000 -0.7071
vn -0.7071 -0.0000 0.7071
vn -0.7071 -0.0000 -0.7071
vt 0.007812 0.007812
vt 0.992188 0.007812
vt 0.992188 0.992188
vt 0.007812 0.992188
s 0
usemtl tree03
f 1/1/1 2/2/1 4/3/1 3/4/1
f 5/1/2 6/2/2 8/3/2 7/4/2
f 9/1/3 11/4/3 12/3/3 10/2/3
f 13/1/4 15/4/4 16/3/4 14/2/4
o tree003_trunk
v 0.050000 -0.100000 0.064142
v 0.027929 1.000000 -0.042782
v -0.050000 -0.100000 0.064142
v -0.041819 0.994073 -0.043034
v 0.050000 -0.100000 -0.035858
v 0.027677 1.005927 -0.112530
v -0.050000 -0.100000 -0.035858
v -0.042071 1.000000 -0.112782
v -0.007524 1.462002 0.021666
v 0.023393 0.450000 -0.033175
v -0.044506 0.447629 -0.033276
v -0.044607 0.450000 -0.101175
v 0.023293 0.452371 -0.101074
vn 0.5814 -0.5177 0.6276
vn 0.7352 -0.0181 0.6776
vn -0.5726 -0.5255 0.6293
vn -0.7296 -0.0090 0.6838
vn 0.6002 -0.5926 -0.5372
vn 0.6786 0.1221 -0.7243
vn -0.5865 -0.6046 -0.5390
vn -0.6850 0.1124 -0.7198
vn -0.0016 0.9778 0.2096
vn 0.7174 0.0827 0.6918
vn -0.7251 0.0732 0.6848
vn -0.6955 -0.0458 -0.7171
vn 0.6908 -0.0373 -0.7221
vt 0.084521 0.155289
vt 0.085727 0.086506
vt 0.095268 0.087410
vt 0.096137 0.155808
vt 0.065480 0.155546
vt 0.073890 0.086351
vt 0.083315 0.084618
vt 0.077006 0.154016
vt 0.098653 0.155541
vt 0.100300 0.088075
vt 0.109849 0.087263
vt 0.110273 0.155135
vt 0.037143 0.154091
vt 0.030842 0.084509
vt 0.040267 0.086242
vt 0.048669 0.155621
vt 0.124388 0.038691
vt 0.110697 0.038691
vt 0.110697 0.025000
vt 0.124388 0.025000
vt 0.057071 0.025000
vt 0.099094 0.025000
vt 0.097006 0.025000
vt 0.043444 0.223672
vt 0.057071 0.225000
vt 0.097006 0.223007
vt 0.110697 0.223007
vt 0.057071 0.224741
vt 0.070697 0.223413
vt 0.083315 0.224072
vt 0.097006 0.224206
s 1
usemtl tree03
f 26/5/14 18/6/6 20/7/8 27/8/15
f 27/9/15 20/10/8 24/11/12 28/12/16
f 28/13/16 24/14/12 22/15/10 29/16/17
f 29/17/17 22/18/10 18/19/6 26/20/14
f 19/21/7 23/22/11 21/23/9 17/24/5
f 18/19/6 22/18/10 25/25/13
f 24/11/12 20/10/8 25/25/13
f 22/15/10 24/14/12 25/26/13
f 20/7/8 18/6/6 25/27/13
f 21/28/9 29/17/17 26/20/14 17/29/5
f 23/30/11 28/13/16 29/16/17 21/31/9
f 19/32/7 27/9/15 28/12/16 23/33/11
f 17/34/5 26/5/14 27/8/15 19/35/7
