# Blender 5.1.2
# www.blender.org
mtllib tree016.mtl
o tree016
v -1.053589 0.000000 1.067731
v 1.067731 0.000000 -1.053589
v -1.053589 3.000000 1.067731
v 1.067731 3.000000 -1.053589
v 1.032376 0.000000 1.088945
v -1.088944 0.000000 -1.032376
v 1.032376 3.000000 1.088944
v -1.088944 3.000000 -1.032376
v 1.018234 0.000000 1.103087
v -1.103087 0.000000 -1.018234
v 1.018234 3.000000 1.103087
v -1.103086 3.000000 -1.018234
v -1.067731 0.000000 1.053589
v 1.053589 0.000000 -1.067731
v -1.067731 3.000000 1.053589
v 1.053589 3.000000 -1.067731
vn 0.7071 -0.0000 0.7071
vn 0.7071 -0.0000 -0.7071
vn -0.7071 -0.0000 0.7071
vn -0.7071 -0.0000 -0.7071
vt 0.007812 0.007812
vt 0.992188 0.007812
vt 0.992188 0.992188
vt 0.007812 0.992188
s 0
usemtl tree16
f 1/1/1 2/2/1 4/3/1 3/4/1
f 5/1/2 6/2/2 8/3/2 7/4/2
f 9/1/3 11/4/3 12/3/3 10/2/3
f 13/1/4 15/4/4 16/3/4 14/2/4
o tree016_trunk
v 0.134853 -0.100000 0.064142
v 0.429192 1.100000 0.457476
v -0.078284 -0.100000 0.092426
v -0.370197 1.042888 0.469191
v 0.092426 -0.100000 -0.078284
v 0.419694 1.157113 -0.320699
v -0.042929 -0.100000 -0.113640
v -0.372623 1.100000 -0.344339
v 0.034902 1.362002 0.049951
v 0.244665 0.450000 0.230523
v -0.215645 0.432694 0.265142
v -0.216380 0.450000 -0.230522
v 0.243929 0.467306 -0.194432
v 0.276824 0.755000 0.283895
v -0.236352 0.707791 0.310598
v -0.301573 0.775000 -0.294502
v 0.338883 0.792210 -0.264637
vn 0.5874 -0.6843 0.4320
vn 0.6747 0.2503 0.6943
vn -0.5013 -0.7062 0.5000
vn -0.6739 0.1928 0.7132
vn 0.4788 -0.7356 -0.4792
vn 0.6802 0.3560 -0.6408
vn -0.4214 -0.6960 -0.5814
vn -0.6840 0.3076 -0.6614
vn -0.0432 0.9983 0.0379
vn 0.7045 -0.2900 0.6478
vn -0.6454 -0.3182 0.6945
vn -0.6464 -0.3024 -0.7005
vn 0.7066 -0.2724 -0.6530
vn 0.6717 -0.3872 0.6316
vn -0.6211 -0.3887 0.6805
vn -0.6586 -0.3046 -0.6881
vn 0.6949 -0.3005 -0.6532
vt 0.085124 0.120897
vt 0.085727 0.086506
vt 0.095268 0.087410
vt 0.095702 0.121609
vt 0.069685 0.120949
vt 0.073890 0.086351
vt 0.083315 0.084618
vt 0.080161 0.119317
vt 0.099476 0.121808
vt 0.100300 0.088075
vt 0.109849 0.087263
vt 0.110061 0.121199
vt 0.033992 0.119300
vt 0.030842 0.084509
vt 0.040267 0.086242
vt 0.044468 0.120932
vt 0.124388 0.038691
vt 0.110697 0.038691
vt 0.110697 0.025000
vt 0.124388 0.025000
vt 0.057071 0.025000
vt 0.099094 0.025000
vt 0.097006 0.025000
vt 0.043444 0.223672
vt 0.037143 0.154091
vt 0.048669 0.155621
vt 0.057071 0.225000
vt 0.097006 0.223007
vt 0.098653 0.155541
vt 0.110273 0.155135
vt 0.110697 0.223007
vt 0.057071 0.224741
vt 0.065480 0.155546
vt 0.077006 0.154016
vt 0.070697 0.223413
vt 0.083315 0.224072
vt 0.084521 0.155289
vt 0.096137 0.155808
vt 0.097006 0.224206
s 1
usemtl tree16
f 30/5/18 18/6/6 20/7/8 31/8/19
f 31/9/19 20/10/8 24/11/12 32/12/20
f 32/13/20 24/14/12 22/15/10 33/16/21
f 33/17/21 22/18/10 18/19/6 30/20/18
f 19/21/7 23/22/11 21/23/9 17/24/5
f 18/19/6 22/18/10 25/25/13
f 24/11/12 20/10/8 25/25/13
f 22/15/10 24/14/12 25/26/13
f 20/7/8 18/6/6 25/27/13
f 21/28/9 29/29/17 26/30/14 17/31/5
f 23/32/11 28/33/16 29/34/17 21/35/9
f 19/36/7 27/37/15 28/38/16 23/39/11
f 17/40/5 26/41/14 27/42/15 19/43/7
f 29/29/17 33/17/21 30/20/18 26/30/14
f 28/33/16 32/13/20 33/16/21 29/34/17
f 27/37/15 31/9/19 32/12/20 28/38/16
f 26/41/14 30/5/18 31/8/19 27/42/15
