# Blender 5.1.2
# www.blender.org
mtllib tree019.mtl
o tree019
v -1.053589 0.000000 1.096015
v 1.067731 0.000000 -1.025305
v -1.053589 3.000000 1.096016
v 1.067731 3.000000 -1.025305
v 1.067731 0.000000 1.081873
v -1.053589 0.000000 -1.039447
v 1.067731 3.000000 1.081873
v -1.053589 3.000000 -1.039447
v 1.053589 0.000000 1.096016
v -1.067731 0.000000 -1.025305
v 1.053589 3.000000 1.096016
v -1.067731 3.000000 -1.025305
v -1.067731 0.000000 1.081873
v 1.053589 0.000000 -1.039447
v -1.067731 3.000000 1.081873
v 1.053589 3.000000 -1.039447
vn 0.7071 -0.0000 0.7071
vn 0.7071 -0.0000 -0.7071
vn -0.7071 -0.0000 0.7071
vn -0.7071 -0.0000 -0.7071
vt 0.007812 0.007812
vt 0.992188 0.007812
vt 0.992188 0.992188
vt 0.007812 0.992188
s 0
usemtl tree19
f 1/1/1 2/2/1 4/3/1 3/4/1
f 5/1/2 6/2/2 8/3/2 7/4/2
f 9/1/3 11/4/3 12/3/3 10/2/3
f 13/1/4 15/4/4 16/3/4 14/2/4
o tree019_trunk
v 0.105000 -0.100000 0.105000
v 0.063071 0.400000 0.048929
v -0.105000 -0.100000 0.105000
v -0.048846 0.404314 0.048846
v 0.105000 -0.100000 -0.105000
v 0.062988 0.395686 -0.062988
v -0.105000 -0.100000 -0.105000
v -0.048929 0.400000 -0.063071
v 0.013689 0.652002 -0.013689
v 0.086328 0.150000 0.086328
v -0.093133 0.143734 0.086062
v -0.093399 0.150000 -0.093399
v 0.086062 0.156266 -0.093133
vn 0.5953 -0.5381 0.5967
vn 0.6942 0.2276 0.6829
vn -0.5880 -0.5446 0.5980
vn -0.6764 0.2728 0.6841
vn 0.5976 -0.5457 -0.5875
vn 0.6965 0.2015 -0.6887
vn -0.5897 -0.5528 -0.5888
vn -0.6793 0.2477 -0.6908
vn 0.0270 0.9993 -0.0270
vn 0.6946 0.1358 0.7065
vn -0.7054 0.1481 0.6932
vn -0.7065 0.1330 -0.6951
vn 0.6960 0.1178 -0.7083
vt 0.165849 0.025784
vt 0.193362 0.026267
vt 0.193000 0.030083
vt 0.165641 0.030431
vt 0.165746 0.018168
vt 0.193424 0.021532
vt 0.194117 0.025302
vt 0.166358 0.022778
vt 0.165748 0.031437
vt 0.192734 0.032096
vt 0.193059 0.035915
vt 0.165910 0.036085
vt 0.166328 0.006833
vt 0.194161 0.004313
vt 0.193467 0.008083
vt 0.165716 0.011444
vt 0.212488 0.041731
vt 0.212488 0.036255
vt 0.217964 0.036255
vt 0.217964 0.041731
vt 0.217964 0.014804
vt 0.217964 0.031613
vt 0.217964 0.030778
vt 0.138495 0.009354
vt 0.137964 0.014804
vt 0.138761 0.030778
vt 0.138761 0.036255
vt 0.138068 0.014804
vt 0.138599 0.020255
vt 0.138336 0.025302
vt 0.138282 0.030778
s 1
usemtl tree19
f 26/5/14 18/6/6 20/7/8 27/8/15
f 27/9/15 20/10/8 24/11/12 28/12/16
f 28/13/16 24/14/12 22/15/10 29/16/17
f 29/17/17 22/18/10 18/19/6 26/20/14
f 19/21/7 23/22/11 21/23/9 17/24/5
f 18/19/6 22/18/10 25/25/13
f 24/11/12 20/10/8 25/25/13
f 22/15/10 24/14/12 25/26/13
f 20/7/8 18/6/6 25/27/13
f 21/28/9 29/17/17 26/20/14 17/29/5
f 23/30/11 28/13/16 29/16/17 21/31/9
f 19/32/7 27/9/15 28/12/16 23/33/11
f 17/34/5 26/5/14 27/8/15 19/35/7
