# Blender 5.1.2
# www.blender.org
mtllib tree046.mtl
o tree046
v -1.369666 0.000000 1.388051
v 1.388051 0.000000 -1.369666
v -1.369666 3.890964 1.388051
v 1.388051 3.890964 -1.369666
v 1.388051 0.000000 1.369666
v -1.369666 0.000000 -1.388051
v 1.388051 3.890964 1.369666
v -1.369666 3.890964 -1.388051
v 1.369666 0.000000 1.388051
v -1.388051 0.000000 -1.369666
v 1.369666 3.890964 1.388050
v -1.388051 3.890964 -1.369666
v -1.388051 0.000000 1.369666
v 1.369666 0.000000 -1.388051
v -1.388051 3.890964 1.369666
v 1.369666 3.890964 -1.388051
vn 0.7071 -0.0000 0.7071
vn 0.7071 -0.0000 -0.7071
vn -0.7071 -0.0000 0.7071
vn -0.7071 -0.0000 -0.7071
vt 0.007812 0.007812
vt 0.992188 0.007812
vt 0.992188 0.992188
vt 0.007812 0.992188
s 0
usemtl tree46
f 1/1/1 2/2/1 4/3/1 3/4/1
f 5/1/2 6/2/2 8/3/2 7/4/2
f 9/1/3 11/4/3 12/3/3 10/2/3
f 13/1/4 15/4/4 16/3/4 14/2/4
o tree046_trunk
v 0.080000 -0.100000 0.023431
v 0.032823 0.869028 0.131818
v -0.080000 -0.100000 0.023431
v -0.068212 0.892047 0.133678
v 0.080000 -0.100000 -0.136569
v 0.039928 0.907953 0.036027
v -0.080000 -0.100000 -0.136569
v -0.061108 0.930972 0.037887
v -0.000453 1.362002 0.368149
v 0.064465 0.450000 0.007896
v -0.071334 0.445258 0.007694
v -0.071536 0.450000 -0.128104
v 0.064263 0.454741 -0.127903
vn 0.5843 -0.5626 0.5848
vn 0.6909 -0.2092 0.6920
vn -0.5809 -0.5654 0.5855
vn -0.7728 -0.1819 0.6080
vn 0.5854 -0.5657 -0.5807
vn 0.7114 0.3514 -0.6086
vn -0.5814 -0.5694 -0.5811
vn -0.6360 0.4092 -0.6543
vn 0.0274 0.8531 0.5211
vn 0.7399 -0.0522 0.6707
vn -0.7497 -0.0675 0.6584
vn -0.6652 0.1389 -0.7337
vn 0.6812 0.1561 -0.7152
vt 0.084521 0.155289
vt 0.085727 0.086506
vt 0.095268 0.087410
vt 0.096137 0.155808
vt 0.065480 0.155546
vt 0.073890 0.086351
vt 0.083315 0.084618
vt 0.077006 0.154016
vt 0.098653 0.155541
vt 0.100300 0.088075
vt 0.109849 0.087263
vt 0.110273 0.155135
vt 0.037143 0.154091
vt 0.030842 0.084509
vt 0.040267 0.086242
vt 0.048669 0.155621
vt 0.124388 0.038691
vt 0.110697 0.038691
vt 0.110697 0.025000
vt 0.124388 0.025000
vt 0.057071 0.025000
vt 0.099094 0.025000
vt 0.097006 0.025000
vt 0.043444 0.223672
vt 0.057071 0.225000
vt 0.097006 0.223007
vt 0.110697 0.223007
vt 0.057071 0.224741
vt 0.070697 0.223413
vt 0.083315 0.224072
vt 0.097006 0.224206
s 1
usemtl tree46
f 26/5/14 18/6/6 20/7/8 27/8/15
f 27/9/15 20/10/8 24/11/12 28/12/16
f 28/13/16 24/14/12 22/15/10 29/16/17
f 29/17/17 22/18/10 18/19/6 26/20/14
f 19/21/7 23/22/11 21/23/9 17/24/5
f 18/19/6 22/18/10 25/25/13
f 24/11/12 20/10/8 25/25/13
f 22/15/10 24/14/12 25/26/13
f 20/7/8 18/6/6 25/27/13
f 21/28/9 29/17/17 26/20/14 17/29/5
f 23/30/11 28/13/16 29/16/17 21/31/9
f 19/32/7 27/9/15 28/12/16 23/33/11
f 17/34/5 26/5/14 27/8/15 19/35/7
