# Blender 5.1.2
# www.blender.org
mtllib tree057.mtl
o tree057
v -1.141695 0.000000 1.174787
v 1.174787 0.000000 -1.141695
v -1.389889 4.914000 0.926593
v 0.926593 4.914000 -1.389889
v 1.174787 0.000000 1.141695
v -1.141695 0.000000 -1.174787
v 1.422982 4.914000 0.893500
v -0.893500 4.914000 -1.422982
v 1.141695 0.000000 1.174787
v -1.174787 0.000000 -1.141695
v 1.389889 4.914000 0.926593
v -0.926593 4.914000 -1.389889
v -1.174787 0.000000 1.141695
v 1.141695 0.000000 -1.174787
v -1.422982 4.914000 0.893500
v 0.893500 4.914000 -1.422982
vn 0.7053 0.0712 0.7053
vn 0.7053 -0.0712 -0.7053
vn -0.7053 0.0712 0.7053
vn -0.7053 -0.0712 -0.7053
vt 0.125000 0.007812
vt 0.875000 0.007812
vt 0.875000 0.992188
vt 0.125000 0.992188
s 0
usemtl tree57
f 1/1/1 2/2/1 4/3/1 3/4/1
f 5/1/2 6/2/2 8/3/2 7/4/2
f 9/1/3 11/4/3 12/3/3 10/2/3
f 13/1/4 15/4/4 16/3/4 14/2/4
o tree057_trunk
v 0.131213 -0.100000 0.102929
v 0.057253 1.971479 0.091626
v -0.088787 -0.100000 0.102929
v -0.126882 1.955832 0.090961
v 0.131213 -0.100000 -0.117071
v 0.056588 1.987126 -0.092509
v -0.088787 -0.100000 -0.117071
v -0.127547 1.971479 -0.093174
v -0.036642 2.176087 -0.045948
v 0.084864 0.950000 0.113149
v -0.091674 0.943836 0.112887
v -0.091936 0.950000 -0.063651
v 0.084603 0.956164 -0.063389
vn 0.5915 -0.5681 0.5722
vn 0.6506 0.3124 0.6921
vn -0.5770 -0.5805 0.5746
vn -0.6824 0.2582 0.6838
vn 0.5882 -0.5525 -0.5906
vn 0.6997 0.2304 -0.6763
vn -0.5740 -0.5646 -0.5931
vn -0.7162 0.1869 -0.6724
vn -0.0230 0.9872 -0.1576
vn 0.7006 0.0293 0.7130
vn -0.7005 -0.0089 0.7136
vn -0.7120 -0.0055 -0.7021
vn 0.7142 0.0331 -0.6992
vt 0.084521 0.155289
vt 0.085727 0.086506
vt 0.095268 0.087410
vt 0.096137 0.155808
vt 0.065480 0.155546
vt 0.073890 0.086351
vt 0.083315 0.084618
vt 0.077006 0.154016
vt 0.098653 0.155541
vt 0.100300 0.088075
vt 0.109849 0.087263
vt 0.110273 0.155135
vt 0.037143 0.154091
vt 0.030842 0.084509
vt 0.040267 0.086242
vt 0.048669 0.155621
vt 0.124388 0.038691
vt 0.110697 0.038691
vt 0.110697 0.025000
vt 0.124388 0.025000
vt 0.057071 0.025000
vt 0.099094 0.025000
vt 0.097006 0.025000
vt 0.043444 0.223672
vt 0.057071 0.225000
vt 0.097006 0.223007
vt 0.110697 0.223007
vt 0.057071 0.224741
vt 0.070697 0.223413
vt 0.083315 0.224072
vt 0.097006 0.224206
s 1
usemtl tree57
f 26/5/14 18/6/6 20/7/8 27/8/15
f 27/9/15 20/10/8 24/11/12 28/12/16
f 28/13/16 24/14/12 22/15/10 29/16/17
f 29/17/17 22/18/10 18/19/6 26/20/14
f 19/21/7 23/22/11 21/23/9 17/24/5
f 18/19/6 22/18/10 25/25/13
f 24/11/12 20/10/8 25/25/13
f 22/15/10 24/14/12 25/26/13
f 20/7/8 18/6/6 25/27/13
f 21/28/9 29/17/17 26/20/14 17/29/5
f 23/30/11 28/13/16 29/16/17 21/31/9
f 19/32/7 27/9/15 28/12/16 23/33/11
f 17/34/5 26/5/14 27/8/15 19/35/7
