# Blender 5.1.2
# www.blender.org
mtllib tree107.mtl
o tree107
v -1.369666 0.000000 1.388051
v 1.388051 0.000000 -1.369666
v -1.369666 3.900000 1.388051
v 1.388051 3.900000 -1.369666
v 1.388051 0.000000 1.369666
v -1.369666 0.000000 -1.388051
v 1.388051 3.900000 1.369666
v -1.369666 3.900000 -1.388051
v 1.369666 0.000000 1.388051
v -1.388051 0.000000 -1.369666
v 1.369666 3.900000 1.388051
v -1.388051 3.900000 -1.369666
v -1.388051 0.000000 1.369666
v 1.369666 0.000000 -1.388051
v -1.388051 3.900000 1.369666
v 1.369666 3.900000 -1.388051
vn 0.7071 -0.0000 0.7071
vn 0.7071 -0.0000 -0.7071
vn -0.7071 -0.0000 0.7071
vn -0.7071 -0.0000 -0.7071
vt 0.007812 0.007812
vt 0.992188 0.007812
vt 0.992188 0.992188
vt 0.007812 0.992188
s 0
usemtl tree107
f 1/1/1 2/2/1 4/3/1 3/4/1
f 5/1/2 6/2/2 8/3/2 7/4/2
f 9/1/3 11/4/3 12/3/3 10/2/3
f 13/1/4 15/4/4 16/3/4 14/2/4
o tree107_trunk
v 0.100448 -0.100000 0.200779
v 0.070162 1.100000 0.093946
v -0.129552 -0.100000 0.200779
v -0.058175 1.095258 0.093483
v 0.100448 -0.100000 -0.029221
v 0.069698 1.104741 -0.034390
v -0.129552 -0.100000 -0.029221
v -0.058638 1.100000 -0.034854
v 0.021226 1.662002 0.014567
v 0.068699 0.450000 0.128006
v -0.087469 0.447629 0.127774
v -0.087701 0.450000 -0.028394
v 0.068468 0.452371 -0.028163
vn 0.5873 -0.5273 0.6140
vn 0.7037 0.0951 0.7041
vn -0.5933 -0.5221 0.6126
vn -0.7025 0.1266 0.7003
vn 0.5953 -0.5613 -0.5749
vn 0.7050 0.0571 -0.7069
vn -0.6009 -0.5566 -0.5737
vn -0.7044 0.0902 -0.7041
vn 0.0264 0.9993 -0.0256
vn 0.7076 0.0864 0.7013
vn -0.7094 0.1094 0.6963
vn -0.7039 0.0400 -0.7092
vn 0.7014 0.0164 -0.7125
vt 0.083756 0.062148
vt 0.152539 0.063353
vt 0.151634 0.072894
vt 0.083236 0.073763
vt 0.083498 0.043107
vt 0.152693 0.051516
vt 0.154426 0.060942
vt 0.085029 0.054633
vt 0.083503 0.076279
vt 0.150970 0.077926
vt 0.151782 0.087475
vt 0.083909 0.087899
vt 0.084954 0.014769
vt 0.154536 0.008468
vt 0.152802 0.017894
vt 0.083423 0.026295
vt 0.200353 0.102014
vt 0.200353 0.088323
vt 0.214044 0.088323
vt 0.214044 0.102014
vt 0.214044 0.034697
vt 0.214044 0.076720
vt 0.214044 0.074632
vt 0.015372 0.021071
vt 0.014044 0.034697
vt 0.016037 0.074632
vt 0.016037 0.088323
vt 0.014304 0.034697
vt 0.015631 0.048324
vt 0.014973 0.060942
vt 0.014838 0.074632
s 1
usemtl tree107
f 26/5/14 18/6/6 20/7/8 27/8/15
f 27/9/15 20/10/8 24/11/12 28/12/16
f 28/13/16 24/14/12 22/15/10 29/16/17
f 29/17/17 22/18/10 18/19/6 26/20/14
f 19/21/7 23/22/11 21/23/9 17/24/5
f 18/19/6 22/18/10 25/25/13
f 24/11/12 20/10/8 25/25/13
f 22/15/10 24/14/12 25/26/13
f 20/7/8 18/6/6 25/27/13
f 21/28/9 29/17/17 26/20/14 17/29/5
f 23/30/11 28/13/16 29/16/17 21/31/9
f 19/32/7 27/9/15 28/12/16 23/33/11
f 17/34/5 26/5/14 27/8/15 19/35/7
