# Blender 5.1.2
# www.blender.org
mtllib tree096.mtl
o tree096
v -1.185818 0.000000 1.204203
v 1.571899 0.000000 -1.553514
v -1.185818 3.900000 1.204203
v 1.571899 3.900000 -1.553514
v 1.204203 0.000000 1.185818
v -1.553514 0.000000 -1.571898
v 1.204203 3.900000 1.185818
v -1.553514 3.900000 -1.571898
v 1.185818 0.000000 1.204203
v -1.571898 0.000000 -1.553514
v 1.185818 3.900000 1.204203
v -1.571898 3.900000 -1.553514
v -1.204203 0.000000 1.185818
v 1.553514 0.000000 -1.571898
v -1.204203 3.900000 1.185818
v 1.553514 3.900000 -1.571898
vn 0.7071 -0.0000 0.7071
vn 0.7071 -0.0000 -0.7071
vn -0.7071 -0.0000 0.7071
vn -0.7071 -0.0000 -0.7071
vt 0.007812 0.007812
vt 0.992188 0.007812
vt 0.992188 0.992188
vt 0.007812 0.992188
s 0
usemtl tree96
f 1/1/1 2/2/1 4/3/1 3/4/1
f 5/1/2 6/2/2 8/3/2 7/4/2
f 9/1/3 11/4/3 12/3/3 10/2/3
f 13/1/4 15/4/4 16/3/4 14/2/4
o tree096_trunk
v 0.040565 -0.100000 0.040565
v 0.260462 1.291194 0.187797
v -0.059435 -0.100000 0.040565
v -0.214104 1.284351 0.182853
v 0.040565 -0.100000 -0.059435
v 0.266772 1.188308 -0.275516
v -0.059435 -0.100000 -0.059435
v -0.207794 1.181464 -0.280459
v -0.013114 1.314746 -0.039595
v 0.044200 0.924271 0.028143
v -0.023414 0.914004 0.028778
v -0.023331 0.908445 -0.039388
v 0.044283 0.918712 -0.040023
vn 0.5766 -0.5745 0.5809
vn 0.6864 0.3644 0.6293
vn -0.5870 -0.5657 0.5791
vn -0.6871 0.3538 0.6346
vn 0.5735 -0.5741 -0.5844
vn 0.7069 0.1007 -0.7001
vn -0.5889 -0.5616 -0.5812
vn -0.6724 0.0872 -0.7350
vn -0.0516 0.9798 -0.1933
vn 0.6041 -0.3735 0.7039
vn -0.6250 -0.3199 0.7121
vn -0.6807 -0.4358 -0.5889
vn 0.6664 -0.5059 -0.5478
vt 0.084143 0.059435
vt 0.152926 0.060641
vt 0.152022 0.070181
vt 0.083624 0.071050
vt 0.083886 0.040394
vt 0.153081 0.048803
vt 0.154814 0.058229
vt 0.085416 0.051920
vt 0.083891 0.073566
vt 0.151357 0.075213
vt 0.152169 0.084762
vt 0.084297 0.085186
vt 0.085341 0.012057
vt 0.154923 0.005755
vt 0.153189 0.015181
vt 0.083811 0.023583
vt 0.200741 0.099301
vt 0.200741 0.085610
vt 0.214432 0.085610
vt 0.214432 0.099301
vt 0.214432 0.031984
vt 0.214432 0.074007
vt 0.214432 0.071919
vt 0.015760 0.018358
vt 0.014432 0.031984
vt 0.016424 0.071919
vt 0.016424 0.085610
vt 0.014691 0.031984
vt 0.016019 0.045611
vt 0.015360 0.058229
vt 0.015226 0.071919
s 1
usemtl tree96
f 26/5/14 18/6/6 20/7/8 27/8/15
f 27/9/15 20/10/8 24/11/12 28/12/16
f 28/13/16 24/14/12 22/15/10 29/16/17
f 29/17/17 22/18/10 18/19/6 26/20/14
f 19/21/7 23/22/11 21/23/9 17/24/5
f 18/19/6 22/18/10 25/25/13
f 24/11/12 20/10/8 25/25/13
f 22/15/10 24/14/12 25/26/13
f 20/7/8 18/6/6 25/27/13
f 21/28/9 29/17/17 26/20/14 17/29/5
f 23/30/11 28/13/16 29/16/17 21/31/9
f 19/32/7 27/9/15 28/12/16 23/33/11
f 17/34/5 26/5/14 27/8/15 19/35/7
