# Blender 5.1.2
# www.blender.org
mtllib tree078.mtl
o tree078
v -0.910047 0.000000 0.928432
v 1.479975 0.000000 -1.461590
v -1.553514 3.250000 0.284964
v 0.836508 3.250000 -2.105057
v 0.928432 0.000000 0.910047
v -1.461590 0.000000 -1.479975
v 1.571899 3.250000 0.266580
v -0.818123 3.250000 -2.123442
v 0.910047 0.000000 0.928432
v -1.479975 0.000000 -1.461590
v 1.553514 3.250000 0.284964
v -0.836507 3.250000 -2.105057
v -0.928432 0.000000 0.910047
v 1.461590 0.000000 -1.479975
v -1.571899 3.250000 0.266579
v 0.818123 3.250000 -2.123442
v -1.093894 0.325000 0.744584
v 1.296127 0.325000 -1.645438
v -1.112279 0.325000 0.726199
v 1.277742 0.325000 -1.663823
v 1.112279 0.325000 0.726199
v -1.277742 0.325000 -1.663823
v 1.093894 0.325000 0.744584
v -1.296127 0.325000 -1.645438
v 0.946816 0.617500 -1.994749
v -1.443205 0.617500 0.395273
v -1.461590 0.617500 0.376888
v 0.928432 0.617500 -2.013134
v 1.461590 0.617500 0.376888
v -0.928431 0.617500 -2.013134
v 1.443205 0.617500 0.395273
v -0.946816 0.617500 -1.994749
vn 0.7059 0.0592 0.7059
vn 0.7059 -0.0592 -0.7059
vn -0.7059 0.0592 0.7059
vn -0.7059 -0.0592 -0.7059
vn 0.5522 0.6247 0.5522
vn -0.5522 -0.6247 -0.5522
vn 0.5522 -0.6247 -0.5522
vn -0.5522 0.6247 0.5522
vn 0.3603 0.8605 0.3603
vn -0.3603 -0.8605 -0.3603
vn 0.3603 -0.8605 -0.3603
vn -0.3603 0.8605 0.3603
vt 0.039062 0.187500
vt 0.992188 0.187500
vt 0.992188 0.992188
vt 0.039062 0.992188
vt 0.039062 0.007812
vt 0.992188 0.007812
vt 0.992188 0.101562
vt 0.039062 0.101562
s 0
usemtl tree78
f 26/1/1 25/2/1 4/3/1 3/4/1
f 29/1/2 30/2/2 8/3/2 7/4/2
f 31/1/3 11/4/3 12/3/3 32/2/3
f 27/1/4 15/4/4 16/3/4 28/2/4
f 1/5/5 2/6/5 18/7/5 17/8/5
f 13/5/6 19/8/6 20/7/6 14/6/6
f 5/5/7 6/6/7 22/7/7 21/8/7
f 9/5/8 23/8/8 24/7/8 10/6/8
f 17/8/9 18/7/9 25/2/9 26/1/9
f 19/8/10 27/1/10 28/2/10 20/7/10
f 21/8/11 22/7/11 30/2/11 29/1/11
f 23/8/12 31/1/12 32/2/12 24/7/12
o tree078_trunk
v 0.057071 -0.100000 0.157071
v 0.014126 0.712303 -1.038962
v -0.042929 -0.100000 0.157071
v -0.017490 0.725055 -1.041534
v 0.057071 -0.100000 0.057071
v 0.011554 0.699550 -1.070577
v -0.042929 -0.100000 0.057071
v -0.020062 0.712303 -1.073149
v 0.007682 1.025009 -1.047665
v 0.035538 0.355322 -0.321157
v -0.028009 0.378942 -0.325610
v -0.032462 0.355322 -0.389157
v 0.031085 0.331702 -0.384704
v 0.038284 0.488154 -0.743845
v -0.003334 0.516175 -0.753320
v -0.012810 0.488154 -0.794939
v 0.028809 0.460133 -0.785463
v 0.026205 0.620228 -0.981404
v -0.010412 0.640615 -0.987427
v -0.016436 0.620228 -1.024044
v 0.020181 0.599842 -1.018020
vn 0.6158 -0.3144 0.7225
vn 0.8189 0.2563 0.5135
vn -0.4852 -0.3185 0.8144
vn -0.7478 0.1742 0.6406
vn 0.6191 -0.7184 -0.3173
vn 0.5922 -0.1947 -0.7819
vn -0.6668 -0.6898 -0.2822
vn -0.6839 -0.0848 -0.7246
vn 0.0352 0.9991 0.0255
vn 0.7486 0.5570 0.3597
vn -0.5311 0.7438 0.4059
vn -0.8886 -0.3685 -0.2732
vn 0.6324 -0.6499 -0.4216
vn 0.8985 0.4108 0.1548
vn -0.4575 0.8237 0.3351
vn -0.8638 -0.4537 -0.2191
vn 0.4632 -0.8070 -0.3663
vn 0.8993 0.3716 0.2306
vn -0.6066 0.5362 0.5870
vn -0.7677 -0.4134 -0.4897
vn 0.4877 -0.6209 -0.6137
vt 0.085425 0.103702
vt 0.085727 0.086506
vt 0.095268 0.087410
vt 0.095485 0.104510
vt 0.071787 0.103650
vt 0.073890 0.086351
vt 0.083315 0.084618
vt 0.081738 0.101967
vt 0.099888 0.104941
vt 0.100300 0.088075
vt 0.109849 0.087263
vt 0.109955 0.104231
vt 0.032417 0.101904
vt 0.030842 0.084509
vt 0.040267 0.086242
vt 0.042368 0.103587
vt 0.124388 0.038691
vt 0.110697 0.038691
vt 0.110697 0.025000
vt 0.124388 0.025000
vt 0.057071 0.025000
vt 0.099094 0.025000
vt 0.097006 0.025000
vt 0.043444 0.223672
vt 0.037143 0.154091
vt 0.048669 0.155621
vt 0.057071 0.225000
vt 0.097006 0.223007
vt 0.098653 0.155541
vt 0.110273 0.155135
vt 0.110697 0.223007
vt 0.057071 0.224741
vt 0.065480 0.155546
vt 0.077006 0.154016
vt 0.070697 0.223413
vt 0.083315 0.224072
vt 0.084521 0.155289
vt 0.096137 0.155808
vt 0.097006 0.224206
vt 0.033992 0.119300
vt 0.044468 0.120932
vt 0.099476 0.121808
vt 0.110061 0.121199
vt 0.069685 0.120949
vt 0.080161 0.119317
vt 0.085124 0.120897
vt 0.095702 0.121609
s 1
usemtl tree78
f 50/9/30 34/10/14 36/11/16 51/12/31
f 51/13/31 36/14/16 40/15/20 52/16/32
f 52/17/32 40/18/20 38/19/18 53/20/33
f 53/21/33 38/22/18 34/23/14 50/24/30
f 35/25/15 39/26/19 37/27/17 33/28/13
f 34/23/14 38/22/18 41/29/21
f 40/15/20 36/14/16 41/29/21
f 38/19/18 40/18/20 41/30/21
f 36/11/16 34/10/14 41/31/21
f 37/32/17 45/33/25 42/34/22 33/35/13
f 39/36/19 44/37/24 45/38/25 37/39/17
f 35/40/15 43/41/23 44/42/24 39/43/19
f 33/44/13 42/45/22 43/46/23 35/47/15
f 45/33/25 49/48/29 46/49/26 42/34/22
f 44/37/24 48/50/28 49/51/29 45/38/25
f 43/41/23 47/52/27 48/53/28 44/42/24
f 42/45/22 46/54/26 47/55/27 43/46/23
f 49/48/29 53/21/33 50/24/30 46/49/26
f 48/50/28 52/17/32 53/20/33 49/51/29
f 47/52/27 51/13/31 52/16/32 48/53/28
f 46/54/26 50/9/30 51/12/31 47/55/27
