# Blender 5.1.2
# www.blender.org
mtllib tree085.mtl
o tree085
v 0.979379 0.000000 1.342507
v -0.959309 0.000000 -1.426228
v 0.979379 3.250000 1.342507
v -0.959309 3.250000 -1.426228
v 1.377525 0.000000 -1.021361
v -1.391210 0.000000 0.917328
v 1.377525 3.250000 -1.021361
v -1.391210 3.250000 0.917328
v 1.392438 0.000000 -1.000063
v -1.376297 0.000000 0.938626
v 1.392438 3.250000 -1.000063
v -1.376297 3.250000 0.938626
v 0.958081 0.000000 1.357420
v -0.980607 0.000000 -1.411315
v 0.958081 3.250000 1.357420
v -0.980607 3.250000 -1.411315
vn 0.8192 -0.0000 -0.5736
vn -0.5736 -0.0000 -0.8192
vn 0.5736 -0.0000 0.8192
vn -0.8192 -0.0000 0.5736
vt 0.007812 0.007812
vt 0.992188 0.007812
vt 0.992188 0.992188
vt 0.007812 0.992188
s 0
usemtl tree85
f 1/1/1 2/2/1 4/3/1 3/4/1
f 5/1/2 6/2/2 8/3/2 7/4/2
f 9/1/3 11/4/3 12/3/3 10/2/3
f 13/1/4 15/4/4 16/3/4 14/2/4
o tree085_trunk
v 0.075291 -0.100000 0.035730
v 0.622184 1.073700 0.574775
v -0.088114 -0.100000 0.035730
v -0.477044 1.073437 0.574775
v 0.075291 -0.100000 -0.127676
v 0.622184 1.073965 -0.424452
v -0.088114 -0.100000 -0.127676
v -0.477044 1.073700 -0.424452
v -0.039506 1.411625 0.123095
v 0.166868 0.443425 0.130454
v -0.154122 0.532218 0.129978
v -0.154598 0.543425 -0.191012
v 0.166392 0.454633 -0.190536
vn 0.5210 -0.6665 0.5332
vn 0.7097 0.1306 0.6923
vn -0.5600 -0.6408 0.5252
vn -0.6901 0.1240 0.7130
vn 0.5212 -0.6491 -0.5541
vn 0.7251 0.1908 -0.6617
vn -0.5538 -0.6285 -0.5461
vn -0.7032 0.1966 -0.6832
vn -0.0775 0.9962 0.0390
vn 0.5736 -0.5506 0.6065
vn -0.6460 -0.5247 0.5544
vn -0.6243 -0.4219 -0.6574
vn 0.5700 -0.4463 -0.6898
vt 0.084521 0.155289
vt 0.085727 0.086506
vt 0.095268 0.087410
vt 0.096137 0.155808
vt 0.065480 0.155546
vt 0.073890 0.086351
vt 0.083315 0.084618
vt 0.077006 0.154016
vt 0.098653 0.155541
vt 0.100300 0.088075
vt 0.109849 0.087263
vt 0.110273 0.155135
vt 0.037143 0.154091
vt 0.030842 0.084509
vt 0.040267 0.086242
vt 0.048669 0.155621
vt 0.124388 0.038691
vt 0.110697 0.038691
vt 0.110697 0.025000
vt 0.124388 0.025000
vt 0.057071 0.025000
vt 0.099094 0.025000
vt 0.097006 0.025000
vt 0.043444 0.223672
vt 0.057071 0.225000
vt 0.097006 0.223007
vt 0.110697 0.223007
vt 0.057071 0.224741
vt 0.070697 0.223413
vt 0.083315 0.224072
vt 0.097006 0.224206
s 1
usemtl tree85
f 26/5/14 18/6/6 20/7/8 27/8/15
f 27/9/15 20/10/8 24/11/12 28/12/16
f 28/13/16 24/14/12 22/15/10 29/16/17
f 29/17/17 22/18/10 18/19/6 26/20/14
f 19/21/7 23/22/11 21/23/9 17/24/5
f 18/19/6 22/18/10 25/25/13
f 24/11/12 20/10/8 25/25/13
f 22/15/10 24/14/12 25/26/13
f 20/7/8 18/6/6 25/27/13
f 21/28/9 29/17/17 26/20/14 17/29/5
f 23/30/11 28/13/16 29/16/17 21/31/9
f 19/32/7 27/9/15 28/12/16 23/33/11
f 17/34/5 26/5/14 27/8/15 19/35/7
