# Blender 5.1.2
# www.blender.org
mtllib tree090.mtl
o tree090
v -1.369666 0.000000 1.388051
v 1.388051 0.000000 -1.369666
v -1.369666 4.550000 1.388051
v 1.388051 4.550000 -1.369666
v 1.388051 0.000000 1.369666
v -1.369666 0.000000 -1.388051
v 1.388051 4.550000 1.369666
v -1.369666 4.550000 -1.388051
v 1.369666 0.000000 1.388051
v -1.388051 0.000000 -1.369666
v 1.369666 4.550000 1.388051
v -1.388051 4.550000 -1.369666
v -1.388051 0.000000 1.369666
v 1.369666 0.000000 -1.388051
v -1.388051 4.550000 1.369666
v 1.369666 4.550000 -1.388051
vn 0.7071 -0.0000 0.7071
vn 0.7071 -0.0000 -0.7071
vn -0.7071 -0.0000 0.7071
vn -0.7071 -0.0000 -0.7071
vt 0.007812 0.007812
vt 0.992188 0.007812
vt 0.992188 0.992188
vt 0.007812 0.992188
s 0
usemtl tree90
f 1/1/1 2/2/1 4/3/1 3/4/1
f 5/1/2 6/2/2 8/3/2 7/4/2
f 9/1/3 11/4/3 12/3/3 10/2/3
f 13/1/4 15/4/4 16/3/4 14/2/4
o tree090_trunk
v 0.099404 -0.100000 0.099404
v 0.014040 1.335426 -0.027139
v -0.085262 -0.100000 0.099404
v -0.073091 1.318016 -0.028878
v 0.099404 -0.100000 -0.085262
v 0.012301 1.352836 -0.114271
v -0.085262 -0.100000 -0.085262
v -0.074830 1.335426 -0.116010
v -0.063077 2.218198 0.076818
v 0.060749 0.450000 -0.030046
v -0.058433 0.445839 -0.030222
v -0.058610 0.450000 -0.149405
v 0.060572 0.454161 -0.149228
vn 0.5843 -0.4965 0.6420
vn 0.7240 0.0053 0.6898
vn -0.5809 -0.4999 0.6423
vn -0.7195 -0.0401 0.6933
vn 0.6069 -0.5858 -0.5371
vn 0.6815 0.1457 -0.7172
vn -0.5991 -0.5928 -0.5382
vn -0.6991 0.0811 -0.7104
vn -0.0370 0.9855 0.1658
vn 0.7270 0.1250 0.6752
vn -0.7271 0.0940 0.6801
vn -0.6827 -0.0204 -0.7304
vn 0.6887 0.0133 -0.7249
vt 0.084521 0.155289
vt 0.085727 0.086506
vt 0.095268 0.087410
vt 0.096137 0.155808
vt 0.065480 0.155546
vt 0.073890 0.086351
vt 0.083315 0.084618
vt 0.077006 0.154016
vt 0.098653 0.155541
vt 0.100300 0.088075
vt 0.109849 0.087263
vt 0.110273 0.155135
vt 0.037143 0.154091
vt 0.030842 0.084509
vt 0.040267 0.086242
vt 0.048669 0.155621
vt 0.124388 0.038691
vt 0.110697 0.038691
vt 0.110697 0.025000
vt 0.124388 0.025000
vt 0.057071 0.025000
vt 0.099094 0.025000
vt 0.097006 0.025000
vt 0.043444 0.223672
vt 0.057071 0.225000
vt 0.097006 0.223007
vt 0.110697 0.223007
vt 0.057071 0.224741
vt 0.070697 0.223413
vt 0.083315 0.224072
vt 0.097006 0.224206
s 1
usemtl tree90
f 26/5/14 18/6/6 20/7/8 27/8/15
f 27/9/15 20/10/8 24/11/12 28/12/16
f 28/13/16 24/14/12 22/15/10 29/16/17
f 29/17/17 22/18/10 18/19/6 26/20/14
f 19/21/7 23/22/11 21/23/9 17/24/5
f 18/19/6 22/18/10 25/25/13
f 24/11/12 20/10/8 25/25/13
f 22/15/10 24/14/12 25/26/13
f 20/7/8 18/6/6 25/27/13
f 21/28/9 29/17/17 26/20/14 17/29/5
f 23/30/11 28/13/16 29/16/17 21/31/9
f 19/32/7 27/9/15 28/12/16 23/33/11
f 17/34/5 26/5/14 27/8/15 19/35/7
