# Blender 5.1.2
# www.blender.org
mtllib tree076.mtl
o tree076
v -1.185818 0.000000 1.204203
v 1.204203 0.000000 -1.185818
v -1.185818 3.250000 1.204203
v 1.204203 3.250000 -1.185818
v 1.204203 0.000000 1.185818
v -1.185818 0.000000 -1.204203
v 1.204203 3.250000 1.185818
v -1.185818 3.250000 -1.204203
v 1.185818 0.000000 1.204203
v -1.204203 0.000000 -1.185818
v 1.185818 3.250000 1.204203
v -1.204203 3.250000 -1.185818
v -1.204203 0.000000 1.185818
v 1.185818 0.000000 -1.204203
v -1.204203 3.250000 1.185818
v 1.185818 3.250000 -1.204203
vn 0.7071 -0.0000 0.7071
vn 0.7071 -0.0000 -0.7071
vn -0.7071 -0.0000 0.7071
vn -0.7071 -0.0000 -0.7071
vt 0.007812 0.007812
vt 0.992188 0.007812
vt 0.992188 0.992188
vt 0.007812 0.992188
s 0
usemtl tree76
f 1/1/1 2/2/1 4/3/1 3/4/1
f 5/1/2 6/2/2 8/3/2 7/4/2
f 9/1/3 11/4/3 12/3/3 10/2/3
f 13/1/4 15/4/4 16/3/4 14/2/4
o tree076_trunk
v 0.113786 -0.100000 0.092798
v 0.040725 1.100000 0.039200
v -0.086214 -0.100000 0.092798
v -0.048553 1.096207 0.038877
v 0.113787 -0.100000 -0.107202
v 0.040403 1.103793 -0.050078
v -0.086214 -0.100000 -0.107202
v -0.048875 1.100000 -0.050400
v -0.010095 1.488426 -0.004619
v 0.072126 0.450000 0.063683
v -0.063673 0.447629 0.063482
v -0.063874 0.450000 -0.072317
v 0.071925 0.452371 -0.072115
vn 0.5972 -0.5437 0.5897
vn 0.7009 0.1127 0.7043
vn -0.5872 -0.5524 0.5916
vn -0.7048 0.0912 0.7035
vn 0.5970 -0.5408 -0.5926
vn 0.7020 0.1146 -0.7028
vn -0.5866 -0.5501 -0.5944
vn -0.7053 0.0939 -0.7027
vn -0.0160 0.9999 0.0032
vn 0.7028 0.0764 0.7073
vn -0.7061 0.0550 0.7060
vn -0.7080 0.0574 -0.7039
vn 0.7050 0.0784 -0.7048
vt 0.051806 0.028083
vt 0.085268 0.028670
vt 0.084828 0.033311
vt 0.051553 0.033734
vt 0.051681 0.018820
vt 0.085343 0.022911
vt 0.086187 0.027496
vt 0.052425 0.024427
vt 0.051683 0.034958
vt 0.084505 0.035759
vt 0.084900 0.040405
vt 0.051881 0.040611
vt 0.052389 0.005034
vt 0.086240 0.001969
vt 0.085396 0.006554
vt 0.051644 0.010641
vt 0.108530 0.047478
vt 0.108530 0.040817
vt 0.115190 0.040817
vt 0.115190 0.047478
vt 0.115190 0.014729
vt 0.115190 0.035172
vt 0.115190 0.034157
vt 0.018538 0.008099
vt 0.017892 0.014729
vt 0.018862 0.034157
vt 0.018862 0.040817
vt 0.018018 0.014729
vt 0.018664 0.021358
vt 0.018344 0.027496
vt 0.018278 0.034157
s 1
usemtl tree76
f 26/5/14 18/6/6 20/7/8 27/8/15
f 27/9/15 20/10/8 24/11/12 28/12/16
f 28/13/16 24/14/12 22/15/10 29/16/17
f 29/17/17 22/18/10 18/19/6 26/20/14
f 19/21/7 23/22/11 21/23/9 17/24/5
f 18/19/6 22/18/10 25/25/13
f 24/11/12 20/10/8 25/25/13
f 22/15/10 24/14/12 25/26/13
f 20/7/8 18/6/6 25/27/13
f 21/28/9 29/17/17 26/20/14 17/29/5
f 23/30/11 28/13/16 29/16/17 21/31/9
f 19/32/7 27/9/15 28/12/16 23/33/11
f 17/34/5 26/5/14 27/8/15 19/35/7
