# Blender 5.1.2
# www.blender.org
mtllib tree028.mtl
o tree028
v -1.195011 0.000000 1.209153
v 0.926310 0.000000 -0.912168
v -1.195011 3.000000 1.209153
v 0.926310 3.000000 -0.912168
v 1.187939 0.000000 1.173797
v -0.912168 0.000000 -0.926310
v 1.187940 3.000000 1.173797
v -0.912168 3.000000 -0.926310
v 1.173797 0.000000 1.187940
v -0.926310 0.000000 -0.912168
v 1.173797 3.000000 1.187940
v -0.926310 3.000000 -0.912168
v -1.209153 0.000000 1.195010
v 0.912168 0.000000 -0.926310
v -1.209153 3.000000 1.195011
v 0.912168 3.000000 -0.926310
vn 0.7071 -0.0000 0.7071
vn 0.7071 -0.0000 -0.7071
vn -0.7071 -0.0000 0.7071
vn -0.7071 -0.0000 -0.7071
vt 0.007812 0.007812
vt 0.992188 0.007812
vt 0.992188 0.992188
vt 0.007812 0.992188
s 0
usemtl tree28
f 1/1/1 2/2/1 4/3/1 3/4/1
f 5/1/2 6/2/2 8/3/2 7/4/2
f 9/1/3 11/4/3 12/3/3 10/2/3
f 13/1/4 15/4/4 16/3/4 14/2/4
o tree028_trunk
v 0.057071 -0.100000 0.057071
v 0.020929 0.600000 0.148208
v -0.042929 -0.100000 0.057071
v -0.034870 0.595258 0.148007
v 0.057071 -0.100000 -0.042929
v 0.020727 0.604741 0.092410
v -0.042929 -0.100000 -0.042929
v -0.035071 0.600000 0.092208
v -0.000453 0.932002 0.156017
v 0.009251 0.350000 0.065820
v -0.058648 0.347629 0.065719
v -0.058749 0.350000 -0.002180
v 0.009151 0.352371 -0.002079
vn 0.6108 -0.5531 0.5665
vn 0.6912 -0.1100 0.7142
vn -0.5672 -0.5916 0.5730
vn -0.6734 -0.0734 0.7357
vn 0.6040 -0.5263 -0.5985
vn 0.7314 0.1853 -0.6563
vn -0.5623 -0.5613 -0.6072
vn -0.7240 0.2588 -0.6394
vn 0.0189 0.9941 0.1070
vn 0.7303 -0.0986 0.6760
vn -0.7530 -0.0819 0.6529
vn -0.6946 0.1707 -0.6988
vn 0.6524 0.1946 -0.7325
vt 0.084521 0.155289
vt 0.085727 0.086506
vt 0.095268 0.087410
vt 0.096137 0.155808
vt 0.065480 0.155546
vt 0.073890 0.086351
vt 0.083315 0.084618
vt 0.077006 0.154016
vt 0.098653 0.155541
vt 0.100300 0.088075
vt 0.109849 0.087263
vt 0.110273 0.155135
vt 0.037143 0.154091
vt 0.030842 0.084509
vt 0.040267 0.086242
vt 0.048669 0.155621
vt 0.124388 0.038691
vt 0.110697 0.038691
vt 0.110697 0.025000
vt 0.124388 0.025000
vt 0.057071 0.025000
vt 0.099094 0.025000
vt 0.097006 0.025000
vt 0.043444 0.223672
vt 0.057071 0.225000
vt 0.097006 0.223007
vt 0.110697 0.223007
vt 0.057071 0.224741
vt 0.070697 0.223413
vt 0.083315 0.224072
vt 0.097006 0.224206
s 1
usemtl tree28
f 26/5/14 18/6/6 20/7/8 27/8/15
f 27/9/15 20/10/8 24/11/12 28/12/16
f 28/13/16 24/14/12 22/15/10 29/16/17
f 29/17/17 22/18/10 18/19/6 26/20/14
f 19/21/7 23/22/11 21/23/9 17/24/5
f 18/19/6 22/18/10 25/25/13
f 24/11/12 20/10/8 25/25/13
f 22/15/10 24/14/12 25/26/13
f 20/7/8 18/6/6 25/27/13
f 21/28/9 29/17/17 26/20/14 17/29/5
f 23/30/11 28/13/16 29/16/17 21/31/9
f 19/32/7 27/9/15 28/12/16 23/33/11
f 17/34/5 26/5/14 27/8/15 19/35/7
