# Blender 5.1.2
# www.blender.org
mtllib tree036.mtl
o tree036
v -1.407143 0.000000 1.421285
v 1.421285 0.000000 -1.407143
v -1.407143 4.993049 1.421285
v 1.421285 4.993049 -1.407142
v 1.400072 0.000000 1.385930
v -1.407143 0.000000 -1.421285
v 1.400072 4.993049 1.385929
v -1.407143 4.993049 -1.421285
v 1.385929 0.000000 1.400072
v -1.421285 0.000000 -1.407143
v 1.385929 4.993049 1.400072
v -1.421285 4.993049 -1.407143
v -1.421285 0.000000 1.407142
v 1.407143 0.000000 -1.421285
v -1.421285 4.993049 1.407143
v 1.407143 4.993049 -1.421285
vn 0.7071 -0.0000 0.7071
vn 0.7071 -0.0000 -0.7071
vn -0.7071 -0.0000 0.7071
vn -0.7071 -0.0000 -0.7071
vt 0.007812 0.007812
vt 0.992188 0.007812
vt 0.992188 0.992188
vt 0.007812 0.992188
s 0
usemtl tree36
f 1/1/1 2/2/1 4/3/1 3/4/1
f 5/1/2 6/2/2 8/3/2 7/4/2
f 9/1/3 11/4/3 12/3/3 10/2/3
f 13/1/4 15/4/4 16/3/4 14/2/4
o tree036_trunk
v 0.014645 -0.100000 0.099497
v 0.020929 1.690000 -0.007355
v -0.085355 -0.100000 0.099497
v -0.034870 1.685259 -0.007557
v 0.014645 -0.100000 -0.000503
v 0.020728 1.694742 -0.063154
v -0.085355 -0.100000 -0.000503
v -0.035071 1.690000 -0.063355
v -0.021666 2.652002 -0.133897
v 0.016322 0.740000 -0.040246
v -0.051577 0.737629 -0.040347
v -0.051678 0.740000 -0.108246
v 0.016222 0.742371 -0.108145
vn 0.5675 -0.5326 0.6279
vn 0.6918 0.0493 0.7204
vn -0.5818 -0.5213 0.6243
vn -0.6894 0.0416 0.7231
vn 0.5844 -0.6092 -0.5361
vn 0.7275 0.0047 -0.6861
vn -0.5969 -0.5982 -0.5347
vn -0.7204 0.0050 -0.6935
vn -0.0150 0.9947 -0.1016
vn 0.7300 0.0406 0.6823
vn -0.7266 0.0688 0.6836
vn -0.6860 -0.0124 -0.7275
vn 0.6874 -0.0299 -0.7257
vt 0.084521 0.155289
vt 0.085727 0.086506
vt 0.095268 0.087410
vt 0.096137 0.155808
vt 0.065480 0.155546
vt 0.073890 0.086351
vt 0.083315 0.084618
vt 0.077006 0.154016
vt 0.098653 0.155541
vt 0.100300 0.088075
vt 0.109849 0.087263
vt 0.110273 0.155135
vt 0.037143 0.154091
vt 0.030842 0.084509
vt 0.040267 0.086242
vt 0.048669 0.155621
vt 0.124388 0.038691
vt 0.110697 0.038691
vt 0.110697 0.025000
vt 0.124388 0.025000
vt 0.057071 0.025000
vt 0.099094 0.025000
vt 0.097006 0.025000
vt 0.043444 0.223672
vt 0.057071 0.225000
vt 0.097006 0.223007
vt 0.110697 0.223007
vt 0.057071 0.224741
vt 0.070697 0.223413
vt 0.083315 0.224072
vt 0.097006 0.224206
s 1
usemtl tree36
f 26/5/14 18/6/6 20/7/8 27/8/15
f 27/9/15 20/10/8 24/11/12 28/12/16
f 28/13/16 24/14/12 22/15/10 29/16/17
f 29/17/17 22/18/10 18/19/6 26/20/14
f 19/21/7 23/22/11 21/23/9 17/24/5
f 18/19/6 22/18/10 25/25/13
f 24/11/12 20/10/8 25/25/13
f 22/15/10 24/14/12 25/26/13
f 20/7/8 18/6/6 25/27/13
f 21/28/9 29/17/17 26/20/14 17/29/5
f 23/30/11 28/13/16 29/16/17 21/31/9
f 19/32/7 27/9/15 28/12/16 23/33/11
f 17/34/5 26/5/14 27/8/15 19/35/7
