# Blender 5.1.2
# www.blender.org
mtllib tree070.mtl
o tree070
v -1.185818 0.000000 1.204203
v 1.204203 0.000000 -1.185818
v -1.185818 3.250000 1.204203
v 1.204203 3.250000 -1.185818
v 1.204203 0.000000 1.185818
v -1.185818 0.000000 -1.204203
v 1.204203 3.250000 1.185818
v -1.185818 3.250000 -1.204203
v 1.185818 0.000000 1.204203
v -1.204203 0.000000 -1.185818
v 1.185818 3.250000 1.204203
v -1.204203 3.250000 -1.185818
v -1.204203 0.000000 1.185818
v 1.185818 0.000000 -1.204203
v -1.204203 3.250000 1.185818
v 1.185818 3.250000 -1.204203
vn 0.7071 -0.0000 0.7071
vn 0.7071 -0.0000 -0.7071
vn -0.7071 -0.0000 0.7071
vn -0.7071 -0.0000 -0.7071
vt 0.007812 0.007812
vt 0.992188 0.007812
vt 0.992188 0.992188
vt 0.007812 0.992188
s 0
usemtl tree70
f 1/1/1 2/2/1 4/3/1 3/4/1
f 5/1/2 6/2/2 8/3/2 7/4/2
f 9/1/3 11/4/3 12/3/3 10/2/3
f 13/1/4 15/4/4 16/3/4 14/2/4
o tree070_trunk
v 0.065013 -0.100000 0.150247
v 0.048755 0.521894 0.160987
v -0.084987 -0.100000 0.150247
v -0.030666 0.522830 0.160981
v 0.065014 -0.100000 0.000247
v 0.048749 0.520959 0.081566
v -0.084986 -0.100000 0.000247
v -0.030672 0.521894 0.081561
v 0.019074 0.869140 0.109997
v 0.050187 0.285629 0.160995
v -0.060215 0.281774 0.160832
v -0.060379 0.285629 0.050429
v 0.050023 0.289483 0.050593
vn 0.5909 -0.5742 0.5667
vn 0.6986 0.0806 0.7109
vn -0.5988 -0.5668 0.5659
vn -0.6839 0.1394 0.7161
vn 0.5818 -0.5329 -0.6144
vn 0.7190 0.1048 -0.6871
vn -0.5904 -0.5264 -0.6118
vn -0.7037 0.1690 -0.6901
vn 0.0286 0.9991 -0.0321
vn 0.7002 0.0057 0.7139
vn -0.7073 0.0555 0.7048
vn -0.7077 0.1558 -0.6892
vn 0.7011 0.1087 -0.7048
vt 0.084521 0.155289
vt 0.085727 0.086506
vt 0.095268 0.087410
vt 0.096137 0.155808
vt 0.065480 0.155546
vt 0.073890 0.086351
vt 0.083315 0.084618
vt 0.077006 0.154016
vt 0.098653 0.155541
vt 0.100300 0.088075
vt 0.109849 0.087263
vt 0.110273 0.155135
vt 0.037143 0.154091
vt 0.030842 0.084509
vt 0.040267 0.086242
vt 0.048669 0.155621
vt 0.124388 0.038691
vt 0.110697 0.038691
vt 0.110697 0.025000
vt 0.124388 0.025000
vt 0.057071 0.025000
vt 0.099094 0.025000
vt 0.097006 0.025000
vt 0.043444 0.223672
vt 0.057071 0.225000
vt 0.097006 0.223007
vt 0.110697 0.223007
vt 0.057071 0.224741
vt 0.070697 0.223413
vt 0.083315 0.224072
vt 0.097006 0.224206
s 1
usemtl tree70
f 26/5/14 18/6/6 20/7/8 27/8/15
f 27/9/15 20/10/8 24/11/12 28/12/16
f 28/13/16 24/14/12 22/15/10 29/16/17
f 29/17/17 22/18/10 18/19/6 26/20/14
f 19/21/7 23/22/11 21/23/9 17/24/5
f 18/19/6 22/18/10 25/25/13
f 24/11/12 20/10/8 25/25/13
f 22/15/10 24/14/12 25/26/13
f 20/7/8 18/6/6 25/27/13
f 21/28/9 29/17/17 26/20/14 17/29/5
f 23/30/11 28/13/16 29/16/17 21/31/9
f 19/32/7 27/9/15 28/12/16 23/33/11
f 17/34/5 26/5/14 27/8/15 19/35/7
