# Blender 5.1.2
# www.blender.org
mtllib tree049.mtl
o tree049
v -0.958766 0.000000 0.971635
v 0.971635 0.000000 -0.958766
v -0.958766 2.723674 0.971635
v 0.971636 2.723674 -0.958766
v 0.971636 0.000000 0.958766
v -0.958766 0.000000 -0.971636
v 0.971635 2.723674 0.958766
v -0.958766 2.723674 -0.971636
v 0.958766 0.000000 0.971636
v -0.971635 0.000000 -0.958766
v 0.958766 2.723674 0.971635
v -0.971635 2.723674 -0.958766
v -0.971636 0.000000 0.958766
v 0.958766 0.000000 -0.971635
v -0.971635 2.723674 0.958766
v 0.958766 2.723674 -0.971635
vn 0.7071 -0.0000 0.7071
vn 0.7071 -0.0000 -0.7071
vn -0.7071 -0.0000 0.7071
vn -0.7071 -0.0000 -0.7071
vt 0.007812 0.007812
vt 0.992188 0.007812
vt 0.992188 0.992188
vt 0.007812 0.992188
s 0
usemtl tree49
f 1/1/1 2/2/1 4/3/1 3/4/1
f 5/1/2 6/2/2 8/3/2 7/4/2
f 9/1/3 11/4/3 12/3/3 10/2/3
f 13/1/4 15/4/4 16/3/4 14/2/4
o tree049_trunk
v 0.092518 -0.100000 -0.190325
v 0.070591 1.100000 0.028164
v -0.120802 -0.100000 -0.190325
v -0.069882 1.114106 0.027456
v 0.092518 -0.100000 -0.403645
v 0.069882 1.085894 -0.112309
v -0.120802 -0.100000 -0.403645
v -0.070591 1.100000 -0.113017
v -0.000453 1.562002 -0.197537
v 0.091036 0.450000 0.062752
v -0.083706 0.443899 0.062493
v -0.083965 0.450000 -0.112250
v 0.090777 0.456101 -0.111990
vn 0.6062 -0.6699 0.4286
vn 0.6783 0.2215 0.7006
vn -0.6254 -0.6503 0.4312
vn -0.6628 0.2406 0.7091
vn 0.5537 -0.4297 -0.7133
vn 0.7333 0.0114 -0.6798
vn -0.5752 -0.4178 -0.7032
vn -0.7415 0.0016 -0.6710
vn 0.0017 0.9498 -0.3128
vn 0.6629 -0.1276 0.7378
vn -0.6523 -0.1259 0.7474
vn -0.7582 0.1966 -0.6217
vn 0.7652 0.1641 -0.6225
vt 0.084521 0.155289
vt 0.085727 0.086506
vt 0.095268 0.087410
vt 0.096137 0.155808
vt 0.065480 0.155546
vt 0.073890 0.086351
vt 0.083315 0.084618
vt 0.077006 0.154016
vt 0.098653 0.155541
vt 0.100300 0.088075
vt 0.109849 0.087263
vt 0.110273 0.155135
vt 0.037143 0.154091
vt 0.030842 0.084509
vt 0.040267 0.086242
vt 0.048669 0.155621
vt 0.124388 0.038691
vt 0.110697 0.038691
vt 0.110697 0.025000
vt 0.124388 0.025000
vt 0.057071 0.025000
vt 0.099094 0.025000
vt 0.097006 0.025000
vt 0.043444 0.223672
vt 0.057071 0.225000
vt 0.097006 0.223007
vt 0.110697 0.223007
vt 0.057071 0.224741
vt 0.070697 0.223413
vt 0.083315 0.224072
vt 0.097006 0.224206
s 1
usemtl tree49
f 26/5/14 18/6/6 20/7/8 27/8/15
f 27/9/15 20/10/8 24/11/12 28/12/16
f 28/13/16 24/14/12 22/15/10 29/16/17
f 29/17/17 22/18/10 18/19/6 26/20/14
f 19/21/7 23/22/11 21/23/9 17/24/5
f 18/19/6 22/18/10 25/25/13
f 24/11/12 20/10/8 25/25/13
f 22/15/10 24/14/12 25/26/13
f 20/7/8 18/6/6 25/27/13
f 21/28/9 29/17/17 26/20/14 17/29/5
f 23/30/11 28/13/16 29/16/17 21/31/9
f 19/32/7 27/9/15 28/12/16 23/33/11
f 17/34/5 26/5/14 27/8/15 19/35/7
