# Blender 5.1.2
# www.blender.org
mtllib tree011.mtl
o tree011
v -1.135452 0.000000 1.142643
v 0.985868 0.000000 -0.978677
v -1.135452 4.000000 1.142643
v 0.985868 4.000000 -0.978677
v 1.032376 0.000000 1.088945
v -1.088944 0.000000 -1.032376
v 1.032376 4.000000 1.088944
v -1.088944 4.000000 -1.032376
v 1.018234 0.000000 1.103087
v -1.103087 0.000000 -1.018234
v 1.018234 4.000000 1.103087
v -1.103086 4.000000 -1.018234
v -1.149594 0.000000 1.128501
v 0.971726 0.000000 -0.992819
v -1.149594 4.000000 1.128501
v 0.971726 4.000000 -0.992819
vn 0.7071 -0.0000 0.7071
vn 0.7071 -0.0000 -0.7071
vn -0.7071 -0.0000 0.7071
vn -0.7071 -0.0000 -0.7071
vt 0.007812 0.007812
vt 0.992188 0.007812
vt 0.992188 0.992188
vt 0.007812 0.992188
s 0
usemtl tree11
f 1/1/1 2/2/1 4/3/1 3/4/1
f 5/1/2 6/2/2 8/3/2 7/4/2
f 9/1/3 11/4/3 12/3/3 10/2/3
f 13/1/4 15/4/4 16/3/4 14/2/4
o tree011_trunk
v -0.002929 -0.110000 0.087071
v -0.036410 0.880000 0.081164
v -0.102929 -0.110000 0.087071
v -0.083421 0.876005 0.080994
v -0.002929 -0.110000 -0.012929
v -0.036579 0.883995 0.034153
v -0.102929 -0.110000 -0.012929
v -0.083590 0.880000 0.033983
v -0.039240 1.352002 0.065098
v -0.022464 0.440000 0.080967
v -0.090364 0.437629 0.080866
v -0.090464 0.440000 0.012967
v -0.022565 0.442371 0.013068
vn 0.5876 -0.5652 0.5791
vn 0.6991 0.0263 0.7146
vn -0.5840 -0.5681 0.5798
vn -0.7096 0.0473 0.7030
vn 0.5858 -0.5557 -0.5900
vn 0.7005 0.0537 -0.7116
vn -0.5821 -0.5591 -0.5904
vn -0.7144 0.0786 -0.6953
vn 0.0435 0.9989 0.0162
vn 0.7071 0.0277 0.7066
vn -0.7073 0.0176 0.7067
vn -0.7066 0.0471 -0.7061
vn 0.7055 0.0572 -0.7064
vt 0.084521 0.155289
vt 0.085727 0.086506
vt 0.095268 0.087410
vt 0.096137 0.155808
vt 0.065480 0.155546
vt 0.073890 0.086351
vt 0.083315 0.084618
vt 0.077006 0.154016
vt 0.098653 0.155541
vt 0.100300 0.088075
vt 0.109849 0.087263
vt 0.110273 0.155135
vt 0.037143 0.154091
vt 0.030842 0.084509
vt 0.040267 0.086242
vt 0.048669 0.155621
vt 0.124388 0.038691
vt 0.110697 0.038691
vt 0.110697 0.025000
vt 0.124388 0.025000
vt 0.057071 0.025000
vt 0.099094 0.025000
vt 0.097006 0.025000
vt 0.043444 0.223672
vt 0.057071 0.225000
vt 0.097006 0.223007
vt 0.110697 0.223007
vt 0.057071 0.224741
vt 0.070697 0.223413
vt 0.083315 0.224072
vt 0.097006 0.224206
s 1
usemtl tree11
f 26/5/14 18/6/6 20/7/8 27/8/15
f 27/9/15 20/10/8 24/11/12 28/12/16
f 28/13/16 24/14/12 22/15/10 29/16/17
f 29/17/17 22/18/10 18/19/6 26/20/14
f 19/21/7 23/22/11 21/23/9 17/24/5
f 18/19/6 22/18/10 25/25/13
f 24/11/12 20/10/8 25/25/13
f 22/15/10 24/14/12 25/26/13
f 20/7/8 18/6/6 25/27/13
f 21/28/9 29/17/17 26/20/14 17/29/5
f 23/30/11 28/13/16 29/16/17 21/31/9
f 19/32/7 27/9/15 28/12/16 23/33/11
f 17/34/5 26/5/14 27/8/15 19/35/7
