# Blender 5.1.2
# www.blender.org
mtllib tree039.mtl
o tree039
v 0.007071 0.000000 2.007071
v 0.007071 0.000000 -1.992929
v 0.507071 4.993049 2.007071
v 0.507071 4.993049 -1.992929
v 1.967071 0.000000 -0.002929
v -2.002929 0.000000 -0.002929
v 1.967071 4.991997 0.597127
v -2.002929 4.991997 0.597127
v 1.967071 0.000000 0.017071
v -2.002929 0.000000 0.017071
v 1.967071 4.994101 0.617016
v -2.002929 4.994101 0.617015
v -0.012929 0.000000 2.007071
v -0.012929 0.000000 -1.992929
v 0.487071 4.993049 2.007071
v 0.487071 4.993049 -1.992929
v 0.087071 2.496524 2.007071
v 0.087071 2.496524 -1.992929
v 0.107071 2.496524 2.007071
v 0.107071 2.496524 -1.992929
v 1.967071 2.496525 0.117071
v -2.002929 2.496524 0.117071
v 1.967071 2.496525 0.097071
v -2.002929 2.496524 0.097071
v -2.002929 1.248262 -0.022929
v 1.967071 1.248262 -0.022929
v -0.022929 1.248262 2.007071
v -0.022929 1.248262 -1.992929
v -0.042929 1.248262 -1.992929
v -0.042929 1.248262 2.007071
v -2.002929 1.248262 -0.042929
v 1.967071 1.248262 -0.042929
vn 0.9874 -0.1582 -0.0000
vn -0.0000 0.1965 -0.9805
vn -0.0000 -0.1963 0.9805
vn -0.9874 0.1582 -0.0000
vn -0.9946 0.1036 -0.0000
vn 0.9946 -0.1036 -0.0000
vn -0.0000 -0.1115 0.9938
vn -0.0000 0.1115 -0.9938
vn -0.0000 0.0320 0.9995
vn 0.9997 0.0240 -0.0000
vn -0.9997 -0.0240 -0.0000
vn -0.0000 -0.0320 -0.9995
vt 0.007812 0.500000
vt 0.992188 0.500000
vt 0.992188 0.992188
vt 0.007812 0.992188
vt 0.007812 0.253906
vt 0.992188 0.253906
vt 0.007812 0.007812
vt 0.992188 0.007812
s 0
usemtl tree39
f 19/1/1 20/2/1 4/3/1 3/4/1
f 23/1/2 24/2/2 8/3/2 7/4/2
f 21/1/3 11/4/3 12/3/3 22/2/3
f 17/1/4 15/4/4 16/3/4 18/2/4
f 30/5/5 17/1/5 18/2/5 29/6/5
f 27/5/6 28/6/6 20/2/6 19/1/6
f 26/5/7 21/1/7 22/2/7 25/6/7
f 32/5/8 31/6/8 24/2/8 23/1/8
f 9/7/9 26/5/9 25/6/9 10/8/9
f 1/7/10 2/8/10 28/6/10 27/5/10
f 13/7/11 30/5/11 29/6/11 14/8/11
f 5/7/12 6/8/12 31/6/12 32/5/12
o tree039_trunk
v 0.013048 -0.100000 0.095475
v 0.058000 2.030000 0.084569
v -0.135475 -0.100000 0.095475
v 0.002201 2.025258 0.084367
v 0.013048 -0.100000 -0.053048
v 0.057799 2.034741 0.028770
v -0.135475 -0.100000 -0.053048
v 0.002000 2.030000 0.028569
v 0.116618 2.452002 0.177230
v 0.050127 0.460000 0.064270
v -0.057039 0.456258 0.064111
v -0.057198 0.460000 -0.043056
v 0.049968 0.463742 -0.042897
v -0.005362 1.519000 0.009484
v -0.076571 1.514558 0.009295
v -0.076760 1.519000 -0.061914
v -0.005550 1.523442 -0.061725
vn 0.5537 -0.5790 0.5985
vn 0.7081 -0.2195 0.6711
vn -0.6160 -0.5248 0.5875
vn -0.7124 0.0291 0.7011
vn 0.5554 -0.5889 -0.5871
vn 0.6828 0.1098 -0.7224
vn -0.6190 -0.5352 -0.5748
vn -0.6833 0.3040 -0.6639
vn 0.1923 0.9438 0.2689
vn 0.7198 0.0301 0.6936
vn -0.6866 0.0835 0.7223
vn -0.6915 0.0416 -0.7211
vn 0.7242 -0.0042 -0.6896
vn 0.7116 -0.0617 0.6999
vn -0.7436 0.0228 0.6682
vn -0.7052 0.0963 -0.7024
vn 0.6621 0.0412 -0.7482
vt 0.085365 0.107141
vt 0.085727 0.086506
vt 0.095268 0.087410
vt 0.095528 0.107929
vt 0.071367 0.107110
vt 0.073890 0.086351
vt 0.083315 0.084618
vt 0.081423 0.105437
vt 0.099806 0.108315
vt 0.100300 0.088075
vt 0.109849 0.087263
vt 0.109976 0.107624
vt 0.032732 0.105383
vt 0.030842 0.084509
vt 0.040267 0.086242
vt 0.042788 0.107056
vt 0.124388 0.038691
vt 0.110697 0.038691
vt 0.110697 0.025000
vt 0.124388 0.025000
vt 0.057071 0.025000
vt 0.099094 0.025000
vt 0.097006 0.025000
vt 0.043444 0.223672
vt 0.037143 0.154091
vt 0.048669 0.155621
vt 0.057071 0.225000
vt 0.097006 0.223007
vt 0.098653 0.155541
vt 0.110273 0.155135
vt 0.110697 0.223007
vt 0.057071 0.224741
vt 0.065480 0.155546
vt 0.077006 0.154016
vt 0.070697 0.223413
vt 0.083315 0.224072
vt 0.084521 0.155289
vt 0.096137 0.155808
vt 0.097006 0.224206
s 1
usemtl tree39
f 46/9/26 34/10/14 36/11/16 47/12/27
f 47/13/27 36/14/16 40/15/20 48/16/28
f 48/17/28 40/18/20 38/19/18 49/20/29
f 49/21/29 38/22/18 34/23/14 46/24/26
f 35/25/15 39/26/19 37/27/17 33/28/13
f 34/23/14 38/22/18 41/29/21
f 40/15/20 36/14/16 41/29/21
f 38/19/18 40/18/20 41/30/21
f 36/11/16 34/10/14 41/31/21
f 37/32/17 45/33/25 42/34/22 33/35/13
f 39/36/19 44/37/24 45/38/25 37/39/17
f 35/40/15 43/41/23 44/42/24 39/43/19
f 33/44/13 42/45/22 43/46/23 35/47/15
f 45/33/25 49/21/29 46/24/26 42/34/22
f 44/37/24 48/17/28 49/20/29 45/38/25
f 43/41/23 47/13/27 48/16/28 44/42/24
f 42/45/22 46/9/26 47/12/27 43/46/23
