# Blender 5.1.2
# www.blender.org
mtllib tree105.mtl
o tree105
v -1.369666 0.000000 1.388051
v 1.388051 0.000000 -1.369666
v -1.369666 3.900000 1.388051
v 1.388051 3.900000 -1.369666
v 1.388051 0.000000 1.369666
v -1.369666 0.000000 -1.388051
v 1.388051 3.900000 1.369666
v -1.369666 3.900000 -1.388051
v 1.369666 0.000000 1.388051
v -1.388051 0.000000 -1.369666
v 1.369666 3.900000 1.388051
v -1.388051 3.900000 -1.369666
v -1.388051 0.000000 1.369666
v 1.369666 0.000000 -1.388051
v -1.388051 3.900000 1.369666
v 1.369666 3.900000 -1.388051
vn 0.7071 -0.0000 0.7071
vn 0.7071 -0.0000 -0.7071
vn -0.7071 -0.0000 0.7071
vn -0.7071 -0.0000 -0.7071
vt 0.007812 0.007812
vt 0.992188 0.007812
vt 0.992188 0.992188
vt 0.007812 0.992188
s 0
usemtl tree105
f 1/1/1 2/2/1 4/3/1 3/4/1
f 5/1/2 6/2/2 8/3/2 7/4/2
f 9/1/3 11/4/3 12/3/3 10/2/3
f 13/1/4 15/4/4 16/3/4 14/2/4
o tree105_trunk
v 0.123804 -0.100000 0.170020
v 0.575043 1.347432 0.396741
v -0.106361 -0.100000 0.170020
v -0.400730 1.292395 0.395189
v 0.123804 -0.100000 -0.060144
v 0.573491 1.402471 -0.579032
v -0.106361 -0.100000 -0.060144
v -0.402283 1.347432 -0.580584
v -0.071978 1.662002 0.013781
v 0.094755 0.337955 0.138119
v -0.118075 0.399361 0.129059
v -0.127135 0.337955 -0.083771
v 0.085695 0.276549 -0.074711
v 0.250561 0.842694 0.183092
v -0.312888 0.845713 0.178061
v -0.317919 0.842694 -0.385388
v 0.262036 0.750973 -0.396863
vn 0.5996 -0.5413 0.5894
vn 0.7139 0.2072 0.6689
vn -0.5623 -0.5600 0.6085
vn -0.6601 0.1845 0.7282
vn 0.6043 -0.5615 -0.5653
vn 0.7011 0.2879 -0.6524
vn -0.5684 -0.6032 -0.5596
vn -0.6465 0.2992 -0.7018
vn -0.1732 0.9767 0.1267
vn 0.6565 -0.1026 0.7473
vn -0.6536 -0.1762 0.7361
vn -0.7280 -0.3794 -0.5710
vn 0.6970 -0.2797 -0.6603
vn 0.5983 -0.4695 0.6493
vn -0.7142 -0.3680 0.5954
vn -0.6779 -0.4273 -0.5982
vn 0.5363 -0.5557 -0.6353
vt 0.085124 0.120897
vt 0.085727 0.086506
vt 0.095268 0.087410
vt 0.095702 0.121609
vt 0.069685 0.120949
vt 0.073890 0.086351
vt 0.083315 0.084618
vt 0.080161 0.119317
vt 0.099476 0.121808
vt 0.100300 0.088075
vt 0.109849 0.087263
vt 0.110061 0.121199
vt 0.033992 0.119300
vt 0.030842 0.084509
vt 0.040267 0.086242
vt 0.044468 0.120932
vt 0.124388 0.038691
vt 0.110697 0.038691
vt 0.110697 0.025000
vt 0.124388 0.025000
vt 0.057071 0.025000
vt 0.099094 0.025000
vt 0.097006 0.025000
vt 0.043444 0.223672
vt 0.037143 0.154091
vt 0.048669 0.155621
vt 0.057071 0.225000
vt 0.097006 0.223007
vt 0.098653 0.155541
vt 0.110273 0.155135
vt 0.110697 0.223007
vt 0.057071 0.224741
vt 0.065480 0.155546
vt 0.077006 0.154016
vt 0.070697 0.223413
vt 0.083315 0.224072
vt 0.084521 0.155289
vt 0.096137 0.155808
vt 0.097006 0.224206
s 1
usemtl tree105
f 30/5/18 18/6/6 20/7/8 31/8/19
f 31/9/19 20/10/8 24/11/12 32/12/20
f 32/13/20 24/14/12 22/15/10 33/16/21
f 33/17/21 22/18/10 18/19/6 30/20/18
f 19/21/7 23/22/11 21/23/9 17/24/5
f 18/19/6 22/18/10 25/25/13
f 24/11/12 20/10/8 25/25/13
f 22/15/10 24/14/12 25/26/13
f 20/7/8 18/6/6 25/27/13
f 21/28/9 29/29/17 26/30/14 17/31/5
f 23/32/11 28/33/16 29/34/17 21/35/9
f 19/36/7 27/37/15 28/38/16 23/39/11
f 17/40/5 26/41/14 27/42/15 19/43/7
f 29/29/17 33/17/21 30/20/18 26/30/14
f 28/33/16 32/13/20 33/16/21 29/34/17
f 27/37/15 31/9/19 32/12/20 28/38/16
f 26/41/14 30/5/18 31/8/19 27/42/15
