# Blender 5.1.2
# www.blender.org
mtllib tree084.mtl
o tree084
v -0.818123 0.000000 0.836508
v 1.571899 0.000000 -1.553514
v -0.818123 3.250000 0.836508
v 1.571899 3.250000 -1.553514
v 0.836508 0.000000 0.818123
v -1.553514 0.000000 -1.571899
v 0.836508 3.250000 0.818123
v -1.553514 3.250000 -1.571899
v 0.818123 0.000000 0.836508
v -1.571898 0.000000 -1.553514
v 0.818123 3.250000 0.836508
v -1.571898 3.250000 -1.553514
v -0.836508 0.000000 0.818123
v 1.553514 0.000000 -1.571898
v -0.836508 3.250000 0.818123
v 1.553514 3.250000 -1.571898
v -0.836508 0.162500 0.818123
v 1.553514 0.162500 -1.571898
v -0.818123 0.162500 0.836508
v 1.571899 0.162500 -1.553514
v -1.112279 0.625625 0.542351
v 1.277742 0.625625 -1.847670
v 1.296127 0.625625 -1.829285
v -1.093894 0.625625 0.560736
v 0.818123 0.162500 0.836508
v -1.571898 0.162500 -1.553514
v 0.836508 0.162500 0.818123
v -1.553514 0.162500 -1.571899
v 1.093894 0.625625 0.560736
v -1.296127 0.625625 -1.829286
v 1.112279 0.625625 0.542351
v -1.277742 0.625625 -1.847670
vn 0.6994 -0.1470 0.6994
vn 0.6994 0.1470 -0.6994
vn -0.6994 -0.1470 0.6994
vn -0.6994 0.1470 -0.6994
vn -0.7071 -0.0000 -0.7071
vn 0.7071 -0.0000 0.7071
vn -0.5409 -0.6441 -0.5409
vn 0.5409 0.6441 0.5409
vn -0.7071 -0.0000 0.7071
vn 0.7071 -0.0000 -0.7071
vn -0.5409 0.6441 0.5409
vn 0.5409 -0.6441 -0.5409
vt 0.007812 0.195312
vt 0.992188 0.195312
vt 0.992188 0.992188
vt 0.007812 0.992188
vt 0.007812 0.007812
vt 0.007812 0.046875
vt 0.992188 0.054688
vt 0.992188 0.007812
s 0
usemtl tree84
f 24/1/1 23/2/1 4/3/1 3/4/1
f 31/1/2 32/2/2 8/3/2 7/4/2
f 29/1/3 11/4/3 12/3/3 30/2/3
f 21/1/4 15/4/4 16/3/4 22/2/4
f 13/5/5 17/6/5 18/7/5 14/8/5
f 1/5/6 2/8/6 20/7/6 19/6/6
f 17/6/7 21/1/7 22/2/7 18/7/7
f 19/6/8 20/7/8 23/2/8 24/1/8
f 9/5/9 25/6/9 26/7/9 10/8/9
f 5/5/10 6/8/10 28/7/10 27/6/10
f 25/6/11 29/1/11 30/2/11 26/7/11
f 27/6/12 28/7/12 32/2/12 31/1/12
o tree084_trunk
v 0.057071 -0.100000 0.057071
v 0.026063 1.242455 -0.452208
v -0.042929 -0.100000 0.057071
v -0.029736 1.237714 -0.452410
v 0.057071 -0.100000 -0.042929
v 0.025862 1.247197 -0.508007
v -0.042929 -0.100000 -0.042929
v -0.029937 1.242455 -0.508208
v -0.015950 1.692137 -0.286624
v 0.040150 0.450000 -0.282960
v -0.020559 0.479618 -0.290251
v -0.027850 0.450000 -0.350960
v 0.032859 0.420382 -0.343669
v -0.040461 0.189809 0.037412
v -0.044107 0.175000 -0.042942
v 0.036248 0.160191 -0.039297
v 0.039893 0.175000 0.041058
v 0.039887 0.624326 -0.465409
v -0.018367 0.636764 -0.469156
v -0.022113 0.624326 -0.527409
v 0.036140 0.611888 -0.523663
vn 0.5951 -0.5487 0.5872
vn 0.7601 -0.0825 0.6446
vn -0.5764 -0.5546 0.6001
vn -0.7449 -0.1109 0.6579
vn 0.6005 -0.5499 -0.5805
vn 0.6595 0.2136 -0.7207
vn -0.5746 -0.5807 -0.5767
vn -0.6723 0.1749 -0.7193
vn -0.0289 0.9186 0.3940
vn 0.8049 0.4437 0.3940
vn -0.5872 0.6168 0.5241
vn -0.7941 -0.4222 -0.4373
vn 0.5893 -0.5910 -0.5509
vn -0.5786 0.4006 0.7104
vn -0.8573 -0.1985 -0.4750
vn 0.7731 -0.2132 -0.5974
vn 0.6611 0.3126 0.6821
vn 0.8569 0.2249 0.4639
vn -0.7715 0.2292 0.5935
vn -0.6655 -0.2245 -0.7118
vn 0.5784 -0.3339 -0.7443
vt 0.085124 0.120897
vt 0.085727 0.086506
vt 0.095268 0.087410
vt 0.095702 0.121609
vt 0.069685 0.120949
vt 0.073890 0.086351
vt 0.083315 0.084618
vt 0.080161 0.119317
vt 0.099476 0.121808
vt 0.100300 0.088075
vt 0.109849 0.087263
vt 0.110061 0.121199
vt 0.033992 0.119300
vt 0.030842 0.084509
vt 0.040267 0.086242
vt 0.044468 0.120932
vt 0.124388 0.038691
vt 0.110697 0.038691
vt 0.110697 0.025000
vt 0.124388 0.025000
vt 0.057071 0.025000
vt 0.099094 0.025000
vt 0.097006 0.025000
vt 0.040293 0.188881
vt 0.037143 0.154091
vt 0.048669 0.155621
vt 0.052870 0.190311
vt 0.097829 0.189274
vt 0.098653 0.155541
vt 0.110273 0.155135
vt 0.110485 0.189071
vt 0.061275 0.190143
vt 0.065480 0.155546
vt 0.077006 0.154016
vt 0.073852 0.188714
vt 0.083918 0.189680
vt 0.084521 0.155289
vt 0.096137 0.155808
vt 0.096571 0.190007
vt 0.083315 0.224072
vt 0.097006 0.224206
vt 0.057071 0.224741
vt 0.070697 0.223413
vt 0.097006 0.223007
vt 0.110697 0.223007
vt 0.043444 0.223672
vt 0.057071 0.225000
s 1
usemtl tree84
f 50/9/30 34/10/14 36/11/16 51/12/31
f 51/13/31 36/14/16 40/15/20 52/16/32
f 52/17/32 40/18/20 38/19/18 53/20/33
f 53/21/33 38/22/18 34/23/14 50/24/30
f 35/25/15 39/26/19 37/27/17 33/28/13
f 34/23/14 38/22/18 41/29/21
f 40/15/20 36/14/16 41/29/21
f 38/19/18 40/18/20 41/30/21
f 36/11/16 34/10/14 41/31/21
f 48/32/28 45/33/25 42/34/22 49/35/29
f 47/36/27 44/37/24 45/38/25 48/39/28
f 46/40/26 43/41/23 44/42/24 47/43/27
f 49/44/29 42/45/22 43/46/23 46/47/26
f 33/48/13 49/44/29 46/47/26 35/49/15
f 35/50/15 46/40/26 47/43/27 39/51/19
f 39/52/19 47/36/27 48/39/28 37/53/17
f 37/54/17 48/32/28 49/35/29 33/55/13
f 45/33/25 53/21/33 50/24/30 42/34/22
f 44/37/24 52/17/32 53/20/33 45/38/25
f 43/41/23 51/13/31 52/16/32 44/42/24
f 42/45/22 50/9/30 51/12/31 43/46/23
