# Blender 5.1.2
# www.blender.org
mtllib tree015.mtl
o tree015
v -1.350574 0.000000 1.407142
v 0.770746 0.000000 -0.714178
v -1.350574 3.000000 1.407143
v 0.770746 3.000000 -0.714178
v 1.371787 0.000000 1.357645
v -0.749533 0.000000 -0.763675
v 1.371787 3.000000 1.357645
v -0.749533 3.000000 -0.763675
v 1.357645 0.000000 1.371787
v -0.763675 0.000000 -0.749533
v 1.357645 3.000000 1.371787
v -0.763675 3.000000 -0.749533
v -1.364716 0.000000 1.393000
v 0.756604 0.000000 -0.728320
v -1.364716 3.000000 1.393000
v 0.756604 3.000000 -0.728320
vn 0.7071 -0.0000 0.7071
vn 0.7071 -0.0000 -0.7071
vn -0.7071 -0.0000 0.7071
vn -0.7071 -0.0000 -0.7071
vt 0.007812 0.007812
vt 0.992188 0.007812
vt 0.992188 0.992188
vt 0.007812 0.992188
s 0
usemtl tree15
f 1/1/1 2/2/1 4/3/1 3/4/1
f 5/1/2 6/2/2 8/3/2 7/4/2
f 9/1/3 11/4/3 12/3/3 10/2/3
f 13/1/4 15/4/4 16/3/4 14/2/4
o tree015_trunk
v 0.062929 -0.100000 0.062929
v 0.015605 0.620000 0.015605
v -0.077071 -0.100000 0.062929
v -0.043580 0.626055 0.015295
v 0.062929 -0.100000 -0.077071
v 0.015295 0.613945 -0.043580
v -0.077071 -0.100000 -0.077071
v -0.043889 0.620000 -0.043889
v -0.028737 1.162002 -0.084400
v 0.033223 0.295000 0.084135
v -0.066330 0.292013 0.084008
v -0.066457 0.295000 -0.015545
v 0.033096 0.297987 -0.015418
vn 0.6038 -0.5701 0.5571
vn 0.7121 0.1824 0.6780
vn -0.5887 -0.5836 0.5593
vn -0.6971 0.1715 0.6961
vn 0.5910 -0.5171 -0.6191
vn 0.7053 -0.0106 -0.7088
vn -0.5782 -0.5283 -0.6218
vn -0.7025 -0.0236 -0.7113
vn -0.0262 0.9914 -0.1284
vn 0.6742 0.0978 0.7321
vn -0.6815 0.0822 0.7272
vn -0.7387 0.0617 -0.6712
vn 0.7303 0.0717 -0.6793
vt 0.073668 0.064114
vt 0.149329 0.065441
vt 0.148425 0.074981
vt 0.073187 0.075937
vt 0.073370 0.044353
vt 0.149484 0.053603
vt 0.151217 0.063029
vt 0.074880 0.056089
vt 0.073548 0.078202
vt 0.147761 0.080013
vt 0.148573 0.089563
vt 0.073913 0.090029
vt 0.074787 0.017487
vt 0.151327 0.010556
vt 0.149593 0.019981
vt 0.073276 0.029223
vt 0.197144 0.104101
vt 0.197144 0.090410
vt 0.210835 0.090410
vt 0.210835 0.104101
vt 0.210835 0.036784
vt 0.210835 0.078808
vt 0.210835 0.076720
vt 0.012163 0.023158
vt 0.010835 0.036784
vt 0.012828 0.076720
vt 0.012828 0.090410
vt 0.011095 0.036784
vt 0.012422 0.050411
vt 0.011764 0.063029
vt 0.011629 0.076720
s 1
usemtl tree15
f 26/5/14 18/6/6 20/7/8 27/8/15
f 27/9/15 20/10/8 24/11/12 28/12/16
f 28/13/16 24/14/12 22/15/10 29/16/17
f 29/17/17 22/18/10 18/19/6 26/20/14
f 19/21/7 23/22/11 21/23/9 17/24/5
f 18/19/6 22/18/10 25/25/13
f 24/11/12 20/10/8 25/25/13
f 22/15/10 24/14/12 25/26/13
f 20/7/8 18/6/6 25/27/13
f 21/28/9 29/17/17 26/20/14 17/29/5
f 23/30/11 28/13/16 29/16/17 21/31/9
f 19/32/7 27/9/15 28/12/16 23/33/11
f 17/34/5 26/5/14 27/8/15 19/35/7
