# Blender 5.1.2
# www.blender.org
mtllib tree083.mtl
o tree083
v -1.047933 0.000000 1.066317
v 1.342089 0.000000 -1.323704
v -1.047933 3.250000 1.066317
v 1.342089 3.250000 -1.323704
v 1.066317 0.000000 1.047933
v -1.323704 0.000000 -1.342089
v 1.066317 3.250000 1.047933
v -1.323704 3.250000 -1.342089
v 1.047933 0.000000 1.066317
v -1.342089 0.000000 -1.323704
v 1.047933 3.250000 1.066317
v -1.342089 3.250000 -1.323704
v -1.066317 0.000000 1.047933
v 1.323704 0.000000 -1.342089
v -1.066317 3.250000 1.047933
v 1.323704 3.250000 -1.342089
vn 0.7071 -0.0000 0.7071
vn 0.7071 -0.0000 -0.7071
vn -0.7071 -0.0000 0.7071
vn -0.7071 -0.0000 -0.7071
vt 0.007812 0.007812
vt 0.992188 0.007812
vt 0.992188 0.992188
vt 0.007812 0.992188
s 0
usemtl tree83
f 1/1/1 2/2/1 4/3/1 3/4/1
f 5/1/2 6/2/2 8/3/2 7/4/2
f 9/1/3 11/4/3 12/3/3 10/2/3
f 13/1/4 15/4/4 16/3/4 14/2/4
o tree083_trunk
v 0.089963 -0.100000 0.089963
v 0.253636 1.021102 0.051367
v -0.042929 -0.100000 0.057071
v -0.231799 0.979852 0.049614
v 0.057071 -0.100000 -0.042929
v 0.251883 1.062352 -0.434067
v -0.075820 -0.100000 -0.075821
v -0.233551 1.021102 -0.435820
v 0.000379 1.162002 -0.196705
v 0.135517 0.382936 0.136296
v -0.153318 0.372852 0.135868
v -0.153746 0.382936 -0.152967
v 0.135089 0.393021 -0.152539
vn 0.5798 -0.5769 0.5753
vn 0.6687 0.4404 0.5990
vn -0.4831 -0.7145 0.5061
vn -0.6866 0.4089 0.6011
vn 0.5090 -0.7107 -0.4857
vn 0.6331 0.3601 -0.6853
vn -0.5540 -0.6158 -0.5603
vn -0.6477 0.2952 -0.7024
vn -0.0813 0.9949 0.0600
vn 0.6658 -0.0973 0.7398
vn -0.6816 -0.0969 0.7253
vn -0.7064 -0.3217 -0.6304
vn 0.7057 -0.3066 -0.6387
vt 0.084521 0.155289
vt 0.085727 0.086506
vt 0.095268 0.087410
vt 0.096137 0.155808
vt 0.065480 0.155546
vt 0.073890 0.086351
vt 0.083315 0.084618
vt 0.077006 0.154016
vt 0.098653 0.155541
vt 0.100300 0.088075
vt 0.109849 0.087263
vt 0.110273 0.155135
vt 0.037143 0.154091
vt 0.030842 0.084509
vt 0.040267 0.086242
vt 0.048669 0.155621
vt 0.124388 0.038691
vt 0.110697 0.038691
vt 0.110697 0.025000
vt 0.124388 0.025000
vt 0.057071 0.025000
vt 0.099094 0.025000
vt 0.097006 0.025000
vt 0.043444 0.223672
vt 0.057071 0.225000
vt 0.097006 0.223007
vt 0.110697 0.223007
vt 0.057071 0.224741
vt 0.070697 0.223413
vt 0.083315 0.224072
vt 0.097006 0.224206
s 1
usemtl tree83
f 26/5/14 18/6/6 20/7/8 27/8/15
f 27/9/15 20/10/8 24/11/12 28/12/16
f 28/13/16 24/14/12 22/15/10 29/16/17
f 29/17/17 22/18/10 18/19/6 26/20/14
f 19/21/7 23/22/11 21/23/9 17/24/5
f 18/19/6 22/18/10 25/25/13
f 24/11/12 20/10/8 25/25/13
f 22/15/10 24/14/12 25/26/13
f 20/7/8 18/6/6 25/27/13
f 21/28/9 29/17/17 26/20/14 17/29/5
f 23/30/11 28/13/16 29/16/17 21/31/9
f 19/32/7 27/9/15 28/12/16 23/33/11
f 17/34/5 26/5/14 27/8/15 19/35/7
