# Blender 5.1.2
# www.blender.org
mtllib tree059.mtl
o tree059
v -1.141695 0.000000 1.174787
v 1.174787 0.000000 -1.141695
v -1.141695 4.914000 1.174787
v 1.174787 4.914000 -1.141695
v 1.174787 0.000000 1.141695
v -1.141695 0.000000 -1.174787
v 1.174787 4.914000 1.141695
v -1.141695 4.914000 -1.174787
v 1.141695 0.000000 1.174787
v -1.174787 0.000000 -1.141695
v 1.141695 4.914000 1.174787
v -1.174787 4.914000 -1.141695
v -1.174787 0.000000 1.141695
v 1.141695 0.000000 -1.174787
v -1.174787 4.914000 1.141695
v 1.141695 4.914000 -1.174787
vn 0.7071 -0.0000 0.7071
vn 0.7071 -0.0000 -0.7071
vn -0.7071 -0.0000 0.7071
vn -0.7071 -0.0000 -0.7071
vt 0.125000 0.007812
vt 0.875000 0.007812
vt 0.875000 0.992188
vt 0.125000 0.992188
s 0
usemtl tree59
f 1/1/1 2/2/1 4/3/1 3/4/1
f 5/1/2 6/2/2 8/3/2 7/4/2
f 9/1/3 11/4/3 12/3/3 10/2/3
f 13/1/4 15/4/4 16/3/4 14/2/4
o tree059_trunk
v 0.087071 -0.100000 0.128492
v 0.042142 1.100000 0.083564
v -0.072929 -0.100000 0.128492
v -0.013656 1.095258 0.083362
v 0.087071 -0.100000 -0.031508
v 0.041941 1.104741 0.027765
v -0.072929 -0.100000 -0.031508
v -0.013858 1.100000 0.027564
v -0.000453 1.662002 0.056017
v 0.054536 0.450000 0.095957
v -0.047313 0.446444 0.095806
v -0.047465 0.450000 -0.006043
v 0.054384 0.453556 -0.005892
vn 0.5917 -0.5465 0.5927
vn 0.7066 0.0563 0.7054
vn -0.5887 -0.5491 0.5932
vn -0.6997 0.0501 0.7127
vn 0.5930 -0.5497 -0.5883
vn 0.7119 0.0700 -0.6988
vn -0.5894 -0.5532 -0.5887
vn -0.7050 0.0627 -0.7064
vn -0.0261 0.9997 0.0011
vn 0.7053 0.0561 0.7067
vn -0.7104 0.0630 0.7009
vn -0.7066 0.0692 -0.7042
vn 0.7005 0.0623 -0.7110
vt 0.084521 0.155289
vt 0.085727 0.086506
vt 0.095268 0.087410
vt 0.096137 0.155808
vt 0.065480 0.155546
vt 0.073890 0.086351
vt 0.083315 0.084618
vt 0.077006 0.154016
vt 0.098653 0.155541
vt 0.100300 0.088075
vt 0.109849 0.087263
vt 0.110273 0.155135
vt 0.037143 0.154091
vt 0.030842 0.084509
vt 0.040267 0.086242
vt 0.048669 0.155621
vt 0.124388 0.038691
vt 0.110697 0.038691
vt 0.110697 0.025000
vt 0.124388 0.025000
vt 0.057071 0.025000
vt 0.099094 0.025000
vt 0.097006 0.025000
vt 0.043444 0.223672
vt 0.057071 0.225000
vt 0.097006 0.223007
vt 0.110697 0.223007
vt 0.057071 0.224741
vt 0.070697 0.223413
vt 0.083315 0.224072
vt 0.097006 0.224206
s 1
usemtl tree59
f 26/5/14 18/6/6 20/7/8 27/8/15
f 27/9/15 20/10/8 24/11/12 28/12/16
f 28/13/16 24/14/12 22/15/10 29/16/17
f 29/17/17 22/18/10 18/19/6 26/20/14
f 19/21/7 23/22/11 21/23/9 17/24/5
f 18/19/6 22/18/10 25/25/13
f 24/11/12 20/10/8 25/25/13
f 22/15/10 24/14/12 25/26/13
f 20/7/8 18/6/6 25/27/13
f 21/28/9 29/17/17 26/20/14 17/29/5
f 23/30/11 28/13/16 29/16/17 21/31/9
f 19/32/7 27/9/15 28/12/16 23/33/11
f 17/34/5 26/5/14 27/8/15 19/35/7
