# Blender 5.1.2
# www.blender.org
mtllib tree025.mtl
o tree025
v -1.053589 0.000000 1.067731
v 1.067731 0.000000 -1.053589
v -0.912168 3.000000 1.209153
v 1.209153 3.000000 -0.912168
v 1.046518 0.000000 1.032376
v -1.074802 0.000000 -1.088944
v 0.905097 3.000000 1.173797
v -1.216224 3.000000 -0.947523
v 1.032376 0.000000 1.046518
v -1.088944 0.000000 -1.074802
v 0.890955 3.000000 1.187939
v -1.230366 3.000000 -0.933381
v -1.067731 0.000000 1.053589
v 1.053589 0.000000 -1.067731
v -0.926310 3.000000 1.195010
v 1.195011 3.000000 -0.926310
vn 0.7055 -0.0665 0.7055
vn 0.7055 0.0665 -0.7055
vn -0.7055 -0.0665 0.7055
vn -0.7055 0.0665 -0.7055
vt 0.007812 0.007812
vt 0.992188 0.007812
vt 0.992188 0.992188
vt 0.007812 0.992188
s 0
usemtl tree25
f 1/1/1 2/2/1 4/3/1 3/4/1
f 5/1/2 6/2/2 8/3/2 7/4/2
f 9/1/3 11/4/3 12/3/3 10/2/3
f 13/1/4 15/4/4 16/3/4 14/2/4
o tree025_trunk
v 0.021716 -0.100000 0.021716
v 0.006787 1.090000 0.176492
v -0.078284 -0.100000 0.021716
v -0.049012 1.085258 0.176291
v 0.021716 -0.100000 -0.078284
v 0.006585 1.094741 0.120694
v -0.078284 -0.100000 -0.078284
v -0.049213 1.090000 0.120492
v -0.028737 1.422002 0.156017
v 0.002180 0.450000 0.058749
v -0.065719 0.447629 0.058648
v -0.065820 0.450000 -0.009251
v 0.002079 0.452371 -0.009151
v 0.011555 0.775000 0.082265
v -0.050294 0.771444 0.082114
v -0.050445 0.775000 0.020265
v 0.011403 0.778556 0.020416
vn 0.5925 -0.5846 0.5542
vn 0.6821 -0.0400 0.7301
vn -0.5880 -0.5882 0.5552
vn -0.6734 -0.0725 0.7357
vn 0.5812 -0.5348 -0.6134
vn 0.7310 0.1805 -0.6581
vn -0.5784 -0.5377 -0.6134
vn -0.7401 0.1649 -0.6519
vn -0.0232 0.9995 0.0232
vn 0.7013 -0.0479 0.7113
vn -0.7096 -0.0240 0.7041
vn -0.7134 0.1001 -0.6936
vn 0.7023 0.0796 -0.7074
vn 0.7409 -0.1280 0.6594
vn -0.7247 -0.1036 0.6813
vn -0.6813 0.1588 -0.7146
vn 0.6843 0.1414 -0.7154
vt 0.085124 0.120897
vt 0.085727 0.086506
vt 0.095268 0.087410
vt 0.095702 0.121609
vt 0.069685 0.120949
vt 0.073890 0.086351
vt 0.083315 0.084618
vt 0.080161 0.119317
vt 0.099476 0.121808
vt 0.100300 0.088075
vt 0.109849 0.087263
vt 0.110061 0.121199
vt 0.033992 0.119300
vt 0.030842 0.084509
vt 0.040267 0.086242
vt 0.044468 0.120932
vt 0.124388 0.038691
vt 0.110697 0.038691
vt 0.110697 0.025000
vt 0.124388 0.025000
vt 0.057071 0.025000
vt 0.099094 0.025000
vt 0.097006 0.025000
vt 0.043444 0.223672
vt 0.037143 0.154091
vt 0.048669 0.155621
vt 0.057071 0.225000
vt 0.097006 0.223007
vt 0.098653 0.155541
vt 0.110273 0.155135
vt 0.110697 0.223007
vt 0.057071 0.224741
vt 0.065480 0.155546
vt 0.077006 0.154016
vt 0.070697 0.223413
vt 0.083315 0.224072
vt 0.084521 0.155289
vt 0.096137 0.155808
vt 0.097006 0.224206
s 1
usemtl tree25
f 30/5/18 18/6/6 20/7/8 31/8/19
f 31/9/19 20/10/8 24/11/12 32/12/20
f 32/13/20 24/14/12 22/15/10 33/16/21
f 33/17/21 22/18/10 18/19/6 30/20/18
f 19/21/7 23/22/11 21/23/9 17/24/5
f 18/19/6 22/18/10 25/25/13
f 24/11/12 20/10/8 25/25/13
f 22/15/10 24/14/12 25/26/13
f 20/7/8 18/6/6 25/27/13
f 21/28/9 29/29/17 26/30/14 17/31/5
f 23/32/11 28/33/16 29/34/17 21/35/9
f 19/36/7 27/37/15 28/38/16 23/39/11
f 17/40/5 26/41/14 27/42/15 19/43/7
f 29/29/17 33/17/21 30/20/18 26/30/14
f 28/33/16 32/13/20 33/16/21 29/34/17
f 27/37/15 31/9/19 32/12/20 28/38/16
f 26/41/14 30/5/18 31/8/19 27/42/15
