# Blender 5.1.2
# www.blender.org
mtllib tree099.mtl
o tree099
v -1.277742 0.000000 1.296127
v 1.479975 0.000000 -1.461590
v -1.277742 3.900000 1.296127
v 1.479975 3.900000 -1.461590
v 1.296127 0.000000 1.277742
v -1.461590 0.000000 -1.479975
v 1.296127 3.900000 1.277742
v -1.461590 3.900000 -1.479975
v 1.277742 0.000000 1.296127
v -1.479974 0.000000 -1.461590
v 1.277742 3.900000 1.296127
v -1.479974 3.900000 -1.461590
v -1.296127 0.000000 1.277742
v 1.461590 0.000000 -1.479975
v -1.296127 3.900000 1.277742
v 1.461590 3.900000 -1.479975
vn 0.7071 -0.0000 0.7071
vn 0.7071 -0.0000 -0.7071
vn -0.7071 -0.0000 0.7071
vn -0.7071 -0.0000 -0.7071
vt 0.007812 0.007812
vt 0.992188 0.007812
vt 0.992188 0.992188
vt 0.007812 0.992188
s 0
usemtl tree99
f 1/1/1 2/2/1 4/3/1 3/4/1
f 5/1/2 6/2/2 8/3/2 7/4/2
f 9/1/3 11/4/3 12/3/3 10/2/3
f 13/1/4 15/4/4 16/3/4 14/2/4
o tree099_trunk
v 0.100976 -0.100000 0.100976
v 0.010174 1.100000 -0.029480
v -0.086834 -0.100000 0.100976
v -0.045625 1.095258 -0.029681
v 0.100976 -0.100000 -0.086834
v 0.009972 1.104741 -0.085278
v -0.086834 -0.100000 -0.086834
v -0.045826 1.100000 -0.085480
v -0.018279 1.662002 -0.071169
v 0.044329 0.450000 0.001863
v -0.023570 0.447629 0.001763
v -0.023671 0.450000 -0.066137
v 0.044229 0.452371 -0.066036
vn 0.5969 -0.5036 0.6246
vn 0.6990 0.0799 0.7106
vn -0.6015 -0.4998 0.6232
vn -0.7145 0.0443 0.6982
vn 0.6066 -0.5403 -0.5832
vn 0.7011 0.0350 -0.7122
vn -0.6103 -0.5370 -0.5823
vn -0.7106 0.0043 -0.7036
vn -0.0011 0.9997 -0.0240
vn 0.7095 0.1369 0.6913
vn -0.7032 0.1150 0.7016
vn -0.6965 0.0312 -0.7169
vn 0.7078 0.0580 -0.7041
vt 0.084521 0.155289
vt 0.085727 0.086506
vt 0.095268 0.087410
vt 0.096137 0.155808
vt 0.065480 0.155546
vt 0.073890 0.086351
vt 0.083315 0.084618
vt 0.077006 0.154016
vt 0.098653 0.155541
vt 0.100300 0.088075
vt 0.109849 0.087263
vt 0.110273 0.155135
vt 0.037143 0.154091
vt 0.030842 0.084509
vt 0.040267 0.086242
vt 0.048669 0.155621
vt 0.124388 0.038691
vt 0.110697 0.038691
vt 0.110697 0.025000
vt 0.124388 0.025000
vt 0.057071 0.025000
vt 0.099094 0.025000
vt 0.097006 0.025000
vt 0.043444 0.223672
vt 0.057071 0.225000
vt 0.097006 0.223007
vt 0.110697 0.223007
vt 0.057071 0.224741
vt 0.070697 0.223413
vt 0.083315 0.224072
vt 0.097006 0.224206
s 1
usemtl tree99
f 26/5/14 18/6/6 20/7/8 27/8/15
f 27/9/15 20/10/8 24/11/12 28/12/16
f 28/13/16 24/14/12 22/15/10 29/16/17
f 29/17/17 22/18/10 18/19/6 26/20/14
f 19/21/7 23/22/11 21/23/9 17/24/5
f 18/19/6 22/18/10 25/25/13
f 24/11/12 20/10/8 25/25/13
f 22/15/10 24/14/12 25/26/13
f 20/7/8 18/6/6 25/27/13
f 21/28/9 29/17/17 26/20/14 17/29/5
f 23/30/11 28/13/16 29/16/17 21/31/9
f 19/32/7 27/9/15 28/12/16 23/33/11
f 17/34/5 26/5/14 27/8/15 19/35/7
