# Blender 5.1.2
# www.blender.org
mtllib tree017.mtl
o tree017
v -1.053589 0.000000 1.053589
v 1.067731 0.000000 -1.067731
v -1.053589 3.000000 1.053589
v 1.067731 3.000000 -1.067731
v 1.032376 0.000000 1.074802
v -1.088944 0.000000 -1.046518
v 1.032376 3.000000 1.074802
v -1.088944 3.000000 -1.046518
v 1.018234 0.000000 1.088945
v -1.103087 0.000000 -1.032376
v 1.018234 3.000000 1.088944
v -1.103087 3.000000 -1.032376
v -1.067731 0.000000 1.039447
v 1.053589 0.000000 -1.081873
v -1.067731 3.000000 1.039447
v 1.053589 3.000000 -1.081873
vn 0.7071 -0.0000 0.7071
vn 0.7071 -0.0000 -0.7071
vn -0.7071 -0.0000 0.7071
vn -0.7071 -0.0000 -0.7071
vt 0.007812 0.007812
vt 0.992188 0.007812
vt 0.992188 0.992188
vt 0.007812 0.992188
s 0
usemtl tree17
f 1/1/1 2/2/1 4/3/1 3/4/1
f 5/1/2 6/2/2 8/3/2 7/4/2
f 9/1/3 11/4/3 12/3/3 10/2/3
f 13/1/4 15/4/4 16/3/4 14/2/4
o tree017_trunk
v 0.030000 -0.100000 0.030000
v 0.019600 0.540000 0.019600
v -0.030000 -0.100000 0.030000
v -0.019459 0.536681 0.019459
v 0.030000 -0.100000 -0.030000
v 0.019459 0.543319 -0.019459
v -0.030000 -0.100000 -0.030000
v -0.019600 0.540000 -0.019600
v 0.006618 0.742002 -0.133897
v 0.020264 0.250000 0.020265
v -0.027265 0.248340 0.020194
v -0.027336 0.250000 -0.027336
v 0.020194 0.251660 -0.027265
vn 0.5842 -0.5629 0.5847
vn 0.6341 0.2682 0.7252
vn -0.5785 -0.5676 0.5857
vn -0.6524 0.2555 0.7135
vn 0.5858 -0.5678 -0.5783
vn 0.7892 -0.1262 -0.6010
vn -0.5793 -0.5735 -0.5792
vn -0.7823 -0.0666 -0.6194
vn 0.0266 0.8355 -0.5488
vn 0.7067 0.0217 0.7072
vn -0.7117 0.0230 0.7021
vn -0.7075 0.0243 -0.7063
vn 0.7017 0.0228 -0.7121
vt 0.084521 0.155289
vt 0.085727 0.086506
vt 0.095268 0.087410
vt 0.096137 0.155808
vt 0.065480 0.155546
vt 0.073890 0.086351
vt 0.083315 0.084618
vt 0.077006 0.154016
vt 0.098653 0.155541
vt 0.100300 0.088075
vt 0.109849 0.087263
vt 0.110273 0.155135
vt 0.037143 0.154091
vt 0.030842 0.084509
vt 0.040267 0.086242
vt 0.048669 0.155621
vt 0.124388 0.038691
vt 0.110697 0.038691
vt 0.110697 0.025000
vt 0.124388 0.025000
vt 0.057071 0.025000
vt 0.099094 0.025000
vt 0.097006 0.025000
vt 0.043444 0.223672
vt 0.057071 0.225000
vt 0.097006 0.223007
vt 0.110697 0.223007
vt 0.057071 0.224741
vt 0.070697 0.223413
vt 0.083315 0.224072
vt 0.097006 0.224206
s 1
usemtl tree17
f 26/5/14 18/6/6 20/7/8 27/8/15
f 27/9/15 20/10/8 24/11/12 28/12/16
f 28/13/16 24/14/12 22/15/10 29/16/17
f 29/17/17 22/18/10 18/19/6 26/20/14
f 19/21/7 23/22/11 21/23/9 17/24/5
f 18/19/6 22/18/10 25/25/13
f 24/11/12 20/10/8 25/25/13
f 22/15/10 24/14/12 25/26/13
f 20/7/8 18/6/6 25/27/13
f 21/28/9 29/17/17 26/20/14 17/29/5
f 23/30/11 28/13/16 29/16/17 21/31/9
f 19/32/7 27/9/15 28/12/16 23/33/11
f 17/34/5 26/5/14 27/8/15 19/35/7
