# Blender 5.1.2
# www.blender.org
mtllib tree112.mtl
o tree112
v -1.415628 0.000000 1.434013
v 1.342089 0.000000 -1.323704
v -1.415628 3.900000 1.434013
v 1.342089 3.900000 -1.323704
v 1.434013 0.000000 1.415628
v -1.323704 0.000000 -1.342089
v 1.434013 3.900000 1.415628
v -1.323704 3.900000 -1.342089
v 1.415628 0.000000 1.434013
v -1.342089 0.000000 -1.323704
v 1.415628 3.900000 1.434013
v -1.342089 3.900000 -1.323704
v -1.434013 0.000000 1.415628
v 1.323704 0.000000 -1.342089
v -1.434013 3.900000 1.415628
v 1.323704 3.900000 -1.342089
vn 0.7071 -0.0000 0.7071
vn 0.7071 -0.0000 -0.7071
vn -0.7071 -0.0000 0.7071
vn -0.7071 -0.0000 -0.7071
vt 0.007812 0.007812
vt 0.992188 0.007812
vt 0.992188 0.992188
vt 0.007812 0.992188
s 0
usemtl tree112
f 1/1/1 2/2/1 4/3/1 3/4/1
f 5/1/2 6/2/2 8/3/2 7/4/2
f 9/1/3 11/4/3 12/3/3 10/2/3
f 13/1/4 15/4/4 16/3/4 14/2/4
o tree112_trunk
v 0.035063 -0.100000 0.035063
v 0.030273 1.100000 -0.019284
v -0.064937 -0.100000 0.035063
v -0.019091 1.095805 -0.019462
v 0.035063 -0.100000 -0.064937
v 0.030094 1.104195 -0.068647
v -0.064937 -0.100000 -0.064937
v -0.019269 1.100000 -0.068826
v 0.002298 1.615317 0.005528
v 0.044219 0.450000 0.012757
v -0.023680 0.447629 0.012656
v -0.023781 0.450000 -0.055243
v 0.044119 0.452371 -0.055142
vn 0.5698 -0.5710 0.5909
vn 0.7206 0.0261 0.6929
vn -0.5982 -0.5464 0.5862
vn -0.7209 0.0194 0.6928
vn 0.5712 -0.5767 -0.5840
vn 0.6904 0.0724 -0.7198
vn -0.5997 -0.5531 -0.5784
vn -0.6948 0.0569 -0.7169
vn -0.0065 0.9954 0.0957
vn 0.7096 0.0329 0.7039
vn -0.6973 0.0617 0.7141
vn -0.7033 0.0279 -0.7104
vn 0.7160 0.0007 -0.6981
vt 0.104683 0.066798
vt 0.173466 0.068004
vt 0.172562 0.077545
vt 0.104164 0.078414
vt 0.104426 0.047757
vt 0.173621 0.056167
vt 0.175354 0.065592
vt 0.105956 0.059283
vt 0.104431 0.080930
vt 0.171897 0.082577
vt 0.172709 0.092126
vt 0.104837 0.092550
vt 0.105881 0.019420
vt 0.175463 0.013119
vt 0.173730 0.022545
vt 0.104351 0.030946
vt 0.221281 0.106665
vt 0.221281 0.092974
vt 0.234972 0.092974
vt 0.234972 0.106665
vt 0.234972 0.039348
vt 0.234972 0.081371
vt 0.234972 0.079283
vt 0.036300 0.025721
vt 0.034972 0.039348
vt 0.036965 0.079283
vt 0.036965 0.092974
vt 0.035231 0.039348
vt 0.036559 0.052974
vt 0.035900 0.065592
vt 0.035766 0.079283
s 1
usemtl tree112
f 26/5/14 18/6/6 20/7/8 27/8/15
f 27/9/15 20/10/8 24/11/12 28/12/16
f 28/13/16 24/14/12 22/15/10 29/16/17
f 29/17/17 22/18/10 18/19/6 26/20/14
f 19/21/7 23/22/11 21/23/9 17/24/5
f 18/19/6 22/18/10 25/25/13
f 24/11/12 20/10/8 25/25/13
f 22/15/10 24/14/12 25/26/13
f 20/7/8 18/6/6 25/27/13
f 21/28/9 29/17/17 26/20/14 17/29/5
f 23/30/11 28/13/16 29/16/17 21/31/9
f 19/32/7 27/9/15 28/12/16 23/33/11
f 17/34/5 26/5/14 27/8/15 19/35/7
