# Blender 5.1.2
# www.blender.org
mtllib tree035.mtl
o tree035
v -1.088945 0.000000 1.103086
v 1.032376 0.000000 -1.018234
v -1.088944 4.993049 1.103087
v 1.032376 4.993049 -1.018234
v 1.096016 0.000000 1.081874
v -1.004092 0.000000 -1.018234
v 1.096016 4.993049 1.081873
v -1.004092 4.993049 -1.018234
v 1.081874 0.000000 1.096016
v -1.018234 0.000000 -1.004092
v 1.081873 4.993049 1.096016
v -1.018234 4.993049 -1.004092
v -1.103087 0.000000 1.088944
v 1.018234 0.000000 -1.032376
v -1.103087 4.993049 1.088944
v 1.018234 4.993049 -1.032376
vn 0.7071 -0.0000 0.7071
vn 0.7071 -0.0000 -0.7071
vn -0.7071 -0.0000 0.7071
vn -0.7071 -0.0000 -0.7071
vt 0.171875 0.007812
vt 0.812500 0.007812
vt 0.812500 0.992188
vt 0.171875 0.992188
s 0
usemtl tree35
f 1/1/1 2/2/1 4/3/1 3/4/1
f 5/1/2 6/2/2 8/3/2 7/4/2
f 9/1/3 11/4/3 12/3/3 10/2/3
f 13/1/4 15/4/4 16/3/4 14/2/4
o tree035_trunk
v 0.050000 -0.100000 0.050000
v 0.035071 1.320000 0.020929
v -0.050000 -0.100000 0.050000
v -0.020727 1.315258 0.020728
v 0.050000 -0.100000 -0.050000
v 0.034870 1.324741 -0.034870
v -0.050000 -0.100000 -0.050000
v -0.020929 1.320000 -0.035071
v 0.013689 2.552002 0.028737
v 0.037536 0.450000 0.023393
v -0.030364 0.447629 0.023293
v -0.030464 0.450000 -0.044607
v 0.037435 0.452371 -0.044506
vn 0.5814 -0.5589 0.5913
vn 0.7095 0.0056 0.7047
vn -0.5860 -0.5548 0.5906
vn -0.7093 0.0124 0.7048
vn 0.5840 -0.5687 -0.5793
vn 0.7034 0.0302 -0.7102
vn -0.5880 -0.5656 -0.5783
vn -0.7055 0.0353 -0.7078
vn 0.0054 0.9996 0.0291
vn 0.7096 0.0273 0.7041
vn -0.7090 0.0355 0.7043
vn -0.7043 0.0237 -0.7095
vn 0.7046 0.0163 -0.7094
vt 0.084521 0.155289
vt 0.085727 0.086506
vt 0.095268 0.087410
vt 0.096137 0.155808
vt 0.065480 0.155546
vt 0.073890 0.086351
vt 0.083315 0.084618
vt 0.077006 0.154016
vt 0.098653 0.155541
vt 0.100300 0.088075
vt 0.109849 0.087263
vt 0.110273 0.155135
vt 0.037143 0.154091
vt 0.030842 0.084509
vt 0.040267 0.086242
vt 0.048669 0.155621
vt 0.124388 0.038691
vt 0.110697 0.038691
vt 0.110697 0.025000
vt 0.124388 0.025000
vt 0.057071 0.025000
vt 0.099094 0.025000
vt 0.097006 0.025000
vt 0.043444 0.223672
vt 0.057071 0.225000
vt 0.097006 0.223007
vt 0.110697 0.223007
vt 0.057071 0.224741
vt 0.070697 0.223413
vt 0.083315 0.224072
vt 0.097006 0.224206
s 1
usemtl tree35
f 26/5/14 18/6/6 20/7/8 27/8/15
f 27/9/15 20/10/8 24/11/12 28/12/16
f 28/13/16 24/14/12 22/15/10 29/16/17
f 29/17/17 22/18/10 18/19/6 26/20/14
f 19/21/7 23/22/11 21/23/9 17/24/5
f 18/19/6 22/18/10 25/25/13
f 24/11/12 20/10/8 25/25/13
f 22/15/10 24/14/12 25/26/13
f 20/7/8 18/6/6 25/27/13
f 21/28/9 29/17/17 26/20/14 17/29/5
f 23/30/11 28/13/16 29/16/17 21/31/9
f 19/32/7 27/9/15 28/12/16 23/33/11
f 17/34/5 26/5/14 27/8/15 19/35/7
