# Blender 5.1.2
# www.blender.org
mtllib tree038.mtl
o tree038
v -1.053589 0.000000 1.067731
v 1.067731 0.000000 -1.053589
v -1.053589 4.993049 1.067731
v 1.067731 4.993049 -1.053589
v 1.046518 0.000000 1.032376
v -1.053589 0.000000 -1.067731
v 1.046518 4.993049 1.032376
v -1.053589 4.993049 -1.067731
v 1.032376 0.000000 1.046518
v -1.067731 0.000000 -1.053589
v 1.032376 4.993049 1.046518
v -1.067731 4.993049 -1.053589
v -1.067731 0.000000 1.053589
v 1.053589 0.000000 -1.067731
v -1.067731 4.993049 1.053589
v 1.053589 4.993049 -1.067731
vn 0.7071 -0.0000 0.7071
vn 0.7071 -0.0000 -0.7071
vn -0.7071 -0.0000 0.7071
vn -0.7071 -0.0000 -0.7071
vt 0.125000 0.007812
vt 0.875000 0.007812
vt 0.875000 0.992188
vt 0.125000 0.992188
s 0
usemtl tree38
f 1/1/1 2/2/1 4/3/1 3/4/1
f 5/1/2 6/2/2 8/3/2 7/4/2
f 9/1/3 11/4/3 12/3/3 10/2/3
f 13/1/4 15/4/4 16/3/4 14/2/4
o tree038_trunk
v 0.042929 -0.100000 0.042929
v 0.018154 2.220000 0.060580
v -0.057071 -0.100000 0.042929
v -0.032114 2.215728 0.060399
v 0.042929 -0.100000 -0.057071
v 0.017972 2.224272 0.010312
v -0.057071 -0.100000 -0.057071
v -0.032296 2.220000 0.010131
v -0.021666 3.172002 0.035808
v 0.016322 0.550000 0.030465
v -0.051577 0.547629 0.030364
v -0.051678 0.550000 -0.037536
v 0.016222 0.552371 -0.037435
vn 0.5887 -0.5617 0.5813
vn 0.7060 0.0170 0.7080
vn -0.5791 -0.5698 0.5830
vn -0.7020 0.0097 0.7121
vn 0.5885 -0.5587 -0.5845
vn 0.7116 0.0345 -0.7017
vn -0.5785 -0.5674 -0.5861
vn -0.7081 0.0277 -0.7056
vn -0.0152 0.9999 0.0005
vn 0.7064 0.0148 0.7076
vn -0.7114 0.0079 0.7028
vn -0.7080 0.0278 -0.7057
vn 0.7019 0.0348 -0.7114
vt 0.084521 0.155289
vt 0.085727 0.086506
vt 0.095268 0.087410
vt 0.096137 0.155808
vt 0.065480 0.155546
vt 0.073890 0.086351
vt 0.083315 0.084618
vt 0.077006 0.154016
vt 0.098653 0.155541
vt 0.100300 0.088075
vt 0.109849 0.087263
vt 0.110273 0.155135
vt 0.037143 0.154091
vt 0.030842 0.084509
vt 0.040267 0.086242
vt 0.048669 0.155621
vt 0.124388 0.038691
vt 0.110697 0.038691
vt 0.110697 0.025000
vt 0.124388 0.025000
vt 0.057071 0.025000
vt 0.099094 0.025000
vt 0.097006 0.025000
vt 0.043444 0.223672
vt 0.057071 0.225000
vt 0.097006 0.223007
vt 0.110697 0.223007
vt 0.057071 0.224741
vt 0.070697 0.223413
vt 0.083315 0.224072
vt 0.097006 0.224206
s 1
usemtl tree38
f 26/5/14 18/6/6 20/7/8 27/8/15
f 27/9/15 20/10/8 24/11/12 28/12/16
f 28/13/16 24/14/12 22/15/10 29/16/17
f 29/17/17 22/18/10 18/19/6 26/20/14
f 19/21/7 23/22/11 21/23/9 17/24/5
f 18/19/6 22/18/10 25/25/13
f 24/11/12 20/10/8 25/25/13
f 22/15/10 24/14/12 25/26/13
f 20/7/8 18/6/6 25/27/13
f 21/28/9 29/17/17 26/20/14 17/29/5
f 23/30/11 28/13/16 29/16/17 21/31/9
f 19/32/7 27/9/15 28/12/16 23/33/11
f 17/34/5 26/5/14 27/8/15 19/35/7
