# Blender 5.1.2
# www.blender.org
mtllib tree026.mtl
o tree026
v -1.053589 0.000000 1.067731
v 1.067731 0.000000 -1.053589
v -0.982878 3.000000 1.138442
v 1.138442 3.000000 -0.982878
v 1.067731 0.000000 1.053589
v -1.053589 0.000000 -1.067731
v 0.997021 3.000000 1.124300
v -1.124300 3.000000 -0.997021
v 1.053589 0.000000 1.067731
v -1.067731 0.000000 -1.053589
v 0.982878 3.000000 1.138442
v -1.138442 3.000000 -0.982879
v -1.067731 0.000000 1.053589
v 1.053589 0.000000 -1.067731
v -0.997021 3.000000 1.124300
v 1.124300 3.000000 -0.997020
vn 0.7067 -0.0333 0.7067
vn 0.7067 0.0333 -0.7067
vn -0.7067 -0.0333 0.7067
vn -0.7067 0.0333 -0.7067
vt 0.007812 0.007812
vt 0.992188 0.007812
vt 0.992188 0.992188
vt 0.007812 0.992188
s 0
usemtl tree26
f 1/1/1 2/2/1 4/3/1 3/4/1
f 5/1/2 6/2/2 8/3/2 7/4/2
f 9/1/3 11/4/3 12/3/3 10/2/3
f 13/1/4 15/4/4 16/3/4 14/2/4
o tree026_trunk
v 0.060000 -0.100000 0.031716
v 0.028209 0.630000 0.042351
v -0.060000 -0.100000 0.031716
v -0.042097 0.624026 0.042097
v 0.060000 -0.100000 -0.088284
v 0.027955 0.635974 -0.027955
v -0.060000 -0.100000 -0.088284
v -0.042351 0.630000 -0.028209
v -0.000453 0.882002 0.014595
v 0.047464 0.350000 0.047465
v -0.054384 0.346444 0.047313
v -0.054536 0.350000 -0.054536
v 0.047313 0.353556 -0.054384
vn 0.5881 -0.5789 0.5649
vn 0.6932 0.1073 0.7127
vn -0.5830 -0.5829 0.5659
vn -0.7039 0.1083 0.7020
vn 0.5818 -0.5502 -0.5990
vn 0.6954 0.1567 -0.7013
vn -0.5776 -0.5542 -0.5994
vn -0.7098 0.1601 -0.6860
vn 0.0235 0.9992 0.0312
vn 0.7043 0.0278 0.7094
vn -0.7041 0.0129 0.7100
vn -0.7089 0.0785 -0.7009
vn 0.7069 0.0928 -0.7012
vt 0.084521 0.155289
vt 0.085727 0.086506
vt 0.095268 0.087410
vt 0.096137 0.155808
vt 0.065480 0.155546
vt 0.073890 0.086351
vt 0.083315 0.084618
vt 0.077006 0.154016
vt 0.098653 0.155541
vt 0.100300 0.088075
vt 0.109849 0.087263
vt 0.110273 0.155135
vt 0.037143 0.154091
vt 0.030842 0.084509
vt 0.040267 0.086242
vt 0.048669 0.155621
vt 0.124388 0.038691
vt 0.110697 0.038691
vt 0.110697 0.025000
vt 0.124388 0.025000
vt 0.057071 0.025000
vt 0.099094 0.025000
vt 0.097006 0.025000
vt 0.043444 0.223672
vt 0.057071 0.225000
vt 0.097006 0.223007
vt 0.110697 0.223007
vt 0.057071 0.224741
vt 0.070697 0.223413
vt 0.083315 0.224072
vt 0.097006 0.224206
s 1
usemtl tree26
f 26/5/14 18/6/6 20/7/8 27/8/15
f 27/9/15 20/10/8 24/11/12 28/12/16
f 28/13/16 24/14/12 22/15/10 29/16/17
f 29/17/17 22/18/10 18/19/6 26/20/14
f 19/21/7 23/22/11 21/23/9 17/24/5
f 18/19/6 22/18/10 25/25/13
f 24/11/12 20/10/8 25/25/13
f 22/15/10 24/14/12 25/26/13
f 20/7/8 18/6/6 25/27/13
f 21/28/9 29/17/17 26/20/14 17/29/5
f 23/30/11 28/13/16 29/16/17 21/31/9
f 19/32/7 27/9/15 28/12/16 23/33/11
f 17/34/5 26/5/14 27/8/15 19/35/7
