# Blender 5.1.2
# www.blender.org
mtllib tree111.mtl
o tree111
v -1.369666 0.000000 1.388051
v 1.388051 0.000000 -1.369666
v -1.369666 3.900000 1.388051
v 1.388051 3.900000 -1.369666
v 1.388051 0.000000 1.369666
v -1.369666 0.000000 -1.388051
v 1.388051 3.900000 1.369666
v -1.369666 3.900000 -1.388051
v 1.369666 0.000000 1.388051
v -1.388051 0.000000 -1.369666
v 1.369666 3.900000 1.388051
v -1.388051 3.900000 -1.369666
v -1.388051 0.000000 1.369666
v 1.369666 0.000000 -1.388051
v -1.388051 3.900000 1.369666
v 1.369666 3.900000 -1.388051
vn 0.7071 -0.0000 0.7071
vn 0.7071 -0.0000 -0.7071
vn -0.7071 -0.0000 0.7071
vn -0.7071 -0.0000 -0.7071
vt 0.007812 0.007812
vt 0.992188 0.007812
vt 0.992188 0.992188
vt 0.007812 0.992188
s 0
usemtl tree111
f 1/1/1 2/2/1 4/3/1 3/4/1
f 5/1/2 6/2/2 8/3/2 7/4/2
f 9/1/3 11/4/3 12/3/3 10/2/3
f 13/1/4 15/4/4 16/3/4 14/2/4
o tree111_trunk
v 0.083885 -0.100000 0.215932
v 0.033502 0.979396 0.121493
v -0.075245 -0.100000 0.215932
v -0.022297 0.974655 0.121292
v 0.083885 -0.100000 0.056801
v 0.033300 0.984138 0.065694
v -0.075245 -0.100000 0.056801
v -0.022498 0.979396 0.065493
v -0.000453 1.323534 0.085306
v 0.037955 0.450000 0.144041
v -0.050397 0.446915 0.143909
v -0.050528 0.450000 0.055558
v 0.037824 0.453085 0.055689
vn 0.5943 -0.5215 0.6122
vn 0.7046 0.0869 0.7042
vn -0.5847 -0.5301 0.6141
vn -0.6994 0.0898 0.7091
vn 0.6035 -0.5554 -0.5722
vn 0.7114 0.0662 -0.6996
vn -0.5916 -0.5661 -0.5741
vn -0.7045 0.0671 -0.7065
vn -0.0179 0.9996 -0.0228
vn 0.7052 0.0957 0.7025
vn -0.7157 0.0964 0.6917
vn -0.7055 0.0403 -0.7076
vn 0.6954 0.0373 -0.7176
vt 0.084521 0.155289
vt 0.085727 0.086506
vt 0.095268 0.087410
vt 0.096137 0.155808
vt 0.065480 0.155546
vt 0.073890 0.086351
vt 0.083315 0.084618
vt 0.077006 0.154016
vt 0.098653 0.155541
vt 0.100300 0.088075
vt 0.109849 0.087263
vt 0.110273 0.155135
vt 0.037143 0.154091
vt 0.030842 0.084509
vt 0.040267 0.086242
vt 0.048669 0.155621
vt 0.124388 0.038691
vt 0.110697 0.038691
vt 0.110697 0.025000
vt 0.124388 0.025000
vt 0.057071 0.025000
vt 0.099094 0.025000
vt 0.097006 0.025000
vt 0.043444 0.223672
vt 0.057071 0.225000
vt 0.097006 0.223007
vt 0.110697 0.223007
vt 0.057071 0.224741
vt 0.070697 0.223413
vt 0.083315 0.224072
vt 0.097006 0.224206
s 1
usemtl tree111
f 26/5/14 18/6/6 20/7/8 27/8/15
f 27/9/15 20/10/8 24/11/12 28/12/16
f 28/13/16 24/14/12 22/15/10 29/16/17
f 29/17/17 22/18/10 18/19/6 26/20/14
f 19/21/7 23/22/11 21/23/9 17/24/5
f 18/19/6 22/18/10 25/25/13
f 24/11/12 20/10/8 25/25/13
f 22/15/10 24/14/12 25/26/13
f 20/7/8 18/6/6 25/27/13
f 21/28/9 29/17/17 26/20/14 17/29/5
f 23/30/11 28/13/16 29/16/17 21/31/9
f 19/32/7 27/9/15 28/12/16 23/33/11
f 17/34/5 26/5/14 27/8/15 19/35/7
