# Blender 5.1.2
# www.blender.org
mtllib tree120.mtl
o tree120
v 1.388051 0.000000 1.369666
v -1.369666 0.000000 -1.388051
v 1.388051 3.900000 1.369666
v -1.369666 3.900000 -1.388051
v 1.369666 0.000000 -1.388051
v -1.388051 0.000000 1.369666
v 1.369666 3.900000 -1.388051
v -1.388051 3.900000 1.369666
v 1.388051 0.000000 -1.369666
v -1.369666 0.000000 1.388051
v 1.388051 3.900000 -1.369666
v -1.369666 3.900000 1.388051
v 1.369666 0.000000 1.388051
v -1.388051 0.000000 -1.369666
v 1.369666 3.900000 1.388051
v -1.388051 3.900000 -1.369666
vn 0.7071 -0.0000 -0.7071
vn -0.7071 -0.0000 -0.7071
vn 0.7071 -0.0000 0.7071
vn -0.7071 -0.0000 0.7071
vt 0.007812 0.007812
vt 0.992188 0.007812
vt 0.992188 0.992188
vt 0.007812 0.992188
s 0
usemtl tree120
f 1/1/1 2/2/1 4/3/1 3/4/1
f 5/1/2 6/2/2 8/3/2 7/4/2
f 9/1/3 11/4/3 12/3/3 10/2/3
f 13/1/4 15/4/4 16/3/4 14/2/4
o tree120_trunk
v 0.080179 -0.090663 -0.033963
v 0.072610 1.100000 -0.026433
v 0.080179 -0.090663 0.066037
v 0.072408 1.095258 0.029366
v -0.019821 -0.090663 -0.033963
v 0.016811 1.104741 -0.026232
v -0.019821 -0.090663 0.066037
v 0.016610 1.100000 0.029567
v 0.061538 1.662002 0.024221
v 0.087033 0.450000 -0.030464
v 0.086932 0.447629 0.037435
v 0.019033 0.450000 0.037536
v 0.019134 0.452371 -0.030364
vn 0.5729 -0.5791 -0.5800
vn 0.6989 0.0470 -0.7137
vn 0.5711 -0.5661 0.5944
vn 0.7066 0.0224 0.7072
vn -0.5994 -0.5564 -0.5755
vn -0.7056 0.0625 -0.7059
vn -0.5958 -0.5448 0.5901
vn -0.7147 0.0330 0.6987
vn 0.0302 0.9987 0.0404
vn 0.7113 0.0082 -0.7028
vn 0.7156 0.0260 0.6981
vn -0.7017 0.0483 0.7108
vn -0.6981 0.0278 -0.7155
vt 0.097772 0.077769
vt 0.166555 0.078975
vt 0.165651 0.088516
vt 0.097253 0.089385
vt 0.097515 0.058728
vt 0.166709 0.067138
vt 0.168443 0.076563
vt 0.099045 0.070254
vt 0.097520 0.091901
vt 0.164986 0.093548
vt 0.165798 0.103097
vt 0.097926 0.103521
vt 0.098970 0.030391
vt 0.168552 0.024090
vt 0.166818 0.033516
vt 0.097440 0.041917
vt 0.214370 0.117636
vt 0.214370 0.103945
vt 0.228061 0.103945
vt 0.228061 0.117636
vt 0.228061 0.050319
vt 0.228061 0.092342
vt 0.228061 0.090254
vt 0.029389 0.036692
vt 0.028061 0.050319
vt 0.030053 0.090254
vt 0.030053 0.103945
vt 0.028320 0.050319
vt 0.029648 0.063945
vt 0.028989 0.076563
vt 0.028855 0.090254
s 1
usemtl tree120
f 26/5/14 18/6/6 20/7/8 27/8/15
f 27/9/15 20/10/8 24/11/12 28/12/16
f 28/13/16 24/14/12 22/15/10 29/16/17
f 29/17/17 22/18/10 18/19/6 26/20/14
f 19/21/7 23/22/11 21/23/9 17/24/5
f 18/19/6 22/18/10 25/25/13
f 24/11/12 20/10/8 25/25/13
f 22/15/10 24/14/12 25/26/13
f 20/7/8 18/6/6 25/27/13
f 21/28/9 29/17/17 26/20/14 17/29/5
f 23/30/11 28/13/16 29/16/17 21/31/9
f 19/32/7 27/9/15 28/12/16 23/33/11
f 17/34/5 26/5/14 27/8/15 19/35/7
