# Blender 5.1.2
# www.blender.org
mtllib tree088.mtl
o tree088
v -0.873277 0.000000 0.891662
v 0.965201 0.000000 -0.946816
v -0.873277 3.250000 0.891662
v 0.965201 3.250000 -0.946816
v 0.891662 0.000000 0.873277
v -0.946816 0.000000 -0.965201
v 0.891662 3.250000 0.873277
v -0.946816 3.250000 -0.965201
v 0.873277 0.000000 0.891662
v -0.965201 0.000000 -0.946816
v 0.873277 3.250000 0.891662
v -0.965201 3.250000 -0.946816
v -0.891662 0.000000 0.873277
v 0.946816 0.000000 -0.965201
v -0.891662 3.250000 0.873277
v 0.946816 3.250000 -0.965201
vn 0.7071 -0.0000 0.7071
vn 0.7071 -0.0000 -0.7071
vn -0.7071 -0.0000 0.7071
vn -0.7071 -0.0000 -0.7071
vt 0.007812 0.007812
vt 0.992188 0.007812
vt 0.992188 0.992188
vt 0.007812 0.992188
s 0
usemtl tree88
f 1/1/1 2/2/1 4/3/1 3/4/1
f 5/1/2 6/2/2 8/3/2 7/4/2
f 9/1/3 11/4/3 12/3/3 10/2/3
f 13/1/4 15/4/4 16/3/4 14/2/4
o tree088_trunk
v 0.057071 -0.100000 0.057071
v 0.035557 1.100000 0.033179
v -0.042929 -0.100000 0.057071
v -0.020242 1.095258 0.032978
v 0.057071 -0.100000 -0.042929
v 0.035355 1.104741 -0.022620
v -0.042929 -0.100000 -0.042929
v -0.020443 1.100000 -0.022821
v 0.007104 1.662002 -0.008510
v 0.024382 0.450000 0.053304
v -0.043517 0.447629 0.053203
v -0.043618 0.450000 -0.014697
v 0.024281 0.452371 -0.014596
vn 0.5951 -0.5598 0.5766
vn 0.7075 0.0475 0.7051
vn -0.5768 -0.5756 0.5797
vn -0.7028 0.0649 0.7084
vn 0.5928 -0.5484 -0.5898
vn 0.7106 0.0182 -0.7034
vn -0.5745 -0.5640 -0.5932
vn -0.7050 0.0337 -0.7084
vn -0.0011 0.9997 -0.0240
vn 0.6949 0.0294 0.7185
vn -0.7083 0.0249 0.7055
vn -0.7186 0.0269 -0.6949
vn 0.7053 0.0281 -0.7083
vt 0.084521 0.155289
vt 0.085727 0.086506
vt 0.095268 0.087410
vt 0.096137 0.155808
vt 0.065480 0.155546
vt 0.073890 0.086351
vt 0.083315 0.084618
vt 0.077006 0.154016
vt 0.098653 0.155541
vt 0.100300 0.088075
vt 0.109849 0.087263
vt 0.110273 0.155135
vt 0.037143 0.154091
vt 0.030842 0.084509
vt 0.040267 0.086242
vt 0.048669 0.155621
vt 0.124388 0.038691
vt 0.110697 0.038691
vt 0.110697 0.025000
vt 0.124388 0.025000
vt 0.057071 0.025000
vt 0.099094 0.025000
vt 0.097006 0.025000
vt 0.043444 0.223672
vt 0.057071 0.225000
vt 0.097006 0.223007
vt 0.110697 0.223007
vt 0.057071 0.224741
vt 0.070697 0.223413
vt 0.083315 0.224072
vt 0.097006 0.224206
s 1
usemtl tree88
f 26/5/14 18/6/6 20/7/8 27/8/15
f 27/9/15 20/10/8 24/11/12 28/12/16
f 28/13/16 24/14/12 22/15/10 29/16/17
f 29/17/17 22/18/10 18/19/6 26/20/14
f 19/21/7 23/22/11 21/23/9 17/24/5
f 18/19/6 22/18/10 25/25/13
f 24/11/12 20/10/8 25/25/13
f 22/15/10 24/14/12 25/26/13
f 20/7/8 18/6/6 25/27/13
f 21/28/9 29/17/17 26/20/14 17/29/5
f 23/30/11 28/13/16 29/16/17 21/31/9
f 19/32/7 27/9/15 28/12/16 23/33/11
f 17/34/5 26/5/14 27/8/15 19/35/7
