# Blender 5.1.2
# www.blender.org
mtllib tree102.mtl
o tree102
v -1.461590 0.000000 1.479975
v 1.296127 0.000000 -1.277742
v -1.461590 3.900000 1.479975
v 1.296127 3.900000 -1.277742
v 1.479975 0.000000 1.461590
v -1.277742 0.000000 -1.296127
v 1.479975 3.900000 1.461590
v -1.277742 3.900000 -1.296127
v 1.461590 0.000000 1.479975
v -1.296127 0.000000 -1.277742
v 1.461590 3.900000 1.479975
v -1.296127 3.900000 -1.277742
v -1.479975 0.000000 1.461590
v 1.277742 0.000000 -1.296127
v -1.479975 3.900000 1.461590
v 1.277742 3.900000 -1.296127
vn 0.7071 -0.0000 0.7071
vn 0.7071 -0.0000 -0.7071
vn -0.7071 -0.0000 0.7071
vn -0.7071 -0.0000 -0.7071
vt 0.007812 0.007812
vt 0.992188 0.007812
vt 0.992188 0.992188
vt 0.007812 0.992188
s 0
usemtl tree102
f 1/1/1 2/2/1 4/3/1 3/4/1
f 5/1/2 6/2/2 8/3/2 7/4/2
f 9/1/3 11/4/3 12/3/3 10/2/3
f 13/1/4 15/4/4 16/3/4 14/2/4
o tree102_trunk
v 0.183757 -0.100000 0.183758
v 0.064147 1.100000 -0.081144
v -0.169615 -0.100000 0.183757
v -0.083777 1.092782 -0.081320
v 0.183757 -0.100000 -0.169615
v 0.063971 1.107218 -0.229068
v -0.169615 -0.100000 -0.169615
v -0.083953 1.100000 -0.229244
v 0.032030 1.662002 -0.165053
v 0.094586 0.450000 0.038915
v -0.160699 0.441087 0.038537
v -0.161078 0.450000 -0.216748
v 0.094207 0.458913 -0.216370
vn 0.6067 -0.4680 0.6426
vn 0.7049 0.1519 0.6928
vn -0.5705 -0.4991 0.6523
vn -0.7031 0.2221 0.6755
vn 0.6325 -0.5519 -0.5435
vn 0.6917 0.0702 -0.7188
vn -0.5868 -0.5946 -0.5496
vn -0.6941 0.1396 -0.7062
vn 0.0717 0.9973 -0.0160
vn 0.6869 0.2336 0.6882
vn -0.7222 0.1930 0.6642
vn -0.7112 0.0119 -0.7029
vn 0.6865 0.0301 -0.7265
vt 0.084521 0.155289
vt 0.085727 0.086506
vt 0.095268 0.087410
vt 0.096137 0.155808
vt 0.065480 0.155546
vt 0.073890 0.086351
vt 0.083315 0.084618
vt 0.077006 0.154016
vt 0.098653 0.155541
vt 0.100300 0.088075
vt 0.109849 0.087263
vt 0.110273 0.155135
vt 0.037143 0.154091
vt 0.030842 0.084509
vt 0.040267 0.086242
vt 0.048669 0.155621
vt 0.124388 0.038691
vt 0.110697 0.038691
vt 0.110697 0.025000
vt 0.124388 0.025000
vt 0.057071 0.025000
vt 0.099094 0.025000
vt 0.097006 0.025000
vt 0.043444 0.223672
vt 0.057071 0.225000
vt 0.097006 0.223007
vt 0.110697 0.223007
vt 0.057071 0.224741
vt 0.070697 0.223413
vt 0.083315 0.224072
vt 0.097006 0.224206
s 1
usemtl tree102
f 26/5/14 18/6/6 20/7/8 27/8/15
f 27/9/15 20/10/8 24/11/12 28/12/16
f 28/13/16 24/14/12 22/15/10 29/16/17
f 29/17/17 22/18/10 18/19/6 26/20/14
f 19/21/7 23/22/11 21/23/9 17/24/5
f 18/19/6 22/18/10 25/25/13
f 24/11/12 20/10/8 25/25/13
f 22/15/10 24/14/12 25/26/13
f 20/7/8 18/6/6 25/27/13
f 21/28/9 29/17/17 26/20/14 17/29/5
f 23/30/11 28/13/16 29/16/17 21/31/9
f 19/32/7 27/9/15 28/12/16 23/33/11
f 17/34/5 26/5/14 27/8/15 19/35/7
