# Blender 5.1.2
# www.blender.org
mtllib tree080.mtl
o tree080
v -1.185818 0.000000 1.204203
v 1.204203 0.000000 -1.185818
v -1.185818 3.250000 1.204203
v 1.204203 3.250000 -1.185818
v 1.204203 0.000000 1.185818
v -1.185818 0.000000 -1.204203
v 1.204203 3.250000 1.185818
v -1.185818 3.250000 -1.204203
v 1.185818 0.000000 1.204203
v -1.204203 0.000000 -1.185818
v 1.185818 3.250000 1.204203
v -1.204203 3.250000 -1.185818
v -1.204203 0.000000 1.185818
v 1.185818 0.000000 -1.204203
v -1.204203 3.250000 1.185818
v 1.185818 3.250000 -1.204203
vn 0.7071 -0.0000 0.7071
vn 0.7071 -0.0000 -0.7071
vn -0.7071 -0.0000 0.7071
vn -0.7071 -0.0000 -0.7071
vt 0.007812 0.007812
vt 0.992188 0.007812
vt 0.992188 0.992188
vt 0.007812 0.992188
s 0
usemtl tree80
f 1/1/1 2/2/1 4/3/1 3/4/1
f 5/1/2 6/2/2 8/3/2 7/4/2
f 9/1/3 11/4/3 12/3/3 10/2/3
f 13/1/4 15/4/4 16/3/4 14/2/4
o tree080_trunk
v 0.047450 -0.100000 0.041078
v 0.305604 1.200000 0.020171
v -0.052550 -0.100000 0.041078
v -0.304332 1.195258 0.018821
v 0.047450 -0.100000 -0.058922
v 0.303402 1.204741 -0.353761
v -0.052550 -0.100000 -0.058922
v -0.306534 1.200000 -0.355111
v 0.020003 1.462002 -0.100238
v 0.141645 0.450000 0.005062
v -0.167629 0.447629 0.004848
v -0.168087 0.450000 -0.139625
v 0.141186 0.452371 -0.139410
vn 0.5205 -0.6001 0.6074
vn 0.7244 0.2744 0.6324
vn -0.5081 -0.6074 0.6107
vn -0.7157 0.3002 0.6306
vn 0.5272 -0.6580 -0.5377
vn 0.6784 0.2551 -0.6890
vn -0.5132 -0.6682 -0.5386
vn -0.6773 0.2708 -0.6840
vn 0.0214 0.9859 0.1658
vn 0.7013 -0.1235 0.7021
vn -0.7071 -0.1266 0.6957
vn -0.6973 -0.2835 -0.6584
vn 0.6887 -0.2840 -0.6672
vt 0.084521 0.155289
vt 0.085727 0.086506
vt 0.095268 0.087410
vt 0.096137 0.155808
vt 0.065480 0.155546
vt 0.073890 0.086351
vt 0.083315 0.084618
vt 0.077006 0.154016
vt 0.098653 0.155541
vt 0.100300 0.088075
vt 0.109849 0.087263
vt 0.110273 0.155135
vt 0.037143 0.154091
vt 0.030842 0.084509
vt 0.040267 0.086242
vt 0.048669 0.155621
vt 0.124388 0.038691
vt 0.110697 0.038691
vt 0.110697 0.025000
vt 0.124388 0.025000
vt 0.057071 0.025000
vt 0.099094 0.025000
vt 0.097006 0.025000
vt 0.043444 0.223672
vt 0.057071 0.225000
vt 0.097006 0.223007
vt 0.110697 0.223007
vt 0.057071 0.224741
vt 0.070697 0.223413
vt 0.083315 0.224072
vt 0.097006 0.224206
s 1
usemtl tree80
f 26/5/14 18/6/6 20/7/8 27/8/15
f 27/9/15 20/10/8 24/11/12 28/12/16
f 28/13/16 24/14/12 22/15/10 29/16/17
f 29/17/17 22/18/10 18/19/6 26/20/14
f 19/21/7 23/22/11 21/23/9 17/24/5
f 18/19/6 22/18/10 25/25/13
f 24/11/12 20/10/8 25/25/13
f 22/15/10 24/14/12 25/26/13
f 20/7/8 18/6/6 25/27/13
f 21/28/9 29/17/17 26/20/14 17/29/5
f 23/30/11 28/13/16 29/16/17 21/31/9
f 19/32/7 27/9/15 28/12/16 23/33/11
f 17/34/5 26/5/14 27/8/15 19/35/7
