# Blender 5.1.2
# www.blender.org
mtllib tree013.mtl
o tree013
v -0.919239 0.000000 0.876812
v 1.202082 0.000000 -1.244508
v -1.202081 3.000000 0.593970
v 0.919239 3.000000 -1.527351
v 0.883884 0.000000 0.898026
v -1.237437 0.000000 -1.223295
v 1.308148 3.000000 0.473761
v -0.813173 3.000000 -1.647559
v 0.869741 0.000000 0.912168
v -1.251579 0.000000 -1.209152
v 1.294006 3.000000 0.487904
v -0.827315 3.000000 -1.633417
v -0.933381 0.000000 0.862670
v 1.187940 0.000000 -1.258650
v -1.216224 3.000000 0.579828
v 0.905097 3.000000 -1.541493
vn 0.7009 0.1322 0.7009
vn 0.6934 -0.1961 -0.6934
vn -0.6934 0.1961 0.6934
vn -0.7009 -0.1322 -0.7009
vt 0.007812 0.007812
vt 0.992188 0.007812
vt 0.992188 0.992188
vt 0.007812 0.992188
s 0
usemtl tree13
f 1/1/1 2/2/1 4/3/1 3/4/1
f 5/1/2 6/2/2 8/3/2 7/4/2
f 9/1/3 11/4/3 12/3/3 10/2/3
f 13/1/4 15/4/4 16/3/4 14/2/4
o tree013_trunk
v 0.080000 -0.100000 0.108284
v 0.039200 0.500000 -0.116363
v -0.080000 -0.100000 0.108284
v -0.039071 0.504488 -0.116492
v 0.080000 -0.100000 -0.051716
v 0.039071 0.495512 -0.194635
v -0.080000 -0.100000 -0.051716
v -0.039200 0.500000 -0.194763
v -0.000453 0.862002 -0.169253
v 0.063526 0.310000 -0.035469
v -0.041829 0.319084 -0.035953
v -0.042313 0.310000 -0.141308
v 0.063042 0.300916 -0.140824
vn 0.5767 -0.4709 0.6677
vn 0.7289 0.2730 0.6279
vn -0.5824 -0.4631 0.6681
vn -0.7357 0.2237 0.6393
vn 0.6014 -0.6177 -0.5068
vn 0.6643 -0.0126 -0.7473
vn -0.6209 -0.6006 -0.5037
vn -0.6833 -0.0317 -0.7294
vn -0.0004 0.9993 -0.0381
vn 0.7059 0.2994 0.6419
vn -0.6744 0.3038 0.6730
vn -0.7132 -0.1370 -0.6874
vn 0.7194 -0.1063 -0.6864
vt 0.079880 0.060597
vt 0.148663 0.061803
vt 0.147759 0.071344
vt 0.079361 0.072213
vt 0.079623 0.041556
vt 0.148818 0.049966
vt 0.150551 0.059392
vt 0.081153 0.053083
vt 0.079628 0.074729
vt 0.147094 0.076376
vt 0.147906 0.085925
vt 0.080034 0.086349
vt 0.081078 0.013219
vt 0.150660 0.006918
vt 0.148926 0.016344
vt 0.079548 0.024745
vt 0.196478 0.100464
vt 0.196478 0.086773
vt 0.210169 0.086773
vt 0.210169 0.100464
vt 0.210169 0.033147
vt 0.210169 0.075170
vt 0.210169 0.073082
vt 0.011497 0.019520
vt 0.010169 0.033147
vt 0.012161 0.073082
vt 0.012161 0.086773
vt 0.010428 0.033147
vt 0.011756 0.046773
vt 0.011097 0.059392
vt 0.010963 0.073082
s 1
usemtl tree13
f 26/5/14 18/6/6 20/7/8 27/8/15
f 27/9/15 20/10/8 24/11/12 28/12/16
f 28/13/16 24/14/12 22/15/10 29/16/17
f 29/17/17 22/18/10 18/19/6 26/20/14
f 19/21/7 23/22/11 21/23/9 17/24/5
f 18/19/6 22/18/10 25/25/13
f 24/11/12 20/10/8 25/25/13
f 22/15/10 24/14/12 25/26/13
f 20/7/8 18/6/6 25/27/13
f 21/28/9 29/17/17 26/20/14 17/29/5
f 23/30/11 28/13/16 29/16/17 21/31/9
f 19/32/7 27/9/15 28/12/16 23/33/11
f 17/34/5 26/5/14 27/8/15 19/35/7
