# Blender 5.1.2
# www.blender.org
mtllib tree030.mtl
o tree030
v -0.982879 0.000000 0.997020
v 1.138442 0.000000 -1.124300
v -0.982878 3.000000 0.997021
v 1.138442 3.000000 -1.124300
v 0.975807 0.000000 0.961665
v -1.124300 0.000000 -1.138442
v 0.975807 3.000000 0.961665
v -1.124300 3.000000 -1.138442
v 0.961665 0.000000 0.975808
v -1.138442 0.000000 -1.124300
v 0.961665 3.000000 0.975807
v -1.138442 3.000000 -1.124300
v -0.997021 0.000000 0.982878
v 1.124300 0.000000 -1.138442
v -0.997021 3.000000 0.982878
v 1.124300 3.000000 -1.138442
vn 0.7071 -0.0000 0.7071
vn 0.7071 -0.0000 -0.7071
vn -0.7071 -0.0000 0.7071
vn -0.7071 -0.0000 -0.7071
vt 0.007812 0.007812
vt 0.992188 0.007812
vt 0.992188 0.992188
vt 0.007812 0.992188
s 0
usemtl tree30
f 1/1/1 2/2/1 4/3/1 3/4/1
f 5/1/2 6/2/2 8/3/2 7/4/2
f 9/1/3 11/4/3 12/3/3 10/2/3
f 13/1/4 15/4/4 16/3/4 14/2/4
o tree030_trunk
v 0.082071 -0.100000 0.082071
v 0.029329 0.510000 -0.013097
v -0.067929 -0.100000 0.082071
v -0.043459 0.508696 -0.013109
v 0.082071 -0.100000 -0.067929
v 0.029317 0.511304 -0.085886
v -0.067929 -0.100000 -0.067929
v -0.043471 0.510000 -0.085897
v -0.007524 0.762002 -0.063187
v 0.038412 0.230000 0.066696
v -0.059480 0.226582 0.066551
v -0.059625 0.230000 -0.031341
v 0.038267 0.233418 -0.031196
vn 0.6137 -0.5300 0.5852
vn 0.7170 0.2183 0.6620
vn -0.5830 -0.5580 0.5906
vn -0.7157 0.2270 0.6605
vn 0.6100 -0.5146 -0.6026
vn 0.6898 0.0210 -0.7237
vn -0.5798 -0.5411 -0.6091
vn -0.6851 0.0244 -0.7281
vn -0.0022 0.9986 -0.0523
vn 0.6608 0.1753 0.7298
vn -0.6843 0.1395 0.7158
vn -0.7457 0.0087 -0.6663
vn 0.7319 0.0327 -0.6807
vt 0.075158 0.058664
vt 0.143941 0.059870
vt 0.143037 0.069411
vt 0.074639 0.070280
vt 0.074901 0.039623
vt 0.144095 0.048033
vt 0.145829 0.057458
vt 0.076431 0.051149
vt 0.074906 0.072796
vt 0.142372 0.074443
vt 0.143184 0.083992
vt 0.075312 0.084416
vt 0.076356 0.011286
vt 0.145938 0.004985
vt 0.144204 0.014411
vt 0.074826 0.022812
vt 0.191756 0.098531
vt 0.191756 0.084840
vt 0.205447 0.084840
vt 0.205447 0.098531
vt 0.205447 0.031214
vt 0.205447 0.073237
vt 0.205447 0.071149
vt 0.006775 0.017587
vt 0.005447 0.031214
vt 0.007439 0.071149
vt 0.007439 0.084840
vt 0.005706 0.031214
vt 0.007034 0.044840
vt 0.006375 0.057458
vt 0.006241 0.071149
s 1
usemtl tree30
f 26/5/14 18/6/6 20/7/8 27/8/15
f 27/9/15 20/10/8 24/11/12 28/12/16
f 28/13/16 24/14/12 22/15/10 29/16/17
f 29/17/17 22/18/10 18/19/6 26/20/14
f 19/21/7 23/22/11 21/23/9 17/24/5
f 18/19/6 22/18/10 25/25/13
f 24/11/12 20/10/8 25/25/13
f 22/15/10 24/14/12 25/26/13
f 20/7/8 18/6/6 25/27/13
f 21/28/9 29/17/17 26/20/14 17/29/5
f 23/30/11 28/13/16 29/16/17 21/31/9
f 19/32/7 27/9/15 28/12/16 23/33/11
f 17/34/5 26/5/14 27/8/15 19/35/7
