# Blender 5.1.2
# www.blender.org
mtllib tree020.mtl
o tree020
v -1.053589 0.000000 1.067731
v 1.067731 0.000000 -1.053589
v -1.053589 3.000000 1.067731
v 1.067731 3.000000 -1.053589
v 1.067731 0.000000 1.053589
v -1.053589 0.000000 -1.067731
v 1.067731 3.000000 1.053589
v -1.053589 3.000000 -1.067731
v 1.053589 0.000000 1.067731
v -1.067731 0.000000 -1.053589
v 1.053589 3.000000 1.067731
v -1.067731 3.000000 -1.053589
v -1.067731 0.000000 1.053589
v 1.053589 0.000000 -1.067731
v -1.067731 3.000000 1.053589
v 1.053589 3.000000 -1.067731
v 0.007071 0.000000 -0.007071
v 0.007071 3.000000 -0.007071
v 0.007071 0.000000 0.007071
v 0.007071 3.000000 0.007071
v -0.007071 0.000000 0.007071
v -0.007071 3.000000 0.007071
v -0.007071 0.000000 -0.007071
v -0.007071 3.000000 -0.007071
vn 0.7071 -0.0000 0.7071
vn 0.7071 -0.0000 -0.7071
vn -0.7071 -0.0000 0.7071
vn -0.7071 -0.0000 -0.7071
vt 0.468750 0.007812
vt 0.992188 0.007812
vt 0.992188 0.992188
vt 0.468750 0.992188
vt 0.007812 0.007812
vt 0.007812 0.992188
s 0
usemtl tree20
f 19/1/1 2/2/1 4/3/1 20/4/1
f 17/1/2 6/2/2 8/3/2 18/4/2
f 21/1/3 22/4/3 12/3/3 10/2/3
f 23/1/4 24/4/4 16/3/4 14/2/4
f 5/5/2 17/1/2 18/4/2 7/6/2
f 1/5/1 19/1/1 20/4/1 3/6/1
f 9/5/3 11/6/3 22/4/3 21/1/3
f 13/5/4 15/6/4 24/4/4 23/1/4
o tree020_trunk
v 0.050000 -0.090000 0.050000
v 0.035071 0.820000 0.035071
v -0.050000 -0.090000 0.050000
v -0.020782 0.824052 0.034924
v 0.050000 -0.090000 -0.050000
v 0.034924 0.815948 -0.020782
v -0.050000 -0.090000 -0.050000
v -0.020929 0.820000 -0.020929
v 0.020760 1.072002 -0.006618
v 0.030464 0.460000 0.044607
v -0.037435 0.457629 0.044506
v -0.037536 0.460000 -0.023393
v 0.030364 0.462371 -0.023293
vn 0.5876 -0.5655 0.5787
vn 0.7016 0.0796 0.7081
vn -0.5840 -0.5685 0.5794
vn -0.6978 0.1397 0.7025
vn 0.5857 -0.5553 -0.5904
vn 0.7090 0.0344 -0.7044
vn -0.5821 -0.5588 -0.5908
vn -0.7070 0.0935 -0.7010
vn 0.0545 0.9970 -0.0545
vn 0.6995 0.0216 0.7143
vn -0.7072 0.0365 0.7061
vn -0.7137 0.0445 -0.6990
vn 0.7061 0.0272 -0.7075
vt 0.084521 0.155289
vt 0.085727 0.086506
vt 0.095268 0.087410
vt 0.096137 0.155808
vt 0.065480 0.155546
vt 0.073890 0.086351
vt 0.083315 0.084618
vt 0.077006 0.154016
vt 0.098653 0.155541
vt 0.100300 0.088075
vt 0.109849 0.087263
vt 0.110273 0.155135
vt 0.037143 0.154091
vt 0.030842 0.084509
vt 0.040267 0.086242
vt 0.048669 0.155621
vt 0.124388 0.038691
vt 0.110697 0.038691
vt 0.110697 0.025000
vt 0.124388 0.025000
vt 0.057071 0.025000
vt 0.099094 0.025000
vt 0.097006 0.025000
vt 0.043444 0.223672
vt 0.057071 0.225000
vt 0.097006 0.223007
vt 0.110697 0.223007
vt 0.057071 0.224741
vt 0.070697 0.223413
vt 0.083315 0.224072
vt 0.097006 0.224206
s 1
usemtl tree20
f 34/7/14 26/8/6 28/9/8 35/10/15
f 35/11/15 28/12/8 32/13/12 36/14/16
f 36/15/16 32/16/12 30/17/10 37/18/17
f 37/19/17 30/20/10 26/21/6 34/22/14
f 27/23/7 31/24/11 29/25/9 25/26/5
f 26/21/6 30/20/10 33/27/13
f 32/13/12 28/12/8 33/27/13
f 30/17/10 32/16/12 33/28/13
f 28/9/8 26/8/6 33/29/13
f 29/30/9 37/19/17 34/22/14 25/31/5
f 31/32/11 36/15/16 37/18/17 29/33/9
f 27/34/7 35/11/15 36/14/16 31/35/11
f 25/36/5 34/7/14 35/10/15 27/37/7
