# Blender 5.1.2
# www.blender.org
mtllib tree024.mtl
o tree024
v -1.124300 0.000000 1.138442
v 0.997021 0.000000 -0.982878
v -1.124300 3.000000 1.138442
v 0.997021 3.000000 -0.982878
v 1.117229 0.000000 1.103087
v -1.004092 0.000000 -1.018234
v 1.117229 3.000000 1.103087
v -1.004092 3.000000 -1.018234
v 1.103087 0.000000 1.117229
v -1.018234 0.000000 -1.004092
v 1.103087 3.000000 1.117229
v -1.018234 3.000000 -1.004092
v -1.138442 0.000000 1.124300
v 0.982878 0.000000 -0.997021
v -1.138442 3.000000 1.124300
v 0.982879 3.000000 -0.997020
vn 0.7071 -0.0000 0.7071
vn 0.7071 -0.0000 -0.7071
vn -0.7071 -0.0000 0.7071
vn -0.7071 -0.0000 -0.7071
vt 0.007812 0.007812
vt 0.992188 0.007812
vt 0.992188 0.992188
vt 0.007812 0.992188
s 0
usemtl tree24
f 1/1/1 2/2/1 4/3/1 3/4/1
f 5/1/2 6/2/2 8/3/2 7/4/2
f 9/1/3 11/4/3 12/3/3 10/2/3
f 13/1/4 15/4/4 16/3/4 14/2/4
o tree024_trunk
v 0.035858 -0.100000 0.078284
v -0.000284 0.940000 0.013858
v -0.064142 -0.100000 0.078284
v -0.056083 0.935259 0.013656
v 0.035858 -0.100000 -0.021716
v -0.000486 0.944741 -0.041941
v -0.064142 -0.100000 -0.021716
v -0.056284 0.940000 -0.042142
v -0.042879 1.342002 0.057022
v 0.016322 0.450000 0.072891
v -0.051577 0.447629 0.072790
v -0.051678 0.450000 0.004891
v 0.016222 0.452371 0.004992
vn 0.5877 -0.5655 0.5787
vn 0.7376 0.0538 0.6731
vn -0.5840 -0.5685 0.5794
vn -0.7372 0.0168 0.6755
vn 0.5857 -0.5553 -0.5904
vn 0.6748 0.1026 -0.7309
vn -0.5821 -0.5588 -0.5908
vn -0.6785 0.0543 -0.7326
vn -0.0360 0.9841 0.1737
vn 0.6918 0.0710 0.7186
vn -0.6923 0.0512 0.7198
vn -0.7194 -0.0105 -0.6946
vn 0.7245 0.0089 -0.6893
vt 0.084521 0.155289
vt 0.085727 0.086506
vt 0.095268 0.087410
vt 0.096137 0.155808
vt 0.065480 0.155546
vt 0.073890 0.086351
vt 0.083315 0.084618
vt 0.077006 0.154016
vt 0.098653 0.155541
vt 0.100300 0.088075
vt 0.109849 0.087263
vt 0.110273 0.155135
vt 0.037143 0.154091
vt 0.030842 0.084509
vt 0.040267 0.086242
vt 0.048669 0.155621
vt 0.124388 0.038691
vt 0.110697 0.038691
vt 0.110697 0.025000
vt 0.124388 0.025000
vt 0.057071 0.025000
vt 0.099094 0.025000
vt 0.097006 0.025000
vt 0.043444 0.223672
vt 0.057071 0.225000
vt 0.097006 0.223007
vt 0.110697 0.223007
vt 0.057071 0.224741
vt 0.070697 0.223413
vt 0.083315 0.224072
vt 0.097006 0.224206
s 1
usemtl tree24
f 26/5/14 18/6/6 20/7/8 27/8/15
f 27/9/15 20/10/8 24/11/12 28/12/16
f 28/13/16 24/14/12 22/15/10 29/16/17
f 29/17/17 22/18/10 18/19/6 26/20/14
f 19/21/7 23/22/11 21/23/9 17/24/5
f 18/19/6 22/18/10 25/25/13
f 24/11/12 20/10/8 25/25/13
f 22/15/10 24/14/12 25/26/13
f 20/7/8 18/6/6 25/27/13
f 21/28/9 29/17/17 26/20/14 17/29/5
f 23/30/11 28/13/16 29/16/17 21/31/9
f 19/32/7 27/9/15 28/12/16 23/33/11
f 17/34/5 26/5/14 27/8/15 19/35/7
