# Blender 5.1.2
# www.blender.org
mtllib tree093.mtl
o tree093
v -0.910047 0.000000 0.928432
v 0.928431 0.000000 -0.910047
v -0.910047 3.250000 0.928432
v 0.928431 3.250000 -0.910047
v 0.928432 0.000000 0.910047
v -0.910046 0.000000 -0.928431
v 0.928432 3.250000 0.910047
v -0.910046 3.250000 -0.928431
v 0.910047 0.000000 0.928432
v -0.928431 0.000000 -0.910046
v 0.910047 3.250000 0.928432
v -0.928431 3.250000 -0.910046
v -0.928432 0.000000 0.910047
v 0.910047 0.000000 -0.928431
v -0.928432 3.250000 0.910047
v 0.910047 3.250000 -0.928431
vn 0.7071 -0.0000 0.7071
vn 0.7071 -0.0000 -0.7071
vn -0.7071 -0.0000 0.7071
vn -0.7071 -0.0000 -0.7071
vt 0.125000 0.007812
vt 0.875000 0.007812
vt 0.875000 0.992188
vt 0.125000 0.992188
s 0
usemtl tree93
f 1/1/1 2/2/1 4/3/1 3/4/1
f 5/1/2 6/2/2 8/3/2 7/4/2
f 9/1/3 11/4/3 12/3/3 10/2/3
f 13/1/4 15/4/4 16/3/4 14/2/4
o tree093_trunk
v 0.034032 -0.100000 0.107758
v 0.053343 1.100000 0.018710
v -0.065968 -0.100000 0.107758
v -0.002455 1.095258 0.018509
v 0.034032 -0.100000 0.007757
v 0.053142 1.104741 -0.037088
v -0.065968 -0.100000 0.007757
v -0.002657 1.100000 -0.037290
v 0.031802 1.349211 -0.016067
v 0.051200 0.450000 0.066298
v -0.016699 0.447629 0.066197
v -0.016800 0.450000 -0.001702
v 0.051099 0.452371 -0.001602
vn 0.5635 -0.5651 0.6026
vn 0.7040 0.1007 0.7031
vn -0.6005 -0.5334 0.5957
vn -0.7087 0.1212 0.6950
vn 0.5684 -0.5897 -0.5737
vn 0.7013 0.0431 -0.7115
vn -0.6061 -0.5577 -0.5671
vn -0.7048 0.0634 -0.7066
vn 0.0241 0.9994 -0.0254
vn 0.7100 0.0396 0.7031
vn -0.6974 0.0934 0.7106
vn -0.7032 0.0135 -0.7109
vn 0.7146 -0.0373 -0.6986
vt 0.084521 0.155289
vt 0.085727 0.086506
vt 0.095268 0.087410
vt 0.096137 0.155808
vt 0.065480 0.155546
vt 0.073890 0.086351
vt 0.083315 0.084618
vt 0.077006 0.154016
vt 0.098653 0.155541
vt 0.100300 0.088075
vt 0.109849 0.087263
vt 0.110273 0.155135
vt 0.037143 0.154091
vt 0.030842 0.084509
vt 0.040267 0.086242
vt 0.048669 0.155621
vt 0.124388 0.038691
vt 0.110697 0.038691
vt 0.110697 0.025000
vt 0.124388 0.025000
vt 0.057071 0.025000
vt 0.099094 0.025000
vt 0.097006 0.025000
vt 0.043444 0.223672
vt 0.057071 0.225000
vt 0.097006 0.223007
vt 0.110697 0.223007
vt 0.057071 0.224741
vt 0.070697 0.223413
vt 0.083315 0.224072
vt 0.097006 0.224206
s 1
usemtl tree93
f 26/5/14 18/6/6 20/7/8 27/8/15
f 27/9/15 20/10/8 24/11/12 28/12/16
f 28/13/16 24/14/12 22/15/10 29/16/17
f 29/17/17 22/18/10 18/19/6 26/20/14
f 19/21/7 23/22/11 21/23/9 17/24/5
f 18/19/6 22/18/10 25/25/13
f 24/11/12 20/10/8 25/25/13
f 22/15/10 24/14/12 25/26/13
f 20/7/8 18/6/6 25/27/13
f 21/28/9 29/17/17 26/20/14 17/29/5
f 23/30/11 28/13/16 29/16/17 21/31/9
f 19/32/7 27/9/15 28/12/16 23/33/11
f 17/34/5 26/5/14 27/8/15 19/35/7
