# Blender 5.1.2
# www.blender.org
mtllib tree029.mtl
o tree029
v -1.053589 0.000000 1.067731
v 1.067731 0.000000 -1.053589
v -1.053589 3.000000 1.067731
v 1.067731 3.000000 -1.053589
v 1.046518 0.000000 1.032376
v -1.053589 0.000000 -1.067731
v 1.046518 3.000000 1.032376
v -1.053589 3.000000 -1.067731
v 1.032376 0.000000 1.046518
v -1.067731 0.000000 -1.053589
v 1.032376 3.000000 1.046518
v -1.067731 3.000000 -1.053589
v -1.067731 0.000000 1.053589
v 1.053589 0.000000 -1.067731
v -1.067731 3.000000 1.053589
v 1.053589 3.000000 -1.067731
vn 0.7071 -0.0000 0.7071
vn 0.7071 -0.0000 -0.7071
vn -0.7071 -0.0000 0.7071
vn -0.7071 -0.0000 -0.7071
vt 0.007812 0.007812
vt 0.992188 0.007812
vt 0.992188 0.992188
vt 0.007812 0.992188
s 0
usemtl tree29
f 1/1/1 2/2/1 4/3/1 3/4/1
f 5/1/2 6/2/2 8/3/2 7/4/2
f 9/1/3 11/4/3 12/3/3 10/2/3
f 13/1/4 15/4/4 16/3/4 14/2/4
o tree029_trunk
v 0.040858 -0.100000 0.040858
v 0.013858 1.090000 0.056284
v -0.069142 -0.100000 0.040858
v -0.041941 1.085258 0.056083
v 0.040858 -0.100000 -0.069142
v 0.013656 1.094741 0.000486
v -0.069142 -0.100000 -0.069142
v -0.042142 1.090000 0.000284
v -0.007524 1.582002 0.021666
v 0.030464 0.450000 0.030465
v -0.037435 0.447629 0.030364
v -0.037536 0.450000 -0.037536
v 0.030364 0.452371 -0.037435
vn 0.5820 -0.5676 0.5823
vn 0.6946 0.0357 0.7185
vn -0.5942 -0.5567 0.5805
vn -0.7028 0.0276 0.7109
vn 0.5801 -0.5572 -0.5942
vn 0.7094 0.0606 -0.7022
vn -0.5922 -0.5474 -0.5913
vn -0.7186 0.0592 -0.6929
vn 0.0130 0.9998 -0.0131
vn 0.7146 0.0084 0.6995
vn -0.7059 0.0114 0.7082
vn -0.6996 0.0595 -0.7121
vn 0.7066 0.0569 -0.7053
vt 0.084521 0.155289
vt 0.085727 0.086506
vt 0.095268 0.087410
vt 0.096137 0.155808
vt 0.065480 0.155546
vt 0.073890 0.086351
vt 0.083315 0.084618
vt 0.077006 0.154016
vt 0.098653 0.155541
vt 0.100300 0.088075
vt 0.109849 0.087263
vt 0.110273 0.155135
vt 0.037143 0.154091
vt 0.030842 0.084509
vt 0.040267 0.086242
vt 0.048669 0.155621
vt 0.124388 0.038691
vt 0.110697 0.038691
vt 0.110697 0.025000
vt 0.124388 0.025000
vt 0.057071 0.025000
vt 0.099094 0.025000
vt 0.097006 0.025000
vt 0.043444 0.223672
vt 0.057071 0.225000
vt 0.097006 0.223007
vt 0.110697 0.223007
vt 0.057071 0.224741
vt 0.070697 0.223413
vt 0.083315 0.224072
vt 0.097006 0.224206
s 1
usemtl tree29
f 26/5/14 18/6/6 20/7/8 27/8/15
f 27/9/15 20/10/8 24/11/12 28/12/16
f 28/13/16 24/14/12 22/15/10 29/16/17
f 29/17/17 22/18/10 18/19/6 26/20/14
f 19/21/7 23/22/11 21/23/9 17/24/5
f 18/19/6 22/18/10 25/25/13
f 24/11/12 20/10/8 25/25/13
f 22/15/10 24/14/12 25/26/13
f 20/7/8 18/6/6 25/27/13
f 21/28/9 29/17/17 26/20/14 17/29/5
f 23/30/11 28/13/16 29/16/17 21/31/9
f 19/32/7 27/9/15 28/12/16 23/33/11
f 17/34/5 26/5/14 27/8/15 19/35/7
