# Blender 5.1.2
# www.blender.org
mtllib tree008.mtl
o tree008
v -1.117229 0.000000 1.117229
v 1.004092 0.000000 -1.004092
v -1.117229 3.000000 1.117229
v 1.004092 3.000000 -1.004092
v 1.110158 0.000000 1.138442
v -1.011163 0.000000 -0.982878
v 1.110158 3.000000 1.138442
v -1.011163 3.000000 -0.982878
v 1.096016 0.000000 1.152584
v -1.025305 0.000000 -0.968736
v 1.096016 3.000000 1.152584
v -1.025305 3.000000 -0.968736
v -1.131371 0.000000 1.103087
v 0.989949 0.000000 -1.018234
v -1.131371 3.000000 1.103087
v 0.989950 3.000000 -1.018234
vn 0.7071 -0.0000 0.7071
vn 0.7071 -0.0000 -0.7071
vn -0.7071 -0.0000 0.7071
vn -0.7071 -0.0000 -0.7071
vt 0.007812 0.007812
vt 0.992188 0.007812
vt 0.992188 0.992188
vt 0.007812 0.992188
s 0
usemtl tree08
f 1/1/1 2/2/1 4/3/1 3/4/1
f 5/1/2 6/2/2 8/3/2 7/4/2
f 9/1/3 11/4/3 12/3/3 10/2/3
f 13/1/4 15/4/4 16/3/4 14/2/4
o tree008_trunk
v 0.075000 -0.100000 0.075000
v 0.035071 0.800000 0.105782
v -0.075000 -0.100000 0.075000
v -0.020728 0.795258 0.105580
v 0.075000 -0.100000 -0.075000
v 0.034870 0.804741 0.049983
v -0.075000 -0.100000 -0.075000
v -0.020929 0.800000 0.049782
v 0.006618 1.062002 0.064093
v 0.038288 0.450000 0.066572
v -0.031114 0.447577 0.066469
v -0.031217 0.450000 -0.002933
v 0.038185 0.452423 -0.002830
vn 0.5968 -0.5556 0.5789
vn 0.6848 0.0561 0.7266
vn -0.6010 -0.5517 0.5783
vn -0.6844 0.0500 0.7274
vn 0.5901 -0.5257 -0.6128
vn 0.7246 0.1119 -0.6800
vn -0.5947 -0.5223 -0.6112
vn -0.7261 0.1210 -0.6768
vn -0.0030 0.9987 -0.0502
vn 0.7162 -0.0065 0.6979
vn -0.7144 0.0076 0.6997
vn -0.6976 0.1377 -0.7032
vn 0.6944 0.1273 -0.7082
vt 0.078086 0.059313
vt 0.146869 0.060519
vt 0.145965 0.070060
vt 0.077566 0.070929
vt 0.077829 0.040272
vt 0.147023 0.048682
vt 0.148757 0.058108
vt 0.079359 0.051798
vt 0.077834 0.073445
vt 0.145300 0.075092
vt 0.146112 0.084641
vt 0.078240 0.085065
vt 0.079284 0.011935
vt 0.148866 0.005634
vt 0.147132 0.015060
vt 0.077753 0.023461
vt 0.194683 0.099180
vt 0.194683 0.085489
vt 0.208375 0.085489
vt 0.208375 0.099180
vt 0.208375 0.031863
vt 0.208375 0.073886
vt 0.208375 0.071798
vt 0.009702 0.018236
vt 0.008375 0.031863
vt 0.010367 0.071798
vt 0.010367 0.085489
vt 0.008634 0.031863
vt 0.009961 0.045489
vt 0.009303 0.058108
vt 0.009168 0.071798
s 1
usemtl tree08
f 26/5/14 18/6/6 20/7/8 27/8/15
f 27/9/15 20/10/8 24/11/12 28/12/16
f 28/13/16 24/14/12 22/15/10 29/16/17
f 29/17/17 22/18/10 18/19/6 26/20/14
f 19/21/7 23/22/11 21/23/9 17/24/5
f 18/19/6 22/18/10 25/25/13
f 24/11/12 20/10/8 25/25/13
f 22/15/10 24/14/12 25/26/13
f 20/7/8 18/6/6 25/27/13
f 21/28/9 29/17/17 26/20/14 17/29/5
f 23/30/11 28/13/16 29/16/17 21/31/9
f 19/32/7 27/9/15 28/12/16 23/33/11
f 17/34/5 26/5/14 27/8/15 19/35/7
