# Blender 5.1.2
# www.blender.org
mtllib tree075.mtl
o tree075
v -1.323704 0.000000 1.342089
v 1.066317 0.000000 -1.047933
v -1.323704 3.250000 1.342089
v 1.066317 3.250000 -1.047933
v 1.342089 0.000000 1.323704
v -1.047933 0.000000 -1.066317
v 1.342089 3.250000 1.323704
v -1.047933 3.250000 -1.066317
v 1.323704 0.000000 1.342089
v -1.066317 0.000000 -1.047933
v 1.323704 3.250000 1.342089
v -1.066317 3.250000 -1.047933
v -1.342089 0.000000 1.323704
v 1.047933 0.000000 -1.066317
v -1.342089 3.250000 1.323704
v 1.047933 3.250000 -1.066317
vn 0.7071 -0.0000 0.7071
vn 0.7071 -0.0000 -0.7071
vn -0.7071 -0.0000 0.7071
vn -0.7071 -0.0000 -0.7071
vt 0.007812 0.007812
vt 0.992188 0.007812
vt 0.992188 0.992188
vt 0.007812 0.992188
s 0
usemtl tree75
f 1/1/1 2/2/1 4/3/1 3/4/1
f 5/1/2 6/2/2 8/3/2 7/4/2
f 9/1/3 11/4/3 12/3/3 10/2/3
f 13/1/4 15/4/4 16/3/4 14/2/4
o tree075_trunk
v 0.057071 -0.100000 0.057071
v 0.012947 1.100000 0.000627
v -0.042929 -0.100000 0.057071
v -0.042852 1.095258 0.000425
v 0.057071 -0.100000 -0.042929
v 0.012745 1.104741 -0.055172
v -0.042929 -0.100000 -0.042929
v -0.043053 1.100000 -0.055373
v -0.000453 1.562002 -0.056116
v 0.043296 0.450000 -0.039609
v -0.024603 0.447629 -0.039710
v -0.024704 0.450000 -0.107609
v 0.043195 0.452371 -0.107508
vn 0.5749 -0.5235 0.6288
vn 0.6817 0.0503 0.7299
vn -0.5794 -0.5203 0.6274
vn -0.7000 0.0353 0.7133
vn 0.5926 -0.5991 -0.5385
vn 0.7136 0.0532 -0.6985
vn -0.5941 -0.5976 -0.5384
vn -0.7303 0.0535 -0.6810
vn 0.0310 0.9976 -0.0614
vn 0.7353 0.0641 0.6747
vn -0.7279 0.0435 0.6843
vn -0.6788 -0.0142 -0.7342
vn 0.6879 0.0116 -0.7257
vt 0.078701 0.064235
vt 0.147484 0.065441
vt 0.146580 0.074981
vt 0.078182 0.075851
vt 0.078444 0.045194
vt 0.147638 0.053603
vt 0.149372 0.063029
vt 0.079974 0.056720
vt 0.078449 0.078366
vt 0.145915 0.080013
vt 0.146727 0.089563
vt 0.078855 0.089986
vt 0.079899 0.016857
vt 0.149481 0.010556
vt 0.147747 0.019981
vt 0.078369 0.028383
vt 0.195299 0.104101
vt 0.195299 0.090410
vt 0.208990 0.090410
vt 0.208990 0.104101
vt 0.208990 0.036784
vt 0.208990 0.078808
vt 0.208990 0.076720
vt 0.010318 0.023158
vt 0.008990 0.036784
vt 0.010982 0.076720
vt 0.010982 0.090410
vt 0.009249 0.036784
vt 0.010577 0.050411
vt 0.009918 0.063029
vt 0.009783 0.076720
s 1
usemtl tree75
f 26/5/14 18/6/6 20/7/8 27/8/15
f 27/9/15 20/10/8 24/11/12 28/12/16
f 28/13/16 24/14/12 22/15/10 29/16/17
f 29/17/17 22/18/10 18/19/6 26/20/14
f 19/21/7 23/22/11 21/23/9 17/24/5
f 18/19/6 22/18/10 25/25/13
f 24/11/12 20/10/8 25/25/13
f 22/15/10 24/14/12 25/26/13
f 20/7/8 18/6/6 25/27/13
f 21/28/9 29/17/17 26/20/14 17/29/5
f 23/30/11 28/13/16 29/16/17 21/31/9
f 19/32/7 27/9/15 28/12/16 23/33/11
f 17/34/5 26/5/14 27/8/15 19/35/7
