# Blender 5.1.2
# www.blender.org
mtllib tree092.mtl
o tree092
v -0.910047 0.000000 0.928432
v 0.928431 0.000000 -0.910047
v -0.450427 3.250000 1.388051
v 1.388051 3.250000 -0.450427
v 0.928432 0.000000 0.910047
v -0.910046 0.000000 -0.928431
v 0.468812 3.250000 1.369666
v -1.369666 3.250000 -0.468812
v 0.910047 0.000000 0.928432
v -0.928431 0.000000 -0.910046
v 0.450427 3.250000 1.388051
v -1.388051 3.250000 -0.450427
v -0.928432 0.000000 0.910047
v 0.910047 0.000000 -0.928431
v -0.468812 3.250000 1.369666
v 1.369666 3.250000 -0.468812
vn 0.6934 -0.1961 0.6934
vn 0.6934 0.1961 -0.6934
vn -0.6934 -0.1961 0.6934
vn -0.6934 0.1961 -0.6934
vt 0.125000 0.007812
vt 0.875000 0.007812
vt 0.875000 0.992188
vt 0.125000 0.992188
s 0
usemtl tree92
f 1/1/1 2/2/1 4/3/1 3/4/1
f 5/1/2 6/2/2 8/3/2 7/4/2
f 9/1/3 11/4/3 12/3/3 10/2/3
f 13/1/4 15/4/4 16/3/4 14/2/4
o tree092_trunk
v 0.033072 -0.100000 0.033072
v 0.252364 1.306609 0.351359
v -0.066928 -0.100000 0.033072
v -0.209249 1.275444 0.308243
v 0.033072 -0.100000 -0.066928
v 0.209249 1.346825 -0.110254
v -0.066928 -0.100000 -0.066928
v -0.228364 1.311134 -0.129369
v -0.000453 1.474327 0.085306
v 0.072961 0.590756 0.209154
v -0.026048 0.588386 0.177943
v -0.026149 0.590756 0.110043
v 0.041750 0.593127 0.110144
v 0.142287 0.780213 0.259880
v -0.171285 0.754825 0.245531
v -0.185634 0.780213 -0.068040
v 0.141208 0.805602 -0.066962
vn 0.5593 -0.6877 0.4629
vn 0.6555 0.3439 0.6723
vn -0.6539 -0.5863 0.4782
vn -0.6696 0.3275 0.6666
vn 0.5271 -0.4751 -0.7046
vn 0.6421 0.4120 -0.6465
vn -0.5831 -0.4929 -0.6458
vn -0.6655 0.3774 -0.6440
vn -0.0665 0.9975 0.0240
vn 0.6225 -0.4058 0.6692
vn -0.6083 -0.4125 0.6781
vn -0.6469 -0.4444 -0.6197
vn 0.6989 -0.3256 -0.6368
vn 0.6622 -0.3641 0.6550
vn -0.6905 -0.3830 0.6137
vn -0.6361 -0.4295 -0.6411
vn 0.6239 -0.3782 -0.6839
vt 0.085124 0.120897
vt 0.085727 0.086506
vt 0.095268 0.087410
vt 0.095702 0.121609
vt 0.069685 0.120949
vt 0.073890 0.086351
vt 0.083315 0.084618
vt 0.080161 0.119317
vt 0.099476 0.121808
vt 0.100300 0.088075
vt 0.109849 0.087263
vt 0.110061 0.121199
vt 0.033992 0.119300
vt 0.030842 0.084509
vt 0.040267 0.086242
vt 0.044468 0.120932
vt 0.124388 0.038691
vt 0.110697 0.038691
vt 0.110697 0.025000
vt 0.124388 0.025000
vt 0.057071 0.025000
vt 0.099094 0.025000
vt 0.097006 0.025000
vt 0.043444 0.223672
vt 0.037143 0.154091
vt 0.048669 0.155621
vt 0.057071 0.225000
vt 0.097006 0.223007
vt 0.098653 0.155541
vt 0.110273 0.155135
vt 0.110697 0.223007
vt 0.057071 0.224741
vt 0.065480 0.155546
vt 0.077006 0.154016
vt 0.070697 0.223413
vt 0.083315 0.224072
vt 0.084521 0.155289
vt 0.096137 0.155808
vt 0.097006 0.224206
s 1
usemtl tree92
f 30/5/18 18/6/6 20/7/8 31/8/19
f 31/9/19 20/10/8 24/11/12 32/12/20
f 32/13/20 24/14/12 22/15/10 33/16/21
f 33/17/21 22/18/10 18/19/6 30/20/18
f 19/21/7 23/22/11 21/23/9 17/24/5
f 18/19/6 22/18/10 25/25/13
f 24/11/12 20/10/8 25/25/13
f 22/15/10 24/14/12 25/26/13
f 20/7/8 18/6/6 25/27/13
f 21/28/9 29/29/17 26/30/14 17/31/5
f 23/32/11 28/33/16 29/34/17 21/35/9
f 19/36/7 27/37/15 28/38/16 23/39/11
f 17/40/5 26/41/14 27/42/15 19/43/7
f 29/29/17 33/17/21 30/20/18 26/30/14
f 28/33/16 32/13/20 33/16/21 29/34/17
f 27/37/15 31/9/19 32/12/20 28/38/16
f 26/41/14 30/5/18 31/8/19 27/42/15
